  <svg viewBox="0 0 185 207" fill="none" xmlns="http://www.w3.org/2000/svg">
<path d="M169.985 39.6961C169.985 42.1961 169.985 44.6952 170.985 46.1961C171.985 47.697 171.485 47.197 173.485 48.1961C175.485 49.1952 176.985 46.1961 176.985 46.1961C176.985 46.1961 178.485 44.6952 179.485 43.6961C180.485 42.697 181.485 41.1952 181.985 40.1961C182.485 39.197 183.485 38.1952 183.485 37.1961C183.485 36.197 183.985 34.6952 184.485 32.6961C184.985 30.697 184.985 28.1952 184.985 25.1961C184.985 22.1969 184.985 20.6961 183.485 15.6961C181.985 10.6961 179.985 8.69521 178.485 7.19608C176.985 5.69695 175.485 3.69608 169.985 2.19608C164.485 0.69608 165.985 0.69608 157.985 0.19608C149.985 -0.30392 152.485 0.196538 147.485 1.19608C142.484 2.19562 141.984 2.19649 139.485 3.69608C136.985 5.19567 136.485 5.19489 133.985 7.69608C131.484 10.1973 131.484 13.1952 128.985 19.1961C126.485 25.1969 127.485 28.6952 127.485 31.6961C127.485 34.6969 127.484 38.6952 127.485 42.6961C127.485 46.697 129.484 50.1952 129.985 53.1961C130.485 56.197 132.984 64.1952 133.484 66.6952C133.984 69.1952 135.484 72.6952 137.485 77.6961C139.485 82.697 139.984 86.6952 141.485 90.1961C142.985 93.697 144.484 95.1952 143.985 101.196C143.485 107.197 143.984 107.695 143.985 111.696C143.985 115.697 144.984 116.195 143.985 123.696C142.985 131.197 141.984 132.195 140.485 137.196C138.985 142.197 138.984 141.195 136.485 146.196C133.985 151.197 131.984 153.195 129.985 155.696C127.985 158.197 124.484 162.195 119.485 166.696C114.485 171.197 110.984 171.195 105.985 175.196C100.985 179.197 99.9845 179.195 94.4848 182.196C88.9852 185.197 84.4845 186.695 81.9848 187.696C79.4852 188.697 69.9845 191.195 67.9848 191.696C65.9852 192.197 53.4848 193.696 53.4848 193.696C53.4848 193.696 55.9845 188.195 54.4848 187.696C52.9852 187.197 44.9848 187.696 44.9848 187.696H32.4848H18.4848H6.48484C6.48484 187.696 2.02717 188.601 0.48484 190.696C-1.05749 192.791 1.48484 193.695 2.48484 194.696C3.48484 195.697 7.48484 196.195 8.48484 196.696C9.48484 197.197 16.4848 199.695 18.4848 200.196C20.4848 200.697 32.4848 203.695 42.4848 205.196C52.4848 206.697 73.9848 205.643 81.4848 205.696C88.9848 205.75 98.9848 204.197 105.985 202.196C112.985 200.195 126.985 195.197 132.985 192.696C138.985 190.195 148.985 178.697 153.485 175.196C157.985 171.695 162.485 163.697 164.985 157.696C167.485 151.695 170.985 143.695 171.985 138.196C172.985 132.697 173.485 117.195 172.985 113.196C172.485 109.197 172.485 103.195 170.485 97.1961C168.485 91.197 166.485 84.1961 166.485 84.1961C166.485 84.1961 163.985 75.6952 161.985 70.1961C159.985 64.697 158.985 63.6952 157.985 61.6961C156.985 59.697 153.968 52.4012 152.985 49.6961C152.002 46.991 150.485 44.6952 150.485 39.6961V33.1961C150.485 30.197 149.985 27.6952 150.485 25.1961C150.985 22.6969 152.985 21.6952 153.985 20.6961C154.985 19.6969 155.985 19.1969 158.985 19.1961C161.985 19.1952 162.985 20.1952 164.485 20.6961C165.985 21.1969 166.485 21.1952 167.985 22.6961C169.485 24.1969 169.485 25.6952 169.985 27.6961C170.485 29.6969 169.985 31.6961 169.985 33.1961V39.6961Z" fill="#1A1717"/>
</svg>
