<svg width="60" height="222" viewBox="0 0 60 222"  xmlns="http://www.w3.org/2000/svg">
<path d="M44.2407 180.897C44.2498 178.228 44.2589 175.56 45.2576 173.961C46.2564 172.362 45.7579 172.894 47.7481 171.834C49.7384 170.775 51.2174 173.981 51.2174 173.981C51.2174 173.981 52.7018 175.589 53.6915 176.659C54.6811 177.729 55.669 179.335 56.162 180.404C56.655 181.472 57.6446 182.545 57.641 183.612C57.6373 184.678 58.1285 186.283 58.6179 188.419C59.1072 190.555 59.0981 193.226 59.0872 196.427C59.0763 199.629 59.0708 201.231 57.5627 206.564C56.0545 211.897 54.0607 214.026 52.5653 215.621C51.0699 217.217 49.5775 217.947 44.1089 219.53C38.6403 221.113 41.6353 221.123 33.6871 221.63C25.739 222.136 27.23 221.94 22.2668 220.856C17.3037 219.772 18.7911 220.513 16.3137 218.904C13.8363 217.294 13.8381 216.761 11.3636 214.083C8.88918 211.404 8.38873 208.201 6.93276 202.655C5.47679 197.109 4.47017 192.175 4.4811 188.971C4.49203 185.768 4.50875 180.762 4.52367 176.491C4.53859 172.22 4.05036 169.551 4.55827 166.349C5.06617 163.147 6.10084 155.346 6.60659 152.679C7.11234 150.012 7.62685 144.676 9.63198 139.344C11.6371 134.012 11.1489 131.344 12.6519 127.611C14.1549 123.879 13.1649 122.809 13.6834 116.405C14.2019 110.002 14.7164 104.667 14.7313 100.395C14.7462 96.1242 15.2422 96.1277 14.2766 88.1167C13.3109 80.1057 13.8251 74.7714 12.3537 69.4276C10.8823 64.0837 12.3862 59.8204 9.92149 54.4732C7.45681 49.126 8.96608 43.2614 6.98894 40.5848C5.0118 37.9082 7.51618 31.5131 2.56648 26.6912C-2.38323 21.8693 14.0399 11.7852 9.08839 7.49711L16.5636 0.0515725C23.5093 2.21136 17.5569 0.0529771 25.474 8.62059C33.3912 17.1882 29.9329 11.8385 35.8562 22.5345C41.7795 33.2304 36.8077 34.8148 37.7773 41.7573C38.7469 48.6999 35.7415 56.1636 36.7148 62.0376C37.6881 67.9117 39.6177 80.1972 39.1065 84.4649C38.5953 88.7325 41.0166 106.891 39.0082 113.289C36.9997 119.687 36.4908 127.693 36.4908 127.693C36.4908 127.693 33.4818 136.224 31.4752 142.088C29.4686 147.952 28.9683 149.02 27.9678 151.15C26.9672 153.281 27.4165 162.139 26.4305 165.024C25.4445 167.908 25.8993 175.165 25.881 180.502C25.8628 185.838 25.8683 184.238 26.354 187.442C26.8397 190.647 26.3431 190.645 27.3111 193.65C28.2791 196.655 28.3042 198.126 29.2938 199.196C30.2835 200.266 30.26 202.734 33.2399 202.745C36.2197 202.756 37.2166 201.692 38.7084 201.162C40.2002 200.632 40.6968 200.636 42.1922 199.039C43.6876 197.441 43.6931 195.842 44.197 193.708C44.7009 191.573 44.2116 189.437 44.217 187.836L44.2407 180.897L44.2407 180.897Z" fill="#694646"/>
</svg>
