<svg width="185" height="207" viewBox="0 0 185 207" fill="none" xmlns="http://www.w3.org/2000/svg">
<path d="M123.836 31.556C123.836 31.556 141.616 20.6784 143.088 17.2532C144.744 18.1592 159.723 17.8541 159.723 17.8541C159.723 17.8541 173.592 20.245 174.834 20.2536C176.076 20.2622 183.159 22.5248 184.414 20.3132C185.669 18.1015 184.443 15.9909 184.457 13.5298C184.472 11.0688 177.434 8.01773 177.434 8.01773C177.434 8.01773 170.67 7.17315 167.375 3.97639C164.081 0.779644 155.395 0.159982 149.184 0.11834C142.973 0.0766973 140.786 -0.491783 136.635 1.29598C132.484 3.08374 135.309 1.51234 129.56 3.74087C123.812 5.96939 124.91 5.20391 119.955 7.65973C115.001 10.1156 115.201 8.02873 110.231 12.0752C105.261 16.1216 106.435 17.0608 104.757 20.6766C103.08 24.2924 102.247 25.1935 102.213 31.0878C102.179 36.982 101.345 37.8831 102.142 43.3297C102.939 48.7764 103.725 53.3153 103.725 56.0366C103.725 58.7268 104.507 60.9299 106.099 65.4189L106.155 65.5753C107.785 70.1698 109.41 72.8547 109.824 75.576C110.238 78.2972 111.845 81.9408 112.259 84.2079C112.673 86.4749 112.205 85.1191 113.861 89.6541C115.518 94.189 115.931 97.8148 117.174 100.989C118.417 104.164 119.658 105.523 119.244 110.965C118.831 116.406 119.244 116.858 119.244 120.486C119.245 124.115 120.072 124.566 119.244 131.368C118.417 138.171 117.588 139.076 116.346 143.611C115.104 148.146 115.103 147.237 113.033 151.772C110.963 156.307 109.306 158.119 107.65 160.387C105.994 162.655 103.095 166.281 98.9542 170.362C94.8136 174.444 91.9145 174.442 87.7739 178.07C83.6333 181.698 82.8045 181.697 78.2499 184.418C73.6952 187.139 69.9678 188.498 67.8977 189.406C65.8276 190.313 57.9593 192.579 56.3033 193.033C54.6472 193.487 44.2947 194.847 44.2947 194.847C44.2947 194.847 46.3649 189.858 45.1229 189.406C43.8809 188.953 37.2553 189.406 37.2553 189.406H26.9031H15.3087H5.37057C5.37057 189.406 1.67885 190.226 0.401532 192.126C-0.875783 194.026 1.22971 194.846 2.05788 195.754C2.88605 196.661 6.19875 197.113 7.02692 197.567C7.85509 198.021 13.6523 200.287 15.3087 200.741C16.965 201.195 26.9031 203.914 35.1848 205.275C43.4666 206.636 61.2723 205.68 67.4836 205.729C73.6949 205.777 81.9767 204.369 87.7739 202.555C93.5711 200.74 105.166 196.208 110.135 193.94C115.104 191.672 123.385 181.245 127.112 178.07C130.839 174.896 134.566 167.643 136.636 162.201C138.707 156.759 141.605 149.504 142.433 144.518C143.262 139.531 143.676 125.473 143.262 121.847C142.847 118.22 142.847 112.778 141.191 107.337C139.535 101.897 137.878 95.5485 137.878 95.5485C137.878 95.5485 135.808 87.8396 134.152 82.8529C132.495 77.8661 131.667 76.9576 130.839 75.1448C130.011 73.3319 127.512 66.7159 126.698 64.2628C125.884 61.8097 124.628 59.7279 124.628 55.1945V49.3001C124.628 46.5804 122.864 42.2736 123.278 40.0073C123.692 37.741 123.836 31.556 123.836 31.556Z" fill="#1A1717"/>
</svg>
