<?xml version="1.0" encoding="utf-8"?>
<!-- Generator: Adobe Illustrator 16.0.0, SVG Export Plug-In . SVG Version: 6.00 Build 0)  -->
<!DOCTYPE svg PUBLIC "-//W3C//DTD SVG 1.1//EN" "http://www.w3.org/Graphics/SVG/1.1/DTD/svg11.dtd">
<svg version="1.1" id="Layer_1" xmlns="http://www.w3.org/2000/svg" xmlns:xlink="http://www.w3.org/1999/xlink" x="0px" y="0px"
	 width="841.89px" height="595.28px" viewBox="0 0 841.89 595.28" enable-background="new 0 0 841.89 595.28" xml:space="preserve">
<g>
	<path fill-rule="evenodd" clip-rule="evenodd" fill="#727579" d="M23.066,213.116c0-25.862,21.094-46.956,46.956-46.956
		c25.859,0,46.953,21.094,46.953,46.956s-21.094,46.956-46.953,46.956C44.16,260.071,23.066,238.978,23.066,213.116z"/>
	<path fill-rule="evenodd" clip-rule="evenodd" fill="#444648" d="M80.8,174.633c7.182,0,13.005,5.823,13.005,13.007
		c0,7.182-5.823,13.005-13.005,13.005c-7.184,0-13.007-5.823-13.007-13.005C67.793,180.457,73.616,174.633,80.8,174.633
		L80.8,174.633z M74.146,209.237c3.641,0,6.592,2.951,6.592,6.59c0,3.641-2.951,6.592-6.592,6.592c-3.639,0-6.59-2.951-6.59-6.592
		C67.556,212.188,70.507,209.237,74.146,209.237L74.146,209.237z M43.783,186.285c5.912,0,10.709,4.798,10.709,10.712
		c0,5.914-4.798,10.712-10.709,10.712c-5.917,0-10.712-4.798-10.712-10.712C33.07,191.083,37.866,186.285,43.783,186.285
		L43.783,186.285z M56.788,224.067c7.507,0,13.594,6.089,13.594,13.596c0,7.507-6.087,13.594-13.594,13.594
		c-7.507,0-13.597-6.087-13.597-13.594C43.191,230.156,49.28,224.067,56.788,224.067L56.788,224.067z M96.855,224.067
		c4.546,0,8.232,3.686,8.232,8.234c0,4.543-3.686,8.229-8.232,8.229c-4.546,0-8.229-3.686-8.229-8.229
		C88.625,227.752,92.309,224.067,96.855,224.067L96.855,224.067z M101.961,204.647c3.01,0,5.448,2.441,5.448,5.451
		c0,3.01-2.438,5.449-5.448,5.449c-3.008,0-5.449-2.438-5.449-5.449C96.512,207.088,98.953,204.647,101.961,204.647z"/>
	<path fill-rule="evenodd" clip-rule="evenodd" fill="#4E4D50" d="M13.311,288.169L8,287.644v-26.912l0.269,0.146l4.85,26.261
		L13.311,288.169z M834.665,294.074v16.717v9.272v4.909v19.472v28.162H424.696h-6.726H8v-13.567v-11.768v-4.24v-23.601v-1.763
		v-28.264l6.141,3.269l1.906,10.318l4.043-21.905l5.727-2.712l-5.353,0.686l5.873-31.806l5.15,27.888l-3.9-0.515l4.223,2.258
		l4.85,26.261l0.19,1.03l-9.366-0.927l10.197,5.432l1.607,8.705l3.306-17.892l9.391-5l-8.626,0.854l0.907-4.914l4.073-22.061
		l5.729-2.712l-5.355,0.686l5.873-31.806l5.15,27.889l-3.9-0.516l4.223,2.259l4.847,26.261l0.192,1.028l-9.366-0.924l10.197,5.431
		l2.527,13.678l2.742-14.849l11-5.86l-10.103,1.001l1.063-5.757l4.771-25.84l6.708-3.178l-6.27,0.804l6.881-37.259l6.033,32.669
		l-4.571-0.602l4.945,2.643l5.683,30.763l0.222,1.206l-10.971-1.083l11.947,6.361l1.122,6.08l2.611-14.139l12.107-6.45
		l-11.119,1.102l1.169-6.333l5.251-28.443l7.384-3.499l-6.9,0.882l7.571-41.006l6.642,35.955l-5.029-0.663l5.443,2.912l6.252,33.862
		l0.244,1.326l-12.076-1.193l13.15,7.001l5.306,28.744l2.741-14.832l11-5.858l-10.103,0.996l1.063-5.751l4.771-25.842l6.708-3.178
		l-6.27,0.804l6.881-37.259l6.03,32.668l-4.568-0.602l4.946,2.643l5.683,30.766l0.222,1.206l-10.971-1.085l11.945,6.363l4.021,21.76
		l0.91-4.929l8.974-4.778l-8.245,0.814l0.866-4.692l3.893-21.079l5.473-2.591l-5.113,0.656l5.609-30.393l4.923,26.648l-3.728-0.491
		l4.033,2.157l4.635,25.093l0.183,0.983l-8.949-0.885l9.743,5.19l0.209,1.146l0.895-4.842l9.393-5.002l-8.626,0.853l0.907-4.911
		l4.075-22.06l5.725-2.712l-5.354,0.685l5.875-31.806l5.15,27.888l-3.9-0.515l3.986,2.13v-1.43l0.271,0.146l4.849,26.261l0.19,1.03
		l-0.303-0.029l0.077,0.412l0.192,1.031l-9.366-0.925l4.09,2.177v-1.43l6.142,3.269l1.905,10.318l4.046-21.905l5.725-2.712
		l-5.353,0.686l5.875-31.806l5.15,27.888l-3.903-0.515l4.223,2.258l4.85,26.261l0.19,1.03l-9.366-0.927l10.197,5.432l1.539,8.332
		l0.141-0.007l3.234-17.512l9.391-5l-8.624,0.854l0.904-4.914l4.073-22.061l5.727-2.712l-5.353,0.686l5.875-31.806l5.148,27.889
		l-3.9-0.516l4.223,2.259l4.85,26.261l0.189,1.028l-9.366-0.924l10.197,5.431l2.527,13.678l2.742-14.849l11.003-5.86l-10.105,1.001
		l1.063-5.757l4.773-25.84l6.708-3.178l-6.272,0.804l6.881-37.259l6.033,32.669l-4.568-0.602l4.945,2.643l5.68,30.763l0.225,1.206
		l-10.974-1.083l11.947,6.361l1.122,6.08l2.611-14.139l12.11-6.45l-11.124,1.102l1.171-6.333l5.251-28.443l7.384-3.499l-6.9,0.882
		l7.574-41.006l6.639,35.955l-5.029-0.663l5.443,2.912l6.252,33.862l0.247,1.326l-12.076-1.193l13.148,7.001l5.308,28.744
		l2.739-14.832l11.003-5.858l-10.106,0.996l1.063-5.751l4.773-25.842l6.706-3.178l-6.27,0.804l6.881-37.259l6.033,32.668
		l-4.568-0.602l4.946,2.643l5.68,30.766l0.222,1.206l-10.971-1.085l11.947,6.363l4.019,21.76l0.907-4.929l8.974-4.778l-8.239,0.814
		l0.865-4.692l3.89-21.079l5.473-2.591l-5.115,0.656l5.613-30.393l4.921,26.648l-3.728-0.491l4.036,2.157l4.632,25.093l0.182,0.983
		l-8.952-0.885l9.746,5.19l0.212,1.146l0.895-4.842l9.391-5.002l-8.626,0.853l0.91-4.911l4.07-22.06l5.727-2.712l-5.353,0.685
		l5.873-31.806l5.15,27.888l-3.9-0.515l3.348,1.79v-1.09l0.269,0.146l0.222,1.206l0.385,0.207l4.849,26.261l0.19,1.031l-9.369-0.925
		l3.454,1.837v-1.09l6.139,3.269l0.225,1.208l0.362,0.192v1.765l1.319,7.152l4.046-21.905l5.727-2.712l-5.353,0.686l5.873-31.806
		l5.15,27.888l-3.9-0.515l4.221,2.258l4.85,26.261l0.189,1.03l-9.366-0.927l10.199,5.432l1.607,8.705l3.304-17.892l9.394-5
		l-8.627,0.854l0.907-4.914l4.07-22.061l5.73-2.712l-5.355,0.686l5.873-31.806l5.152,27.889l-3.902-0.516l4.226,2.259l4.847,26.261
		l0.189,1.028l-9.363-0.924l10.197,5.431l2.524,13.678l2.741-14.849l11.003-5.86l-10.105,1.001l1.065-5.757l4.771-25.84l6.708-3.178
		l-6.27,0.804l6.881-37.259l6.03,32.669l-4.568-0.602l4.948,2.643l5.68,30.763l0.223,1.206l-10.974-1.083l11.947,6.361l1.122,6.08
		l2.613-14.139l12.107-6.45l-11.122,1.102l1.169-6.333l5.254-28.443l7.384-3.499l-6.903,0.882l7.574-41.006l6.642,35.955
		l-5.032-0.663l5.443,2.912l6.255,33.862l0.244,1.326l-12.078-1.193l13.15,7.001l5.309,28.744l2.741-14.832l11-5.858l-10.105,0.996
		l1.065-5.751l4.771-25.842l6.708-3.178l-6.271,0.804l6.881-37.259l6.032,32.668l-4.568-0.602l4.946,2.643l5.68,30.766l0.225,1.206
		l-10.971-1.085l11.944,6.363l4.019,21.76l0.91-4.929l8.974-4.778l-8.242,0.814l0.868-4.692l3.891-21.079l5.471-2.591l-5.113,0.656
		l5.611-30.393l4.921,26.648l-3.726-0.491l4.033,2.157l4.636,25.093l0.18,0.983l-8.949-0.885l9.743,5.19l0.212,1.146l0.895-4.842
		l9.391-5.002l-8.624,0.853l0.907-4.911l4.073-22.06l5.725-2.712l-5.353,0.685l5.875-31.806l5.15,27.888l-3.9-0.515l3.986,2.13
		v-1.43l0.27,0.146l4.852,26.261l0.188,1.03l-0.301-0.029l0.076,0.412l0.189,1.031l-9.365-0.925l4.092,2.177v-1.43l6.142,3.269
		l1.905,10.318l4.044-21.905l5.727-2.712l-5.353,0.686l5.873-31.806l5.15,27.888l-3.9-0.515l4.221,2.258l4.852,26.261l0.19,1.03
		l-9.366-0.927l10.196,5.432l1.541,8.332l0.139-0.007l3.234-17.512l9.391-5l-8.626,0.854l0.906-4.914l4.073-22.061l5.728-2.712
		l-5.355,0.686l5.875-31.806l5.15,27.889l-3.9-0.516l4.224,2.259l4.847,26.261l0.192,1.028l-9.368-0.924l10.199,5.431l2.524,13.678
		l2.741-14.849l11.003-5.86l-10.103,1.001l1.063-5.757l4.771-25.84l6.708-3.178l-6.27,0.804l6.881-37.259l6.03,32.669l-4.568-0.602
		l4.946,2.643l5.682,30.763l0.223,1.206l-10.971-1.083l11.944,6.361l1.124,6.08l2.608-14.139l12.112-6.45l-11.123,1.102l1.171-6.333
		l5.251-28.443l7.384-3.499l-6.903,0.882l7.574-41.006l6.639,35.955l-5.029-0.663l5.446,2.912l6.252,33.862l0.247,1.326
		l-12.078-1.193l13.147,7.001l5.309,28.744l2.741-14.832l11.003-5.858l-10.108,0.996l1.065-5.751l4.771-25.842l6.711-3.178
		l-6.272,0.804l6.879-37.259l6.035,32.668l-4.571-0.602l4.948,2.643l5.681,30.766l0.225,1.206l-10.977-1.085l11.947,6.363
		l4.019,21.76l0.91-4.929l8.974-4.778l-8.242,0.814l0.868-4.692l3.891-21.079l5.473-2.591l-5.112,0.656l5.61-30.393l4.919,26.648
		l-3.726-0.491l4.033,2.157l4.636,25.093l0.18,0.983l-8.947-0.885l9.743,5.19l0.212,1.146l0.893-4.842l9.394-5.002l-8.629,0.853
		l0.909-4.911l4.073-22.06l5.725-2.712l-5.35,0.685l5.872-31.806l5.15,27.888l-3.9-0.515l4.221,2.258l4.852,26.261l0.188,1.031
		l-9.363-0.925L834.665,294.074z M23.734,307.204l-6.785,0.671l0.493,2.683L23.734,307.204z M91.54,319.98l-4.218-0.681l1.063,0.717
		L91.54,319.98z M113.573,314.675l-10.3,1.656l0.646,3.496l2.057-0.024L113.573,314.675z M136.661,312.254l-16.646-2.678
		l14.635,9.874l0.683-0.01L136.661,312.254z M170.089,318.656l-13.562-2.182l3.94,2.657l9.556-0.116L170.089,318.656z
		 M229.042,307.204l-6.79,0.671l0.496,2.683L229.042,307.204z M341.966,312.254l-16.646-2.678l5.441,3.671l11.111-0.485
		L341.966,312.254z M433.707,307.204l-6.789,0.671l0.495,2.683L433.707,307.204z M501.513,319.98l-4.223-0.681l1.064,0.717
		L501.513,319.98z M523.544,314.675l-10.298,1.656l0.643,3.496l2.057-0.024L523.544,314.675z M546.629,312.254l-16.644-2.678
		l14.635,9.874l0.683-0.01L546.629,312.254z M580.061,318.656l-13.563-2.182l3.939,2.657l9.556-0.116L580.061,318.656z
		 M639.013,307.204l-6.788,0.671l0.493,2.683L639.013,307.204z M751.935,312.254l-16.646-2.678l5.443,3.671l11.109-0.485
		L751.935,312.254z"/>
	<path fill-rule="evenodd" clip-rule="evenodd" d="M826.413,342.218l-4.046-21.905l-5.727-2.712l5.353,0.686l-5.873-31.806
		l-4.07,22.048l-2.924-15.838l-7.386-3.498l6.9,0.885l-7.571-41.009l-6.642,35.958l5.029-0.663l-5.443,2.909l-1.822,9.878
		l-4.319-23.381l-5.15,27.888l3.903-0.516l-4.224,2.256l-4.85,26.262l-0.189,1.03l8.794-0.867l-0.052,0.273l-9.573,5.101
		l-2.527,13.678l-2.741-14.852l-11.003-5.857l10.104,0.999l-1.061-5.755l-4.773-25.839l-6.708-3.178l6.27,0.801l-6.878-37.257
		l-6.033,32.669l4.571-0.604l-4.948,2.643l-5.683,30.765l-0.222,1.208l10.973-1.085l-11.944,6.361l-1.127,6.077l-2.608-14.137
		l-12.109-6.447l11.121,1.098l-1.169-6.331l-5.251-28.443l-7.387-3.499l6.903,0.885l-7.573-41.012l-6.643,35.958l5.032-0.663
		l-5.446,2.909l-6.252,33.865l-0.246,1.326l12.08-1.193l-13.15,7.002l-5.308,28.743l-2.739-14.831l-11.003-5.86l10.105,1.001
		l-1.063-5.754l-4.771-25.843l-6.711-3.178l6.271,0.804l-6.883-37.259l-6.03,32.669l4.568-0.602l-4.945,2.643l-5.683,30.766
		l-0.22,1.205l10.971-1.085l-11.947,6.361l-4.019,21.762l-0.91-4.929l-8.974-4.777l8.244,0.815l-0.867-4.693l-3.891-21.077
		l-5.474-2.594l5.113,0.656l-5.611-30.391l-4.921,26.646l3.728-0.49l-4.035,2.157l-4.633,25.093l-0.183,0.983l8.95-0.883
		l-9.744,5.188l-0.212,1.146l-0.895-4.843l-9.391-4.999l8.626,0.851l-0.909-4.911l-4.07-22.061l-5.728-2.712l5.35,0.686
		l-5.872-31.806l-5.147,27.888l3.9-0.515l-4.224,2.256l-0.273,1.008l-4.403,23.843l-0.189,1.03l0.091-0.01l-0.074,0.393l-0.189,1.03
		l9.366-0.925l-10.027,4.017l-1.903,10.317l-4.046-21.905l-5.725-2.712l5.353,0.686l-5.875-31.806l-4.072,22.048l-2.924-15.838
		l-7.384-3.498l6.902,0.885l-7.573-41.009l-6.64,35.958l5.027-0.663l-5.443,2.909l-1.822,9.878l-4.319-23.381l-5.15,27.888
		l3.903-0.516l-4.227,2.256l-4.847,26.262l-0.189,1.03l8.794-0.867l-0.05,0.273l-9.577,5.101l-2.525,13.678l-2.741-14.852
		l-11.003-5.857l10.104,0.999l-1.061-5.755l-4.773-25.839l-6.708-3.178l6.27,0.801l-6.881-37.257l-6.03,32.669l4.568-0.604
		l-4.945,2.643l-5.683,30.765l-0.225,1.208l10.976-1.085l-11.947,6.361l-1.124,6.077l-2.608-14.137l-12.109-6.447l11.121,1.098
		l-1.169-6.331l-5.254-28.443l-7.384-3.499l6.901,0.885l-7.571-41.012l-6.64,35.958l5.029-0.663l-5.446,2.909l-6.254,33.865
		l-0.244,1.326l12.078-1.193l-13.148,7.002l-5.311,28.743l-2.739-14.831l-11-5.86l10.105,1.001l-1.065-5.754l-4.771-25.843
		l-6.71-3.178l6.271,0.804l-6.879-37.259l-6.035,32.669l4.571-0.602l-4.948,2.643l-5.68,30.766l-0.223,1.205l10.972-1.085
		l-11.945,6.361L465.6,348.83l-0.91-4.929l-8.974-4.777l8.242,0.815l-0.868-4.693l-3.891-21.077l-5.473-2.594l5.115,0.656
		l-5.613-30.391l-4.919,26.646l3.726-0.49l-4.033,2.157l-4.635,25.093l-0.181,0.983l8.95-0.883l-9.744,5.188l-0.214,1.146
		l-0.893-4.843l-9.394-4.999l8.629,0.851l-0.909-4.911l-4.073-22.061l-5.727-2.712l5.352,0.686l-5.872-31.806l-5.15,27.888
		l3.9-0.515l-3.553,1.9v-1.2l-0.269,0.146l-0.246,1.328l-0.153,0.082l-4.85,26.264l-0.189,1.03l9.366-0.925l-3.659,1.948v-1.201
		l-6.141,3.27l-0.247,1.328l-0.131,0.072v0.648l-1.528,8.269l-4.046-21.905l-5.725-2.712l5.353,0.686l-5.873-31.806l-4.073,22.048
		l-2.926-15.838l-7.384-3.498l6.903,0.885l-7.574-41.009l-6.639,35.958l5.029-0.663l-5.443,2.909l-1.824,9.878l-4.319-23.381
		l-5.148,27.888l3.9-0.516l-4.223,2.256l-4.85,26.262l-0.19,1.03l8.796-0.867l-0.052,0.273l-9.575,5.101l-2.527,13.678
		l-2.741-14.852l-11.003-5.857l10.105,0.999l-1.063-5.755l-4.771-25.839l-6.711-3.178l6.272,0.801l-6.881-37.257l-6.033,32.669
		l4.568-0.604l-4.946,2.643l-5.68,30.765l-0.222,1.208l10.971-1.085l-11.947,6.361l-1.122,6.077l-2.611-14.137l-12.11-6.447
		l11.124,1.098l-1.171-6.331l-5.251-28.443l-7.384-3.499l6.901,0.885l-7.571-41.012l-6.642,35.958l5.029-0.663l-5.444,2.909
		l-6.252,33.865l-0.247,1.326l12.078-1.193l-13.15,7.002l-5.308,28.743l-2.739-14.831l-11.003-5.86l10.105,1.001l-1.063-5.754
		l-4.773-25.843l-6.706-3.178l6.267,0.804l-6.878-37.259L272,287.78l4.571-0.602l-4.948,2.643l-5.68,30.766l-0.222,1.205
		l10.971-1.085l-11.947,6.361l-4.019,21.762l-0.91-4.929l-8.972-4.777l8.242,0.815l-0.868-4.693l-3.891-21.077l-5.473-2.594
		l5.113,0.656l-5.611-30.391l-4.921,26.646l3.728-0.49l-4.036,2.157l-4.632,25.093l-0.183,0.983l8.949-0.883l-9.743,5.188
		l-0.212,1.146l-0.893-4.843l-9.393-4.999l8.626,0.851l-0.907-4.911l-4.073-22.061l-5.727-2.712l5.353,0.686l-5.873-31.806
		l-5.15,27.888l3.9-0.515l-4.223,2.256l-0.274,1.008l-4.403,23.843l-0.189,1.03l0.091-0.01l-0.074,0.393l-0.19,1.03l9.366-0.925
		l-10.027,4.017l-1.903,10.317l-4.043-21.905l-5.729-2.712l5.354,0.686l-5.875-31.806l-4.07,22.048l-2.924-15.838l-7.386-3.498
		l6.903,0.885L186,249.068l-6.642,35.958l5.032-0.663l-5.446,2.909l-1.822,9.878l-4.319-23.381l-5.15,27.888l3.903-0.516
		l-4.223,2.256l-4.85,26.262l-0.19,1.03l8.796-0.867l-0.054,0.273l-9.575,5.101l-2.525,13.678l-2.741-14.852l-11.003-5.857
		l10.105,0.999l-1.063-5.755l-4.773-25.839l-6.708-3.178l6.272,0.801l-6.881-37.257l-6.033,32.669l4.571-0.604l-4.948,2.643
		l-5.68,30.765l-0.224,1.208l10.973-1.085l-11.947,6.361l-1.122,6.077l-2.611-14.137l-12.11-6.447l11.121,1.098l-1.168-6.331
		l-5.251-28.443l-7.384-3.499l6.901,0.885l-7.574-41.012l-6.639,35.958l5.029-0.663l-5.446,2.909l-6.252,33.865l-0.244,1.326
		l12.078-1.193l-13.15,7.002l-5.308,28.743L86.986,331.2l-11.003-5.86l10.105,1.001l-1.063-5.754l-4.771-25.843l-6.71-3.178
		l6.271,0.804l-6.881-37.259l-6.033,32.669l4.568-0.602l-4.945,2.643l-5.683,30.766l-0.22,1.205l10.971-1.085l-11.947,6.361
		l-4.016,21.762l-0.912-4.929l-8.972-4.777l8.242,0.815l-0.868-4.693l-3.893-21.077l-5.471-2.594l5.113,0.656L43.26,281.84
		l-4.921,26.646l3.728-0.49l-4.036,2.157l-4.632,25.093l-0.183,0.983l8.949-0.883l-9.745,5.188l-0.21,1.146l-0.895-4.843
		l-9.391-4.999l8.626,0.851l-0.91-4.911l-4.07-22.061l-5.729-2.712l5.355,0.686l-5.873-31.806l-5.15,27.888l3.9-0.515l-4.223,2.256
		l-4.85,26.264l-0.19,1.03l9.366-0.925L8,333.301v25.99l9.553-1.536L8,364.196v15.737v3.737v44.285h205.098h6.292h198.582h6.519
		h198.579h6.292h205.101v-29.69v-11.768v-4.24v-2.324v-21.276l-4.458,3.005l-0.725-3.935l5.183-0.833v-28.264l-6.145,3.27
		L826.413,342.218z M27.852,365.286l-5.301-3.577l5.789,0.932L27.852,365.286z M33.675,369.214l-4.857-3.274l12.751-2.051
		L33.675,369.214z M51.507,371.151l-5.165-3.486l5.641,0.91L51.507,371.151z M58.444,364.078l-1.144-6.195l13.562-2.182
		L58.444,364.078z M86.628,362.801l-0.693,3.755l-9.22-6.22l10.954,1.763L86.628,362.801z M92.136,359.086l-1.405-7.605
		l16.646-2.678L92.136,359.086z M123.247,360.262l-9.428-6.358l10.298,1.654L123.247,360.262z M130.372,365.069l-5.963-4.023
		l15.662-2.52L130.372,365.069z M155.869,369.869l-9.945-6.711l16.06,2.584L155.869,369.869z M162.042,365.703l-0.828-4.487
		l4.203-0.676L165,362.796l1.775-0.285L162.042,365.703z M175.503,305.92l-2.177-1.03l2.313,0.296L175.503,305.92z M177.054,364.283
		l-1.023-0.69l1.652,0.267L177.054,364.283z M181.839,322.699l-0.209-1.144l2.895-0.289L181.839,322.699z M193.298,328.469
		l-3.942-2.101l4.253,0.421L193.298,328.469z M198.13,314.748l-0.124-0.658l1.795-0.236L198.13,314.748z M209.947,349.781
		l-5.932-3.158l-0.029-0.157l6.457,0.636L209.947,349.781z M214.935,361.662l-0.479-2.591l8.195-1.316L214.935,361.662z
		 M232.949,365.286l-5.301-3.577l5.789,0.932L232.949,365.286z M238.772,369.214l-4.854-3.274l12.751-2.051L238.772,369.214z
		 M256.604,371.151l-5.163-3.486l5.638,0.91L256.604,371.151z M263.544,364.078l-1.144-6.195l13.56-2.182L263.544,364.078z
		 M291.726,362.801l-0.693,3.755l-9.22-6.22l10.954,1.763L291.726,362.801z M297.234,359.086l-1.405-7.605l16.646-2.678
		L297.234,359.086z M328.345,360.262l-9.428-6.358l10.298,1.654L328.345,360.262z M335.469,365.069l-5.963-4.023l15.662-2.52
		L335.469,365.069z M360.966,369.869l-9.945-6.711l16.06,2.584L360.966,369.869z M367.142,365.703l-0.828-4.487l4.201-0.676
		l-0.417,2.256l1.775-0.285L367.142,365.703z M380.601,305.92l-2.177-1.03l2.313,0.296L380.601,305.92z M382.151,364.283
		l-1.023-0.69l1.652,0.267L382.151,364.283z M386.939,322.699l-0.212-1.144l2.897-0.289L386.939,322.699z M398.398,328.469
		l-3.945-2.101l4.255,0.421L398.398,328.469z M403.228,314.748l-0.121-0.658l1.794-0.236L403.228,314.748z M415.044,349.781
		l-5.932-3.158l-0.03-0.157l6.457,0.636L415.044,349.781z M424.489,359.801v-1.144l-4.455,3.005l-0.486-2.626l7.976-1.281
		L424.489,359.801z M437.82,365.286l-5.301-3.577l5.788,0.932L437.82,365.286z M443.646,369.214l-4.856-3.274l12.751-2.051
		L443.646,369.214z M461.478,371.151l-5.165-3.486l5.641,0.91L461.478,371.151z M468.415,364.078l-1.144-6.195l13.562-2.182
		L468.415,364.078z M496.6,362.801l-0.693,3.755l-9.22-6.22l10.953,1.763L496.6,362.801z M502.104,359.086l-1.402-7.605
		l16.646-2.678L502.104,359.086z M533.218,360.262l-9.428-6.358l10.296,1.654L533.218,360.262z M540.343,365.069l-5.966-4.023
		l15.662-2.52L540.343,365.069z M565.837,369.869l-9.942-6.711l16.06,2.584L565.837,369.869z M572.013,365.703l-0.828-4.487
		l4.201-0.676l-0.417,2.256l1.777-0.285L572.013,365.703z M585.474,305.92l-2.179-1.03l2.313,0.296L585.474,305.92z
		 M587.024,364.283l-1.022-0.69l1.649,0.267L587.024,364.283z M591.808,322.699l-0.21-1.144l2.897-0.289L591.808,322.699z
		 M603.27,328.469l-3.942-2.101l4.253,0.421L603.27,328.469z M608.099,314.748l-0.12-0.658l1.797-0.236L608.099,314.748z
		 M619.918,349.781l-5.935-3.158l-0.029-0.157l6.457,0.636L619.918,349.781z M624.905,361.662l-0.479-2.591l8.195-1.316
		L624.905,361.662z M642.92,365.286l-5.303-3.577l5.791,0.932L642.92,365.286z M648.743,369.214l-4.856-3.274l12.751-2.051
		L648.743,369.214z M666.575,371.151l-5.165-3.486l5.641,0.91L666.575,371.151z M673.513,364.078l-1.144-6.195l13.562-2.182
		L673.513,364.078z M701.697,362.801l-0.693,3.755l-9.22-6.22l10.953,1.763L701.697,362.801z M707.205,359.086l-1.405-7.605
		l16.644-2.678L707.205,359.086z M738.315,360.262l-9.428-6.358l10.296,1.654L738.315,360.262z M745.44,365.069l-5.964-4.023
		l15.662-2.52L745.44,365.069z M770.938,369.869l-9.945-6.711l16.06,2.584L770.938,369.869z M777.11,365.703l-0.828-4.487
		l4.204-0.676l-0.417,2.256l1.774-0.285L777.11,365.703z M790.571,305.92l-2.179-1.03l2.314,0.296L790.571,305.92z M792.122,364.283
		l-1.022-0.69l1.651,0.267L792.122,364.283z M796.908,322.699l-0.213-1.144l2.897-0.289L796.908,322.699z M808.367,328.469
		l-3.942-2.101l4.253,0.421L808.367,328.469z M813.199,314.748l-0.123-0.658l1.794-0.236L813.199,314.748z M825.018,349.781
		l-5.934-3.158l-0.029-0.157l6.454,0.636L825.018,349.781z M834.461,299.959v26.912l-5.311,0.524l0.189-1.03l4.85-26.261
		L834.461,299.959z"/>
</g>
</svg>
