<?xml version="1.0" encoding="utf-8"?>
<!-- Generator: Adobe Illustrator 16.0.0, SVG Export Plug-In . SVG Version: 6.00 Build 0)  -->
<!DOCTYPE svg PUBLIC "-//W3C//DTD SVG 1.1//EN" "http://www.w3.org/Graphics/SVG/1.1/DTD/svg11.dtd">
<svg version="1.1" id="Layer_1" xmlns="http://www.w3.org/2000/svg" xmlns:xlink="http://www.w3.org/1999/xlink" x="0px" y="0px"
	 width="841.89px" height="595.28px" viewBox="0 0 841.89 595.28" enable-background="new 0 0 841.89 595.28" xml:space="preserve">
<g>
	<path fill="#010101" d="M835.318,391.838l-29.636-0.313c1.145,1.455,2.333,2.806,3.562,4.01c-1.729-1.374-3.51-2.71-5.324-4.027
		l-14.166-0.149c0.086,0.869,0.169,1.738,0.257,2.601c9.803,19.208,26.617,33.227,44.634,42.352
		c-10.395-1.132-21.134-1.513-30.49-6.802c3.809,2.645,10.394,6.425,12.476,10.205c-7.971-2.268-15.94-7.18-23.562-8.692
		c2.078,5.667,6.583,12.093,10.395,17.003c-9.011-3.776-14.901-9.825-22.522-15.49c0,1.215-0.065,2.521-0.118,3.861
		c3.182,5.184,6.209,10.405,8.774,15.766c-7.106-1.06-14.214,0-21.322-1.06c-1.92-0.223-3.768-0.566-5.587-0.965
		c-0.034,0.307-0.08,0.604-0.111,0.915c-0.427-0.379-0.823-0.788-1.206-1.213c-5.363-1.257-10.497-2.896-16.261-3.373
		c-0.635,1.436-1.281,2.85-1.938,4.207c-0.561-1.398-0.931-2.861-1.195-4.348c-0.033,0-0.063-0.002-0.099-0.002
		c-5.875-0.111-11.744-0.175-17.616-0.247c-2.67,1.559-5.483,2.414-8.461,1.948c0.469-0.679,0.999-1.359,1.568-2.038
		c-19.753-0.291-39.506-0.902-59.256-3.905c-8.119-1.063-45.689,3.185-49.748-5.307c-0.771-1.609,0.428-4.786,2.549-8.575
		c-1.754-2.423-3.164-5.208-5.011-7.992c-2.231,5.466-3.899,10.328-4.457,16.097c-4.458-3.945-5.852-11.234-8.078-16.708
		c-2.784,5.167-5.014,11.241-7.522,16.406c-1.948-4.862-1.111-10.631-2.229-15.193c-5.568,4.261-11.974,14.284-19.773,13.067
		c3.343-4.864,10.584-9.72,10.584-16.405c-4.179,1.521-8.358,5.469-12.535,7.599c-4.179,2.125-8.634,3.942-12.813,5.466
		c1.114-6.077,8.078-10.026,9.75-15.797c-5.852,3.643-18.942,14.584-26.184,10.935c10.028-6.379,18.105-16.407,26.462-25.519
		c1.384-1.51,2.791-3.08,4.175-4.695l-4.157-0.014c-3.995,1.773-8.15,2.842-11.997,1.975c0.828-0.646,1.66-1.315,2.494-2.003
		l-112.32-0.346c0.022-0.085,0.04-0.173,0.064-0.261l-125.905-0.387c0.288,0.661,0.569,1.322,0.866,1.98
		c2.197,4.711,5.35,9.136,7.388,13.838c-2.192-0.425-4.41-0.188-6.604-0.615c-2.823-0.449-5.144-1.703-8.137-1.832
		c-8.656-0.539-17.325-0.744-25.94-2.435c-1.262-0.219-4.846-0.125-8.247-0.315c0.745,0.418,1.492,0.828,2.247,1.209
		c-4.899-0.532-9.961-0.714-14.37-3.205c1.796,1.245,4.899,3.029,5.878,4.81c-3.756-1.068-7.512-3.385-11.103-4.096
		c0.979,2.67,3.102,5.698,4.899,8.012c-4.247-1.779-7.023-4.628-10.614-7.301c0,2.316-0.491,5.344,0.817,7.301
		c-2.212-0.985-3.495-2.579-4.65-4.406c2.093,3.622,4.174,7.239,5.792,10.974c-3.328-0.644-6.692-0.287-10.021-0.931
		c-4.285-0.685-7.809-2.587-12.35-2.782c-8.055-0.501-16.117-0.814-24.163-1.571c0.408,0.54,0.814,1.072,1.21,1.585
		c-1.345-0.565-2.613-1.189-3.831-1.848c-4.202-0.451-8.4-1.04-12.589-1.861c-0.797-0.14-2.212-0.194-3.959-0.234
		c1.784,1.06,3.596,2.05,5.422,2.976c-1.85-0.199-3.717-0.37-5.579-0.565c0.221,0.539,0.486,1.051,0.808,1.533
		c-1.157-0.517-2.177-1.123-3.111-1.791c-4.571-0.55-9.083-1.384-13.291-3.311c-0.323-0.08-0.629-0.168-0.918-0.262
		c2.931,1.945,6.955,4.468,8.345,6.994c-3.138-0.894-6.275-2.323-9.377-3.658c-0.313,1.587-0.558,3.209-0.72,4.899
		c-2.096-1.858-3.615-4.346-4.854-7.069c-1.014-0.326-2.024-0.606-3.023-0.803c1.587,4.321,5.021,9.223,7.931,12.973
		c-2.593-1.091-4.848-2.424-6.963-3.895c6.572,11.201,14.275,21.989,19.754,33.44c-6.744-1.007-13.49,0-20.234-1.007
		c-8.672-1.007-15.898-4.531-25.052-4.531c-26.496-0.504-52.995,0-79.494-4.03c-7.706-1.005-43.359,3.025-47.213-5.032
		c-2.41-5.035,15.418-26.185,18.307-31.22c5.667-8.883,16.793-28.102,21.336-43.266c-5.493,8.387-14.446,19.173-24.225,20.101
		c9.152-12.588,14.934-27.69,20.713-41.79c2.356-4.922,4.708-10.09,6.243-15.333c-5.041,3.896-10.519,7.178-16.359,9.794
		c10.971-17.675,20.187-36.271,28.1-56.19c-4.407,4.4-9.456,8.111-15.092,10.874c7.709-10.576,13.491-23.163,18.308-35.752
		c-6.264,8.559-14.936,20.144-26.016,22.156c11.357-10.681,26.277-32.241,31.45-51.495c-3.409,4.654-7.547,8.706-14.011,11.603
		c6.263-7.949,11.271-17.623,15.815-26.625l0.258-1.14c-4.046,4.415-11.146,6.714-16.557,8.126
		c8.191-12.082,18.308-20.14,24.089-34.238c3.373-8.056,4.818-16.62,6.746-25.177l1.445,3.021c0,9.566,1.444,19.636,5.3,28.196
		c6.262,14.1,19.752,23.667,28.906,35.249c-8.671-5.538-19.754-8.058-25.053-18.631c0.096,1.692,0.233,3.384,0.386,5.074
		c1.123,2.364,2.09,4.665,2.893,6.62c3.856,8.562,6.744,17.121,12.526,24.172c4.819,6.543,13.972,12.585,16.862,19.636
		c-4.817-3.524-10.599-6.042-15.416-10.07c3.374,9.568,11.079,17.119,15.9,25.678c-6.026-4.006-14.228-7.526-20.807-12.406
		c1.079,2.045,2.201,4.037,3.461,5.86c5.309,8.012,10.541,16.191,15.853,24.336c0.188-0.422,0.377-0.84,0.567-1.278
		c2.645-5.762,4.493-11.241,5.814-17.296l1.057-2.596c0,6.683,1.489,14.696,3.732,20.952c4.143-4.906,6.453-11.373,10.833-16.147
		c-2.633,2.87-8.88,6.813-12.498,6.097c9.537-9.685,15.126-17.577,20.715-30.488c3.29-7.172,5.591-13.984,7.235-21.517l1.314-3.231
		c0,8.61,1.973,19.01,4.935,26.902c2.301,5.381,4.273,11.117,7.232,16.141c3.946,6.456,9.867,12.909,11.507,20.44
		c-4.471-3.717-9.216-6.537-13.615-10.103c0.273,1.257,0.527,2.489,0.793,3.649c2.544,10.405,7.823,22.146,14.688,31.772
		c1.358-1.939,2.65-3.992,3.802-6.09c-0.993,0.411-2.135,0.689-3.176,0.992c0.867-0.403,2.618-1.484,4.093-2.732
		c1.125-2.227,2.071-4.483,2.751-6.688c-1.776,2.239-3.9,4.168-7.163,5.466c3.25-3.812,5.91-8.507,8.325-12.876l0.162-0.604
		c-2.083,2.128-5.651,3.137-8.375,3.729c4.282-5.824,9.446-9.604,12.567-16.476c1.818-3.928,2.688-8.146,3.798-12.349l0.665,1.528
		c-0.173,4.75,0.363,9.774,2.122,14.107c1.541,3.846,4.153,7.084,6.91,10.184c1.636-1.239,4.074-3.697,4.564-6.072
		c0.271-1.305,0.641-2.568,0.682-3.906l0.049,1.434c-0.018,0.593-0.004,1.187,0.04,1.78c0.08,1.467,0.403,2.914,1.148,4.209
		c0.857,1.491,2.831,3.214,3.655,3.759c-1.458-0.672-3.231-1.315-3.657-2.667c0.451,1.252,0.82,2.868,1.984,4.328
		c-0.857-0.46-1.63-1.046-2.263-1.749c-0.006-0.009-0.013-0.018-0.021-0.026c0.783,4.829,4.488,7.905,6.165,9.059
		c-2.163-0.42-3.747-1.088-5.196-2.322c0.461,2.062,1.161,4.096,2.135,5.945c0.594,1.156,1.527,2.997,2.722,4.157
		c0.711-0.896,1.337-1.86,1.889-2.789c0.325-0.513,0.617-1.049,0.888-1.592c-0.42,0.211-0.878,0.377-1.299,0.484
		c0.494-0.392,1.066-0.939,1.209-1.495c-0.558,0.792-1.953,0.895-2.971,0.838c1.319-0.404,3.011-1.32,3.813-2.252
		c0.658-0.786,0.815-1.905,1.182-2.768l-0.01,0.107c-0.06,0.751,0.073,1.546,0.314,2.239c0.262,0.679,0.638,1.224,1.11,1.712
		c0.104-0.333,0.189-0.665,0.233-0.996c0.193-1.46,0.499-2.879,0.437-4.358l0.169,1.578c0.027,0.652,0.089,1.305,0.185,1.955
		c0.147,1.141,0.436,2.257,0.915,3.299c0.04,0.02,0.083,0.037,0.119,0.063c-0.032,0.002-0.062-0.002-0.092-0.002
		c0.19,0.409,0.406,0.808,0.662,1.187c0.914,1.353,2.744,2.819,3.849,3.549c0.479-0.557,0.918-1.163,1.301-1.844
		c0.133-0.234,0.262-0.485,0.392-0.729c-0.76,0.275-1.661,0.4-2.827,0.363c1.487-0.613,2.79-1.342,3.831-2.382
		c0.012-0.028,0.029-0.06,0.041-0.088c0.067-0.118,0.12-0.265,0.166-0.416c-1.156,0.869-3.166,1.962-4.492,1.432
		c1.604-0.363,4.665-4.205,6.821-7.026c0.598-0.896,1.157-1.902,1.417-2.364c-0.933,0.875-2.201,1.6-3.851,1.55
		c1.039-0.342,5.194-3.683,5.852-6.863c0.271-1.305,0.64-2.567,0.682-3.905l0.049,1.434c-0.018,0.593-0.005,1.187,0.04,1.777
		c0.079,1.467,0.402,2.916,1.147,4.212c0.497,0.862,1.365,1.797,2.169,2.539c0.132-0.143,0.271-0.289,0.388-0.434
		c1.275-1.603,2.007-3.492,2.414-5.462c0.182-0.792,0.32-1.591,0.418-2.395l0.358-1.931c-0.217,1.819,0.025,3.604,0.125,5.422
		c0.098,1.819,0.989,3.789,2.095,5.534c0.391-0.311,0.732-0.644,0.969-0.966c0.545-0.771,0.606-1.813,0.879-2.631v0.101
		c0,0.694,0.182,1.412,0.456,2.031c0.577,1.193,1.516,1.888,2.76,2.581c0.122,0.075,0.272,0.099,0.394,0.176
		c-0.88,0.122-1.699-0.026-2.244-0.646c0.394,0.62,0.484,0.992,1.273,1.438c-0.618-0.024-1.11-0.261-1.484-0.58
		c0.417,1.997,1.748,3.928,3.419,5.354c0.214,0.173,0.473,0.386,0.688,0.561c-0.747-0.094-1.537-0.471-2.21-0.959
		c0.723,1.659,1.309,3.404,2.9,4.569c0.646-0.395,1.3-0.811,1.79-1.406c-0.752,0.509-1.458,0.977-2.387,0.613
		c0.418-0.131,0.776-0.293,1.158-0.492c0.987-0.511,1.775-1.185,2.338-2.179c0.059-0.107,0.118-0.223,0.178-0.332
		c-0.347,0.124-0.756,0.184-1.286,0.166c0.675-0.28,1.269-0.611,1.742-1.084c0.004-0.013,0.012-0.026,0.018-0.039
		c0.032-0.057,0.055-0.123,0.077-0.192c-0.525,0.396-1.438,0.896-2.043,0.654c0.73-0.164,2.125-1.918,3.104-3.198
		c0.271-0.407,0.523-0.862,0.642-1.07c-0.424,0.398-1.001,0.727-1.751,0.705c0.473-0.156,2.361-1.675,2.66-3.122
		c0.124-0.591,0.29-1.165,0.31-1.773l0.023,0.65c-0.009,0.27-0.002,0.538,0.018,0.81c0.036,0.668,0.182,1.325,0.521,1.916
		c0.391,0.676,1.287,1.458,1.663,1.707c-0.665-0.307-1.47-0.6-1.664-1.213c0.207,0.569,0.374,1.305,0.903,1.966
		c-0.385-0.205-0.733-0.471-1.019-0.785c0.366,2.178,2.024,3.574,2.784,4.096c-0.982-0.19-1.698-0.499-2.357-1.056
		c0.21,0.939,0.522,1.863,0.965,2.704c0.108,0.212,0.247,0.477,0.404,0.751c1.238-0.832,2.107-2.426,2.864-3.358
		c0.475-0.561,0.874-1.213,1.278-1.869c-0.639,0.317-1.349,0.556-2.03,0.774c1.55-1.25,2.722-3.029,3.698-4.672
		c0.324-0.512,0.615-1.048,0.886-1.591c-0.42,0.212-0.877,0.376-1.298,0.483c0.494-0.392,1.066-0.939,1.209-1.495
		c-0.558,0.793-1.953,0.896-2.971,0.839c1.319-0.403,3.01-1.322,3.813-2.255c0.658-0.784,0.814-1.902,1.182-2.765l-0.01,0.107
		c-0.061,0.75,0.073,1.545,0.313,2.24c0.519,1.337,1.475,2.171,2.757,3.031c0.125,0.09,0.287,0.13,0.411,0.224
		c-0.961,0.055-1.833-0.178-2.369-0.897c0.372,0.705,0.437,1.116,1.25,1.668c-0.666-0.079-1.177-0.381-1.552-0.758
		c0.273,2.196,1.543,4.4,3.225,6.086c0.217,0.206,0.477,0.46,0.694,0.666c-0.798-0.164-1.62-0.642-2.303-1.229
		c0.642,1.876,1.127,3.838,2.789,5.238c0.202-0.129,0.383-0.275,0.575-0.413c0.038-0.146,0.076-0.296,0.115-0.444l0.118,0.275
		c1.124-0.854,2.08-1.892,2.827-3.214c0.123-0.219,0.243-0.45,0.366-0.679c-0.708,0.259-1.548,0.372-2.634,0.34
		c1.385-0.569,2.598-1.25,3.567-2.22c0.012-0.028,0.026-0.055,0.037-0.081c0.064-0.111,0.112-0.247,0.155-0.388
		c-1.077,0.811-2.95,1.826-4.185,1.333c1.497-0.337,4.354-3.925,6.359-6.552c0.556-0.834,1.073-1.767,1.313-2.195
		c-0.866,0.816-2.048,1.492-3.586,1.444c0.968-0.317,4.837-3.43,5.45-6.392c0.253-1.213,0.597-2.393,0.635-3.638l0.047,1.335
		c-0.018,0.552-0.006,1.104,0.036,1.657c0.073,1.368,0.374,2.717,1.068,3.923c0.799,1.388,2.637,2.993,3.405,3.501
		c-1.358-0.627-3.01-1.227-3.407-2.485c0.421,1.165,0.764,2.672,1.85,4.032c-0.8-0.429-1.519-0.976-2.11-1.631
		c-0.004-0.006-0.01-0.013-0.015-0.02c0.047,0.294,0.107,0.574,0.176,0.852c-0.002-0.044,0.003-0.09,0.001-0.133l0.025,0.228
		c0.972,3.776,3.815,6.259,5.333,7.342c0.085-0.072,0.172-0.142,0.25-0.206c1.748-1.49,3.141-3.509,3.576-5.6
		c-0.392,0.333-0.906,0.583-1.552,0.606c0.824-0.466,0.919-0.855,1.332-1.504c-0.57,0.648-1.427,0.804-2.348,0.675
		c0.127-0.079,0.287-0.104,0.413-0.182c1.3-0.728,2.284-1.454,2.887-2.699c0.286-0.65,0.475-1.401,0.475-2.128v-0.103
		c0.286,0.856,0.351,1.944,0.921,2.75c0.698,0.961,2.253,1.975,3.49,2.465c-0.983-0.026-2.316-0.232-2.792-1.038
		c0.095,0.548,0.603,1.117,1.047,1.533c-0.397-0.136-0.824-0.331-1.211-0.567c0.216,0.543,0.456,1.079,0.729,1.603
		c0.808,1.65,1.797,3.452,3.191,4.776c-0.64-0.261-1.301-0.547-1.893-0.904c0.337,0.666,0.671,1.32,1.083,1.898
		c0.009,0.011,0.017,0.028,0.025,0.039c1.243-1.072,2.768-2.615,3.576-4.021c1.021-1.772,1.462-3.75,1.57-5.757
		c0.061-0.813,0.078-1.622,0.055-2.435l0.067-1.961c0.056,1.83,0.562,3.56,0.933,5.341c0.093,0.449,0.246,0.902,0.432,1.349
		c2.312-1.155,5.718-4.864,8.188-7.668c0.759-0.996,1.448-2.102,1.769-2.612c-1.238,1-2.974,1.868-5.335,1.942
		c1.447-0.442,7.029-4.306,7.638-7.732c0.25-1.403,0.646-2.771,0.564-4.196l0.221,1.519c0.037,0.63,0.115,1.256,0.241,1.883
		c0.266,1.552,0.879,3.063,2.078,4.378c1.379,1.515,4.376,3.19,5.609,3.704c-2.152-0.6-4.751-1.145-5.499-2.546
		c0.776,1.292,1.469,2.979,3.286,4.435c-1.272-0.422-2.438-0.983-3.414-1.681c-0.011-0.006-0.022-0.013-0.031-0.022
		c1.618,5.06,7.229,8.034,9.744,9.129c-3.133-0.28-5.462-0.865-7.66-2.058c0.872,2.147,2.083,4.251,3.665,6.138
		c1.037,1.259,2.706,3.325,4.704,4.425c2.891-2.406,5.152-5.471,5.896-8.634c-0.748,0.566-1.74,0.996-2.987,1.033
		c1.575-0.779,1.753-1.43,2.541-2.516c-1.088,1.086-2.722,1.344-4.476,1.13c0.243-0.134,0.544-0.176,0.788-0.305
		c2.478-1.217,4.353-2.432,5.501-4.519c0.545-1.085,0.906-2.344,0.906-3.559v-0.173c0.545,1.432,0.665,3.255,1.753,4.602
		c1.331,1.607,4.295,3.304,6.65,4.127c-1.873-0.046-4.413-0.393-5.319-1.74c0.181,0.917,1.149,1.871,1.997,2.561
		c-0.769-0.229-1.592-0.561-2.339-0.961c0.417,0.913,0.896,1.819,1.417,2.697c1.542,2.765,3.427,5.779,6.083,7.995
		c-1.219-0.438-2.481-0.92-3.605-1.511c0.642,1.109,1.277,2.206,2.062,3.172c0.207,0.261,0.414,0.556,0.627,0.869
		c1.441-1.32,2.06-3.117,2.808-4.831c-0.776,0.564-1.688,1-2.549,1.105c0.247-0.202,0.544-0.444,0.792-0.646
		c1.925-1.644,3.461-3.868,3.941-6.169c-0.431,0.366-1,0.642-1.711,0.668c0.909-0.513,1.014-0.941,1.468-1.657
		c-0.628,0.716-1.573,0.887-2.587,0.744c0.139-0.087,0.314-0.116,0.456-0.201c1.433-0.799,2.517-1.601,3.181-2.973
		c0.315-0.716,0.525-1.544,0.525-2.347v-0.114c0.313,0.943,0.384,2.146,1.012,3.03c0.77,1.06,2.483,2.176,3.845,2.719
		c-1.083-0.028-2.551-0.259-3.076-1.146c0.105,0.603,0.666,1.233,1.154,1.688c-0.438-0.151-0.909-0.366-1.335-0.624
		c0.24,0.596,0.502,1.188,0.805,1.762c0.382,0.784,0.811,1.592,1.289,2.376c1.188-0.552,3.199-1.69,4.703-2.903
		c-0.272,0.007-0.549,0.009-0.849,0c0.626-0.256,1.213-0.538,1.781-0.838c0.058-0.06,0.128-0.121,0.183-0.178
		c0.38-0.418,0.7-0.855,0.979-1.305c-1.196,0.573-2.508,0.922-3.506,0.523c1.181-0.27,3.001-2.063,4.844-4.206
		c0.124-0.641,0.205-1.284,0.243-1.928l0.243-1.68c-0.053,0.924,0.082,1.828,0.254,2.732c1.003-1.211,1.99-2.478,2.859-3.614
		c0.741-1.11,1.433-2.358,1.754-2.931c-1.151,1.081-2.724,1.979-4.766,1.917c1.284-0.422,6.427-4.556,7.242-8.494
		c0.337-1.616,0.795-3.183,0.845-4.838l0.061,1.775c-0.022,0.733-0.006,1.467,0.049,2.203c0.096,1.814,0.496,3.61,1.419,5.214
		c1.063,1.843,3.505,3.978,4.525,4.652c-1.806-0.832-4-1.628-4.526-3.301c0.557,1.55,1.015,3.553,2.456,5.359
		c-1.061-0.571-2.017-1.296-2.803-2.169c-0.008-0.006-0.016-0.018-0.024-0.028c0.97,5.977,5.556,9.783,7.632,11.211
		c-2.679-0.52-4.64-1.347-6.434-2.872c0.57,2.55,1.438,5.067,2.642,7.357c0.42,0.818,0.982,1.917,1.66,2.975
		c0.377-0.439,0.755-0.924,1.083-1.353c0.238-0.353,0.465-0.758,0.568-0.939c-0.358,0.337-0.849,0.617-1.485,0.596
		c0.401-0.129,2.003-1.419,2.258-2.648c0.105-0.502,0.247-0.99,0.262-1.507l0.02,0.554c-0.007,0.229-0.002,0.458,0.017,0.686
		c0.029,0.569,0.154,1.127,0.443,1.627c0.244,0.427,0.724,0.897,1.087,1.201c0.674-0.873,1.244-1.813,1.662-2.502
		c1.106-1.773,1.952-3.75,2.563-5.772c-1.537,1.125-3.164,1.677-5.353,1.939c1.757-1.031,5.674-3.827,6.807-8.582
		c-0.007,0.004-0.014,0.013-0.021,0.02c-0.683,0.654-1.497,1.182-2.385,1.58c1.268-1.373,1.752-2.957,2.294-4.172
		c-0.522,1.318-2.337,1.83-3.842,2.395c0.863-0.486,2.956-2.06,3.919-3.483c0.838-1.239,1.265-2.66,1.453-4.12
		c0.088-0.584,0.143-1.175,0.167-1.767l0.153-1.429c-0.056,1.337,0.22,2.625,0.396,3.945c0.424,3.222,4.325,6.856,5.336,7.27
		c-1.651-0.07-2.863-0.885-3.727-1.824c0.225,0.478,0.705,1.52,1.236,2.454c1.944,2.97,4.721,7.032,6.295,7.513
		c-1.362,0.427-3.287-0.806-4.378-1.756c0.037,0.153,0.077,0.302,0.136,0.427c0.01,0.028,0.023,0.06,0.034,0.088
		c0.963,1.114,2.208,1.939,3.648,2.655c-1.166-0.046-2.054-0.238-2.794-0.567c0.114,0.252,0.225,0.511,0.338,0.756
		c1.073,2.274,2.696,3.883,4.785,5.155c0.104,0.065,0.208,0.127,0.311,0.19c0.615-1.23,0.911-2.565,0.985-3.925
		c0.044-0.613,0.057-1.222,0.039-1.83l0.051-1.478c0.041,1.379,0.422,2.682,0.702,4.021c0.13,0.626,0.39,1.257,0.735,1.872
		c0.28-0.229,0.604-0.492,0.878-0.718c2.286-1.948,4.109-4.591,4.679-7.323c-0.513,0.436-1.187,0.762-2.031,0.795
		c1.081-0.61,1.203-1.118,1.744-1.968c-0.746,0.85-1.867,1.051-3.071,0.88c0.164-0.101,0.372-0.136,0.538-0.236
		c1.701-0.95,2.991-1.902,3.779-3.531c0.372-0.847,0.619-1.832,0.619-2.782v-0.136c0.374,1.119,0.457,2.546,1.204,3.597
		c0.913,1.257,2.948,2.581,4.566,3.227c-1.287-0.035-3.029-0.307-3.653-1.359c0.127,0.714,0.79,1.46,1.37,2.003
		c-0.519-0.177-1.075-0.431-1.585-0.739c0.284,0.709,0.6,1.414,0.954,2.095c1.058,2.163,2.352,4.519,4.177,6.248
		c-0.84-0.34-1.707-0.719-2.478-1.181c0.398,0.779,0.792,1.544,1.259,2.237c0.702-0.398,1.349-0.829,2.019-1.317
		c2.454-1.771,4.304-3.914,5.411-6.826c0.118-0.309,0.229-0.637,0.344-0.958c-0.88,0.477-1.961,0.794-3.394,0.963
		c1.708-1.022,3.17-2.156,4.252-3.625c0.011-0.037,0.021-0.075,0.032-0.112c0.062-0.159,0.099-0.348,0.125-0.543
		c-1.254,1.281-3.514,2.986-5.231,2.586c1.894-0.74,4.928-6.003,7.046-9.855c0.567-1.211,1.064-2.551,1.299-3.166
		c-0.979,1.246-2.399,2.366-4.427,2.609c1.204-0.609,5.675-5.466,5.891-9.481c0.09-1.646,0.31-3.262,0.112-4.908l0.324,1.747
		c0.089,0.729,0.214,1.451,0.378,2.167c0.37,1.784,1.031,3.496,2.186,4.945c1.326,1.666,4.059,3.408,5.17,3.923
		c-1.911-0.552-4.2-1.011-4.972-2.587c0.784,1.449,1.537,3.36,3.231,4.932c-1.134-0.407-2.191-0.979-3.095-1.725
		c-0.007-0.004-0.021-0.015-0.026-0.022c1.85,5.762,6.952,8.838,9.22,9.94c-2.728-0.113-4.789-0.637-6.79-1.876
		c0.945,2.437,2.181,4.795,3.713,6.879c1.079,1.495,2.872,4.023,4.855,5.057c0.023-0.039,0.05-0.081,0.072-0.118
		c1.107-1.775,1.952-3.752,2.563-5.772c-1.537,1.123-3.166,1.672-5.353,1.935c1.758-1.028,5.676-3.826,6.806-8.583
		c-0.004,0.006-0.013,0.015-0.02,0.02c-0.683,0.656-1.497,1.187-2.386,1.582c1.27-1.37,1.753-2.957,2.296-4.172
		c-0.523,1.318-2.338,1.83-3.842,2.395c0.862-0.486,2.955-2.058,3.916-3.482c0.841-1.239,1.268-2.66,1.454-4.118
		c0.09-0.589,0.142-1.178,0.166-1.769l0.155-1.427c-0.057,1.337,0.222,2.625,0.395,3.945c0.425,3.22,4.328,6.854,5.339,7.27
		c-1.652-0.069-2.863-0.884-3.73-1.825c0.226,0.477,0.705,1.517,1.235,2.449c1.943,2.974,4.726,7.038,6.3,7.516
		c-1.361,0.431-3.288-0.802-4.378-1.754c0.035,0.153,0.076,0.303,0.136,0.43c0.009,0.028,0.021,0.057,0.035,0.085
		c0.772,0.896,1.729,1.596,2.819,2.211l0.018-0.536c0.007,0.194,0.033,0.383,0.05,0.571c0.25,0.143,0.497,0.28,0.76,0.412
		c-0.256-0.012-0.497-0.033-0.729-0.055c0.14,1.14,0.438,2.252,0.672,3.386c0.018,0.077,0.044,0.153,0.063,0.23
		c0.157,0.15,0.309,0.307,0.473,0.446c0.25-0.197,0.541-0.44,0.786-0.642c1.924-1.64,3.461-3.863,3.94-6.167
		c-0.429,0.366-0.998,0.645-1.712,0.67c0.911-0.514,1.014-0.945,1.469-1.659c-0.628,0.714-1.571,0.887-2.585,0.742
		c0.14-0.085,0.313-0.113,0.455-0.199c1.432-0.799,2.516-1.603,3.181-2.973c0.313-0.716,0.523-1.546,0.523-2.345v-0.116
		c0.315,0.944,0.385,2.146,1.014,3.032c0.771,1.058,2.482,2.174,3.846,2.715c-1.085-0.028-2.552-0.257-3.075-1.141
		c0.103,0.6,0.663,1.228,1.153,1.686c-0.438-0.151-0.908-0.363-1.337-0.624c0.24,0.598,0.505,1.19,0.805,1.763
		c0.729,1.492,1.609,3.082,2.743,4.413c0.294-0.287,0.569-0.576,0.802-0.867c0.564-0.707,1.005-1.479,1.377-2.283
		c-0.134-0.007-0.27-0.002-0.4-0.033c0.184-0.072,0.381-0.196,0.58-0.348c0.378-0.897,0.658-1.837,0.855-2.796
		c0.184-0.792,0.322-1.589,0.418-2.396l0.357-1.929c-0.211,1.769,0.013,3.505,0.115,5.271c1.59-2.073,3.354-5.171,4.729-7.676
		c0.565-1.206,1.06-2.535,1.292-3.147c-0.979,1.243-2.397,2.364-4.424,2.609c1.206-0.611,5.672-5.466,5.889-9.483
		c0.092-1.646,0.311-3.262,0.113-4.906l0.324,1.747c0.088,0.729,0.212,1.449,0.379,2.169c0.367,1.78,1.031,3.494,2.185,4.941
		c1.324,1.666,4.059,3.411,5.168,3.925c-1.908-0.554-4.198-1.011-4.969-2.587c0.783,1.449,1.532,3.358,3.231,4.93
		c-1.139-0.405-2.191-0.979-3.096-1.723c-0.011-0.009-0.018-0.018-0.028-0.024c0.887,2.765,2.52,4.904,4.233,6.51
		c0.026-0.51,0.037-1.021,0.024-1.53l0.053-1.585c0.028,0.926,0.203,1.815,0.398,2.708c0.875-1.046,1.738-2.149,2.491-3.137
		c0.598-0.896,1.151-1.898,1.411-2.358c-0.93,0.874-2.199,1.598-3.848,1.55c1.037-0.344,5.192-3.683,5.849-6.863
		c0.271-1.305,0.642-2.568,0.684-3.908l0.048,1.434c-0.018,0.591-0.007,1.184,0.037,1.777c0.083,1.469,0.405,2.918,1.151,4.214
		c0.856,1.491,2.831,3.209,3.654,3.756c-1.456-0.672-3.231-1.313-3.656-2.667c0.451,1.25,0.819,2.871,1.983,4.331
		c-0.855-0.465-1.631-1.049-2.262-1.754c-0.008-0.007-0.015-0.016-0.021-0.023c0.783,4.829,4.487,7.902,6.164,9.056
		c-2.162-0.42-3.747-1.086-5.196-2.318c0.462,2.063,1.162,4.094,2.137,5.946c0.591,1.151,1.527,2.994,2.721,4.157
		c0.712-0.897,1.34-1.861,1.89-2.789c0.326-0.515,0.617-1.054,0.889-1.592c-0.421,0.21-0.878,0.374-1.301,0.481
		c0.492-0.392,1.066-0.939,1.211-1.495c-0.559,0.793-1.955,0.896-2.971,0.841c1.32-0.407,3.008-1.322,3.812-2.255
		c0.658-0.784,0.813-1.906,1.182-2.767l-0.009,0.106c-0.062,0.754,0.072,1.546,0.313,2.242c0.263,0.674,0.639,1.222,1.112,1.71
		c0.101-0.333,0.186-0.668,0.229-0.996c0.197-1.458,0.499-2.881,0.438-4.359l0.169,1.579c0.028,0.652,0.09,1.305,0.186,1.952
		c0.146,1.143,0.436,2.257,0.915,3.302c0.04,0.021,0.081,0.037,0.118,0.063c-0.032,0.002-0.061-0.002-0.094,0
		c0.19,0.407,0.407,0.803,0.663,1.187c0.917,1.351,2.745,2.819,3.849,3.546c0.481-0.554,0.92-1.162,1.303-1.846
		c0.134-0.231,0.261-0.481,0.392-0.727c-0.76,0.276-1.661,0.403-2.826,0.361c1.486-0.608,2.789-1.34,3.831-2.38
		c0.011-0.028,0.026-0.059,0.039-0.085c0.068-0.123,0.121-0.27,0.167-0.418c-1.156,0.871-3.166,1.959-4.492,1.432
		c1.603-0.363,4.667-4.208,6.823-7.029c0.596-0.896,1.156-1.9,1.414-2.362c-0.933,0.876-2.2,1.601-3.851,1.55
		c1.038-0.341,5.195-3.682,5.85-6.862c0.273-1.305,0.644-2.566,0.683-3.908l0.049,1.436c-0.018,0.591-0.005,1.184,0.041,1.777
		c0.077,1.469,0.403,2.916,1.147,4.212c0.497,0.862,1.366,1.797,2.169,2.542c0.132-0.147,0.271-0.292,0.388-0.436
		c1.274-1.603,2.008-3.492,2.415-5.46c0.182-0.795,0.319-1.594,0.416-2.397l0.358-1.931c-0.214,1.819,0.024,3.604,0.125,5.423
		c0.099,1.818,0.989,3.789,2.095,5.534c0.39-0.313,0.733-0.642,0.97-0.968c0.543-0.769,0.604-1.811,0.878-2.629v0.098
		c0,0.696,0.182,1.414,0.455,2.034c0.578,1.193,1.516,1.887,2.761,2.581c0.123,0.076,0.273,0.101,0.395,0.175
		c-0.88,0.123-1.699-0.026-2.244-0.646c0.394,0.619,0.483,0.994,1.274,1.438c-0.617-0.022-1.112-0.263-1.486-0.578
		c0.418,1.996,1.749,3.925,3.419,5.35c0.215,0.176,0.473,0.388,0.689,0.561c-0.749-0.09-1.539-0.468-2.211-0.956
		c0.723,1.659,1.31,3.404,2.898,4.568c0.647-0.396,1.305-0.81,1.791-1.407c-0.751,0.508-1.458,0.979-2.387,0.612
		c0.419-0.129,0.777-0.289,1.156-0.488c0.989-0.51,1.777-1.187,2.34-2.18c0.06-0.107,0.118-0.222,0.18-0.333
		c-0.348,0.127-0.758,0.184-1.287,0.164c0.677-0.275,1.268-0.608,1.74-1.079c0.007-0.016,0.013-0.028,0.02-0.042
		c0.033-0.055,0.055-0.122,0.077-0.19c-0.523,0.396-1.438,0.894-2.043,0.655c0.731-0.167,2.126-1.923,3.104-3.205
		c0.271-0.405,0.523-0.858,0.642-1.068c-0.423,0.4-1.003,0.729-1.752,0.705c0.471-0.153,2.36-1.671,2.66-3.117
		c0.123-0.594,0.291-1.167,0.309-1.778l0.021,0.652c-0.006,0.27,0,0.541,0.021,0.809c0.034,0.67,0.179,1.326,0.519,1.915
		c0.39,0.677,1.289,1.46,1.664,1.71c-0.664-0.307-1.472-0.6-1.664-1.213c0.208,0.569,0.374,1.303,0.904,1.968
		c-0.388-0.208-0.733-0.471-1.021-0.786c0.366,2.174,2.022,3.573,2.782,4.094c-0.98-0.19-1.698-0.497-2.354-1.053
		c0.211,0.935,0.521,1.86,0.964,2.703c0.109,0.211,0.245,0.476,0.402,0.749c1.241-0.832,2.108-2.423,2.866-3.36
		c0.475-0.561,0.875-1.21,1.278-1.867c-0.642,0.315-1.349,0.559-2.029,0.772c1.55-1.247,2.721-3.027,3.697-4.667
		c0.324-0.515,0.615-1.053,0.887-1.592c-0.421,0.211-0.878,0.373-1.298,0.482c0.49-0.39,1.063-0.939,1.208-1.495
		c-0.559,0.794-1.953,0.895-2.973,0.84c1.322-0.407,3.012-1.322,3.813-2.255c0.658-0.785,0.814-1.904,1.182-2.767l-0.009,0.107
		c-0.062,0.751,0.074,1.545,0.313,2.239c0.519,1.338,1.476,2.172,2.758,3.029c0.125,0.093,0.285,0.134,0.412,0.224
		c-0.964,0.057-1.835-0.175-2.371-0.893c0.372,0.704,0.436,1.114,1.25,1.665c-0.666-0.078-1.178-0.383-1.552-0.757
		c0.228,1.83,1.153,3.66,2.425,5.194c2.531-3.817,4.733-7.973,6.929-13.047c2.787-6.073,4.735-11.845,6.128-18.229l1.116-2.732
		c0,7.29,1.668,16.104,4.177,22.787c0.902,2.109,1.747,4.283,2.64,6.434c0.063-0.024,0.128-0.044,0.185-0.079
		c1.3-0.727,2.283-1.451,2.885-2.699c0.285-0.647,0.478-1.401,0.478-2.126v-0.106c0.284,0.857,0.351,1.948,0.919,2.751
		c0.699,0.959,2.253,1.973,3.492,2.468c-0.985-0.026-2.318-0.234-2.793-1.04c0.096,0.545,0.604,1.116,1.048,1.532
		c-0.398-0.138-0.825-0.33-1.213-0.564c0.217,0.538,0.458,1.079,0.729,1.6c0.808,1.651,1.797,3.452,3.191,4.777
		c-0.644-0.263-1.303-0.55-1.894-0.904c0.337,0.663,0.672,1.322,1.081,1.9c0.01,0.011,0.018,0.026,0.027,0.037
		c1.243-1.075,2.769-2.616,3.576-4.021c1.021-1.771,1.463-3.752,1.57-5.758c0.061-0.814,0.078-1.624,0.057-2.434l0.063-1.962
		c0.055,1.83,0.563,3.558,0.935,5.342c0.092,0.45,0.245,0.901,0.432,1.351c2.312-1.156,5.718-4.866,8.188-7.671
		c0.759-0.994,1.446-2.102,1.769-2.612c-1.237,1.003-2.976,1.868-5.335,1.942c1.447-0.442,7.029-4.306,7.638-7.729
		c0.247-1.406,0.646-2.774,0.564-4.197l0.222,1.517c0.037,0.63,0.115,1.256,0.24,1.88c0.268,1.552,0.881,3.065,2.078,4.38
		c1.379,1.515,4.373,3.188,5.61,3.704c-2.154-0.6-4.753-1.145-5.499-2.546c0.775,1.294,1.469,2.979,3.283,4.438
		c-1.271-0.423-2.436-0.983-3.412-1.682c-0.012-0.009-0.022-0.018-0.033-0.021c1.611,5.026,7.161,7.994,9.698,9.104
		c6.065-11.629,11.53-23.676,16.51-36.21c-4.643,4.634-9.965,8.544-15.903,11.456c8.121-11.143,14.216-24.404,19.29-37.67
		c-6.598,9.019-15.737,21.224-27.414,23.345c11.97-11.256,27.69-33.975,33.141-54.262c-3.592,4.901-7.953,9.175-14.766,12.227
		c6.601-8.374,11.881-18.57,16.666-28.056l0.273-1.199c-4.267,4.651-11.744,7.073-17.449,8.563
		c8.634-12.734,19.293-21.224,25.385-36.081c3.556-8.487,5.077-17.506,7.108-26.528l1.523,3.183c0,10.083,1.521,20.694,5.582,29.713
		c6.601,14.855,20.814,24.937,30.46,37.141c-9.136-5.836-20.813-8.492-26.398-19.632c0.103,1.782,0.247,3.562,0.407,5.344
		c1.184,2.495,2.202,4.919,3.047,6.981c4.063,9.019,7.108,18.038,13.198,25.466c5.079,6.898,14.724,13.264,17.767,20.694
		c-5.074-3.715-11.166-6.368-16.24-10.613c3.553,10.083,11.672,18.041,16.753,27.06c-6.351-4.22-14.995-7.936-21.929-13.078
		c1.139,2.161,2.323,4.258,3.649,6.182c8.133,12.276,16.099,24.925,24.404,37.285c3.362-4.632,6.213-9.549,8.976-15.455
		c-0.005-0.425-0.026-0.85-0.076-1.279l0.192,1.033c0.527-1.129,1.048-2.281,1.571-3.489c3.466-7.557,5.891-14.735,7.625-22.675
		l1.381-3.402c0,9.072,2.08,20.03,5.202,28.345c2.425,5.67,4.505,11.714,7.622,17.009c2.822,4.615,6.598,9.231,9.275,14.201
		c0.637-1.007,1.109-2.084,1.34-3.179c-0.434,0.365-1,0.642-1.712,0.668c0.908-0.515,1.014-0.941,1.469-1.657
		c-0.63,0.716-1.574,0.887-2.588,0.744c0.139-0.088,0.315-0.114,0.454-0.201c1.434-0.802,2.517-1.601,3.183-2.974
		c0.315-0.716,0.523-1.545,0.523-2.344v-0.116c0.314,0.943,0.387,2.146,1.013,3.032c0.769,1.057,2.482,2.173,3.847,2.716
		c-1.083-0.028-2.553-0.256-3.078-1.145c0.105,0.602,0.666,1.23,1.154,1.686c-0.437-0.148-0.906-0.363-1.333-0.622
		c0.238,0.598,0.503,1.191,0.803,1.763c0.889,1.821,1.981,3.81,3.516,5.267c-0.705-0.289-1.434-0.605-2.084-0.996
		c0.37,0.731,0.738,1.456,1.193,2.091c0.453,0.661,0.931,1.604,1.528,2.461c1.876-1.59,3.32-3.477,4.244-5.902
		c0.114-0.309,0.226-0.637,0.342-0.958c-0.878,0.475-1.959,0.794-3.392,0.961c1.706-1.021,3.164-2.152,4.247-3.621
		c0.012-0.037,0.024-0.077,0.038-0.114c0.061-0.159,0.094-0.35,0.122-0.543c-1.255,1.283-3.512,2.986-5.231,2.584
		c1.896-0.74,4.942-6.024,7.057-9.88c0.563-1.202,1.056-2.528,1.288-3.139c-0.979,1.246-2.397,2.367-4.427,2.609
		c1.206-0.61,5.674-5.466,5.894-9.483c0.087-1.644,0.309-3.262,0.111-4.908l0.324,1.747c0.09,0.731,0.214,1.454,0.378,2.169
		c0.368,1.782,1.029,3.494,2.183,4.943c1.327,1.666,4.062,3.41,5.169,3.925c-1.909-0.552-4.196-1.011-4.967-2.587
		c0.781,1.449,1.532,3.36,3.23,4.932c-1.134-0.409-2.191-0.98-3.098-1.728c-0.006-0.004-0.018-0.013-0.025-0.021
		c0.889,2.763,2.521,4.901,4.235,6.508c0.024-0.51,0.033-1.018,0.02-1.527l0.058-1.585c0.037,1.28,0.346,2.502,0.623,3.741
		c1.634,1.388,3.254,2.305,4.284,2.806c-1.296-0.055-2.438-0.205-3.5-0.477c1.511,2.896,4.851,5.512,5.808,5.829
		c-1.823,0.055-3.227-0.748-4.254-1.714c0.285,0.508,0.9,1.618,1.56,2.607c1.018,1.333,2.22,2.874,3.401,4.231
		c0.053,0.007,0.105,0.021,0.155,0.028c-0.046-0.004-0.094-0.009-0.138-0.011c1.574,1.809,3.111,3.29,4.122,3.518
		c-1.467,0.585-3.687-0.619-4.963-1.58c0.051,0.166,0.107,0.326,0.182,0.462c0.014,0.03,0.031,0.062,0.044,0.09
		c0.116,0.12,0.252,0.219,0.372,0.33c3.794,1.798,8.337,4.86,9.67,9.205c0.344,1.114,0.473,2.316,0.321,3.602
		c-0.168,1.342-0.875,2.526-1.938,3.584c0.007,0.006,0.009,0.011,0.014,0.015c2.846,1.489,5.168,3.286,6.002,4.947
		c2.851,6.112-0.814,17.927-0.814,24.852C834.095,377.173,833.28,384.914,835.318,391.838z"/>
</g>
</svg>
