<?xml version="1.0" encoding="utf-8"?>
<!-- Generator: Adobe Illustrator 16.0.0, SVG Export Plug-In . SVG Version: 6.00 Build 0)  -->
<!DOCTYPE svg PUBLIC "-//W3C//DTD SVG 1.1//EN" "http://www.w3.org/Graphics/SVG/1.1/DTD/svg11.dtd">
<svg version="1.1" id="Layer_1" xmlns="http://www.w3.org/2000/svg" xmlns:xlink="http://www.w3.org/1999/xlink" x="0px" y="0px"
	 width="841.89px" height="595.28px" viewBox="0 0 841.89 595.28" enable-background="new 0 0 841.89 595.28" xml:space="preserve">
<path fill="#010101" d="M835.297,288.467L834.692,292h-0.011l0.279-3.533l-2.239-4.702l0.979-0.174l-2.063-4.424l-2.221-4.779
	l-2.594-5.607l-1.553-3.351l-1.555,3.361l-2.593,5.612l0.823,0.578l0,0l-0.823-0.578l-2.219,4.795l-2.063,4.463l0.979,0.243
	l-2.234,4.833l0.272,3.723l-0.272-3.723l-3.14,6.792l1.83,0.458l-2.582,5.583l-1.016-2.193l0.831-0.271l-2.508-4.9v0.002
	l-2.191-5.268l-0.783,0.634l0,0l0.966-0.634l-2.822-6.166l-1.688-3.685l-0.811,1.77l-0.684-1.483l-1.1,0.771l0,0l1.103-0.771
	l-3.47-7.502l-2.075-4.488l-2.075,4.488l-3.468,7.502l1.1,0.771l0,0l-1.1-0.771l-1.001,2.163l-0.181-0.389l-2.217-4.796
	l-2.598-5.612l-1.553-3.357l-1.55,3.357l-2.596,5.612l0.823,0.576l0,0l-0.823-0.576l-2.221,4.796l0.152,2.034l0,0l-0.152-2.034
	l-2.062,4.463l0.977,0.243l-2.235,4.833l-1.266,2.737l-2.64-5.709l-0.136,1.825l0,0l0.136-1.823l-0.189-0.412l0.428-0.106
	l-2.496-5.402l0.745-0.185l-2.482-5.365l0,0l-2.665-5.765l-3.121-6.75l-1.864-4.035l-1.865,4.035l-3.12,6.75l-2.668,5.765l0,0
	l-2.479,5.365l1.175,0.292l-2.688,5.813l0.243,3.29l0,0l-0.243-3.292l-3.773,8.164l1.581,0.393l-0.228,0.498l0.398,0.102
	l-2.859,6.193l0.215,0.053l-0.643,1.423l0.105,1.307l0,0l-0.108-1.307l-0.259,0.549l-2.112-4.561l1.138-0.323L736,294.241v0.002
	l-2.801-6.413l-1.017,0.771l0,0l1.141-0.771l-3.446-7.505l-2.065-4.486l-2.069,4.486l-3.202,6.926l-1.37-2.968l1.834-0.458
	l-3.138-6.79l-2.237-4.833l0.979-0.248l-2.063-4.222l-0.15,2.267h-0.003l0.153-2.267l-2.219-4.914l-0.821,0.517l0,0l0.821-0.605
	l-2.596-5.629l-1.55-3.362l-1.555,3.351l-2.596,5.613l-2.217,4.795l0.148,2.031l0,0l-0.148-2.031l-2.063,4.458l0.979,0.248
	l-2.234,4.833l-3.14,6.79l1.83,0.458l-2.582,5.582l-1.016-2.193l1.073-0.269l-2.263-4.902l-0.166,2.235l0,0l0.166-2.235
	l-2.438-5.265l-2.851-6.166l-1.703-3.686l-1.707,3.686l-2.851,6.166l-2.436,5.265l0,0l-0.916,1.987l-2.547-5.503l-2.235-4.835
	l0.977-0.241l-2.063-4.465l-2.217-4.793l-0.823,0.576l0,0l0.823-0.576l-2.596-5.613l-1.553-3.356l-1.55,3.356l-2.596,5.613
	l-2.221,4.793l-1.3,2.818l-0.211-0.458l-2.598-5.615l-1.553-3.354l-1.55,3.354l-1.624,3.509l-2.386-5.157l-0.178,2.445l0,0
	l0.178-2.445l-2.662-5.763l-0.995,0.691l0,0l0.995-0.691l-3.124-6.749l-1.864-4.037l-1.864,4.037l-3.123,6.749l-2.666,5.769
	l0.181,2.451h-0.002l-0.179-2.451l-2.482,5.362l1.178,0.294l-2.688,5.808l0.316,4.294l-0.319-4.294l-3.773,8.165l2.205,0.548
	l-3.135,6.774l-0.215-0.467l-0.081,1.113l0,0l0.081-1.113l-3.123-6.748l1.837-0.458l-3.143-6.79l-0.274,3.72l0.274-3.72
	l-2.234-4.833l0.977-0.248l-2.062-4.458l0,0l-2.221-4.796l-2.596-5.615l-1.55-3.354l-1.553,3.354l-2.596,5.615l0.823,0.576l0,0
	l-0.823-0.576l-2.219,4.796l0,0l-2.062,4.458l0.977,0.248l-2.235,4.833l0.28,3.811l0,0l-0.282-3.811l-3.137,6.79l1.832,0.458
	l-2.582,5.582l-1.013-2.193l1.073-0.269l-2.268-4.902l0,0l-2.436-5.265l-2.853-6.166l-1.705-3.686l-1.703,3.686l-0.897,1.938
	l-2.631-5.689l-2.074-4.485l-2.076,4.485l-2.688,5.816l-1.703-3.692l-2.221-4.793l-2.594-5.613l-1.552-3.356l-1.553,3.356
	l-2.596,5.613l0.823,0.576l0,0l-0.823-0.576l-2.219,4.793l-2.063,4.465l0.979,0.243l-2.237,4.833l0.275,3.72l-0.275-3.72
	l-1.263,2.736l-2.643-5.709l-0.318,4.294l0.316-4.294l-2.686-5.809l1.175-0.296l-2.479-5.365l-0.181,2.445l0,0l0.181-2.445
	l-2.666-5.763l-3.12-6.749l-1.867-4.037l-1.864,4.037l-3.124,6.749l0.993,0.691l0,0l-0.993-0.691l-2.665,5.763l0,0l-2.479,5.365
	l1.175,0.296l-2.318,5.013l-1.263-2.734l-0.277,3.722l0.277-3.722l-2.239-4.833l0.979-0.243l-2.062-4.463l-0.152,2.034l0,0
	l0.152-2.034l-2.219-4.796l-2.596-5.612l-1.552-3.357l-1.553,3.357l-2.596,5.612l0.823,0.579l0,0l-0.823-0.579l-2.217,4.796l0,0
	l-2.063,4.463l0.979,0.243l-2.033,4.396l-0.236-0.507l-1.866-4.035l-1.865,4.035l-2.648,5.728l-2.119-4.583l-0.904,0.634l0,0
	l0.904-0.634l-2.851-6.166l-1.705-3.683l-1.702,3.683l-2.855,6.166l0.907,0.634l0,0l-0.907-0.634l-2.434,5.268l-0.918,1.987
	l-2.545-5.504l-0.275,3.72l0.275-3.72l-2.235-4.833l0.977-0.245l-2.063-4.46l-0.148,2.031l0,0l0.148-2.031l-2.217-4.796
	l-2.596-5.612l-1.555-3.357l-1.55,3.357l-2.596,5.612l-2.219,4.796l0.153,2.031l0,0l-0.153-2.031l-2.063,4.46l0.979,0.245
	l-2.237,4.833l-1.265,2.737l-2.641-5.709l-0.316,4.293l0.316-4.293l-2.686-5.814l1.176-0.292l-2.482-5.363l0,0l-2.666-5.77
	l-0.992,0.696l0,0l0.992-0.696l-3.123-6.746l-1.862-4.035l-1.866,4.035l-3.121,6.746l-2.665,5.77l0.178,2.443l0,0l-0.181-2.443
	l-2.479,5.363l1.175,0.292l-1.855,4.012l-1.413-3.059l-2.599-5.612l-1.55-3.357l-1.552,3.357l-2.596,5.612l-2.219,4.798l0.15,2.029
	l0,0l-0.15-2.029l-2.063,4.46l0.98,0.243l-2.237,4.833l0.273,3.722l-0.275-3.722l-3.137,6.79l1.832,0.458l-1.527,3.301l-0.421-0.905
	l-1.703-3.69l-0.456,0.988l-0.683-1.474l-0.164,2.232l0,0l0.164-2.232l-2.436-5.268l-2.85-6.163l-1.705-3.69l-1.708,3.69
	l-2.848,6.163l0.902,0.634l0,0l-0.902-0.634l-2.353,5.087l-0.956-2.064l-0.826,0.574l0,0l0.826-0.574l-2.596-5.617l-1.552-3.354
	l-0.458,0.986l-1.307-2.827l-0.15,2.034l0,0l0.15-2.034l-2.219-4.793l-0.821,0.574l0,0l0.821-0.574l-2.593-5.615l-1.552-3.357
	l-1.555,3.357l-2.596,5.615l-2.216,4.793l0.15,2.034l0,0l-0.15-2.034l-2.063,4.463l0.979,0.243l-2.179,4.835L384,283.68v-0.002
	l-0.116-0.789l-0.181,0.333l-2.295-4.935l-3.128-6.749l-1.871-4.035l-0.455,0.985l0.017-0.046L376,268.55v0.002l-0.032-0.109
	l-2.687-5.763l-0.998,0.694l0,0l0.983-0.694l-3.121-6.749l-1.868-4.035l-1.868,4.035l-3.121,6.749l0.99,0.694l0,0l-0.99-0.694
	l-2.665,5.763l0.183,2.445l0,0l-0.183-2.445l-2.48,5.365l1.175,0.296l-2.686,5.809l0.194,2.638l-0.194-2.638l-3.776,8.162l2.2,0.551
	l-2.228,4.826l-0.632-1.374l1.305-0.326l-2.76-5.964l-0.199,2.718l0,0l0.199-2.716l-2.963-6.413l-1.099,0.771l0,0l1.099-0.771
	l-3.47-7.502l-2.073-4.488l-2.075,4.488l-2.707,5.853l-1.199-2.642L336,278.898v-0.002l0.255-3.811l-2.249-4.835l0.972-0.241
	l-2.067-4.465l0,0l-2.218-4.793l-0.827,0.576l0,0l0.826-0.576l-2.596-5.615l-1.555-3.357l-1.552,3.357l-2.594,5.615l0.824,0.576l0,0
	l-0.824-0.576l-2.218,4.793l0.15,2.033l0,0l-0.15-2.033l-2.064,4.465l0.977,0.243l-2.235,4.833l0.275,3.72l-0.275-3.72l-3.14,6.79
	l1.833,0.456l-1.004,2.174l-1.511-3.269l-0.202,2.718l0,0l0.199-2.718l-2.963-6.413l-1.102,0.772l0,0l1.102-0.772l-3.47-7.503
	l-2.075-4.485l-2.075,4.485l-3.47,7.503l0.337,0.238l0,0l-0.337-0.238l-3.5,6.413L295,282.072v0.004l0.476-0.839l-0.111,0.814
	l-2.184-5.016l-0.21,3.72l0.31-3.72l-2.22-4.833l0.985-0.248l-2.058-4.458l-0.15,2.031l0,0l0.154-2.031l-2.218-4.796l-0.823,0.576
	l0,0l0.823-0.576l-2.598-5.615l-1.55-3.354l-1.552,3.354l-2.596,5.615l0.826,0.576l0,0l-0.826-0.576l-2.216,4.796l0.113,1.527
	l-0.113-1.527l-2.063,4.458l0.976,0.248l-2.232,4.833l0.014,0.22l-0.002,0.002l-0.014-0.222l-1.266,2.739l-2.642-5.712l-0.194,2.635
	l0.194-2.635l-2.686-5.814l1.173-0.289l-2.478-5.367l-0.183,2.445l0,0l0.183-2.445l-2.667-5.765l-0.99,0.694l0,0l0.99-0.694
	l-3.121-6.746l-1.867-4.037l-1.865,4.037l-3.121,6.746l0.99,0.694l0,0l-0.99-0.694l-2.667,5.765l0.181,2.445l0,0l-0.181-2.445
	l-2.478,5.367l1.173,0.289l-2.688,5.814l0.319,4.296l-0.319-4.296l-3.773,8.162l2.205,0.55l-3.633,8.113l0.462,4.676v-0.002
	l-0.462-4.673l-0.971,1.964l-2.489-5.319l1.819-0.456l-3.146-6.79l-0.184,2.45l0.179-2.45l-2.238-4.835l0.978-0.246l-2.064-4.46
	l-0.15,2.031l0,0l0.15-2.031l-2.219-4.796l-2.593-5.615l-1.555-3.354l-1.552,3.354l-2.596,5.615l0.826,0.576l0,0l-0.826-0.576
	l-2.216,4.796l0.153,2.031l0,0l-0.153-2.031l-2.062,4.46l0.974,0.248l-2.235,4.833l0.183,2.45l-0.183-2.45l-3.139,6.79l1.834,0.456
	l-1.853,4.007l-2.499-5.402l-0.035,0.484l0,0l0.032-0.484l-2.235-4.833l0.979-0.245l-2.063-4.463l-0.15,2.036l0,0l0.15-2.036
	l-2.216-4.793l-2.596-5.615l-1.555-3.354l-1.552,3.354l-2.594,5.615l0.824,0.574l0,0l-0.824-0.574l-2.218,4.793l0.15,2.036l0,0
	l-0.15-2.036l-2.064,4.463l0.977,0.245l-0.588,1.27l-0.155-0.34l-0.06,0.81l0,0l0.06-0.81l-2.237-4.833l0.979-0.243l-2.064-4.465
	l-2.218-4.793l-0.824,0.576l0,0l0.824-0.576l-2.596-5.613l-1.553-3.354l-1.55,3.354l-2.598,5.613l0.826,0.576l0,0l-0.826-0.576
	l-2.216,4.793l0.15,2.036l0,0l-0.15-2.036l-2.061,4.465l0.974,0.243l-2.1,4.833l0.412,3.813v0.002l-0.412-3.815l-1.332,2.737
	l-2.677-5.709l-0.333,4.296l0.309-4.296l-2.69-5.809l1.173-0.296l-2.481-5.365l-0.183,2.445l0,0l0.183-2.445l-2.666-5.763
	l-0.993,0.694l0,0l0.993-0.694l-3.124-6.749l-1.864-4.037l-1.867,4.037l-3.121,6.749l-2.665,5.763l0.181,2.445l0,0l-0.181-2.445
	l-2.48,5.365l1.173,0.296l-2.688,5.809l0.321,4.296l-0.321-4.296l-3.773,8.164l2.205,0.551l-3.732,8.067L141,293.989l-0.34,4.606
	l0.34-4.606l-2.989-6.461l1.307-0.326l-2.76-5.964l-0.199,2.716l0,0l0.199-2.716l-2.963-6.413l-1.099,0.772l0,0l1.099-0.772
	l-3.47-7.503l-2.075-4.485l-2.075,4.485l-3.47,7.503l-2.964,6.413l0.202,2.716l0,0l-0.202-2.716l-2.757,5.964l1.307,0.326
	l-2.989,6.461l0.208,2.792l-0.208-2.792l-4.197,9.079l2.448,0.61l-3.535,7.644l-2.913-6.297l3.394-0.847l-4.574-9.895l-0.373,5.02
	l0.373-5.02l-3.123-6.749l1.834-0.456l-3.139-6.79l-0.183,2.45l0.183-2.45l-2.235-4.835l0.976-0.246l-2.061-4.46l-0.153,2.031l0,0
	l0.153-2.031l-2.221-4.796l-2.596-5.615l-1.55-3.354l-1.553,3.354l-2.596,5.615l0.824,0.576l0,0l-0.824-0.576l-2.218,4.796
	l0.15,2.031l0,0l-0.15-2.031l-2.064,4.46l0.979,0.248l-2.237,4.833l0.183,2.45l-0.183-2.45l-3.139,6.79l1.832,0.456l-2.582,5.583
	l-1.013-2.193l1.074-0.266l-2.265-4.905l-0.167,2.235l0,0l0.167-2.232l-2.436-5.266l-0.905,0.632l0,0l0.905-0.632l-2.85-6.167
	l-1.705-3.686l-1.705,3.686l-2.85,6.167l-1.058,2.279l-2.07-4.481l-0.993,0.691l0,0l0.993-0.691l-3.123-6.749l-1.865-4.035
	l-1.756,3.792l-1.569-3.394l-0.823,0.576l0,0l0.823-0.576l-2.593-5.613l-1.555-3.354l-1.55,3.354l-2.596,5.613l0.823,0.576l0,0
	l-0.823-0.576l-2.221,4.793l-2.061,4.465l0.979,0.243l-2.381,4.833L39,286.049v0.002l-0.138-3.815l-1.193,2.737l-2.604-5.709
	l-0.301,4.296l0.326-4.296l-2.679-5.809l1.175-0.296l-2.479-5.365l-0.18,2.445l0,0l0.178-2.445l-2.665-5.763l-3.119-6.749
	l-1.867-4.037l-1.867,4.037l-3.121,6.749l0.993,0.694l0,0l-0.993-0.694l-2.665,5.763l0.178,2.445l0,0l-0.178-2.445l-2.48,5.365
	l1.175,0.296l-2.688,5.809l0.317,4.296l-0.317-4.296l-3.773,8.164l1.351,0.551L6,293.471v2.258v0.502v0.618v1.971v0.671v2.357v1.034
	v0.017v2.248v1.051v0.458v0.225v2.001v0.551l0,0v0.231v0.659v1.952v0.014v4.03v0.287v1.49v1.896v0.306v2.508v1.756v1.068v0.583
	v4.317v0.644v2.662l0,0v6.545v0.058v0.748v2.14v0.002v1.624v1.689v4.206V351h2.075h1.388l0,0h3.813l0,0h6.14h2.057h0.005h2.024
	h0.303h0.254l0,0h0.923h0.687h0.139h0.507h2.015h4.831h0.368h0.002H39l0,0h4.384l0,0h1.95h0.09h0.28h1.492h0.002h1.807h1.011h0.238
	h0.722l0,0h0.865h0.051h2.154h1.603l0,0h0.613h0.308h0.002h0.777h0.266h3.1h1.664h0.129h1.971l0,0h0.667h0.49h1.564h0.019h0.097
	h0.213h1.214h3.109h0.165h0.037h0.292h1.18l0,0h1.652h1.839h0.271h0.775h0.724h0.002H79l0,0h1.909h2.554h0.002h0.917h2.475h1.631
	h0.248h1.712h5.881h3.66h2.542l0,0h3.186h5.756h2.099h1.036h0.678h1.126l0,0h1.828h1.675h0.262h4.051h0.657h3.278h0.178h0.102h3.556
	h0.458h2.95h1.557h1.122h2.529l0,0h0.981h0.123h1.395h2.098h5.06h3.362h0.16l0,0h1.073h2.057h0.002h2.586h0.483h0.435h1.224h0.111
	h4.444h1.967h0.002h1.499h3.361h0.731h7.015h0.09h0.719h1.099l0,0h1.76h2.839h0.048h0.377h0.186h5.936h4.829h1.927h0.47h0.023h0.579
	h0.985h0.329h0.21h0.743h0.261h1.032h2.031l0,0h0.046h0.162h0.331h1.43h0.465l0,0h0.421h4.218l0,0h8.659h0.377h0.571h3.417h1.252
	h5.24h2.547h2.221h4.271l0,0h1.837h2.799l0,0h1.164h3.315h0.736h0.111h0.257h0.019h0.188h0.081h0.123h0.146h0.363h0.329h0.035h0.139
	h0.092h3.283h2.425h0.9h1.011h3.036h5.105h0.012h0.842h1.354h1.92h4.129h0.155l0,0h2.214l0,0h1.52h2.036l0,0h0.664h5.638h3.632h1.67
	h2.272h0.048h1.407h0.192h0.137h0.106h0.287l0,0h0.063h0.148h0.141h0.102h1.559h0.252l0,0h0.18h0.222h0.002h1.133h0.111h1.004l0,0
	h0.044h0.421h0.433h1.557h0.102h0.143h0.148l0,0h0.782h1.458h1.781h0.146h1.795h1.823h1.807h2.799h1.464h2.698h1.929h3.184l0,0
	h2.547h0.208h0.391h1.71h1.349h2.003h1.021h0.183h0.254h2.378h0.042h0.111h0.15h1.106h0.956h0.314h0.257h0.694h0.511h3.401h0.201
	h1.839h1.106h0.803l0,0h1.256h2.561h1.652l0,0h5.191h2.313h0.002h0.116h1.423l0,0h0.277h0.394l0,0h1.154h0.146h1.532h0.261h0.618
	h0.227h1.02h0.056h0.009h1.876h0.065h0.583h0.099h0.683h1.941h0.009h1.3h1.439h0.777h0.354h7.246h0.475h0.477h0.116h1.834l0,0h0.085
	h0.002h0.428l0,0h0.077h0.002h0.638h2.17h0.159h0.095h1.571h0.756h0.002h0.125h0.865h0.386h0.386l0,0h0.759h0.389h0.606h0.148h1.411
	h0.722h2.062h0.164h1.77h0.358h0.854h1.414l0,0h0.225h1.464h0.417h0.546h0.002h2.63h0.197h0.143h4.044h0.567h4.953h2.702h4.132
	h0.003h0.027h0.564l0,0h1.832h0.238h2.004h3.047h0.164h0.078h0.334h1.584h0.125h0.608l0,0h2.266h2.408h2.013h3.1h1.689h0.259h0.465
	h0.358h0.935h3.702h0.071h1.316h0.003h3.81h6.232h3.405h0.521h0.064h0.305h0.186h0.65h1.029h0.141h2.52h4.831h0.367h5.472h0.002
	h0.285h0.289h0.972h0.735h2.101h0.919h0.673h0.118h0.61h1.173h0.317h0.002h0.914h0.377h1.529h0.238h0.718h0.002h3.072h1.604l0,0
	h0.615h0.306h0.777h0.266h0.002h3.103h0.539l0,0h1.125h0.129h1.969h0.003h0.735h2.001h0.098h1.521h3.219h1.471l0,0h1.652h1.837
	h0.269h0.777h0.724l0,0h0.211l0,0h1.91h2.305h0.25h0.918h1.558h0.793h0.003h0.125h1.873h1h0.717h0.84h2.531h2.508h3.657h1.144h1.403
	h2.2h0.983h0.405h5.746h1.474h0.521h0.556h0.189h1.805l0,0h1.825h1.938h1.032h0.1h6.692h0.16h0.368h0.224h0.324h1.67h0.923h0.854
	h1.682h0.292l0,0h0.77h0.139h0.926h0.157h0.118h1.073h0.347h0.059h0.784h1.747h0.673h0.426h0.296h0.821h4.676h2.762h0.289h3.072
	h0.16h3.049h0.806h0.233h0.706h0.707h0.447h0.256h1.231h0.426h4.555h0.407h1.56l0,0h0.157h1.335h0.007h3.364h0.73h0.231h0.551h3.488
	h0.699h1.119h1.735h1.102l0,0h2.082h0.791h0.005h2.145h0.183h0.671h0.167h1.39h2.531h1.183h1.232h3.593h1.314h0.097h0.986h0.294
	h0.229h0.076h0.118h0.108h0.299h0.019h0.983h0.604h0.141h1.289h2.033l0,0h1.969h0.463h0.002h3.924h0.713l0,0h3.616h1.022h1.941
	h2.459h0.338h3.322h0.337h0.794h0.449h1.898h0.856h1.682h0.292l0,0h0.509h0.262h1.062h0.277h0.951h0.47h0.842h3.142h1.018h1.016
	h4.637h0.002h1.164h3.317h0.845h0.257h0.021h0.186h0.083h0.122h0.144h0.361h0.595h0.715h0.411l0,0h1.291h0.269h0.955h1.213h10.91
	h0.01h2.195h0.701h1.219h0.814l0,0h3.313h0.155l0,0h2.313h9.761h2.454h1.176h0.847h0.825h3.704h0.456h0.296h0.287h1.3h0.271h0.437
	l0,0h0.394h0.051h0.451h0.608h0.477h0.164h0.044h0.042h0.448h0.491h0.789h0.881h0.074h0.051h0.044h1.055h2.406h0.897h0.123h1.934
	h1.825h0.003h1.805h0.56h1.607h2.097h1.018h2.533h0.134l0,0h0.944h0.358l0,0h0.731h0.159l0,0h1.673h0.259l0,0h0.248h0.733h1.318
	h0.248h2.232h0.955h0.377h0.093h0.4h1.941h0.682h1.495h1.364h2.32h3.85h0.898h0.433h2.038h0.444h1.462l0,0h0.801h2.412h0.609h0.124
	h0.106h0.103h2.072h2.32h4.257h0.007h0.28h0.1h1.325h0.606h0.678h0.907l0,0h1.21h0.106h0.257h0.071h1.212h2.004h0.115h0.958h0.6
	h4.044H836v-4.583v-3.815v-1.631v-0.056v-1.367l0,0v-3.613l0,0v-3.898v-0.15v-0.178v-1.661v-0.93v-2.791v-2.148v-0.896v-3.103
	v-5.393v-3.517l0,0v-1.193v-4.796v-3.148v-0.604v-5.305v-2.276v-4.421L835.297,288.467z M679.026,287.897l-0.146-0.31l0.256,0.065
	L679.026,287.897z M625.188,294.667v0.002l0,0V294.667L625.188,294.667z M576.819,275.597l-0.405-0.282l0,0L576.819,275.597
	L576.819,275.597z M557.269,286.593l-0.209-0.454l0.373,0.095L557.269,286.593z M489.852,283.444l-0.188-0.412l0.34,0.088
	L489.852,283.444z M466.886,282.04l-0.208-0.451l0.374,0.095L466.886,282.04z M383.989,285.031v-0.002l0,0V285.031L383.989,285.031z
	 M172.982,289.843l-0.208-0.451l0.372,0.092L172.982,289.843z M37.535,289.843l-0.208-0.451l0.372,0.092L37.535,289.843z
	 M776.16,283.477L776.16,283.477L776.16,283.477L776.16,283.477L776.16,283.477z M766.177,282.128L766.177,282.128l0.019-0.252l0,0
	L766.177,282.128z M723.378,288.601L723.378,288.601l-0.308-0.215h-0.005L723.378,288.601z M716.373,269.822L716.373,269.822h-0.003
	l0,0H716.373z M703.984,269.822L703.984,269.822L703.984,269.822L703.984,269.822L703.984,269.822z M694.205,285.057
	L694.205,285.057L694.205,285.057L694.205,285.057L694.205,285.057z M678.471,286.702l-0.215-0.467l0.488-0.123L678.471,286.702z
	 M651.405,271.118l-0.421-0.914l0.956-0.241L651.405,271.118z M575.954,274.315l-0.076-0.165l0.171-0.04L575.954,274.315z
	 M527.153,265.27L527.153,265.27L527.153,265.27L527.153,265.27L527.153,265.27z M489.254,282.148l-0.215-0.465l0.488-0.123
	L489.254,282.148z M484.238,267.22L484.238,267.22L484.238,267.22L484.238,267.22L484.238,267.22z M471.853,267.22L471.853,267.22
	L471.853,267.22L471.853,267.22L471.853,267.22z M430.237,273.721L430.237,273.721L430.237,273.721L430.237,273.721L430.237,273.721
	z M420.458,288.957L420.458,288.957L420.458,288.957L420.458,288.957L420.458,288.957z M399.711,275.673L399.711,275.673
	L399.711,275.673L399.711,275.673L399.711,275.673z M387.32,275.673L387.32,275.673L387.32,275.673L387.32,275.673L387.32,275.673z
	 M233.25,273.073L233.25,273.073L233.25,273.073L233.25,273.073L233.25,273.073z M220.861,273.073L220.861,273.073L220.861,273.073
	L220.861,273.073L220.861,273.073z M208.218,278.924L208.218,278.924L208.218,278.924L208.218,278.924L208.218,278.924z
	 M195.83,278.924L195.83,278.924L195.83,278.924L195.83,278.924L195.83,278.924z M177.947,275.023L177.947,275.023L177.947,275.023
	L177.947,275.023L177.947,275.023z M97.803,273.073L97.803,273.073L97.803,273.073L97.803,273.073L97.803,273.073z M85.415,273.073
	L85.415,273.073L85.415,273.073L85.415,273.073L85.415,273.073z"/>
</svg>
