
<svg version="1.1" id="Layer_1" xmlns="http://www.w3.org/2000/svg" xmlns:xlink="http://www.w3.org/1999/xlink" x="0px" y="0px"
	 viewBox="0 0 841.89 595.28" enable-background="new 0 0 841.89 595.28" xml:space="preserve">
<path fill="#010101" d="M822.322,242.498c-0.823-1.218-0.746-3.057,0.794-4.021c2.227-1.398,4.661-2.65,6.388-4.573
	c0.759-0.843,1.331-2.249,0.492-3.01c-0.392-0.36-0.969-0.422-1.501-0.417c-1.839,0.018-3.66,0.609-5.487,0.427
	c-1.831-0.188-3.789-1.598-3.582-3.424c0.113-1.011,0.834-1.869,1.58-2.687c1.132-1.24,0.338-3.236-1.333-3.362l-0.074-0.002
	c-1.708-0.125-2.421-2.255-1.124-3.382l0.133-0.118c1.475-1.282,0.338-3.678-1.592-3.362c-0.533,0.084-1.063,0.16-1.593,0.192
	c-2.248,0.141-5.031-1.117-4.923-3.362c0.089-1.911,2.189-3.013,4.04-3.508c1.847-0.496,3.986-0.957,4.901-2.635
	c0.177-0.331,0.295-0.703,0.248-1.078c-0.204-1.538-2.457-1.318-4-1.126c-2.251,0.281-5.143-1.629-4.166-3.675
	c0.436-0.915,1.461-1.358,2.216-2.034c0.752-0.675,1.166-2.046,0.32-2.603c-0.311-0.205-0.702-0.229-1.075-0.21
	c-1.38,0.069-2.724,0.634-4.106,0.552c-0.015,0-0.027-0.002-0.044-0.002c-1.81-0.138-2.315-2.581-0.799-3.579
	c1.553-1.021,4.737-1.432,4.097-3.745c-1.407-2.021-4.91-0.086-7.095-1.223c-0.838-0.436,0.996-13.481-5.524-7.846
	c-2.31,1.994,2.026,6.685-0.705,8.537c-1.365,0.927-5.006-0.858-5.943,0.991c-0.697,1.371,0.935,2.722,2.3,3.427
	c1.361,0.705,5.118,2.117,2.688,3.182c-1.104,0.331-2.951-0.214-4.075,0.19c-1.121,0.404-1.996,1.735-1.474,2.805
	c0.385,0.787,1.307,1.112,2.028,1.607c0.718,0.491,1.287,1.553,0.688,2.191c-1.455-0.089-2.922-0.027-4.368,0.185
	c-1.894,0.278-2.44,2.749-0.813,3.759c0.104,0.062,0.204,0.125,0.308,0.185c1.268,0.75,2.652,1.477,3.377,2.759
	c0.72,1.279,0.338,3.295-1.089,3.653c-1.188,0.301-2.591-0.628-3.59,0.077c-1.354,0.954,0.042,3.02,1.413,3.949
	c1.373,0.932,2.882,2.859,1.629,3.947c-2.827-0.365-5.654-0.73-8.482-1.095c-0.692-0.086-1.432-0.167-2.061,0.136
	c-1.548,0.751-1.179,3.236,0.131,4.358c1.312,1.122,3.11,1.44,4.627,2.261c1.516,0.823,2.825,2.667,2.023,4.196
	c-0.914,1.745-3.463,1.405-5.379,0.929c-0.513-0.131-1.077-0.244-1.55-0.017c-1.287,0.616-0.446,2.679,0.818,3.345
	c1.397,0.735,3.271,1.006,3.695,2.682c0.364,1.432-0.715,2.793-2.146,3.163c-2.596,0.661-4.732-0.937-7.052-1.723
	c-2.108-0.715-5.005-0.461-5.606,1.916c-0.33,1.289,0.296,2.645,1.329,3.483c2.28,1.851,5.226,1.536,7.805,2.465
	c0.899,0.323,1.861,0.986,1.844,1.942c-0.013,0.641-0.474,1.181-0.949,1.61c-1.664,1.501-3.833,2.431-6.066,2.596
	c-1.719,0.131-3.76-0.052-4.832,1.297c-0.357,0.449-0.545,1.013-0.616,1.583c-0.104,0.833-0.152,1.467-0.02,1.997
	c-0.111-0.042-0.215-0.101-0.323-0.146c0-0.027,0.005-0.057,0.005-0.086c-0.054-1.911-2.058-2.453-3.705-2.705l0.064,0.055
	c-0.301,0.076-1.198-0.833-1.496-0.897c-1.321-0.276-1.284-2.263,0.034-2.544c0.935-0.202,1.832-0.604,2.601-1.171
	c0.734-0.545,0.382-1.716-0.53-1.8c-1.688-0.158-3.906,0.816-5.514-0.017c-0.254-0.133-0.496-0.326-0.58-0.597
	c-0.372-1.223,2.182-1.047,2.727-2.201c0.353-0.75-0.443-1.598-1.267-1.733c-0.816-0.136-1.645,0.15-2.473,0.175
	c-0.828,0.022-1.81-0.384-1.92-1.208c-0.146-1.075,1.197-1.666,2.265-1.844c1.072-0.175,2.429-0.586,2.48-1.669
	c-0.564-0.929-1.942-0.638-3.018-0.468c-0.215,0.035-0.453,0.032-0.692,0.002c-0.939-0.123-0.952-1.462-0.042-1.728
	c0.801-0.232,1.548-0.648,2.157-1.213c0.298-0.273,0.301-0.722,0.007-1c-0.385-0.357-1.011-0.518-1.561-0.486
	c-0.811,0.047-1.617,0.348-2.418,0.219c-0.801-0.135-1.572-1.008-1.171-1.718c0.141-0.249,0.395-0.415,0.641-0.57
	c0.922-0.582,3.069-0.298,2.767-1.745c-0.585-0.897-1.859-0.902-2.906-1.126c-1.046-0.225-2.18-1.341-1.549-2.204
	c0.535-0.513,1.378-0.488,2.066-0.759c0.692-0.276,1.205-1.311,0.574-1.703c-0.202-0.124-0.459-0.124-0.698-0.113
	c-0.71,0.042-1.459,0.172-2.12-0.101c-0.66-0.271-1.119-1.174-0.655-1.718c0.646-0.757,2.31-0.104,2.647-1.045
	c0.288-0.811-0.899-1.282-1.763-1.355c-0.862-0.074-2.014-0.75-1.548-1.479c0.049-0.407,2.184-0.412,1.962-1.296
	c-0.273-1.1-2.654-1.126-2.216-2.169c0.688,0.066,1.435,0.121,1.967-0.414c0.181-0.18,0.309-0.552,0.254-0.801
	c-0.133-0.589-0.653-0.604-1.053-0.809c-1.035-0.525-0.963-1.987-0.937-3.143c0.013-0.502-0.099-1.072-0.32-1.538
	c-0.39-0.811-1.538-0.793-1.979-0.012c-0.634,1.131-1.134,2.339-1.474,3.587c-0.234,0.858-1.028,1.435-1.913,1.371
	c0,0-0.844,0.155-1.053,0.333c-0.707,0.58,0.917,1.361,1.467,2.088c0.555,0.727,0.919,1.942,0.138,2.411
	c-0.537,0.32-1.21,0.01-1.814-0.15c-0.606-0.161-1.481,0.054-1.464,0.68c-0.246,0.256,0.794,1.252,1.523,2.372
	c0.5,0.769-0.099,1.777-1.014,1.718l-0.665-0.042c-0.89-0.054-1.43,0.957-0.897,1.667l1.444,1.91
	c0.175,0.229,0.355,0.479,0.355,0.767c0.002,0.762-1.107,0.915-1.827,0.663s-1.619-0.606-2.151-0.062
	c-0.22,1.794,2.44,3.015,1.839,4.911c-0.207,0.658-0.789,1.134-1.447,1.336c-0.851,0.261-1.691,0.136-2.51-0.111
	c-0.67-0.202-1.297,0.456-1.027,1.104c0.229,0.549,0.628,1.06,1.069,1.466c0.937,0.858,2.108,1.467,2.815,2.547
	c0.35,0.532,0.508,1.205,0.273,1.799c-0.836,2.123-5.098,0.323-6.288,2.376c-0.828,1.242,1.538,2.342,3.367,3.628
	c1.085,0.757,0.966,2.448-0.239,2.99c-1.75,0.792-4.117,0.836-5.832,1.871c-0.294,0.177-0.59,0.417-0.646,0.754
	c-0.094,0.547,0.459,0.964,0.939,1.24l1.371,0.782c0.224,0.13,0.389,0.301,0.522,0.493c-1.381,0.838-2.727,1.701-4.038,2.554
	c-1.886,1.223-3.917,2.394-6.024,3.404c-0.865-0.197-1.716-0.399-2.456-0.732c-1.202-0.542-1.321-2.236-0.241-2.995
	c1.829-1.284,4.198-2.384,3.372-3.626c-1.188-2.056-5.455-0.254-6.291-2.379c-0.234-0.592-0.073-1.265,0.273-1.797
	c0.711-1.08,1.881-1.689,2.815-2.547c0.444-0.404,0.841-0.914,1.072-1.469c0.267-0.648-0.359-1.307-1.03-1.102
	c-0.818,0.249-1.659,0.375-2.51,0.113c-0.658-0.202-1.237-0.68-1.449-1.338c-0.602-1.898,2.063-3.116,1.844-4.911
	c-0.535-0.545-1.432-0.19-2.154,0.062c-0.72,0.251-1.826,0.099-1.826-0.663c0.002-0.286,0.185-0.537,0.354-0.769l1.444-1.91
	c0.538-0.708-0.007-1.718-0.893-1.662l-0.67,0.04c-0.914,0.059-1.511-0.952-1.014-1.721c0.73-1.114,1.771-2.11,1.526-2.372
	c0.015-0.626-0.86-0.838-1.467-0.678c-0.604,0.158-1.274,0.473-1.812,0.15c-0.784-0.468-0.414-1.684,0.136-2.411
	c0.554-0.727,2.179-1.508,1.472-2.09c-0.215-0.175-1.061-0.33-1.061-0.33c-0.88,0.064-1.674-0.513-1.91-1.366
	c-0.343-1.252-0.838-2.46-1.472-3.592c-0.444-0.787-1.59-0.801-1.979,0.012c-0.222,0.466-0.333,1.038-0.323,1.536
	c0.027,1.161,0.099,2.621-0.935,3.148c-0.398,0.202-0.922,0.217-1.055,0.809c-0.055,0.247,0.071,0.621,0.257,0.801
	c0.532,0.53,1.279,0.478,1.967,0.412c0.438,1.045-1.942,1.07-2.216,2.169c-0.223,0.885,1.915,0.887,1.962,1.296
	c0.466,0.73-0.688,1.405-1.548,1.479c-0.863,0.074-2.057,0.544-1.766,1.358c0.341,0.937,2,0.286,2.647,1.045
	c0.464,0.542,0.005,1.444-0.65,1.718c-0.663,0.271-1.41,0.14-2.122,0.101c-0.242-0.015-0.496-0.013-0.698,0.113
	c-0.634,0.392-0.118,1.427,0.572,1.698c0.69,0.276,1.53,0.249,2.068,0.762c0.628,0.865-0.503,1.979-1.548,2.204
	c-1.046,0.227-2.322,0.229-2.904,1.126c-0.306,1.447,1.839,1.164,2.761,1.745c0.244,0.153,0.501,0.318,0.644,0.57
	c0.399,0.709-0.37,1.587-1.174,1.718c-0.799,0.131-1.604-0.17-2.415-0.219c-0.55-0.032-1.179,0.13-1.561,0.491
	c-0.296,0.273-0.294,0.722,0.005,0.996c0.613,0.564,1.355,0.981,2.156,1.213c0.912,0.266,0.9,1.603-0.044,1.728
	c-0.234,0.03-0.474,0.03-0.688-0.002c-0.88-0.138-1.945-0.345-2.618,0.079c-0.089-0.089-0.197-0.168-0.301-0.229
	c-1.252-0.757-2.98-0.792-4.26-1.366c-0.877-0.397-0.964-1.632-0.175-2.187c1.336-0.937,3.069-1.738,2.46-2.647
	c-0.865-1.499-3.98-0.185-4.588-1.733c-0.172-0.434-0.057-0.927,0.197-1.314c0.518-0.786,1.371-1.235,2.054-1.861
	c0.323-0.295,0.614-0.668,0.784-1.07c0.197-0.471-0.262-0.954-0.752-0.806c-0.599,0.18-1.208,0.274-1.829,0.082
	c-0.483-0.148-0.907-0.496-1.06-0.974c-0.439-1.385,1.503-2.278,1.341-3.587c-0.385-0.397-1.043-0.135-1.568,0.047
	c-0.524,0.183-1.336,0.069-1.333-0.483c0-0.212,0.131-0.395,0.256-0.56l1.058-1.398c0.39-0.518-0.005-1.254-0.653-1.213l-0.49,0.03
	c-0.666,0.042-1.102-0.695-0.737-1.257c0.532-0.816,1.292-1.543,1.112-1.73c0.01-0.456-0.627-0.614-1.068-0.498
	c-0.44,0.119-0.934,0.348-1.323,0.114c-0.572-0.345-0.306-1.233,0.097-1.765c0.403-0.528,1.592-1.102,1.074-1.523
	c-0.158-0.126-0.77-0.242-0.77-0.242c-0.646,0.049-1.225-0.37-1.397-0.999c-0.249-0.912-0.611-1.792-1.074-2.618
	c-0.323-0.572-1.161-0.584-1.445,0.007c-0.162,0.34-0.241,0.757-0.236,1.124c0.02,0.846,0.074,1.911-0.683,2.295
	c-0.291,0.146-0.671,0.158-0.767,0.589c-0.045,0.18,0.054,0.456,0.183,0.584c0.389,0.392,0.937,0.353,1.439,0.301
	c0.32,0.762-1.42,0.784-1.62,1.585c-0.16,0.646,1.4,0.648,1.435,0.947c0.338,0.533-0.502,1.025-1.131,1.083
	c-0.629,0.052-1.499,0.396-1.287,0.988c0.244,0.685,1.459,0.209,1.931,0.764c0.337,0.397,0.005,1.055-0.479,1.255
	c-0.48,0.197-1.025,0.101-1.546,0.071c-0.178-0.01-0.362-0.007-0.508,0.084c-0.461,0.286-0.091,1.042,0.414,1.242
	c0.506,0.2,1.119,0.18,1.512,0.552c0.458,0.634-0.367,1.447-1.132,1.61c-0.765,0.165-1.693,0.167-2.115,0.823
	c-0.227,1.058,1.339,0.848,2.015,1.274c0.18,0.111,0.362,0.229,0.468,0.417c0.291,0.515-0.269,1.156-0.855,1.252
	s-1.173-0.126-1.765-0.158c-0.402-0.025-0.858,0.094-1.142,0.353c-0.217,0.202-0.212,0.532,0.005,0.732
	c0.449,0.409,0.991,0.715,1.578,0.885c0.665,0.192,0.653,1.168-0.032,1.259c-0.173,0.022-0.348,0.022-0.508,0
	c-0.781-0.123-1.79-0.337-2.199,0.34c0.037,0.789,1.028,1.09,1.808,1.22c0.781,0.128,1.762,0.562,1.656,1.346
	c-0.027,0.214-0.155,0.372-0.311,0.51c-2.775-2.448-9.419,0-10.814-3.552c-0.427-1.08-0.139-2.313,0.498-3.286
	c1.294-1.975,3.432-3.084,5.14-4.651c0.809-0.74,1.536-1.672,1.955-2.68c0.492-1.181-0.651-2.386-1.876-2.014
	c-1.497,0.451-3.032,0.68-4.586,0.205c-1.205-0.37-2.26-1.24-2.64-2.44c-1.1-3.466,3.757-5.689,3.354-8.966
	c-0.974-0.996-2.615-0.345-3.929,0.111c-1.312,0.461-3.341,0.18-3.335-1.21c0.002-0.525,0.332-0.981,0.647-1.4l2.641-3.49
	c0.976-1.297-0.015-3.138-1.635-3.037l-1.223,0.076c-1.666,0.106-2.758-1.738-1.846-3.14c1.328-2.044,3.229-3.86,2.777-4.332
	c0.035-1.144-1.565-1.536-2.672-1.242c-1.104,0.291-2.332,0.863-3.311,0.273c-1.433-0.855-0.757-3.074,0.251-4.403
	c1.006-1.326,3.972-2.756,2.686-3.816c-0.393-0.32-1.934-0.604-1.934-0.604c-1.617,0.121-3.059-0.934-3.487-2.495
	c-0.627-2.288-1.531-4.494-2.694-6.552c-0.807-1.435-2.902-1.464-3.609,0.018c-0.406,0.853-0.613,1.893-0.592,2.805
	c0.05,2.12,0.18,4.785-1.708,5.746c-0.732,0.372-1.679,0.399-1.921,1.474c-0.104,0.458,0.131,1.137,0.461,1.467
	c0.975,0.974,2.338,0.873,3.59,0.752c0.804,1.905-3.543,1.955-4.043,3.964c-0.404,1.612,3.496,1.62,3.584,2.366
	c0.849,1.332-1.252,2.566-2.827,2.702c-1.573,0.13-3.752,0.993-3.217,2.475c0.613,1.716,3.648,0.525,4.831,1.911
	c0.846,0.994,0.008,2.638-1.197,3.138c-1.208,0.498-2.569,0.256-3.871,0.182c-0.438-0.024-0.901-0.022-1.273,0.209
	c-1.151,0.712-0.213,2.604,1.047,3.104c1.26,0.498,2.791,0.454,3.777,1.391c1.15,1.578-0.918,3.614-2.828,4.025
	c-1.913,0.412-4.24,0.417-5.305,2.054c-0.555,2.645,3.365,2.125,5.046,3.187c0.446,0.284,0.909,0.584,1.171,1.043
	c0.729,1.292-0.67,2.894-2.137,3.13c-1.465,0.242-2.934-0.311-4.42-0.394c-1.004-0.059-2.147,0.234-2.848,0.887
	c-0.537,0.505-0.532,1.329,0.01,1.827c1.119,1.03,2.482,1.79,3.941,2.216c1.667,0.483,1.64,2.923-0.081,3.15
	c-0.429,0.059-0.862,0.059-1.265-0.005c-1.957-0.308-4.477-0.838-5.504,0.857c0.094,1.975,2.573,2.729,4.528,3.052
	c1.949,0.32,4.407,1.402,4.141,3.362c-0.204,1.501-1.994,2.248-3.51,2.204c-1.517-0.042-3.024-0.564-4.519-0.315
	c-1.494,0.244-2.958,1.794-2.31,3.165c0.99,2.105,5.654,1.785,4.979,4.013c-0.153,0.498-0.595,0.853-1.063,1.095
	c-2.937,1.523-6.981-0.261-10.07,0.029c-1.661,0.153-2.303,2.292-0.964,3.286c1.407,1.041,3.037,1.772,4.748,2.14
	c2.411,0.515,2.478,4.137,0.063,4.645c-0.473,0.101-1.782,1.383-2.475,1.614c-0.01,0.002-0.018,0.002-0.032,0.005
	c-0.084,0.024-0.165,0.039-0.224,0.022l0.12-0.106c-2.677,0.412-5.856,1.245-6.606,3.88c-6.572,7.509-5.266,23.042-12.65,31.741
	c-2.125-0.2-4.549,0.047-5.233-1.696c-0.311-0.789-0.102-1.687,0.362-2.391c0.943-1.438,2.499-2.249,3.744-3.39
	c0.587-0.535,1.119-1.215,1.423-1.948c0.357-0.86-0.477-1.74-1.368-1.469c-1.085,0.333-2.207,0.495-3.338,0.15
	c-0.873-0.271-1.645-0.905-1.923-1.777c-0.802-2.524,2.738-4.144,2.445-6.528c-0.705-0.725-1.903-0.254-2.859,0.082
	c-0.957,0.333-2.431,0.13-2.431-0.883c0-0.379,0.241-0.715,0.473-1.018l1.923-2.544c0.71-0.939-0.012-2.283-1.188-2.211
	l-0.896,0.059c-1.215,0.076-2.009-1.267-1.341-2.288c0.969-1.489,2.35-2.81,2.021-3.155c0.022-0.831-1.139-1.114-1.942-0.905
	c-0.806,0.214-1.698,0.628-2.413,0.202c-1.04-0.621-0.553-2.238,0.183-3.207c0.731-0.966,2.894-2.007,1.954-2.776
	c-0.283-0.234-1.405-0.441-1.405-0.441c-1.176,0.086-2.229-0.68-2.541-1.816c-0.459-1.662-1.114-3.269-1.965-4.772
	c-0.584-1.043-2.11-1.063-2.625,0.015c-0.294,0.621-0.444,1.38-0.432,2.043c0.039,1.543,0.136,3.483-1.24,4.184
	c-0.532,0.271-1.225,0.291-1.397,1.072c-0.076,0.335,0.094,0.828,0.333,1.067c0.71,0.708,1.701,0.638,2.613,0.55
	c0.586,1.385-2.579,1.422-2.943,2.881c-0.294,1.178,2.544,1.183,2.61,1.726c0.618,0.971-0.915,1.869-2.062,1.967
	c-1.141,0.096-2.729,0.722-2.342,1.805c0.449,1.247,2.658,0.379,3.521,1.388c0.614,0.722,0.003,1.92-0.872,2.283
	c-0.878,0.365-1.871,0.19-2.82,0.135c-0.318-0.017-0.653-0.015-0.925,0.153c-0.841,0.521-0.155,1.896,0.762,2.258
	c0.917,0.365,2.034,0.333,2.749,1.011c0.838,1.151-0.668,2.633-2.062,2.931c-1.39,0.298-3.086,0.303-3.857,1.499
	c-0.407,1.923,2.448,1.545,3.673,2.314c0.325,0.208,0.661,0.427,0.851,0.765c0.532,0.941-0.488,2.105-1.556,2.277
	c-1.064,0.178-2.135-0.227-3.215-0.286c-0.729-0.044-1.564,0.167-2.078,0.648c-0.392,0.365-0.384,0.964,0.011,1.329
	c0.813,0.747,1.804,1.301,2.869,1.609c1.213,0.353,1.195,2.13-0.057,2.298c-0.315,0.039-0.631,0.042-0.925-0.005
	c-1.425-0.225-3.254-0.611-4.006,0.624c0.069,1.439,1.874,1.987,3.296,2.223c1.42,0.229,3.21,1.021,3.015,2.447
	c-0.147,1.094-1.449,1.637-2.554,1.606c-1.104-0.029-2.201-0.414-3.291-0.231c-1.092,0.178-2.151,1.307-1.679,2.303
	c0.721,1.533,4.112,1.302,3.621,2.924c-0.107,0.364-0.434,0.621-0.766,0.793c-2.143,1.114-5.086-0.187-7.337,0.025
	c-0.461,0.039-0.811,0.296-1.018,0.631c0.094-0.37,0.236-0.725,0.448-1.05c1.014-1.544,2.689-2.416,4.03-3.648
	c0.634-0.577,1.203-1.312,1.533-2.101c0.385-0.927-0.51-1.87-1.474-1.581c-1.171,0.358-2.374,0.536-3.597,0.16
	c-0.941-0.289-1.77-0.972-2.07-1.913c-0.865-2.717,2.95-4.467,2.635-7.033c-0.765-0.781-2.054-0.273-3.081,0.089
	c-1.033,0.357-2.618,0.141-2.615-0.952c0-0.412,0.258-0.769,0.502-1.097l2.071-2.739c0.769-1.018-0.008-2.463-1.279-2.384
	l-0.959,0.059c-1.307,0.084-2.165-1.363-1.45-2.46c1.046-1.603,2.535-3.027,2.18-3.399c0.024-0.9-1.226-1.203-2.096-0.976
	c-0.865,0.231-1.826,0.678-2.596,0.219c-1.124-0.67-0.594-2.414,0.195-3.456c0.791-1.043,3.115-2.162,2.107-2.99
	c-0.309-0.254-1.516-0.476-1.516-0.476c-1.265,0.094-2.401-0.734-2.736-1.959c-0.493-1.79-1.203-3.522-2.115-5.14
	c-0.631-1.124-2.273-1.146-2.83,0.017c-0.315,0.668-0.479,1.484-0.461,2.199c0.037,1.662,0.141,3.754-1.344,4.506
	c-0.572,0.291-1.318,0.315-1.509,1.159c-0.079,0.355,0.106,0.89,0.365,1.149c0.762,0.764,1.834,0.688,2.817,0.589
	c0.629,1.499-2.78,1.533-3.175,3.111c-0.313,1.265,2.743,1.272,2.813,1.856c0.666,1.042-0.983,2.011-2.219,2.118
	c-1.234,0.106-2.94,0.781-2.521,1.942c0.479,1.346,2.864,0.414,3.789,1.499c0.665,0.779,0.01,2.071-0.937,2.46
	c-0.952,0.389-2.017,0.202-3.04,0.143c-0.343-0.015-0.705-0.015-0.996,0.165c-0.904,0.56-0.17,2.043,0.818,2.436
	c0.989,0.392,2.189,0.355,2.964,1.089c0.904,1.238-0.721,2.837-2.219,3.16c-1.502,0.321-3.326,0.323-4.159,1.612
	c-0.437,2.071,2.638,1.664,3.957,2.497c0.35,0.222,0.715,0.456,0.919,0.818c0.572,1.013-0.525,2.27-1.676,2.457
	c-1.151,0.187-2.303-0.242-3.469-0.313c-0.786-0.047-1.684,0.188-2.235,0.702c-0.419,0.394-0.415,1.035,0.01,1.43
	c0.877,0.803,1.947,1.399,3.091,1.735c1.307,0.379,1.287,2.297-0.062,2.475c-0.335,0.044-0.678,0.044-0.991-0.005
	c-1.54-0.241-3.513-0.661-4.321,0.671c0.077,1.553,2.021,2.14,3.555,2.396c1.531,0.252,3.456,1.1,3.247,2.638
	c-0.16,1.179-1.565,1.765-2.754,1.726c-1.186-0.029-2.371-0.438-3.545-0.246c-1.171,0.192-2.314,1.41-1.81,2.484
	c0.776,1.646,4.435,1.4,3.902,3.15c-0.118,0.39-0.466,0.666-0.825,0.854c-2.308,1.197-5.48-0.203-7.903,0.024
	c-1.304,0.123-1.81,1.799-0.757,2.578c1.102,0.813,2.384,1.391,3.723,1.682c1.896,0.404,1.942,3.244,0.051,3.644
	c-0.426,0.088-1.71,1.395-2.145,1.286l0.094-0.084c-1.814,0.281-3.924,0.813-4.839,2.293c-0.89,0.183-1.765,0.409-2.64,0.676
	c-0.186-0.089-0.404-0.124-0.634-0.06c-0.39,0.104-0.779,0.188-1.179,0.252c-1.664,0.256-2.475-2.002-1.047-2.895
	c1.239-0.779,2.605-1.479,3.564-2.554c0.424-0.474,0.746-1.257,0.278-1.682c-0.22-0.202-0.542-0.236-0.838-0.231
	c-1.03,0.01-2.046,0.34-3.067,0.236c-1.022-0.104-2.114-0.892-1.999-1.912c0.064-0.563,0.464-1.046,0.88-1.499
	c0.634-0.69,0.19-1.805-0.741-1.879l-0.042-0.005c-0.952-0.068-1.352-1.257-0.629-1.883l0.079-0.064
	c0.815-0.72,0.183-2.056-0.893-1.883c-0.296,0.049-0.597,0.088-0.895,0.108c-1.247,0.083-2.806-0.622-2.746-1.879
	c0.052-1.064,1.223-1.681,2.255-1.957c1.033-0.276,2.229-0.532,2.739-1.475c0.101-0.182,0.165-0.395,0.141-0.597
	c-0.118-0.867-1.376-0.744-2.236-0.631c-1.26,0.158-2.872-0.912-2.324-2.056c0.241-0.508,0.815-0.754,1.237-1.134
	c0.417-0.38,0.65-1.144,0.178-1.454c-0.17-0.114-0.39-0.252-0.6-0.242c-0.776,0.04-1.523,0.183-2.295,0.183h-0.024
	c-1.011,0-1.292-1.316-0.448-1.873c0.867-0.572,2.647-0.74,2.292-2.031c-0.788-1.128-2.746-0.016-3.964-0.651
	c-0.468-0.246,0.555-7.515-3.089-4.367c-1.286,1.114,1.137,3.74-0.39,4.776c-0.762,0.518-2.797-0.473-3.32,0.558
	c-0.389,0.769,0.521,1.523,1.282,1.912c0.764,0.395,2.856,1.188,1.504,1.78c-0.616,0.188-1.649-0.118-2.275,0.108
	c-0.629,0.227-1.117,0.972-0.826,1.567c0.217,0.439,0.729,0.622,1.132,0.897c0.401,0.276,0.722,0.868,0.387,1.223
	c-0.815-0.049-1.635-0.015-2.44,0.104c-1.06,0.158-1.363,1.533-0.451,2.101c0.055,0.034,0.111,0.074,0.168,0.104
	c0.71,0.419,1.483,0.823,1.888,1.538c0.402,0.72,0.188,1.844-0.605,2.046c-0.666,0.163-1.45-0.354-2.01,0.04
	c-0.757,0.532,0.024,1.686,0.791,2.203c0.765,0.523,1.61,1.603,0.91,2.204c-1.578-0.197-3.158-0.404-4.738-0.606
	c-0.387-0.054-0.801-0.094-1.148,0.074c-0.868,0.419-0.66,1.805,0.069,2.436c0.731,0.626,1.74,0.804,2.588,1.262
	c0.846,0.459,1.575,1.484,1.127,2.342c-0.511,0.977-1.933,0.784-3.003,0.518c-0.286-0.068-0.602-0.138-0.865-0.01
	c-0.72,0.346-0.251,1.499,0.454,1.869c0.781,0.409,1.829,0.562,2.065,1.498c0.205,0.799-0.399,1.559-1.195,1.766
	c-1.452,0.369-2.646-0.522-3.942-0.962c-1.176-0.399-2.795-0.256-3.128,1.07c-0.185,0.72,0.163,1.474,0.739,1.947
	c1.274,1.035,2.922,0.853,4.361,1.376c0.5,0.182,1.038,0.552,1.03,1.084c-0.008,0.36-0.267,0.661-0.535,0.897
	c-0.11,0.104-0.241,0.188-0.362,0.276c-0.36-1.558-1.188-2.515-3.236-0.745c-0.55,0.479-0.538,1.184-0.375,1.953
	c-0.801,0.034-1.63,0.089-2.11,0.689c-0.199,0.252-0.303,0.567-0.345,0.888c-0.126,0.996-0.121,1.494,0.757,1.982
	c0.02,0.01,0.039,0.039,0.057,0.054c-0.357,0.099-0.71,0.192-1.065,0.286c-0.473-0.005-0.89,0.069-1.178,0.32
	c-1.237,0.341-2.468,0.7-3.658,1.164c-0.008-0.015-0.003-0.045-0.018-0.064c0.027-0.888-1.218-1.193-2.083-0.966
	c-0.86,0.227-1.812,0.67-2.578,0.212c-1.114-0.666-0.592-2.396,0.194-3.427c0.786-1.035,3.097-2.149,2.091-2.973
	c-0.304-0.252-1.502-0.474-1.502-0.474c-1.259,0.094-2.386-0.729-2.719-1.942c-0.485-1.78-1.195-3.501-2.098-5.107
	c-0.629-1.114-2.261-1.14-2.813,0.015c-0.315,0.67-0.476,1.474-0.461,2.188c0.039,1.646,0.141,3.728-1.331,4.477
	c-0.569,0.286-1.312,0.311-1.497,1.145c-0.078,0.359,0.104,0.887,0.363,1.148c0.248,0.246,0.537,0.404,0.843,0.503
	c-0.194,0.015-0.39,0.034-0.567,0.059c-1.521,0.188-3.476-1.104-2.817-2.484c0.296-0.621,0.991-0.917,1.499-1.376
	c0.51-0.458,0.786-1.385,0.219-1.765c-0.212-0.138-0.48,0.064-0.727,0.079c-0.939,0.049-1.844,0.587-2.781,0.587h-0.026
	c-1.226,0-1.568-1.958-0.543-2.638c1.051-0.69,3.205-1.075,2.773-2.638c-0.954-1.371-3.32-0.113-4.802-0.883
	c-0.564-0.296,0.673-9.146-3.734-5.335c-1.561,1.352,1.375,4.507-0.474,5.764c-0.925,0.626-3.39-0.592-4.021,0.656
	c-0.474,0.932,0.631,1.839,1.551,2.316c0.924,0.479,3.461,1.431,1.821,2.15c-0.747,0.222-1.997-0.144-2.753,0.128
	c-0.762,0.271-1.352,1.173-0.999,1.898c0.259,0.532,0.883,0.754,1.366,1.084c0.49,0.336,0.875,1.051,0.471,1.484
	c-0.991-0.064-1.987-0.02-2.966,0.123c-1.276,0.192-1.632,1.868-0.537,2.544c0.066,0.045,0.138,0.084,0.204,0.123
	c0.855,0.508,1.795,1.001,2.283,1.864c0.488,0.867,0.231,2.233-0.732,2.475c-0.804,0.202-1.755-0.429-2.428,0.05
	c-0.917,0.646,0.026,2.041,0.953,2.672c0.928,0.631,1.95,1.938,1.1,2.667c-1.908-0.246-3.82-0.493-5.733-0.734
	c-0.469-0.064-0.969-0.118-1.396,0.084c-1.05,0.513-0.794,2.193,0.089,2.953c0.888,0.754,2.105,0.971,3.131,1.528
	c1.025,0.552,1.91,1.805,1.368,2.84c-0.616,1.178-2.34,0.946-3.637,0.621c-0.347-0.084-0.727-0.163-1.05-0.01
	c-0.87,0.414-0.301,1.814,0.553,2.263c0.946,0.498,2.213,0.681,2.502,1.814c0.244,0.966-0.485,1.888-1.452,2.14
	c-1.755,0.443-3.199-0.636-4.77-1.168c-0.42-0.139-0.886-0.213-1.344-0.223c0.104-0.104,0.189-0.212,0.249-0.34
	c0.387-0.818-0.485-1.745-1.378-1.894c-0.896-0.147-1.8,0.163-2.702,0.188c-0.907,0.029-1.977-0.419-2.101-1.316
	c-0.155-1.168,1.312-1.819,2.478-2.012c1.166-0.187,2.65-0.641,2.704-1.819c-0.613-1.021-2.117-0.694-3.288-0.513
	c-0.239,0.035-0.498,0.035-0.757,0c-1.027-0.133-1.043-1.592-0.047-1.883c0.863-0.252,1.672-0.7,2.337-1.302
	c0.315-0.296,0.338-0.818,0.024-1.114c-0.419-0.39-1.104-0.566-1.705-0.532c-0.883,0.054-1.766,0.385-2.638,0.241
	c-0.878-0.147-1.716-1.104-1.28-1.873c0.158-0.276,0.435-0.459,0.703-0.626c1.006-0.637,3.348-0.326,3.013-1.903
	c-0.632-0.981-2.024-0.981-3.165-1.228c-1.145-0.247-2.382-1.465-1.694-2.411c0.59-0.557,1.507-0.527,2.261-0.828
	c0.752-0.296,1.312-1.425,0.621-1.854c-0.219-0.139-0.498-0.139-0.759-0.124c-0.776,0.045-1.593,0.188-2.313-0.113
	c-0.723-0.295-1.223-1.276-0.718-1.868c0.708-0.833,2.522-0.118,2.887-1.144c0.32-0.888-0.98-1.4-1.923-1.484
	c-0.938-0.079-2.196-0.818-1.688-1.612c0.052-0.443,2.384-0.453,2.143-1.415c-0.301-1.197-2.896-1.228-2.418-2.366
	c0.751,0.069,1.564,0.128,2.146-0.453c0.197-0.197,0.338-0.602,0.276-0.878c-0.144-0.641-0.713-0.656-1.149-0.878
	c-1.129-0.576-1.05-2.169-1.02-3.437c0.012-0.547-0.109-1.163-0.354-1.671c-0.421-0.893-1.676-0.873-2.159-0.015
	c-0.692,1.232-1.234,2.549-1.609,3.914c-0.254,0.938-1.119,1.563-2.086,1.489c0,0-0.919,0.178-1.153,0.365
	c-0.771,0.631,1.003,1.488,1.604,2.282c0.604,0.789,1.004,2.12,0.148,2.633c-0.585,0.345-1.316,0.005-1.979-0.168
	c-0.658-0.172-1.612,0.06-1.598,0.745c-0.269,0.28,0.878,1.375,1.677,2.603c0.537,0.834-0.129,1.923-1.117,1.859l-0.732-0.045
	c-0.966-0.059-1.56,1.04-0.974,1.814l1.575,2.091c0.19,0.246,0.385,0.522,0.388,0.833c0.002,0.833-1.208,1.001-1.992,0.725
	c-0.786-0.271-1.768-0.661-2.35-0.064c-0.241,1.958,2.663,3.284,2.007,5.359c-0.197,0.626-0.715,1.09-1.321,1.346
	c-0.422,0.035-0.841,0.079-1.257,0.113c-0.335,0.025-0.673,0.045-1.011,0.06c-0.247-0.054-0.488-0.108-0.729-0.183
	c-0.163-0.054-0.321-0.049-0.469-0.015c-0.362-0.183-0.729-0.359-1.104-0.518c-0.478-0.725-0.365-1.819,0.577-2.313l0.034-0.015
	c0.336-0.178,0.671-0.429,0.947-0.729c0.741-0.779-0.1-2.017-1.134-1.73c-0.468,0.128-0.944,0.231-1.425,0.306
	c-2.016,0.311-3.002-2.421-1.274-3.506c1.506-0.941,3.158-1.789,4.324-3.091c0.51-0.567,0.902-1.519,0.333-2.036
	c-0.267-0.241-0.656-0.281-1.016-0.281c-1.243,0.01-2.476,0.414-3.713,0.291c-1.237-0.128-2.559-1.08-2.423-2.317
	c0.076-0.686,0.564-1.262,1.072-1.814c0.764-0.838,0.227-2.193-0.902-2.272l-0.052-0.005c-1.156-0.089-1.635-1.523-0.762-2.288
	l0.091-0.078c0.996-0.868,0.229-2.49-1.077-2.278c-0.36,0.06-0.717,0.108-1.08,0.134c-1.516,0.093-3.397-0.755-3.328-2.273
	c0.064-1.292,1.484-2.036,2.731-2.376c1.252-0.335,2.702-0.646,3.318-1.78c0.118-0.222,0.202-0.478,0.167-0.725
	c-0.141-1.045-1.662-0.897-2.707-0.764c-1.519,0.187-3.476-1.104-2.815-2.485c0.296-0.621,0.989-0.917,1.499-1.375
	c0.508-0.459,0.784-1.386,0.217-1.766c-0.212-0.138-0.478,0.064-0.727,0.079c-0.935,0.044-1.844,0.587-2.778,0.587h-0.029
	c-1.223,0-1.565-1.963-0.54-2.633c1.048-0.695,3.202-1.08,2.771-2.643c-0.954-1.371-3.323-0.113-4.799-0.878
	c-0.564-0.301,0.673-9.151-3.737-5.341c-1.558,1.353,1.373,4.513-0.473,5.765c-0.927,0.627-3.387-0.586-4.023,0.661
	c-0.468,0.927,0.631,1.839,1.558,2.313c0.922,0.478,3.458,1.43,1.816,2.154c-0.747,0.222-1.994-0.148-2.756,0.123
	c-0.757,0.276-1.349,1.179-0.996,1.898c0.259,0.532,0.88,0.754,1.368,1.084c0.488,0.331,0.873,1.056,0.469,1.484
	c-0.991-0.06-1.987-0.02-2.968,0.128c-1.272,0.188-1.632,1.859-0.535,2.539c0.066,0.04,0.14,0.084,0.204,0.123
	c0.858,0.508,1.795,1.001,2.283,1.869c0.488,0.862,0.231,2.229-0.735,2.47c-0.804,0.202-1.752-0.424-2.426,0.05
	c-0.917,0.646,0.03,2.046,0.957,2.672c0.924,0.631,1.947,1.938,1.1,2.672c-1.911-0.251-3.823-0.493-5.736-0.744
	c-0.468-0.06-0.969-0.113-1.396,0.094c-1.047,0.508-0.796,2.188,0.091,2.948c0.885,0.759,2.105,0.976,3.131,1.528
	c1.025,0.557,1.908,1.805,1.366,2.835c-0.616,1.183-2.342,0.951-3.639,0.631c-0.345-0.089-0.725-0.168-1.048-0.015
	c-0.87,0.419-0.298,1.814,0.552,2.263c0.947,0.498,2.216,0.681,2.502,1.814c0.229,0.897-0.392,1.814-1.277,2.091
	c-0.971,0.301-1.844,0.123-2.696-0.192c0.098-0.113,0.207-0.217,0.35-0.301l1.109-0.631c0.39-0.223,0.838-0.563,0.762-1.001
	c-0.047-0.281-0.288-0.474-0.522-0.616c-1.378-0.829-3.269-0.873-4.684-1.494c-0.999-0.443-1.161-1.795-0.271-2.426
	c1.486-1.05,3.439-1.947,2.764-2.963c-0.966-1.661-4.423-0.202-5.098-1.923c-0.187-0.479-0.062-1.025,0.222-1.459
	c0.572-0.878,1.523-1.366,2.28-2.062c0.36-0.33,0.683-0.744,0.87-1.192c0.217-0.523-0.291-1.061-0.836-0.893
	c-0.663,0.202-1.343,0.301-2.034,0.089c-0.535-0.163-1.003-0.548-1.173-1.085c-0.488-1.533,1.667-2.52,1.489-3.974
	c-0.429-0.444-1.159-0.158-1.743,0.049c-0.582,0.202-1.479,0.079-1.479-0.542c0.002-0.231,0.148-0.434,0.289-0.621l1.171-1.548
	c0.431-0.572-0.008-1.391-0.725-1.347l-0.545,0.035c-0.74,0.044-1.225-0.774-0.818-1.396c0.591-0.907,1.435-1.711,1.232-1.923
	c0.015-0.503-0.693-0.681-1.186-0.547c-0.491,0.123-1.033,0.379-1.469,0.118c-0.634-0.38-0.335-1.36,0.111-1.952
	c0.449-0.592,1.763-1.223,1.193-1.696c-0.172-0.138-0.858-0.267-0.858-0.267c-0.717,0.055-1.36-0.414-1.548-1.109
	c-0.276-1.01-0.681-1.991-1.196-2.908c-0.357-0.636-1.287-0.646-1.6,0.01c-0.183,0.38-0.276,0.843-0.264,1.247
	c0.022,0.937,0.079,2.12-0.757,2.549c-0.326,0.168-0.747,0.178-0.855,0.656c-0.047,0.202,0.059,0.503,0.205,0.646
	c0.432,0.434,1.038,0.39,1.595,0.335c0.355,0.849-1.575,0.868-1.794,1.761c-0.18,0.715,1.551,0.72,1.59,1.05
	c0.377,0.592-0.557,1.139-1.254,1.198c-0.698,0.059-1.667,0.443-1.427,1.1c0.271,0.764,1.617,0.231,2.145,0.848
	c0.375,0.443,0.002,1.168-0.533,1.391c-0.535,0.222-1.141,0.118-1.721,0.084c-0.192-0.011-0.399-0.011-0.562,0.093
	c-0.513,0.316-0.096,1.154,0.463,1.376c0.563,0.222,1.243,0.202,1.677,0.616c0.51,0.705-0.407,1.607-1.257,1.79
	c-0.848,0.182-1.878,0.182-2.349,0.912c-0.249,1.168,1.491,0.941,2.235,1.415c0.197,0.123,0.404,0.256,0.521,0.458
	c0.325,0.577-0.296,1.287-0.947,1.396c-0.653,0.104-1.304-0.139-1.959-0.178c-0.449-0.029-0.957,0.099-1.267,0.395
	c-0.237,0.222-0.237,0.587,0.005,0.809c0.496,0.458,1.102,0.794,1.75,0.986c0.74,0.212,0.727,1.296-0.035,1.395
	c-0.192,0.025-0.384,0.025-0.564,0c-0.868-0.138-1.984-0.374-2.443,0.38c0.044,0.878,1.144,1.208,2.009,1.351
	c0.865,0.144,1.955,0.622,1.839,1.494c-0.089,0.666-0.885,0.996-1.558,0.977c-0.673-0.015-1.343-0.247-2.004-0.139
	c-0.666,0.108-1.312,0.799-1.025,1.405c0.438,0.932,2.507,0.794,2.208,1.78c-0.064,0.222-0.264,0.379-0.468,0.487
	c-1.304,0.676-3.101-0.118-4.472,0.011c-0.737,0.068-1.023,1.016-0.426,1.459c0.624,0.464,1.348,0.789,2.107,0.951
	c1.067,0.232,1.097,1.834,0.027,2.062c-0.244,0.049-0.969,0.788-1.215,0.729l0.057-0.05c-1.063,0.163-2.295,0.488-2.783,1.386
	c-0.325-0.064-0.651-0.128-0.974-0.197c0.081-0.138,0.195-0.267,0.365-0.354l0.02-0.011c0.2-0.104,0.395-0.256,0.56-0.429
	c0.437-0.458-0.059-1.188-0.67-1.021c-0.276,0.074-0.56,0.138-0.843,0.178c-1.181,0.183-1.758-1.43-0.747-2.061
	c0.887-0.563,1.861-1.061,2.546-1.824c0.303-0.336,0.532-0.897,0.197-1.198c-0.155-0.148-0.385-0.168-0.597-0.168
	c-0.734,0.005-1.459,0.242-2.189,0.173c-0.729-0.079-1.509-0.641-1.427-1.366c0.047-0.404,0.333-0.744,0.631-1.074
	c0.451-0.493,0.133-1.287-0.532-1.336l-0.03-0.005c-0.683-0.05-0.964-0.897-0.449-1.347l0.052-0.044
	c0.589-0.513,0.136-1.47-0.631-1.346c-0.214,0.034-0.426,0.063-0.636,0.079c-0.897,0.059-2.007-0.444-1.965-1.342
	c0.037-0.764,0.875-1.197,1.61-1.395c0.739-0.197,1.592-0.385,1.957-1.056c0.069-0.128,0.119-0.276,0.099-0.424
	c-0.084-0.616-0.981-0.527-1.597-0.453c-0.895,0.113-2.049-0.651-1.659-1.465c0.175-0.364,0.584-0.537,0.885-0.809
	c0.301-0.271,0.464-0.813,0.126-1.035c-0.124-0.084-0.279-0.113-0.427-0.104c-0.552,0.024-1.087,0.202-1.637,0.202h-0.02
	c-0.72,0-0.922-1.011-0.318-1.41c0.619-0.404,1.891-0.562,1.634-1.484c-0.562-0.803-1.958-0.029-2.83-0.482
	c-0.335-0.173,0.397-5.374-2.204-3.126c-0.917,0.794,0.811,2.667-0.276,3.401c-0.547,0.375-1.999-0.335-2.371,0.399
	c-0.276,0.543,0.372,1.085,0.917,1.366c0.542,0.281,2.039,0.843,1.072,1.267c-0.441,0.134-1.176-0.089-1.625,0.074
	c-0.446,0.163-0.796,0.695-0.587,1.124c0.153,0.311,0.518,0.438,0.806,0.636s0.513,0.621,0.274,0.873
	c-0.58-0.034-1.164-0.005-1.741,0.079c-0.757,0.108-0.971,1.094-0.323,1.493c0.042,0.025,0.081,0.05,0.121,0.074
	c0.505,0.301,1.058,0.587,1.346,1.1c0.288,0.513,0.135,1.316-0.434,1.459c-0.471,0.118-1.03-0.256-1.43,0.03
	c-0.542,0.379,0.017,1.202,0.562,1.572c0.547,0.37,1.149,1.144,0.651,1.573l-3.38-0.435c-0.278-0.034-0.574-0.068-0.823,0.05
	c-0.619,0.301-0.471,1.292,0.052,1.74c0.523,0.448,1.243,0.572,1.844,0.902c0.591,0.315,1.094,1.021,0.826,1.622
	c-1.878-0.479-3.831-0.804-5.446-1.528c-1.873-0.854-2.041-3.446-0.354-4.63c2.83-1.986,6.498-3.692,5.211-5.61
	c-1.839-3.18-8.44-0.395-9.729-3.678c-0.362-0.922-0.119-1.963,0.421-2.786c1.097-1.671,2.909-2.612,4.358-3.943
	c0.683-0.627,1.299-1.415,1.656-2.269c0.415-1.001-0.555-2.021-1.592-1.711c-1.312,0.399-2.665,0.597-4.033,0.129
	c-0.959-0.331-1.785-1.056-2.091-2.021c-0.932-2.938,3.185-4.822,2.845-7.602c-0.823-0.84-2.216-0.291-3.328,0.096
	c-1.114,0.387-2.83,0.155-2.828-1.025c0-0.444,0.281-0.831,0.547-1.188l2.236-2.958c0.828-1.097-0.01-2.657-1.383-2.573
	l-1.038,0.064c-1.425,0.089-2.332-1.484-1.55-2.677c1.126-1.726,2.724-3.256,2.342-3.656c0.027-0.966-1.326-1.299-2.263-1.05
	c-0.937,0.244-1.974,0.729-2.808,0.231c-1.213-0.725-0.641-2.605,0.212-3.732c0.853-1.124,3.368-2.337,2.275-3.234
	c-0.33-0.269-1.637-0.513-1.637-0.513c-1.368,0.104-2.593-0.792-2.956-2.115c-0.533-1.938-1.299-3.806-2.285-5.554
	c-0.683-1.21-2.48-1.213-3.069,0.044c-0.337,0.717-0.508,1.587-0.49,2.354c0.042,1.794,0.155,4.053-1.447,4.866
	c-0.621,0.315-1.425,0.338-1.627,1.25c-0.089,0.387,0.108,0.961,0.39,1.242c0.826,0.826,1.982,0.74,3.047,0.636
	c0.675,1.617-3.007,1.659-3.432,3.357c-0.34,1.371,2.963,1.375,3.037,2.011c0.72,1.126-1.063,2.174-2.396,2.288
	c-1.331,0.111-3.178,0.841-2.727,2.101c0.523,1.449,3.096,0.441,4.097,1.617c0.715,0.84,0.005,2.238-1.016,2.657
	c-1.023,0.424-2.179,0.219-3.284,0.158c-0.37-0.02-0.762-0.017-1.077,0.175c-0.976,0.604-0.18,2.209,0.887,2.63
	c1.067,0.424,2.369,0.385,3.2,1.178c0.979,1.336-0.777,3.063-2.396,3.414c-1.62,0.35-3.591,0.354-4.494,1.74
	c-0.471,2.238,2.85,1.799,4.274,2.696c0.377,0.242,0.774,0.498,0.994,0.888c0.619,1.1-0.57,2.45-1.812,2.652
	c-1.24,0.207-2.485-0.262-3.742-0.335c-0.853-0.05-1.824,0.202-2.416,0.754c-0.458,0.429-0.454,1.124,0.007,1.548
	c0.949,0.873,2.103,1.519,3.34,1.874c1.447,0.424,1.36,2.515-0.136,2.687c-0.343,0.035-0.688,0.035-1.003-0.015
	c-1.021-0.157-2.216-0.39-3.19-0.212c-0.005-0.005-0.007-0.01-0.01-0.02c-1.141-1.963-5.226-0.242-6.024-2.273
	c-0.222-0.571-0.072-1.213,0.264-1.725c0.678-1.036,1.797-1.617,2.694-2.441c0.426-0.389,0.813-0.882,1.03-1.414
	c0.251-0.617-0.355-1.238-0.988-1.046c-0.787,0.237-1.59,0.36-2.404,0.108c-0.631-0.197-1.188-0.65-1.385-1.281
	c-0.577-1.814,1.97-2.983,1.76-4.699c-0.51-0.521-1.371-0.182-2.061,0.06c-0.69,0.236-1.75,0.094-1.75-0.64
	c0-0.273,0.175-0.515,0.34-0.732l1.386-1.831c0.51-0.678-0.01-1.645-0.858-1.595l-0.641,0.042c-0.868,0.054-1.452-0.9-0.981-1.629
	c0.7-1.077,1.706-2.039,1.469-2.288c0.017-0.599-0.818-0.806-1.4-0.656c-0.579,0.158-1.223,0.456-1.735,0.148
	c-0.752-0.449-0.399-1.615,0.128-2.308c0.53-0.697,2.086-1.447,1.41-2.001c-0.207-0.167-1.013-0.32-1.013-0.32
	c-0.845,0.064-1.604-0.486-1.832-1.307c-0.325-1.198-0.804-2.356-1.41-3.439c-0.426-0.754-1.528-0.759-1.898,0.027
	c-0.212,0.441-0.318,0.981-0.306,1.457c0.027,1.109,0.094,2.507-0.897,3.013c-0.382,0.195-0.883,0.209-1.006,0.774
	c-0.054,0.239,0.069,0.597,0.241,0.767c0.508,0.513,1.228,0.458,1.884,0.395c0.419,1.001-1.859,1.025-2.12,2.078
	c-0.212,0.848,1.834,0.853,1.878,1.242c0.446,0.7-0.658,1.349-1.484,1.417c-0.824,0.069-1.967,0.52-1.687,1.299
	c0.323,0.899,1.913,0.276,2.534,1c0.444,0.523,0.005,1.386-0.628,1.647c-0.634,0.259-1.349,0.133-2.029,0.096
	c-0.232-0.013-0.473-0.01-0.67,0.108c-0.602,0.375-0.111,1.368,0.552,1.629c0.661,0.261,1.464,0.237,1.977,0.727
	c0.606,0.83-0.478,1.895-1.484,2.111c-1,0.217-2.221,0.217-2.778,1.08c-0.293,1.38,1.762,1.109,2.645,1.671
	c0.234,0.144,0.478,0.306,0.616,0.543c0.379,0.68-0.355,1.518-1.122,1.646c-0.77,0.123-1.541-0.168-2.317-0.212
	c-0.527-0.03-1.126,0.128-1.496,0.468c-0.281,0.267-0.279,0.695,0.007,0.957c0.584,0.542,1.301,0.941,2.068,1.163
	c0.873,0.252,0.86,1.533-0.044,1.651c-0.225,0.03-0.454,0.035-0.661,0c-1.031-0.162-2.35-0.443-2.889,0.444
	c0.049,1.04,1.351,1.435,2.374,1.607c1.023,0.162,2.31,0.729,2.171,1.76c-0.106,0.789-1.045,1.179-1.839,1.158
	c-0.794-0.024-1.587-0.301-2.372-0.167c-0.784,0.128-1.548,0.941-1.21,1.661c0.52,1.104,2.965,0.937,2.61,2.101
	c-0.079,0.261-0.311,0.448-0.557,0.576c-1.538,0.799-3.661-0.138-5.28,0.016c-0.877,0.078-1.159,1.252-0.444,1.765
	c0.72,0.522,1.558,0.893,2.431,1.08c1.262,0.271,1.297,2.169,0.03,2.435c-0.101,0.025-0.279,0.153-0.479,0.301
	c-1.674-0.364-3.342-0.764-5.009-1.183c0.088-0.128,0.207-0.247,0.375-0.32l0.02-0.01c0.205-0.094,0.409-0.232,0.582-0.399
	c0.458-0.439,0.005-1.188-0.616-1.056c-0.281,0.064-0.564,0.108-0.851,0.134c-1.188,0.123-1.681-1.519-0.639-2.101
	c0.917-0.508,1.913-0.956,2.643-1.687c0.318-0.315,0.577-0.867,0.259-1.188c-0.15-0.148-0.377-0.188-0.589-0.197
	c-0.734-0.035-1.472,0.167-2.196,0.059c-0.725-0.113-1.472-0.72-1.354-1.439c0.066-0.399,0.37-0.725,0.686-1.035
	c0.478-0.474,0.205-1.282-0.461-1.366l-0.027-0.005c-0.678-0.088-0.917-0.946-0.38-1.37l0.057-0.044
	c0.614-0.479,0.209-1.455-0.565-1.371c-0.212,0.02-0.424,0.039-0.636,0.039c-0.897,0.016-1.979-0.547-1.888-1.439
	c0.074-0.754,0.934-1.153,1.679-1.312c0.747-0.157,1.61-0.296,2.006-0.946c0.079-0.123,0.136-0.276,0.121-0.424
	c-0.049-0.616-0.949-0.577-1.568-0.532c-0.9,0.068-2.012-0.755-1.583-1.549c0.194-0.354,0.611-0.513,0.927-0.764
	c0.315-0.252,0.505-0.789,0.183-1.03c-0.119-0.084-0.276-0.104-0.424-0.104c-0.552,0-1.099,0.197-1.646,0.133
	c-0.005,0-0.01,0-0.015,0c-0.72-0.094-0.873-1.08-0.246-1.444c0.641-0.37,1.917-0.469,1.71-1.404
	c-0.518-0.833-1.952-0.138-2.8-0.636c-0.323-0.19,0.681-5.344-2.034-3.239c-0.959,0.747,0.668,2.707-0.458,3.387
	c-0.564,0.341-1.975-0.448-2.389,0.267c-0.306,0.531,0.315,1.104,0.843,1.414c0.53,0.311,1.994,0.951,1.005,1.321
	c-0.448,0.108-1.171-0.144-1.627-0.01c-0.453,0.138-0.831,0.65-0.646,1.089c0.138,0.32,0.498,0.469,0.774,0.681
	s0.481,0.646,0.227,0.888c-0.577-0.064-1.159-0.074-1.741-0.015c-0.762,0.068-1.03,1.04-0.402,1.474
	c0.04,0.029,0.077,0.055,0.119,0.084c0.488,0.32,1.023,0.641,1.284,1.163c0.261,0.528,0.066,1.321-0.508,1.435
	c-0.478,0.094-1.021-0.306-1.43-0.044c-0.562,0.354-0.047,1.203,0.478,1.603c0.527,0.399,1.09,1.198,0.567,1.607
	c-1.119-0.207-2.238-0.409-3.355-0.616c-0.273-0.05-0.564-0.099-0.821,0.015c-0.636,0.261-0.538,1.262-0.04,1.73
	c0.498,0.478,1.208,0.641,1.795,1.001c0.586,0.359,1.067,1.119,0.717,1.71c-0.399,0.681-1.408,0.488-2.162,0.257
	c-0.202-0.06-0.421-0.118-0.616-0.039c-0.525,0.222-0.232,1.06,0.256,1.351c0.54,0.32,1.282,0.469,1.415,1.144
	c0.052,0.257-0.024,0.493-0.158,0.7c-0.609-0.178-1.218-0.355-1.824-0.537c-0.005-0.005-0.002-0.005-0.005-0.01
	c-0.574-0.991-2.029-0.878-3.256-0.981c-0.508-0.163-1.013-0.325-1.521-0.493c-0.133-0.118-0.247-0.266-0.321-0.453
	c-0.187-0.479-0.059-1.025,0.225-1.46c0.572-0.872,1.521-1.365,2.28-2.061c0.357-0.33,0.68-0.744,0.868-1.188
	c0.217-0.527-0.291-1.06-0.833-0.896c-0.666,0.201-1.346,0.305-2.036,0.093c-0.532-0.167-1.003-0.552-1.173-1.084
	c-0.485-1.538,1.669-2.524,1.494-3.979c-0.434-0.444-1.161-0.153-1.746,0.049c-0.582,0.202-1.481,0.079-1.479-0.537
	c0-0.231,0.146-0.435,0.286-0.621l1.171-1.554c0.434-0.571-0.007-1.39-0.725-1.346l-0.542,0.034c-0.742,0.05-1.225-0.769-0.821-1.39
	c0.591-0.907,1.435-1.715,1.235-1.927c0.012-0.505-0.695-0.678-1.186-0.55c-0.493,0.128-1.035,0.385-1.469,0.121
	c-0.636-0.38-0.338-1.363,0.108-1.953c0.449-0.589,1.765-1.223,1.193-1.693c-0.172-0.143-0.857-0.271-0.857-0.271
	c-0.715,0.057-1.358-0.412-1.548-1.107c-0.276-1.013-0.68-1.992-1.195-2.909c-0.357-0.634-1.29-0.646-1.6,0.012
	c-0.183,0.377-0.273,0.84-0.261,1.245c0.02,0.939,0.079,2.123-0.759,2.549c-0.325,0.168-0.747,0.178-0.853,0.653
	c-0.047,0.202,0.059,0.503,0.205,0.653c0.432,0.432,1.036,0.387,1.595,0.331c0.355,0.848-1.575,0.87-1.797,1.76
	c-0.18,0.717,1.551,0.72,1.59,1.05c0.379,0.592-0.557,1.143-1.255,1.197c-0.698,0.059-1.664,0.443-1.427,1.104
	c0.273,0.76,1.622,0.232,2.145,0.844c0.375,0.443,0.005,1.173-0.532,1.395c-0.355,0.148-0.74,0.148-1.129,0.119
	c0.128-0.331,0.153-0.671-0.099-0.902c-0.192-0.178-0.476-0.212-0.739-0.207c-0.905,0.005-1.802,0.291-2.702,0.197
	c-0.902-0.099-1.859-0.799-1.755-1.696c0.059-0.498,0.414-0.917,0.787-1.32c0.56-0.606,0.175-1.59-0.648-1.656l-0.035-0.002
	c-0.843-0.069-1.188-1.117-0.547-1.669l0.064-0.054c0.729-0.631,0.177-1.812-0.774-1.667c-0.261,0.042-0.522,0.079-0.784,0.094
	c-1.107,0.066-2.475-0.562-2.416-1.667c0.049-0.941,1.085-1.481,1.997-1.718c0.912-0.242,1.967-0.461,2.42-1.289
	c0.089-0.158,0.148-0.343,0.124-0.525c-0.096-0.762-1.203-0.658-1.967-0.567c-1.107,0.136-2.524-0.816-2.041-1.819
	c0.217-0.448,0.725-0.666,1.097-0.996c0.373-0.331,0.58-1.006,0.166-1.282c-0.153-0.101-0.345-0.114-0.528-0.104
	c-0.683,0.032-1.346,0.303-2.026,0.261c-0.005-0.002-0.012-0.002-0.02-0.002c-0.893-0.072-1.134-1.277-0.385-1.765
	c0.765-0.498,2.337-0.69,2.026-1.832c-0.69-0.999-2.416-0.054-3.49-0.621c-0.412-0.217,0.522-6.636-2.702-3.875
	c-1.139,0.977,0.984,3.293-0.367,4.201c-0.673,0.454-2.462-0.437-2.928,0.473c-0.348,0.673,0.451,1.341,1.122,1.691
	c0.67,0.35,2.514,1.055,1.319,1.573c-0.547,0.16-1.455-0.111-2.009,0.086c-0.552,0.195-0.986,0.851-0.732,1.378
	c0.187,0.387,0.638,0.55,0.993,0.796c0.355,0.242,0.631,0.767,0.335,1.08c-0.717-0.049-1.439-0.022-2.155,0.082
	c-0.932,0.133-1.208,1.346-0.409,1.846c0.052,0.032,0.104,0.062,0.153,0.094c0.622,0.37,1.302,0.735,1.654,1.366
	c0.353,0.631,0.16,1.625-0.545,1.794c-0.584,0.146-1.274-0.315-1.768,0.03c-0.668,0.468,0.013,1.486,0.688,1.95
	c0.67,0.461,1.41,1.415,0.792,1.945c-1.201-0.16-2.399-0.321-3.599-0.483c0.012-0.005,0.02-0.017,0.034-0.022l0.032-0.02
	c0.34-0.177,0.673-0.431,0.952-0.725c0.739-0.784-0.099-2.021-1.137-1.735c-0.468,0.131-0.944,0.231-1.425,0.306
	c-2.016,0.308-3.002-2.421-1.274-3.503c1.506-0.944,3.158-1.79,4.324-3.089c0.513-0.572,0.902-1.523,0.333-2.036
	c-0.266-0.244-0.656-0.289-1.016-0.283c-1.245,0.01-2.475,0.409-3.712,0.288c-1.24-0.123-2.562-1.082-2.421-2.314
	c0.077-0.683,0.564-1.265,1.067-1.817c0.764-0.838,0.232-2.189-0.902-2.273l-0.049-0.005c-1.154-0.086-1.632-1.523-0.76-2.285
	l0.091-0.079c0.994-0.87,0.225-2.489-1.077-2.277c-0.36,0.059-0.72,0.108-1.08,0.13c-1.516,0.099-3.402-0.754-3.328-2.273
	c0.06-1.292,1.481-2.036,2.731-2.371c1.248-0.338,2.699-0.648,3.313-1.785c0.124-0.222,0.202-0.476,0.168-0.725
	c-0.138-1.045-1.659-0.892-2.705-0.767c-1.521,0.195-3.473-1.102-2.815-2.482c0.296-0.616,0.988-0.919,1.496-1.375
	c0.51-0.456,0.789-1.385,0.217-1.76c-0.207-0.141-0.474-0.239-0.725-0.225c-0.937,0.047-1.844,0.289-2.778,0.289h-0.027
	c-1.225,0-1.568-1.662-0.542-2.337c1.047-0.693,3.205-0.927,2.771-2.492c-0.952-1.366-3.323-0.037-4.799-0.806
	c-0.565-0.296,0.673-9.108-3.737-5.295c-1.561,1.346,1.373,4.526-0.476,5.778c-0.922,0.626-3.385-0.577-4.018,0.671
	c-0.471,0.929,0.631,1.841,1.553,2.319c0.922,0.476,3.461,1.433,1.822,2.15c-0.747,0.224-1.999-0.141-2.756,0.133
	c-0.762,0.271-1.354,1.173-0.999,1.896c0.261,0.532,0.883,0.754,1.371,1.087c0.486,0.333,0.873,1.05,0.468,1.481
	c-0.991-0.059-1.987-0.017-2.968,0.128c-1.274,0.19-1.632,1.863-0.538,2.542c0.069,0.042,0.138,0.086,0.207,0.125
	c0.858,0.503,1.792,0.996,2.283,1.864c0.488,0.868,0.229,2.231-0.734,2.473c-0.804,0.199-1.755-0.432-2.428,0.047
	c-0.915,0.646,0.03,2.043,0.957,2.674c0.924,0.628,1.95,1.933,1.102,2.667c-1.913-0.247-3.826-0.493-5.738-0.737
	c-0.469-0.059-0.967-0.118-1.393,0.089c-1.047,0.51-0.796,2.189,0.086,2.948c0.887,0.759,2.107,0.974,3.133,1.528
	c1.026,0.557,1.911,1.805,1.368,2.837c-0.621,1.183-2.342,0.949-3.638,0.628c-0.348-0.089-0.727-0.167-1.05-0.01
	c-0.87,0.414-0.301,1.812,0.555,2.258c0.944,0.498,2.214,0.681,2.5,1.814c0.072,0.281,0.052,0.557-0.022,0.813
	c-0.966,0.454-1.928,0.932-2.899,1.371c-1.139-0.19-2.189-0.831-3.298-1.208c-1.425-0.486-3.387-0.311-3.792,1.294
	c-0.099,0.387-0.054,0.776,0.067,1.144c-0.737-0.172-1.457-0.357-2.093-0.646c-1.156-0.525-1.254-2.13-0.214-2.857
	c1.753-1.232,4.023-2.285,3.227-3.476c-1.139-1.965-5.224-0.242-6.02-2.273c-0.227-0.569-0.074-1.215,0.261-1.726
	c0.676-1.035,1.8-1.617,2.694-2.44c0.427-0.389,0.811-0.882,1.028-1.415c0.257-0.614-0.35-1.238-0.988-1.045
	c-0.781,0.237-1.587,0.357-2.403,0.108c-0.631-0.195-1.186-0.653-1.386-1.282c-0.577-1.814,1.972-2.983,1.76-4.701
	c-0.508-0.522-1.371-0.182-2.061,0.057c-0.686,0.242-1.75,0.094-1.748-0.631c0-0.278,0.175-0.518,0.338-0.737l1.385-1.832
	c0.513-0.678-0.005-1.646-0.855-1.592l-0.643,0.042c-0.865,0.054-1.45-0.905-0.979-1.629c0.7-1.08,1.708-2.041,1.469-2.29
	c0.018-0.602-0.821-0.806-1.4-0.648c-0.58,0.15-1.225,0.449-1.738,0.143c-0.749-0.449-0.396-1.615,0.131-2.313
	c0.53-0.695,2.083-1.444,1.408-1.999c-0.202-0.167-1.011-0.315-1.011-0.315c-0.848,0.062-1.607-0.493-1.829-1.312
	c-0.331-1.198-0.804-2.354-1.415-3.437c-0.426-0.757-1.528-0.762-1.898,0.022c-0.21,0.446-0.316,0.986-0.303,1.461
	c0.027,1.112,0.093,2.507-0.895,3.013c-0.385,0.195-0.882,0.209-1.011,0.774c-0.054,0.239,0.069,0.594,0.242,0.767
	c0.51,0.51,1.228,0.458,1.883,0.397c0.424,0.999-1.859,1.023-2.12,2.078c-0.212,0.845,1.834,0.848,1.878,1.242
	c0.449,0.695-0.656,1.344-1.481,1.415c-0.823,0.069-1.965,0.518-1.686,1.299c0.323,0.899,1.916,0.273,2.532,1
	c0.446,0.523,0.005,1.383-0.626,1.645c-0.633,0.261-1.346,0.133-2.031,0.099c-0.227-0.013-0.473-0.013-0.666,0.108
	c-0.606,0.375-0.113,1.366,0.547,1.627s1.464,0.237,1.979,0.729c0.604,0.829-0.48,1.893-1.481,2.11
	c-0.893,0.19-1.952,0.219-2.569,0.828c-0.101-0.163-0.291-0.269-0.503-0.205c-0.434,0.131-0.88,0.2-1.331,0.059
	c-0.35-0.108-0.656-0.36-0.767-0.71c-0.32-1.006,1.092-1.651,0.974-2.603c-0.281-0.289-0.759-0.101-1.141,0.032
	c-0.382,0.133-0.969,0.052-0.969-0.353c0-0.15,0.099-0.284,0.188-0.404l0.769-1.016c0.281-0.377-0.005-0.912-0.476-0.883
	l-0.357,0.022c-0.483,0.029-0.799-0.505-0.532-0.912c0.384-0.592,0.937-1.122,0.806-1.257c0.007-0.333-0.456-0.446-0.777-0.362
	c-0.32,0.086-0.675,0.251-0.961,0.082c-0.417-0.249-0.222-0.895,0.074-1.28c0.291-0.387,1.154-0.801,0.779-1.109
	c-0.113-0.091-0.562-0.175-0.562-0.175c-0.468,0.035-0.89-0.271-1.013-0.725c-0.183-0.666-0.446-1.304-0.781-1.903
	c-0.237-0.417-0.843-0.424-1.05,0.005c-0.118,0.247-0.177,0.55-0.172,0.816c0.015,0.614,0.054,1.391-0.496,1.667
	c-0.212,0.111-0.486,0.119-0.557,0.432c-0.03,0.13,0.037,0.328,0.133,0.424c0.283,0.286,0.678,0.254,1.042,0.219
	c0.234,0.552-1.03,0.567-1.173,1.151c-0.118,0.466,1.016,0.468,1.041,0.688c0.246,0.384-0.365,0.744-0.819,0.781
	c-0.458,0.04-1.092,0.291-0.937,0.72c0.177,0.5,1.06,0.155,1.403,0.557c0.246,0.291,0.002,0.767-0.348,0.912
	c-0.35,0.143-0.745,0.074-1.124,0.052c-0.128-0.007-0.262-0.007-0.37,0.062c-0.335,0.207-0.062,0.754,0.303,0.902
	c0.368,0.143,0.811,0.131,1.097,0.404c0.335,0.456-0.266,1.048-0.823,1.168c-0.552,0.118-1.228,0.121-1.539,0.597
	c-0.163,0.769,0.979,0.616,1.464,0.924c0.131,0.082,0.267,0.17,0.34,0.303c0.212,0.375-0.192,0.84-0.619,0.912
	c-0.427,0.066-0.853-0.094-1.285-0.116c-0.291-0.02-0.624,0.066-0.828,0.259c-0.155,0.143-0.153,0.384,0.005,0.527
	c0.326,0.301,0.72,0.52,1.144,0.644c0.483,0.141,0.476,0.851-0.022,0.917c-0.125,0.017-0.251,0.017-0.367-0.002
	c-0.569-0.089-1.302-0.244-1.6,0.251c0.027,0.574,0.747,0.791,1.313,0.885c0.567,0.094,1.282,0.407,1.203,0.976
	c-0.059,0.437-0.577,0.653-1.018,0.641s-0.88-0.167-1.314-0.091c-0.434,0.069-0.858,0.52-0.67,0.917
	c0.289,0.611,1.642,0.52,1.447,1.168c-0.044,0.146-0.175,0.247-0.308,0.315c-0.309,0.161-0.661,0.192-1.023,0.175
	c-0.155-0.012-0.313-0.03-0.466-0.042c-0.5-0.064-1.001-0.165-1.435-0.123c-0.025,0.002-0.04,0.022-0.059,0.024
	c-0.114-0.007-0.227-0.015-0.34-0.02l0.429-0.247c0.521-0.298,1.114-0.745,1.016-1.333c-0.064-0.363-0.382-0.622-0.697-0.813
	c-1.834-1.104-4.356-1.161-6.234-1.995c-1.333-0.586-1.494-2.401-0.301-3.236c1.967-1.383,4.519-2.569,3.624-3.902
	c-1.277-2.209-5.867-0.273-6.764-2.559c-0.251-0.636-0.083-1.361,0.296-1.938c0.759-1.161,2.021-1.816,3.027-2.739
	c0.471-0.431,0.897-0.974,1.144-1.56c0.296-0.705-0.34-1.44-1.07-1.215c-0.892,0.273-1.804,0.414-2.731,0.13
	c-0.708-0.217-1.331-0.732-1.555-1.439c-0.648-2.041,2.216-3.355,1.979-5.283c-0.572-0.587-1.543-0.205-2.317,0.066
	c-0.774,0.271-1.967,0.108-1.962-0.715c0-0.308,0.192-0.577,0.379-0.823l1.553-2.059c0.577-0.759-0.005-1.846-0.961-1.79
	l-0.72,0.047c-0.976,0.059-1.632-1.013-1.099-1.832c0.784-1.213,1.916-2.29,1.649-2.573c0.018-0.673-0.922-0.905-1.575-0.73
	c-0.651,0.17-1.371,0.508-1.952,0.163c-0.843-0.505-0.444-1.812,0.148-2.593c0.594-0.786,2.342-1.627,1.583-2.25
	c-0.232-0.188-1.139-0.36-1.139-0.36c-0.952,0.074-1.805-0.547-2.056-1.469c-0.367-1.346-0.902-2.645-1.587-3.86
	c-0.474-0.843-1.706-0.86-2.125,0.012c-0.239,0.503-0.362,1.114-0.35,1.654c0.03,1.247,0.108,2.82-1.006,3.382
	c-0.431,0.222-0.991,0.239-1.131,0.873c-0.062,0.269,0.076,0.668,0.273,0.863c0.572,0.572,1.375,0.515,2.115,0.443
	c0.471,1.122-2.09,1.151-2.386,2.334c-0.237,0.952,2.061,0.954,2.115,1.398c0.5,0.781-0.74,1.509-1.667,1.587
	c-0.927,0.082-2.211,0.586-1.896,1.462c0.362,1.011,2.152,0.308,2.847,1.124c0.498,0.586,0.005,1.555-0.705,1.849
	c-0.715,0.293-1.516,0.15-2.283,0.108c-0.256-0.015-0.533-0.015-0.75,0.124c-0.68,0.421-0.128,1.533,0.616,1.829
	c0.742,0.293,1.647,0.266,2.224,0.816c0.68,0.932-0.54,2.13-1.667,2.374c-1.126,0.244-2.495,0.247-3.123,1.212
	c-0.328,1.556,1.982,1.25,2.97,1.874c0.266,0.168,0.54,0.345,0.693,0.617c0.431,0.764-0.397,1.703-1.26,1.846
	s-1.73-0.183-2.603-0.234c-0.592-0.034-1.267,0.141-1.681,0.525c-0.306,0.286-0.284,0.808,0.027,1.092
	c0.656,0.599,1.452,1.038,2.302,1.287c0.984,0.286,0.969,1.723-0.047,1.859c-0.251,0.035-0.508,0.035-0.744-0.002
	c-1.154-0.18-2.638-0.493-3.244,0.505c0.057,1.166,1.519,1.607,2.667,1.797c1.149,0.188,2.599,0.826,2.44,1.984
	c-0.118,0.883-1.173,1.321-2.065,1.297c-0.893-0.027-1.785-0.333-2.665-0.185c-0.88,0.141-1.743,1.055-1.36,1.864
	c0.584,1.24,3.33,1.053,2.933,2.364c-0.088,0.296-0.353,0.503-0.624,0.644c-1.73,0.9-4.117-0.15-5.936,0.018
	c-0.986,0.093-1.301,1.405-0.5,1.987c0.811,0.589,1.753,1.005,2.729,1.21c1.422,0.308,1.459,2.438,0.04,2.739
	c-0.32,0.072-1.287,1.05-1.612,0.969l0.074-0.064c-1.104,0.172-2.354,0.461-3.155,1.151c-2.012-0.555-4.156-0.868-5.914-1.642
	c-1.92-0.845-2.167-3.458-0.449-4.666c2.83-1.987,6.5-3.693,5.214-5.613c-1.839-3.177-8.44-0.395-9.732-3.675
	c-0.36-0.922-0.116-1.962,0.424-2.788c1.094-1.671,2.909-2.613,4.355-3.942c0.686-0.628,1.304-1.415,1.657-2.27
	c0.417-0.999-0.555-2.021-1.59-1.708c-1.314,0.399-2.665,0.594-4.033,0.126c-0.957-0.326-1.785-1.055-2.09-2.021
	c-0.932-2.936,3.185-4.822,2.845-7.598c-0.823-0.843-2.216-0.293-3.328,0.094c-1.114,0.39-2.83,0.153-2.83-1.028
	c0.002-0.441,0.281-0.831,0.55-1.184l2.236-2.958c0.828-1.097-0.013-2.662-1.383-2.574l-1.038,0.062
	c-1.425,0.091-2.332-1.484-1.55-2.677c1.126-1.726,2.724-3.256,2.342-3.656c0.027-0.966-1.326-1.296-2.263-1.05
	c-0.937,0.247-1.977,0.73-2.808,0.234c-1.213-0.727-0.644-2.605,0.212-3.732c0.853-1.126,3.367-2.337,2.273-3.234
	c-0.331-0.271-1.632-0.513-1.632-0.513c-1.371,0.101-2.598-0.792-2.958-2.118c-0.532-1.935-1.301-3.806-2.282-5.554
	c-0.686-1.21-2.482-1.213-3.072,0.047c-0.338,0.715-0.508,1.585-0.491,2.349c0.042,1.794,0.155,4.055-1.447,4.869
	c-0.621,0.315-1.425,0.34-1.629,1.252c-0.086,0.387,0.111,0.959,0.392,1.24c0.824,0.823,1.982,0.739,3.042,0.638
	c0.681,1.617-3.002,1.659-3.426,3.358c-0.34,1.368,2.963,1.375,3.037,2.009c0.72,1.126-1.063,2.172-2.396,2.288
	c-1.332,0.113-3.178,0.841-2.727,2.098c0.522,1.455,3.096,0.446,4.095,1.62c0.717,0.843,0.007,2.236-1.013,2.66
	c-1.021,0.421-2.179,0.217-3.284,0.155c-0.37-0.02-0.759-0.02-1.075,0.175c-0.979,0.606-0.185,2.209,0.882,2.633
	c1.07,0.419,2.369,0.382,3.202,1.176c0.976,1.336-0.776,3.064-2.398,3.412c-1.617,0.35-3.589,0.355-4.491,1.743
	c-0.471,2.239,2.85,1.8,4.274,2.697c0.379,0.241,0.774,0.498,0.993,0.885c0.619,1.097-0.569,2.453-1.812,2.655
	c-1.243,0.205-2.487-0.261-3.742-0.335c-0.853-0.049-1.824,0.2-2.416,0.754c-0.458,0.429-0.453,1.124,0.008,1.548
	c0.949,0.87,2.103,1.514,3.34,1.876c1.45,0.419,1.361,2.507-0.138,2.68c-0.34,0.042-0.686,0.039-1.001-0.01
	c-1.662-0.262-3.796-0.713-4.664,0.725c0.079,1.674,2.179,2.312,3.833,2.586c1.654,0.271,3.735,1.188,3.511,2.85
	c-0.173,1.274-1.689,1.905-2.973,1.869c-1.284-0.037-2.561-0.479-3.828-0.269c-1.267,0.207-2.507,1.521-1.958,2.685
	c0.855,1.819,4.95,1.501,4.179,3.515c-0.008,0.002-0.013,0.007-0.02,0.013c-1.945-0.481-3.893-0.954-5.845-1.4
	c-0.074-0.027-0.155-0.054-0.227-0.084c-1.153-0.522-1.267-2.14-0.229-2.872c1.75-1.228,4.021-2.28,3.227-3.471
	c-1.139-1.965-5.224-0.242-6.025-2.275c-0.222-0.569-0.069-1.215,0.264-1.723c0.678-1.038,1.799-1.62,2.694-2.44
	c0.429-0.392,0.813-0.883,1.031-1.417c0.251-0.614-0.355-1.235-0.991-1.045c-0.781,0.239-1.587,0.36-2.401,0.108
	c-0.631-0.192-1.188-0.65-1.386-1.279c-0.577-1.817,1.97-2.983,1.76-4.701c-0.51-0.523-1.371-0.183-2.061,0.059
	c-0.688,0.239-1.75,0.094-1.75-0.636c0.002-0.276,0.175-0.515,0.34-0.732l1.385-1.832c0.513-0.681-0.01-1.649-0.858-1.593
	l-0.641,0.037c-0.868,0.057-1.45-0.902-0.979-1.629c0.698-1.077,1.706-2.039,1.467-2.288c0.017-0.599-0.818-0.804-1.4-0.651
	c-0.58,0.153-1.223,0.451-1.736,0.143c-0.749-0.449-0.399-1.615,0.128-2.31c0.53-0.695,2.085-1.445,1.41-2
	c-0.207-0.167-1.013-0.318-1.013-0.318c-0.846,0.064-1.605-0.491-1.829-1.309c-0.328-1.198-0.804-2.356-1.413-3.438
	c-0.427-0.754-1.528-0.759-1.898,0.024c-0.212,0.446-0.315,0.984-0.306,1.459c0.027,1.109,0.094,2.512-0.897,3.015
	c-0.382,0.195-0.88,0.209-1.006,0.771c-0.054,0.239,0.069,0.597,0.242,0.77c0.51,0.51,1.228,0.458,1.883,0.392
	c0.419,1.006-1.859,1.028-2.12,2.081c-0.212,0.846,1.834,0.851,1.878,1.243c0.446,0.7-0.656,1.343-1.481,1.417
	c-0.826,0.067-1.97,0.518-1.688,1.297c0.32,0.9,1.915,0.276,2.534,1.001c0.443,0.522,0.005,1.385-0.626,1.646
	c-0.633,0.261-1.351,0.136-2.031,0.096c-0.229-0.012-0.473-0.01-0.668,0.108c-0.604,0.377-0.113,1.366,0.55,1.627
	c0.661,0.264,1.464,0.242,1.977,0.73c0.606,0.828-0.479,1.896-1.484,2.11c-0.774,0.167-1.679,0.214-2.308,0.621
	c0.222-0.353,0.505-0.685,0.799-1.005c0.833-0.907,0.232-2.376-0.996-2.473l-0.049-0.002c-1.262-0.099-1.785-1.664-0.831-2.495
	l0.096-0.086c1.084-0.947,0.251-2.714-1.171-2.485c-0.392,0.062-0.787,0.118-1.181,0.143c-1.657,0.106-3.712-0.823-3.634-2.48
	c0.066-1.41,1.617-2.226,2.983-2.591c1.363-0.367,2.943-0.705,3.619-1.945c0.128-0.244,0.217-0.52,0.183-0.792
	c-0.153-1.139-1.814-0.981-2.953-0.835c-1.662,0.209-3.794-1.201-3.074-2.712c0.323-0.673,1.077-1,1.634-1.501
	c0.557-0.498,0.86-1.509,0.237-1.923c-0.227-0.15-0.518-0.104-0.792-0.089c-1.021,0.052-2.014,0.471-3.035,0.471h-0.029
	c-1.336,0-1.711-1.97-0.592-2.705c1.149-0.757,3.5-1.089,3.025-2.8c-1.038-1.489-3.624-0.079-5.236-0.917
	c-0.619-0.32,0.734-9.959-4.08-5.8c-1.701,1.472,1.499,4.928-0.518,6.301c-1.008,0.685-3.695-0.639-4.388,0.727
	c-0.513,1.008,0.69,2.007,1.696,2.527c1.008,0.52,3.777,1.563,1.987,2.347c-0.816,0.247-2.179-0.155-3.007,0.141
	c-0.828,0.301-1.474,1.282-1.089,2.073c0.283,0.577,0.961,0.818,1.494,1.181c0.533,0.365,0.952,1.151,0.513,1.62
	c-1.075-0.064-2.159-0.017-3.224,0.138c-1.405,0.207-1.81,2.026-0.602,2.775c0.076,0.047,0.153,0.091,0.227,0.136
	c0.937,0.555,1.958,1.089,2.49,2.036c0.535,0.947,0.251,2.436-0.798,2.699c-0.878,0.219-1.916-0.468-2.652,0.052
	c-1.001,0.708,0.032,2.231,1.045,2.919c1.011,0.685,2.125,2.11,1.203,2.909c-2.088-0.266-4.176-0.538-6.262-0.804
	c-0.513-0.064-1.057-0.125-1.523,0.099c-1.144,0.557-0.868,2.389,0.099,3.214c0.967,0.829,2.295,1.065,3.417,1.671
	c1.117,0.606,2.083,1.967,1.494,3.096c-0.675,1.29-2.559,1.038-3.974,0.683c-0.377-0.094-0.794-0.18-1.144-0.01
	c-0.951,0.454-0.328,1.979,0.604,2.468c1.031,0.542,2.416,0.742,2.729,1.979c0.269,1.058-0.53,2.063-1.587,2.334
	c-1.913,0.488-3.491-0.688-5.202-1.27c-0.798-0.273-1.75-0.353-2.549-0.133v4.528c1.58,0.907,3.471,0.801,5.152,1.408
	c0.663,0.239,1.373,0.729,1.36,1.432c-0.01,0.474-0.35,0.873-0.702,1.191c-1.228,1.107-2.828,1.792-4.475,1.918
	c-0.431,0.032-0.887,0.039-1.336,0.071V419.87h826.856V238.42C832.058,241.926,827.172,242.303,822.322,242.498z M45.099,260.315
	c-0.168,0-0.335,0.015-0.508-0.003c-1.312-0.135-2.702-1.124-2.638-2.418c0.404,0.661,1.844,0.587,2.549,1.033
	c0.237,0.146,0.479,0.303,0.616,0.545C45.271,259.748,45.239,260.046,45.099,260.315z M158.809,281.887
	c-0.227,0.03-0.456,0.03-0.666-0.002c-0.035-0.007-0.071-0.012-0.106-0.015c-0.485-0.357-0.513-1.107,0.01-1.474
	c0.148-0.106,0.303-0.207,0.456-0.308c0.118,0.044,0.227,0.111,0.345,0.148C159.721,280.487,159.711,281.769,158.809,281.887z
	 M160.588,277.857c-0.769,0.128-1.541-0.163-2.317-0.209c-0.296-0.018-0.611,0.032-0.897,0.133
	c-0.399-0.069-0.734-0.209-0.877-0.567c-0.124-0.315-0.04-0.675,0.148-0.957c0.375-0.572,0.996-0.897,1.491-1.348
	c0.126-0.116,0.242-0.251,0.343-0.397c0.291,0.796,1.868,0.686,2.613,1.156c0.237,0.15,0.479,0.306,0.616,0.547
	C162.092,276.893,161.355,277.731,160.588,277.857z M239.131,311.514c-0.421,0.064-0.843-0.01-1.267-0.083
	c0.015-0.385,0.207-0.76,0.624-0.977l0.022-0.01c0.249-0.128,0.491-0.315,0.695-0.522c0.099-0.108,0.148-0.222,0.177-0.346
	c0.06,0.03,0.124,0.05,0.173,0.084c0.2,0.123,0.407,0.262,0.522,0.464C240.398,310.695,239.78,311.405,239.131,311.514z
	 M239.671,307.333c-0.848,0.183-1.881,0.183-2.352,0.912c-0.057,0.271,0,0.459,0.116,0.602c-0.029,0.005-0.059,0.015-0.089,0.02
	c-1.469,0.218-2.177-1.77-0.912-2.554c0.833-0.518,1.726-0.996,2.482-1.607c0.101,0.094,0.214,0.173,0.333,0.228
	c0.56,0.222,1.242,0.197,1.676,0.611C241.439,306.244,240.52,307.151,239.671,307.333z M306.996,327.681
	c-0.088-0.139-0.158-0.281-0.2-0.435c0.311,0.139,0.587,0.291,0.787,0.469C307.385,327.705,307.19,327.686,306.996,327.681z
	 M309.434,322.957c-0.047,0-0.096-0.005-0.146-0.01c-0.057-0.039-0.113-0.084-0.172-0.113c-1.644-0.996-3.91-1.04-5.586-1.795
	c-1.154-0.522-1.267-2.14-0.229-2.864c0.717-0.508,1.519-0.981,2.162-1.444c0.705,0.897,2.194,1.307,3.437,1.514
	c1.651,0.266,3.732,1.188,3.51,2.85C312.236,322.365,310.718,322.996,309.434,322.957z M446.516,363.148
	c-0.133-0.118-0.249-0.252-0.301-0.424c-0.128-0.435,0.079-0.7,0.434-0.918c-0.059,0.124-0.121,0.242-0.155,0.38
	C446.412,362.512,446.441,362.833,446.516,363.148z M476.735,344.068c-0.619,0.054-1.354,0.251-1.881,0.582
	c-0.912-0.36-1.63-1.046-1.585-1.992c0.062-1.292,1.483-2.041,2.731-2.371c0.044-0.015,0.091-0.025,0.133-0.04
	c-0.074,1.129,2.738,1.159,2.806,1.716C479.603,343.003,477.963,343.965,476.735,344.068z M478.899,337.072
	c0.134-0.015,0.267-0.024,0.399-0.039c0.062,0.143,0.074,0.275,0.064,0.399C479.26,337.26,479.097,337.151,478.899,337.072z
	 M570.096,309.32c-0.005-0.015-0.005-0.029-0.01-0.045c0.074,0.099,0.163,0.192,0.271,0.276c0.899,0.666,1.928,1.144,3.005,1.439
	C571.881,310.858,570.579,310.553,570.096,309.32z M676.808,249.974c-0.217,0.044-0.872,0.71-1.092,0.653l0.047-0.042
	c-0.168,0.027-0.341,0.057-0.516,0.096c0.212-0.333,0.469-0.644,0.821-0.888c0.458-0.32,0.939-0.638,1.415-0.949
	C677.584,249.313,677.37,249.856,676.808,249.974z M702.24,253.943c-0.76-0.022-1.516-0.244-2.271-0.182
	c-0.552-0.365-1.106-0.732-1.676-1.067c-0.789-0.471-0.789-1.607,0.007-2.063l1.001-0.569c0.111-0.064,0.22-0.141,0.323-0.225
	c0.429,0.634,1.432,0.922,2.268,1.058c1.064,0.178,2.413,0.771,2.268,1.844C704.05,253.559,703.066,253.968,702.24,253.943z"/>
</svg>
