<?xml version="1.0" encoding="utf-8"?>
<!-- Generator: Adobe Illustrator 16.0.0, SVG Export Plug-In . SVG Version: 6.00 Build 0)  -->
<!DOCTYPE svg PUBLIC "-//W3C//DTD SVG 1.1//EN" "http://www.w3.org/Graphics/SVG/1.1/DTD/svg11.dtd">
<svg version="1.1" id="Layer_1" xmlns="http://www.w3.org/2000/svg" xmlns:xlink="http://www.w3.org/1999/xlink" x="0px" y="0px"
	 width="841.89px" height="595.28px" viewBox="0 0 841.89 595.28" enable-background="new 0 0 841.89 595.28" xml:space="preserve">
<g>
	<path fill-rule="evenodd" clip-rule="evenodd" fill="#333333" d="M19.574,385.175v-86.493c0.617,0.124,1.181,0.367,1.62,0.989
		c0.276,0.391,0.751,0.407,1.206,0.396c1.083-0.026,2.131-0.382,3.659-1.257c-0.042-0.908-0.942-1.14-1.389-1.73
		c-0.472-0.624-0.917-1.233-1.082-2.024c-0.178-0.853,0.235-1.595,1.082-1.707c0.875-0.117,1.768-0.102,2.643-0.216
		c1.055-0.141,1.559-0.752,1.38-1.862c-0.353-2.196-0.479-4.401-0.407-6.619c0.017-0.531,0.196-1.065,0.354-1.583
		c0.093-0.301,0.939-0.396,1.166-0.171c0.57,0.564,0.823,1.299,1.108,2.021c0.693,1.751,2.251,2.204,3.726,1.199
		c1.338-0.911,2.841-1.578,4.211-2.321c0.839,0.634,0.666,1.493,0.885,2.21c0.289,0.939,0.858,1.537,1.9,1.537
		c0.442,0,0.885-0.063,1.325-0.045c0.631,0.026,1.018,0.394,1.119,1.008c0.071,0.434,0.207,0.927,0.078,1.314
		c-0.573,1.721,0.621,2.345,1.76,3.04c0.577,0.353,1.052,0.129,1.508-0.214c0.485-0.362,0.721-0.835,0.461-1.433
		c-0.177-0.403-0.479-0.767-0.592-1.184c-0.396-1.457,0.013-2.395,1.401-3.299c0.449-0.292,1.094-0.43,1.15-1.058
		c0.046-0.54-0.062-1.104-0.461-1.545c0.383-0.792,0.933-1.122,1.861-0.904c1.252,0.292,2.152-0.23,2.58-1.467
		c0.122-0.353-0.081-0.761-0.37-0.767c-0.537-0.012-1.078,0.191-1.622,0.273c-1.118,0.17-2.213,0.124-3.213-0.486
		c-0.17-0.103-0.353-0.267-0.42-0.447c-0.155-0.396,0.162-0.607,0.442-0.765c0.385-0.216,0.792-0.403,1.203-0.562
		c1.45-0.562,2.864-1.197,4.058-2.217c0.452-0.385,0.6-0.914,0.283-1.479c-0.106-0.191-0.292-0.336-0.399-0.527
		c-0.815-1.429-0.659-1.814,0.932-2.347c0.625-0.208,1.271-0.36,1.879-0.606c0.639-0.26,0.716-0.74,0.245-1.296
		c-0.212-0.252-0.505-0.438-0.709-0.698c-0.538-0.678-1.366-1.377-0.842-2.313c0.477-0.853,1.411-0.187,2.135-0.267
		c0.328-0.037,0.665-0.059,0.981-0.142c0.588-0.151,0.972-0.521,0.972-1.161c-0.001-0.662-0.068-1.326-0.069-1.988
		c-0.003-1.439,0.007-2.876,0.039-4.316c0.002-0.181,0.115-0.454,0.252-0.516c0.392-0.174,0.603,0.108,0.715,0.441
		c0.106,0.313,0.132,0.659,0.263,0.96c0.831,1.881,1.687,2.188,3.635,1.322c0.388-0.172,0.774-0.349,1.169-0.528
		c0.921,2.528,0.921,2.528,0.397,4.64c0.784,0.485,1.474-0.351,2.227-0.167c0.449,0.11,0.813,0.378,0.744,0.909
		c-0.044,0.322-0.206,0.627-0.281,0.947c-0.301,1.265,0.062,1.949,1.239,2.129c0.757,0.115,1.541,0.091,2.313,0.075
		c0.771-0.014,1.541-0.133,2.313-0.14c0.572-0.006,0.638,0.499,0.745,0.922c-1.343,1.513-3.233,2.188-4.951,3
		c0.142,0.655,0.443,1.043,0.851,1.131c1.703,0.362,3.041,1.639,4.848,1.786c1.167,0.095,1.359,0.905,0.605,1.886
		c-0.134,0.175-0.298,0.328-0.43,0.504c-0.371,0.493-1.228,0.636-1.096,1.487c0.075,0.493,0.979,0.656,2.085,0.361
		c0.637-0.171,1.252-0.444,1.898-0.556c0.493-0.085,0.813,0.229,0.822,0.764c0.042,2.694,0.041,2.694-1.288,5.329
		c2.191,0.197,4.192-0.403,6.193-0.94c0.748-0.202,0.964-0.952,0.531-1.566c-0.573-0.809-1.263-1.553-1.718-2.423
		c-0.832-1.582-0.011-2.176,1.278-2.058c0.985,0.089,1.983,0.114,2.972,0.07c0.613-0.026,0.953-0.499,1.069-1.088
		c0.043-0.212,0.041-0.442,0.016-0.661c-0.344-2.997,0.132-5.958,0.398-8.926c0.442-0.004,0.883-0.007,1.325-0.015
		c-0.049,1.11,0.135,2.192,0.579,3.199c0.521,1.188,1.33,1.994,2.79,1.582c0.616-0.038,0.929-0.513,1.304-0.899
		c0.705-0.136,1.408-0.27,2.11-0.407c0.109,0.449,0.219,0.895,0.327,1.342c-0.145,0.399-0.253,0.8-0.018,1.201
		c0.398,0.68,0.267,1.421,0.264,2.148c0.145,0.956,0.575,0.545,0.991,0.207c0.628-0.058,1.354-0.37,1.636,0.556
		c0.253,0.834,0.663,1.639,0.264,2.569c-0.474,1.102,0.232,1.329,1.123,1.375c0.462,0.024,1,0.182,1.059,0.633
		c0.181,1.427,1.183,1.421,2.206,1.376c2.745-0.116,5.458-0.432,8.059-1.393c0.702-0.244,0.61-0.564,0.089-0.924
		c-0.504-0.975-1.27-1.805-1.518-2.923c-0.303-1.369,0.273-2.018,1.483-1.726c0.752,0.18,1.513,0.346,2.279,0.418
		c1.299,0.121,1.917-0.341,2.027-1.587c0.116-1.318,0.097-2.646,0.136-3.972c0.79-1.136,0.764-2.512,1.129-3.771
		c0.064-0.225,0.46-0.391,0.735-0.488c0.077-0.027,0.354,0.271,0.403,0.456c0.166,0.641,0.252,1.296,0.397,1.94
		c0.264,1.169,0.714,1.475,1.896,1.099c1.154-0.366,2.292-0.808,3.383-1.331c1.604-0.767,1.605-0.96,0.422-2.601
		c-0.193-0.268-0.391-0.535-0.545-0.823c-0.318-0.598-0.034-1.406,0.617-1.65c0.512-0.191,1.057-0.307,1.594-0.416
		c0.754-0.153,1.528-0.227,2.272-0.415c0.831-0.213,1.087-0.839,0.575-1.444c-0.798-0.94-1.471-1.929-1.793-3.132
		c-0.244-0.901,0.271-1.489,1.253-1.36c0.981,0.128,1.951,0.375,2.935,0.454c0.89,0.071,1.435-0.429,1.571-1.343
		c0.389-2.619,0.748-5.245,1.117-7.867c0.113-0.798,0.632-1.107,1.375-1.146c0.041,0.882-0.005,1.78,0.138,2.645
		c0.354,2.14,1.824,2.971,3.825,2.234c0.207-0.076,0.396-0.199,0.602-0.278c1.698-0.658,1.5-0.616,1.859,1.127
		c0.339,1.66,0.061,3.005-1.222,4.392c1.16,0.585,2.121,0.021,3.023,0.151c0.88,0.126,1.311,0.838,0.95,1.687
		c-0.085,0.202-0.207,0.391-0.313,0.583c-0.308,0.555-0.971,1.025-0.614,1.762c0.412,0.845,1.148,1.332,2.084,1.473
		c1.539,0.231,3.079,0.37,4.618-0.014c1.562-0.391,1.73-0.752,0.99-2.187c-0.151-0.293-0.354-0.565-0.472-0.871
		c-0.359-0.938,0.154-1.888,1.131-1.97c0.763-0.065,1.542,0.086,2.311,0.054c0.654-0.026,1.313-0.133,1.948-0.293
		c0.324-0.083,0.473-0.427,0.326-0.783c-0.083-0.203-0.229-0.378-0.322-0.576c-0.436-0.961-1.994-0.871-2.101-1.937
		c-0.105-1.054-0.772-1.474-1.39-2.076c-0.812-0.79-0.698-1.492,0.31-2.145c0.928-0.602,1.92-1.103,2.845-1.708
		c1.896-1.239,3.432-2.78,3.979-5.086c0.191-0.281,0.235-0.569-0.122-0.719c-0.089-0.036-0.29,0.197-0.44,0.305
		c-0.976,0.098-1.95,0.245-2.928,0.279c-1.091,0.04-2.183-0.044-3.168-0.614c-0.39-0.225-0.785-0.505-0.726-0.973
		c0.033-0.266,0.328-0.573,0.584-0.724c0.745-0.44,1.529-0.809,2.298-1.206c2.209-0.468,3.989-1.652,5.631-3.243
		c-0.196-1.048-1.218-1.267-1.712-1.932c-0.617-0.834-0.504-1.773,0.447-2.171c0.901-0.377,1.893-0.53,2.804-0.885
		c1.569-0.612,1.781-1.374,0.528-2.278c-0.438-0.315-0.884-0.625-1.326-0.938c-0.757-2.961-0.757-2.96,2.236-2.922
		c0.329,0.005,0.661,0.022,0.987-0.001c1.438-0.107,1.911-0.591,1.767-2.139c-0.238-2.518-0.248-5.036-0.167-7.559
		c0.017-0.535,0.06-1.063,0.583-1.433c1.01,0.881,0.763,2.245,1.283,3.308c0.774,1.584,2.243,2.159,3.782,1.375
		c0.583-0.296,1.118-0.69,1.702-0.988c0.476-0.244,0.822,0.084,1.149,0.386c-0.052,0.213-0.174,0.44-0.14,0.64
		c0.126,0.757,0.416,1.503,0.433,2.256c0.017,0.737-0.227,1.478-0.337,2.109c0.32,0.424,0.644,0.418,0.975,0.387
		c2.796-0.263,2.796-0.263,2.125,2.502c-0.254,1.058,0.272,2.038,1.358,2.209c1.983,0.311,3.975,0.262,5.924-0.277
		c0.499-0.139,0.675-0.592,0.519-1.048c-0.357-1.041-0.978-1.99-1.023-3.137c-0.022-0.582,0.472-1.077,1.053-0.937
		c0.965,0.237,1.907,0.586,2.882,0.766c1.247,0.234,1.807-0.182,2.121-1.47c0.604-2.47,1.181-4.948,1.771-7.422
		c0.104-0.433,0.231-0.854,0.73-1.055c0.667,0.071,0.396,0.631,0.445,0.995c0.057,0.436-0.007,0.888,0.038,1.326
		c0.055,0.546,0.077,1.123,0.273,1.623c0.448,1.143,1.667,1.746,2.981,1.523c0.753-0.128,1.494-0.337,2.333-0.531
		c0.671,2.104,0.402,3.932-0.915,5.599c-0.269,0.094-0.382,0.303-0.204,0.436c0.115,0.086,0.376-0.021,0.573-0.039
		c0.867,0.132,1.746,0.209,2.595,0.408c0.504,0.119,0.656,0.643,0.488,1.069c-0.198,0.498-0.572,0.926-0.865,1.387
		c-0.623,0.983-0.478,1.936,0.44,2.53c0.946,0.612,2.034,0.834,3.126,1.038c1.083,0.203,2.167,0.416,3.244,0.663
		c0.436,0.101,0.522,0.733,0.206,1.068c-1.043,1.109-2.429,1.501-3.842,1.792c-0.753,0.156-1.538,0.162-2.303,0.263
		c-0.601,0.081-0.915,0.754-0.538,1.211c1.486,1.787,2.951,3.621,5.393,4.174c0.897,0.205,1.692,0.534,2.054,1.474
		c-0.551,0.6-1.103,1.2-1.656,1.8c-1.255,0.275-2.51,0.552-3.737,0.822c0.026,0.76,0.524,1.024,0.933,1.371
		c1.029,0.878,1.016,0.887,0.33,2.416c-0.441,0.978,0.119,1.64,0.745,2.272c0.199,0.953,0.16,1.986,1.057,2.682
		c0.449,0.347,0.668,0.854,0.651,1.448c-0.021,0.649,0.371,0.971,0.934,1.179c0.72,0.266,1.452,0.519,2.128,0.873
		c0.462,0.241,0.452,0.725,0.144,1.111c-0.199,0.247-0.48,0.472-0.771,0.597c-1.969,0.846-2.435,2.72-3.063,4.464
		c-0.288,0.796,0.414,1.479,1.318,1.233c0.636-0.172,1.114-0.646,1.391,0.448c0.299,1.185,1.756,1.937,1.148,3.546
		c-0.213,0.566,1.249,1.265,2.119,1.004c1.962-0.591,3.739-1.395,3.959-3.822c0.039-0.428,0.181-0.86,0.355-1.255
		c0.068-0.156,0.347-0.292,0.539-0.303c0.145-0.007,0.42,0.182,0.436,0.309c0.088,0.763,0.132,1.533,0.165,2.302
		c0.036,0.845,0.434,1.456,1.143,1.884c-0.165-2.21-0.332-4.421-0.108-6.637c0.033-0.326,0.031-0.666,0.135-0.967
		c0.055-0.159,0.295-0.332,0.467-0.35c0.178-0.019,0.487,0.101,0.541,0.237c0.28,0.718,0.455,1.478,0.746,2.191
		c0.776,1.903,2.19,2.433,3.942,1.494c0.674-0.36,1.242-0.94,2.063-0.977c0.847,0.748,0.248,2.007,1.031,2.75
		c-0.08,0.662-0.189,1.32-0.23,1.983c0.042-0.663,0.151-1.321,0.233-1.982c3.127-0.978,5.339-2.83,5.936-6.223
		c0.243-0.033,0.346-0.184,0.197-0.321c-0.163-0.152-0.318-0.052-0.36,0.178c-0.873,0.101-1.745,0.195-2.613,0.309
		c-1.227,0.163-2.423,0.029-3.568-0.415c-0.384-0.148-0.784-0.392-0.871-0.89c-0.099-0.558,0.299-0.807,0.685-0.987
		c0.896-0.421,1.825-0.765,2.725-1.176c1.793-0.821,3.558-1.693,4.979-3.271c-0.329-1.081-1.518-1.296-1.965-2.158
		c-0.301-0.581-0.221-1.431,0.361-1.733c0.577-0.299,1.196-0.563,1.829-0.707c0.757-0.172,1.493-0.335,2.151-0.779
		c0.534-0.359,0.651-0.889,0.164-1.354c-0.713-0.687-1.5-1.314-1.944-2.221c-0.286-0.588-0.469-1.228-0.697-1.842
		c0.702-0.463,1.463-0.412,2.239-0.261c0.766,0.15,1.528,0.182,2.295-0.035c0.874-0.246,1.291-0.711,1.28-1.668
		c-0.024-2.318-0.09-4.635-0.123-6.954c-0.006-0.435,0.038-0.882,0.139-1.302c0.037-0.149,0.304-0.261,0.486-0.344
		c0.053-0.023,0.228,0.082,0.26,0.164c0.249,0.606,0.458,1.23,0.709,1.835c0.937,2.272,2.223,2.755,4.394,1.654
		c0.295-0.149,0.563-0.352,0.854-0.505c0.862-0.454,0.863-0.461,1.644,0.846c-0.173,1.017,0.706,1.912,0.348,2.952
		c-0.126,0.182-0.301,0.346-0.368,0.546c-0.309,0.928-0.07,1.271,0.831,1.156c0.313-0.04,0.601-0.256,0.898-0.392
		c0.521,0.131,1.125,0.016,1.529,0.484c0.42,0.486,0.264,1.032,0.095,1.557c-0.1,0.311-0.308,0.589-0.406,0.9
		c-0.289,0.93,0.117,1.781,1.066,2.021c0.734,0.188,1.515,0.222,2.279,0.264c0.548,0.031,1.102-0.025,1.649-0.065
		c2.993-0.218,2.988-0.22,2.038-3.207c-0.133-0.417-0.237-0.849-0.311-1.28c-0.124-0.738,0.466-1.293,1.184-1.146
		c1.274,0.258,2.422,1.151,3.825,0.762c0.486,0.061,0.752-0.146,0.784-0.641c0.653-2.57,1.301-5.141,1.964-7.707
		c0.08-0.312,0.195-0.636,0.378-0.896c0.099-0.138,0.371-0.17,0.574-0.209c0.055-0.011,0.19,0.117,0.201,0.193
		c0.101,0.65,0.214,1.302,0.259,1.956c0.055,0.802,0.261,1.526,0.825,2.12c0.642,0.68,1.354,1.13,2.353,0.819
		c0.738-0.23,1.486-0.448,2.243-0.593c0.336-0.064,0.637,0.176,0.664,0.564c0.15,2.249-0.11,3.174-1.451,5.222
		c0.409,0.795,1.142,0.366,1.724,0.418c2.075,0.19,2.399,0.757,1.317,2.417c-0.122,0.184-0.312,0.321-0.432,0.505
		c-0.536,0.829-0.373,1.7,0.439,2.264c0.838,0.579,1.803,0.831,2.789,1.016c1.305,0.245,2.61,0.497,3.911,0.754
		c0.1,0.021,0.186,0.118,0.277,0.178c0.162,0.826-0.424,1.203-0.981,1.558c-1.642,1.05-3.467,1.413-5.394,1.409
		c-0.283,0-0.709,0.152-0.811,0.36c-0.109,0.225-0.017,0.686,0.164,0.89c1.615,1.827,3.165,3.757,5.801,4.184
		c0.315,0.05,0.614,0.235,0.907,0.387c0.535,0.273,0.644,0.901,0.288,1.405c-0.82,1.156-1.976,1.732-3.335,1.981
		c-0.619,0.113-1.323-0.205-1.854,0.362c0.057,0.65,0.605,0.871,1.027,1.208c1.117,0.896,1.102,0.898,0.502,2.505
		c-0.104,0.282-0.217,0.692-0.094,0.909c0.757,1.332,0.707,3.024,1.902,4.17c0.288,0.277,0.514,0.777,0.506,1.17
		c-0.02,0.851,0.471,1.151,1.13,1.403c0.928,0.355,1.856,0.721,2.759,1.132c0.676,0.308,1.301,0.164,1.92-0.099
		c0.671-0.286,1.079-0.79,0.929-1.554c-0.084-0.429-0.332-0.825-0.434-1.252c-0.152-0.633,0.195-1.04,0.731-1.315
		c0.834-0.429,1.75-0.161,2.619-0.31c0.839-0.145,1.065-0.598,0.7-1.432c-0.31-0.706-0.679-1.391-0.929-2.116
		c-0.253-0.734,0.322-1.332,1.112-1.092c3.788,1.149,3.397-0.095,3.862-2.815c0.038-0.214-0.006-0.441-0.012-0.663
		c0.315-0.915,0.713-1.811,0.919-2.751c0.176-0.798,0.676-1.326,1.148-1.905c0.005,0.879-0.058,1.766,0.031,2.638
		c0.166,1.633,0.949,2.244,2.642,2.168c0.437-0.02,0.874-0.154,1.304-0.124c0.307,0.022,0.574,0.21,0.643,0.614
		c0.182,1.085,0.118,1.646-0.618,3.879c2.178,0.286,4.038-0.424,5.926-1.17c-0.43-1.381-1.645-1.9-1.792-3.08
		c-0.062-0.493,0.069-0.939,0.553-1.018c0.642-0.104,1.313-0.001,1.966-0.055c1.149-0.093,1.588-0.508,1.611-1.653
		c0.041-1.867,0.004-3.737-0.001-5.605c0.197-0.386,0.395-0.771,0.681-1.329c0.792,0.959,0.462,2.398,1.492,3.106
		c1.664,1.149,1.664,1.149,3.633-0.352c0.39,0.088,0.782,0.176,1.173,0.263c-0.449,1.09,0.233,2.188-0.036,3.283
		c-0.224,0.91,0.376,1.036,1.083,1.244c1.25,0.368,1.23,0.435,1.028,1.869c-0.213,1.514,0.115,2.072,1.532,2.299
		c0.867,0.14,1.773,0.194,2.645,0.114c1.762-0.164,3.519-0.411,5.267-0.69c1.196-0.191,1.431-0.746,0.866-1.795
		c-0.26-0.487-0.582-0.946-0.793-1.454c-0.454-1.088,0.039-1.735,1.167-1.558c0.327,0.05,0.64,0.195,0.967,0.238
		c1.781,0.228,2.312-0.103,2.352-1.84c0.042-1.798,0.399-3.511,0.875-5.223c0.077-0.279,0.222-0.422,0.444-0.316
		c0.177,0.087,0.394,0.224,0.455,0.389c0.154,0.412,0.206,0.861,0.347,1.279c0.165,0.489,0.598,0.638,1.055,0.612
		c1.134-0.067,2.138-0.553,3.121-1.065c1.095-0.568,1.155-0.844,0.483-2.019c-0.109-0.191-0.28-0.347-0.376-0.544
		c-0.344-0.699-0.089-1.412,0.607-1.586c0.533-0.133,1.088-0.18,1.636-0.242c0.681-0.079,1.3-0.265,1.81-0.933
		c-0.497-0.903-1.059-1.827-1.523-2.796c-0.354-0.743,0.119-1.414,0.875-1.311c1.071,0.146,2.237,0.833,3.169-0.032
		c0.885-0.821,0.405-2.109,0.594-3.181c0.233-1.309,0.412-2.626,0.632-3.936c0.06-0.354,0.276-0.593,0.669-0.631
		c0.604,0.481,0.34,1.206,0.494,1.813c0.509,1.965,1.338,2.428,3.376,1.866c0.417-0.115,0.813-0.391,1.424-0.115
		c0.564,1.402,0.526,2.853-0.47,4.285c0.493,0.13,0.799,0.245,1.115,0.291c1.828,0.263,1.829,0.258,1.271,2.163
		c-0.265,0.904-0.008,1.54,0.795,1.868c1.146,0.467,2.352,0.706,3.576,0.479c0.636-0.118,1.388-0.309,1.804-0.739
		c0.567-0.587-0.194-1.18-0.391-1.772c-0.296-0.877,0.09-1.592,0.938-1.688c0.437-0.048,0.884-0.01,1.326-0.001
		c0.668,0.014,1.537,0.131,1.834-0.474c0.438-0.894-0.467-1.304-1.059-1.781c-0.861-0.698-0.948-1.937-1.857-2.651
		c-0.385-0.3-0.088-0.865,0.276-1.13c0.808-0.584,1.675-1.084,2.493-1.653c1.395-0.967,2.56-2.123,2.941-3.865v-0.001
		c0.021,0.008,0.039,0.021,0.068,0.027c-0.022-0.018-0.044-0.027-0.067-0.044c0.01-0.177,0.079-0.18,0.133-0.148
		c0.09,0.089,0.057,0.031,0,0c-0.017-0.017-0.032-0.031-0.057-0.058c-0.039-0.043-0.145-0.093-0.154-0.081
		c-0.065,0.073-0.083,0.138-0.064,0.192c-0.62-0.356-1.3-0.08-1.952-0.04c-1.102,0.065-2.151-0.055-3.106-0.666
		c-0.362-0.23-0.411-0.826-0.085-1.087c0.762-0.606,1.848-0.649,2.494-1.45c1.646-0.159,2.803-1.086,3.773-2.255
		c-0.077-0.222-0.083-0.359-0.154-0.428c-2.033-2.008-1.679-2.587,1.042-3.362c0.312-0.089,0.604-0.266,0.884-0.436
		c0.435-0.262,0.565-0.648,0.321-1.107c-0.102-0.193-0.265-0.352-0.4-0.524c-0.602-0.753-1.624-1.477-1.042-2.539
		c0.496-0.909,1.62-0.307,2.452-0.451c1.137-0.193,1.596-0.62,1.505-1.743c-0.148-1.879-0.252-3.751-0.08-5.63
		c0.018-0.19,0.175-0.367,0.35-0.718c0.915,0.445,0.767,1.5,1.244,2.138c0.811,1.083,1.508,1.224,3.06,0.494
		c1.623-0.412,1.622-0.412,1.936,0.673c0.121,0.422,0.421,0.879,0.343,1.262c-0.317,1.577,0.202,2.277,1.853,2.151
		c0.496-0.038,0.757,0.424,0.707,0.918c-0.032,0.323-0.221,0.627-0.28,0.95c-0.221,1.242,0.221,1.876,1.474,2.008
		c1.535,0.159,3.059,0.086,4.416-0.323c0.351-0.632,0.111-1.032-0.021-1.446c-0.851-2.643-0.848-2.643,2.029-2.183
		c1.583,0.253,1.987,0.002,2.354-1.537c0.384-1.615,0.73-3.238,1.118-4.852c0.101-0.422,0.219-0.877,0.768-0.972
		c0.499,0.394,0.33,0.979,0.43,1.491c0.423,2.174,1.031,2.612,3.149,2.283c0.216-0.034,0.422-0.151,0.641-0.176
		c0.207-0.022,0.42,0.027,0.683,0.049c0.541,1.541,0.178,2.979-0.645,4.298c0.261,0.204,0.404,0.404,0.581,0.441
		c2.173,0.459,2.173,0.454,1.414,2.325c-0.359,0.884-0.163,1.484,0.571,1.942c1.079,0.669,2.329,0.667,3.507,0.948
		c0.429,0.103,0.869,0.19,1.276,0.349c0.147,0.057,0.305,0.304,0.305,0.466c0.001,0.195-0.109,0.446-0.255,0.577
		c-1.228,1.093-2.756,1.32-4.311,1.5c-0.883,0.101-1.068,0.67-0.472,1.349c1.1,1.252,2.199,2.506,3.956,2.875
		c0.544,0.114,1.16,0.37,1.232,0.953c0.094,0.74-0.565,1.113-1.093,1.528c-0.828,0.653-1.942,0.393-2.795,0.917
		c0.079,0.645,0.619,0.892,1,1.271c0.326,0.324,0.575,0.735,0.264,1.167c-0.538,0.743-0.234,1.398-0.049,2.179
		c0.315,1.331,1.324,2.288,1.676,3.571c0.167,0.613,0.714,0.796,1.24,0.984c0.515,0.184,1.039,0.366,1.273,1.135
		c-0.928,1.058-2.393,1.783-2.795,3.44c-0.312,1.288-0.383,1.549,0.631,2.209c0.277,0.182,0.575,0.333,0.876,0.474
		c0.506,0.239,1.071,0.485,1.226,1.04c0.167,0.6-0.333,1.007-0.72,1.397c-0.523,0.529-0.323,1.077,0.13,1.418
		c0.967,0.724,1.848,1.457,2.455,2.56c0.391,0.712,1.658,0.455,1.877-0.313c0.212-0.739,0.347-1.506,0.438-2.271
		c0.194-1.644,0.625-3.215,1.153-4.886c1.033,0.351,0.672,1.122,0.772,1.659c0.422,2.261,1.069,2.717,3.371,2.31
		c0.321-0.055,0.651-0.055,0.978-0.082c0.611,0.788,0.472,1.679,0.467,2.543c-0.003,0.624-0.899,1.186-0.31,1.779
		c0.332,0.333,1.038,0.262,1.533,0.472c0.595,0.25,0.751,0.773,0.515,1.362c-0.122,0.304-0.39,0.55-0.51,0.854
		c-0.305,0.792-0.02,1.594,0.745,1.909c1.656,0.683,3.39,1.012,5.193,0.872c0.014,1.055-0.728,1.499-1.517,1.944
		c-1.096,0.618-2.314,0.611-3.5,0.795c-0.479,0.075-0.677,0.601-0.426,1.004c0.59,0.953,1.444,1.641,2.31,2.31
		c1.184,0.912,1.507,0.86,2.372-0.561c0.371-0.618,0.865-0.951,1.49-1.183c0.613-0.225,1.243-0.405,1.837-0.672
		c0.595-0.269,0.698-0.834,0.233-1.333c-0.744-0.797-1.536-1.548-2.311-2.318c0.396-0.752,0.955-1.113,1.863-1.044
		c3.322,0.251,3.07-0.919,2.795-3.282c-0.124-1.09-0.086-2.202-0.057-3.304c0.014-0.512-0.181-1.119,0.385-1.52
		c0.841,0.189,0.651,1.015,0.927,1.536c0.917,1.733,1.654,2.05,3.413,1.32c0.304-0.127,0.584-0.308,0.879-0.458
		c0.368-0.189,0.666-0.006,0.809,0.286c0.192,0.391,0.232,0.854,0.418,1.249c0.38,0.818-0.347,1.769,0.333,2.537
		c1.547-0.089,2.88,1.044,4.463,0.769c0.851-0.147,1.378-0.73,1.215-1.639c-0.335-1.855-0.573-3.712-0.535-5.598
		c0.007-0.325,0.043-0.649,0.062-0.981c0.813-0.176,0.849,0.48,1.065,0.908c1.207,2.348,1.772,2.535,4.07,1.331
		c0.288-0.154,0.592-0.28,0.953-0.449c0.797,1.126,1.179,2.328,1.046,3.686c0.081,1.088,0.658,0.705,1.207,0.411
		c0.409-0.07,0.82-0.138,1.231-0.205c0.242,0.748,0.209,1.492,0.128,2.274c-0.125,1.211,0.474,1.861,1.676,1.881
		c0.872,0.017,1.749-0.138,2.626-0.211c0.438-0.038,0.875-0.087,1.314-0.089c0.321-0.002,0.68,0.047,0.723,0.465
		c0.021,0.201-0.023,0.445-0.131,0.615c-0.542,0.866-1.353,1.425-2.227,1.915c-0.653,0.366-1.5,0.429-1.946,1.343
		c1.012,1.187,2.472,1.642,3.902,2.113c0.021,0.006,0.05,0.008,0.071,0.013c1.399,1.735,4.068,1.062,5.537,2.974
		c0.661,0.857,0.608,2.096,1.11,3.042c0.254,0.482,0.701,0.738,1.19,0.885c-0.275,0.182-0.554,0.363-0.842,0.528
		c-0.128,0.071-0.214,0.247-0.159,0.391c0.255,0.688,0.704,1.048,1.303,1.449c1.386,0.929,0.136,1.728,0.487,2.731
		c0.675,1.926,1.678,3.238,3.498,4.07c-0.299,0.908-0.299,1.791-0.194,2.762c0.066,0.662,0.186,1.318,0.249,1.981
		c0.069,0.713-0.275,1.277-0.496,1.92c-0.628,1.805,1.098,2.857,2.404,3.858v0.413c-1.264,1.074-1.562,2.656-0.347,3.598
		c0.086-0.018,0.171-0.039,0.257-0.057c0.756-0.153,1.53-0.226,2.272-0.415c0.831-0.211,1.088-0.838,0.574-1.444
		c-0.798-0.939-1.469-1.926-1.791-3.131c-0.245-0.899,0.271-1.489,1.254-1.36c0.982,0.129,1.949,0.374,2.934,0.454
		c0.891,0.071,1.436-0.429,1.573-1.343c0.385-2.621,0.746-5.244,1.116-7.868c0.112-0.797,0.63-1.105,1.374-1.146
		c0.038,0.882-0.005,1.78,0.138,2.646c0.352,2.139,1.825,2.969,3.826,2.235c0.205-0.077,0.395-0.2,0.602-0.279
		c1.694-0.658,1.5-0.615,1.856,1.129c0.342,1.658,0.062,3.005-1.22,4.391c1.158,0.584,2.123,0.02,3.023,0.149
		c0.879,0.127,1.31,0.839,0.953,1.688c-0.088,0.202-0.209,0.39-0.318,0.582c-0.305,0.555-0.97,1.027-0.611,1.764
		c0.411,0.845,1.146,1.332,2.085,1.474c1.537,0.231,3.075,0.368,4.615-0.014c1.563-0.39,1.732-0.753,0.993-2.188
		c-0.154-0.292-0.356-0.564-0.476-0.87c-0.356-0.939,0.155-1.887,1.132-1.97c0.765-0.064,1.545,0.085,2.313,0.053
		c0.653-0.027,1.314-0.132,1.946-0.294c0.323-0.082,0.473-0.427,0.325-0.783c-0.083-0.202-0.23-0.375-0.32-0.575
		c-0.438-0.962-1.994-0.87-2.102-1.937c-0.104-1.054-0.774-1.473-1.393-2.077c-0.808-0.79-0.696-1.491,0.312-2.145
		c0.93-0.601,1.921-1.102,2.845-1.706c1.896-1.239,3.432-2.779,3.979-5.086c0.192-0.283,0.238-0.57-0.123-0.718
		c-0.088-0.038-0.29,0.195-0.438,0.304c-0.975,0.096-1.949,0.244-2.928,0.279c-1.094,0.038-2.183-0.044-3.171-0.615
		c-0.39-0.223-0.784-0.505-0.723-0.973c0.033-0.267,0.328-0.573,0.582-0.725c0.747-0.438,1.531-0.808,2.299-1.204
		c2.21-0.468,3.99-1.654,5.632-3.244c-0.194-1.048-1.219-1.266-1.713-1.934c-0.615-0.833-0.502-1.773,0.449-2.17
		c0.898-0.376,1.892-0.53,2.805-0.885c1.568-0.613,1.779-1.375,0.527-2.277c-0.442-0.317-0.885-0.626-1.326-0.94
		c-0.761-2.961-0.761-2.96,2.236-2.921c0.328,0.005,0.658,0.023,0.986-0.001c1.436-0.108,1.91-0.59,1.766-2.139
		c-0.235-2.519-0.247-5.036-0.169-7.559c0.02-0.534,0.062-1.063,0.585-1.433c1.008,0.882,0.761,2.245,1.283,3.31
		c0.775,1.583,2.244,2.158,3.781,1.375c0.582-0.298,1.119-0.691,1.704-0.988c0.476-0.243,0.822,0.085,1.147,0.385
		c-0.052,0.214-0.173,0.441-0.14,0.64c0.126,0.757,0.416,1.503,0.433,2.259c0.014,0.735-0.229,1.477-0.338,2.107
		c0.318,0.426,0.646,0.418,0.975,0.387c2.795-0.261,2.795-0.261,2.127,2.504c-0.257,1.059,0.273,2.038,1.357,2.209
		c1.981,0.313,3.974,0.261,5.922-0.278c0.499-0.138,0.676-0.592,0.519-1.048c-0.354-1.04-0.975-1.988-1.022-3.137
		c-0.021-0.58,0.474-1.074,1.056-0.934c0.965,0.235,1.906,0.583,2.88,0.766c1.248,0.231,1.807-0.185,2.12-1.471
		c0.604-2.471,1.184-4.948,1.773-7.423c0.103-0.433,0.228-0.854,0.729-1.055c0.668,0.072,0.396,0.632,0.444,0.996
		c0.058,0.436-0.005,0.887,0.038,1.327c0.057,0.545,0.078,1.121,0.275,1.624c0.447,1.141,1.666,1.744,2.98,1.521
		c0.754-0.128,1.492-0.336,2.332-0.53c0.672,2.104,0.403,3.931-0.915,5.598c-0.267,0.096-0.383,0.304-0.205,0.438
		c0.116,0.087,0.376-0.021,0.575-0.039c0.865,0.13,1.744,0.209,2.596,0.407c0.501,0.118,0.656,0.644,0.484,1.068
		c-0.194,0.499-0.57,0.927-0.862,1.387c-0.625,0.984-0.478,1.936,0.439,2.531c0.946,0.612,2.034,0.834,3.125,1.038
		c1.087,0.202,2.17,0.416,3.244,0.663c0.438,0.102,0.523,0.733,0.207,1.069c-1.043,1.106-2.429,1.497-3.843,1.79
		c-0.751,0.157-1.535,0.162-2.301,0.264c-0.604,0.081-0.917,0.754-0.539,1.21c1.485,1.788,2.949,3.622,5.393,4.175
		c0.897,0.204,1.691,0.531,2.056,1.473c-0.554,0.6-1.105,1.201-1.657,1.8c-1.255,0.278-2.51,0.554-3.738,0.822
		c0.026,0.76,0.525,1.024,0.935,1.374c1.026,0.877,1.015,0.885,0.327,2.414c-0.439,0.978,0.119,1.641,0.747,2.273
		c0.194,0.955,0.156,1.987,1.055,2.681c0.449,0.348,0.668,0.856,0.651,1.451c-0.021,0.648,0.371,0.97,0.937,1.178
		c0.718,0.266,1.449,0.52,2.125,0.874c0.461,0.24,0.451,0.725,0.145,1.11c-0.199,0.247-0.478,0.472-0.772,0.597
		c-1.968,0.847-2.434,2.72-3.061,4.465c-0.288,0.795,0.413,1.48,1.316,1.234c0.637-0.174,1.114-0.648,1.391,0.447
		c0.299,1.187,1.756,1.938,1.147,3.545c-0.214,0.565,1.25,1.265,2.12,1.003c1.961-0.589,3.738-1.393,3.959-3.82
		c0.038-0.427,0.181-0.858,0.352-1.252c0.071-0.158,0.35-0.294,0.54-0.305c0.145-0.007,0.421,0.183,0.438,0.309
		c0.088,0.764,0.133,1.532,0.163,2.302c0.036,0.847,0.434,1.455,1.146,1.883c-0.167-2.209-0.333-4.419-0.109-6.636
		c0.033-0.326,0.03-0.664,0.135-0.967c0.055-0.159,0.297-0.333,0.469-0.351c0.176-0.019,0.487,0.101,0.539,0.238
		c0.28,0.717,0.454,1.477,0.744,2.19c0.779,1.904,2.191,2.432,3.945,1.494c0.67-0.36,1.24-0.938,2.063-0.976
		c0.847,0.748,0.247,2.007,1.031,2.75c-0.08,0.66-0.189,1.321-0.232,1.982c0.043-0.661,0.152-1.322,0.232-1.98
		c3.128-0.979,5.341-2.832,5.938-6.224c0.242-0.034,0.347-0.183,0.194-0.321c-0.161-0.151-0.315-0.051-0.356,0.18
		c-0.874,0.101-1.744,0.193-2.614,0.309c-1.227,0.162-2.424,0.029-3.567-0.416c-0.387-0.149-0.786-0.393-0.872-0.891
		c-0.1-0.557,0.3-0.806,0.685-0.987c0.894-0.419,1.825-0.764,2.724-1.175c1.794-0.821,3.561-1.694,4.981-3.27
		c-0.33-1.083-1.519-1.296-1.968-2.159c-0.3-0.58-0.222-1.43,0.361-1.731c0.58-0.301,1.197-0.562,1.83-0.707
		c0.756-0.173,1.492-0.336,2.15-0.778c0.535-0.361,0.651-0.889,0.164-1.355c-0.713-0.687-1.502-1.314-1.944-2.222
		c-0.285-0.587-0.468-1.227-0.698-1.842c0.703-0.461,1.464-0.412,2.238-0.26c0.768,0.15,1.528,0.181,2.299-0.034
		c0.872-0.246,1.288-0.713,1.278-1.667c-0.021-2.319-0.093-4.637-0.121-6.956c-0.005-0.434,0.038-0.881,0.138-1.302
		c0.036-0.147,0.304-0.258,0.485-0.341c0.057-0.026,0.228,0.082,0.261,0.162c0.247,0.608,0.459,1.23,0.708,1.835
		c0.939,2.273,2.225,2.757,4.395,1.656c0.297-0.151,0.563-0.352,0.858-0.507c0.86-0.453,0.86-0.458,1.64,0.847
		c-0.174,1.019,0.708,1.912,0.35,2.953c-0.126,0.179-0.302,0.345-0.369,0.545c-0.309,0.928-0.07,1.272,0.832,1.155
		c0.31-0.04,0.6-0.255,0.896-0.392c0.521,0.131,1.126,0.017,1.533,0.486c0.418,0.485,0.261,1.033,0.092,1.556
		c-0.1,0.31-0.309,0.589-0.406,0.902c-0.287,0.928,0.114,1.779,1.064,2.02c0.737,0.188,1.517,0.223,2.282,0.265
		c0.547,0.03,1.098-0.026,1.649-0.066c2.989-0.217,2.987-0.219,2.036-3.208c-0.133-0.417-0.239-0.847-0.311-1.278
		c-0.124-0.739,0.466-1.294,1.184-1.148c1.273,0.259,2.421,1.151,3.826,0.762c0.484,0.062,0.751-0.146,0.784-0.641
		c0.651-2.569,1.3-5.139,1.963-7.707c0.081-0.312,0.195-0.636,0.378-0.894c0.098-0.139,0.371-0.171,0.573-0.211
		c0.057-0.009,0.189,0.117,0.204,0.194c0.1,0.649,0.209,1.301,0.257,1.957c0.052,0.801,0.261,1.525,0.824,2.12
		c0.645,0.679,1.353,1.129,2.353,0.816c0.739-0.229,1.485-0.446,2.244-0.591c0.335-0.065,0.637,0.174,0.663,0.563
		c0.149,2.247-0.109,3.174-1.452,5.221c0.408,0.795,1.143,0.366,1.728,0.419c2.072,0.189,2.396,0.756,1.314,2.416
		c-0.121,0.184-0.312,0.321-0.431,0.504c-0.537,0.831-0.375,1.703,0.438,2.264c0.842,0.579,1.804,0.831,2.79,1.016
		c1.308,0.246,2.609,0.498,3.91,0.755c0.102,0.021,0.188,0.118,0.277,0.18c0.162,0.826-0.425,1.2-0.981,1.557
		c-1.642,1.05-3.467,1.414-5.393,1.411c-0.285,0-0.71,0.151-0.813,0.357c-0.109,0.225-0.017,0.687,0.164,0.89
		c1.616,1.827,3.168,3.759,5.802,4.186c0.315,0.05,0.612,0.236,0.907,0.386c0.535,0.274,0.645,0.902,0.29,1.405
		c-0.822,1.157-1.978,1.734-3.337,1.981c-0.618,0.114-1.323-0.203-1.854,0.363c0.057,0.651,0.604,0.87,1.024,1.209
		c1.119,0.896,1.105,0.897,0.504,2.504c-0.104,0.283-0.217,0.692-0.093,0.91c0.756,1.333,0.708,3.022,1.901,4.168
		c0.29,0.276,0.514,0.78,0.504,1.17c-0.02,0.855,0.471,1.152,1.131,1.406c0.927,0.357,1.856,0.718,2.762,1.132
		c0.675,0.307,1.3,0.161,1.92-0.1c0.671-0.285,1.077-0.789,0.928-1.555c-0.084-0.428-0.333-0.822-0.433-1.253
		c-0.152-0.634,0.194-1.038,0.731-1.313c0.832-0.431,1.749-0.159,2.619-0.312c0.837-0.146,1.064-0.597,0.699-1.431
		c-0.31-0.706-0.678-1.391-0.928-2.116c-0.256-0.733,0.319-1.332,1.11-1.094c3.786,1.149,3.396-0.094,3.862-2.813
		c0.038-0.214-0.005-0.442-0.012-0.663c0.315-0.915,0.713-1.811,0.919-2.751c0.176-0.799,0.675-1.325,1.148-1.905
		c0.005,0.879-0.06,1.766,0.03,2.638c0.164,1.631,0.946,2.245,2.641,2.168c0.438-0.02,0.877-0.155,1.305-0.125
		c0.305,0.022,0.573,0.21,0.645,0.617c0.183,1.083,0.116,1.645-0.618,3.878c2.177,0.287,4.038-0.425,5.925-1.172
		c-0.433-1.38-1.645-1.9-1.792-3.078c-0.062-0.493,0.069-0.941,0.552-1.02c0.642-0.104,1.314-0.001,1.968-0.052
		c1.147-0.094,1.587-0.511,1.611-1.653c0.04-1.869,0.005-3.738,0-5.609c0.194-0.384,0.395-0.77,0.68-1.327
		c0.794,0.961,0.461,2.398,1.492,3.107c1.664,1.15,1.664,1.15,3.632-0.351c0.39,0.085,0.781,0.173,1.174,0.26
		c-0.449,1.09,0.233,2.19-0.035,3.286c-0.224,0.909,0.377,1.035,1.081,1.242c1.25,0.37,1.231,0.436,1.031,1.872
		c-0.214,1.512,0.112,2.07,1.528,2.298c0.867,0.14,1.772,0.193,2.646,0.113c1.763-0.164,3.517-0.41,5.267-0.69
		c1.197-0.191,1.431-0.745,0.867-1.795c-0.262-0.486-0.582-0.946-0.794-1.451c-0.454-1.091,0.04-1.735,1.167-1.559
		c0.328,0.051,0.64,0.196,0.965,0.238c1.782,0.228,2.313-0.102,2.353-1.838c0.043-1.8,0.402-3.514,0.875-5.224
		c0.078-0.279,0.224-0.421,0.444-0.315c0.178,0.084,0.393,0.223,0.454,0.387c0.156,0.413,0.206,0.86,0.347,1.28
		c0.166,0.488,0.599,0.637,1.056,0.61c1.136-0.065,2.139-0.551,3.122-1.063c1.099-0.569,1.155-0.843,0.482-2.018
		c-0.106-0.191-0.277-0.349-0.375-0.545c-0.345-0.7-0.088-1.411,0.608-1.586c0.53-0.134,1.086-0.179,1.638-0.241
		c0.68-0.078,1.298-0.265,1.809-0.935c-0.499-0.902-1.063-1.825-1.523-2.795c-0.356-0.742,0.119-1.415,0.874-1.312
		c1.069,0.146,2.237,0.835,3.171-0.031c0.884-0.821,0.404-2.11,0.594-3.181c0.23-1.308,0.411-2.626,0.63-3.936
		c0.06-0.355,0.278-0.592,0.671-0.63c0.604,0.479,0.34,1.205,0.496,1.812c0.506,1.966,1.336,2.427,3.375,1.865
		c0.416-0.114,0.811-0.39,1.424-0.114c0.563,1.403,0.525,2.852-0.471,4.284c0.494,0.132,0.799,0.246,1.114,0.292
		c1.83,0.263,1.83,0.257,1.27,2.162c-0.264,0.905-0.007,1.54,0.794,1.868c1.15,0.468,2.353,0.706,3.579,0.48
		c0.634-0.117,1.386-0.309,1.801-0.738c0.568-0.588-0.189-1.182-0.39-1.771c-0.295-0.878,0.091-1.594,0.937-1.688
		c0.438-0.049,0.884-0.012,1.326-0.001c0.67,0.014,1.538,0.13,1.835-0.474c0.439-0.894-0.469-1.305-1.061-1.782
		c-0.859-0.696-0.945-1.936-1.854-2.649c-0.387-0.303-0.09-0.866,0.276-1.131c0.803-0.585,1.673-1.085,2.49-1.653
		c1.396-0.967,2.558-2.121,2.942-3.866c0,0,0,0,0-0.001c0.019,0.008,0.038,0.02,0.066,0.028c-0.021-0.019-0.043-0.027-0.066-0.044
		c0.01-0.176,0.078-0.178,0.133-0.149c0.091,0.09,0.058,0.033,0,0c-0.019-0.017-0.031-0.031-0.057-0.059
		c-0.041-0.042-0.146-0.09-0.154-0.081c-0.064,0.075-0.084,0.139-0.064,0.194c-0.618-0.356-1.3-0.079-1.954-0.041
		c-1.1,0.066-2.148-0.056-3.105-0.667c-0.361-0.23-0.411-0.826-0.086-1.086c0.763-0.606,1.849-0.65,2.493-1.451
		c1.646-0.157,2.805-1.084,3.773-2.254c-0.075-0.223-0.08-0.359-0.151-0.428c-2.034-2.008-1.683-2.587,1.041-3.362
		c0.312-0.089,0.604-0.266,0.884-0.436c0.433-0.263,0.565-0.647,0.321-1.107c-0.103-0.191-0.265-0.352-0.402-0.524
		c-0.599-0.755-1.62-1.479-1.041-2.541c0.497-0.908,1.619-0.306,2.453-0.448c1.136-0.196,1.593-0.62,1.507-1.746
		c-0.15-1.876-0.254-3.75-0.081-5.628c0.02-0.19,0.174-0.369,0.35-0.72c0.912,0.447,0.765,1.503,1.243,2.139
		c0.813,1.083,1.509,1.224,3.061,0.494c1.621-0.412,1.621-0.411,1.935,0.672c0.124,0.424,0.419,0.88,0.343,1.263
		c-0.316,1.577,0.201,2.276,1.854,2.151c0.494-0.038,0.756,0.424,0.708,0.92c-0.033,0.321-0.224,0.625-0.28,0.948
		c-0.224,1.242,0.219,1.877,1.474,2.008c1.535,0.16,3.059,0.087,4.415-0.323c0.353-0.632,0.109-1.031-0.023-1.446
		c-0.851-2.643-0.849-2.644,2.029-2.184c1.583,0.255,1.987,0.003,2.354-1.535c0.385-1.615,0.731-3.238,1.119-4.853
		c0.1-0.419,0.219-0.875,0.768-0.972c0.499,0.394,0.33,0.98,0.431,1.494c0.42,2.172,1.033,2.609,3.148,2.28
		c0.219-0.033,0.423-0.149,0.64-0.173c0.207-0.022,0.421,0.025,0.685,0.047c0.542,1.542,0.178,2.98-0.646,4.299
		c0.264,0.205,0.406,0.402,0.582,0.439c2.172,0.461,2.175,0.455,1.414,2.328c-0.358,0.884-0.164,1.484,0.573,1.94
		c1.078,0.668,2.329,0.666,3.505,0.948c0.431,0.102,0.868,0.189,1.276,0.35c0.147,0.057,0.305,0.304,0.305,0.466
		c0.004,0.195-0.109,0.444-0.257,0.576c-1.227,1.093-2.752,1.32-4.312,1.5c-0.882,0.101-1.064,0.67-0.471,1.349
		c1.104,1.251,2.201,2.505,3.955,2.875c0.547,0.114,1.16,0.369,1.235,0.953c0.093,0.739-0.565,1.115-1.093,1.529
		c-0.83,0.65-1.944,0.391-2.795,0.915c0.076,0.646,0.618,0.891,0.998,1.273c0.326,0.324,0.575,0.734,0.264,1.166
		c-0.539,0.743-0.235,1.399-0.05,2.178c0.316,1.333,1.326,2.288,1.676,3.571c0.169,0.613,0.715,0.796,1.243,0.985
		c0.513,0.184,1.036,0.367,1.271,1.133c-0.93,1.058-2.394,1.785-2.793,3.44c-0.313,1.289-0.385,1.551,0.627,2.21
		c0.278,0.181,0.576,0.332,0.878,0.473c0.506,0.24,1.071,0.486,1.226,1.041c0.167,0.6-0.335,1.005-0.72,1.398
		c-0.522,0.528-0.323,1.076,0.131,1.417c0.967,0.724,1.847,1.457,2.455,2.56c0.392,0.711,1.656,0.455,1.877-0.313
		c0.212-0.739,0.348-1.508,0.438-2.272c0.195-1.642,0.628-3.215,1.153-4.888c1.033,0.352,0.672,1.123,0.774,1.662
		c0.421,2.261,1.067,2.716,3.367,2.311c0.323-0.056,0.653-0.056,0.981-0.083c0.611,0.788,0.474,1.679,0.466,2.543
		c-0.005,0.624-0.9,1.186-0.311,1.778c0.332,0.333,1.038,0.262,1.535,0.473c0.594,0.251,0.748,0.775,0.513,1.362
		c-0.123,0.304-0.39,0.55-0.508,0.854c-0.31,0.79-0.02,1.592,0.741,1.907c1.659,0.683,3.392,1.012,5.195,0.875
		c0.015,1.055-0.728,1.496-1.517,1.942c-1.096,0.618-2.314,0.612-3.498,0.796c-0.48,0.073-0.678,0.603-0.428,1.003
		c0.589,0.951,1.445,1.646,2.31,2.311c1.184,0.913,1.507,0.86,2.37-0.561c0.373-0.618,0.867-0.952,1.492-1.182
		c0.611-0.226,1.243-0.407,1.835-0.674c0.597-0.268,0.701-0.832,0.235-1.33c-0.744-0.799-1.535-1.551-2.311-2.321
		c0.397-0.75,0.955-1.112,1.863-1.044c3.322,0.253,3.07-0.917,2.795-3.282c-0.123-1.09-0.086-2.202-0.057-3.301
		c0.014-0.515-0.181-1.122,0.385-1.522c0.839,0.189,0.648,1.015,0.927,1.537c0.917,1.735,1.654,2.049,3.413,1.32
		c0.304-0.128,0.584-0.307,0.879-0.459c0.369-0.188,0.666-0.007,0.809,0.287c0.192,0.391,0.232,0.854,0.418,1.249
		c0.381,0.819-0.347,1.769,0.333,2.536c1.547-0.087,2.878,1.046,4.463,0.77c0.851-0.147,1.379-0.729,1.212-1.637
		c-0.33-1.856-0.57-3.712-0.532-5.601c0.007-0.323,0.041-0.648,0.062-0.981c0.815-0.175,0.847,0.481,1.067,0.91
		c1.205,2.348,1.773,2.535,4.066,1.328c0.29-0.152,0.595-0.278,0.956-0.449c0.793,1.127,1.179,2.328,1.045,3.686
		c0.079,1.088,0.656,0.705,1.208,0.411c0.411-0.068,0.822-0.137,1.23-0.205c0.245,0.75,0.209,1.493,0.129,2.276
		c-0.126,1.211,0.473,1.861,1.673,1.882c0.875,0.015,1.752-0.139,2.629-0.213c0.437-0.038,0.874-0.087,1.312-0.09
		c0.323-0.002,0.68,0.049,0.723,0.466c0.021,0.2-0.024,0.446-0.129,0.616c-0.539,0.866-1.354,1.426-2.225,1.916
		c-0.655,0.364-1.504,0.428-1.948,1.342c1.013,1.186,2.472,1.64,3.902,2.112c0.28,0.093,0.786,0.071,0.937-0.106
		c1.064-1.276,2.566-1.049,3.95-1.276c0.396-0.066,0.753-0.381,1.197-0.618c-0.366-0.905-0.736-1.692-1.003-2.513
		c-0.252-0.772-0.194-1.528,0.527-2.085c0.495,0.24,0.97,0.545,1.49,0.705c1.761,0.537,2.45,0.148,2.724-1.673
		c0.262-1.735,0.817-3.428,1.276-5.13c0.038-0.148,0.318-0.317,0.489-0.318c0.143-0.002,0.391,0.206,0.419,0.355
		c0.549,2.753,0.706,3.509,2.155,3.502v91.625H19.574z"/>
	<path fill-rule="evenodd" clip-rule="evenodd" fill="#010101" d="M19.834,385.175V293.55c1.45,0.007,1.606-0.749,2.154-3.502
		c0.031-0.15,0.277-0.358,0.421-0.355c0.17,0.001,0.449,0.17,0.489,0.318c0.459,1.702,1.013,3.395,1.274,5.13
		c0.273,1.822,0.963,2.21,2.725,1.673c0.521-0.159,0.996-0.465,1.491-0.705c0.719,0.557,0.778,1.313,0.528,2.085
		c-0.268,0.821-0.638,1.608-1.004,2.513c0.444,0.237,0.8,0.552,1.198,0.618c1.382,0.228,2.885,0,3.95,1.276
		c0.149,0.178,0.656,0.199,0.936,0.106c1.431-0.473,2.889-0.927,3.902-2.112c-0.445-0.914-1.295-0.978-1.946-1.342
		c-0.875-0.49-1.688-1.049-2.228-1.916c-0.106-0.17-0.15-0.416-0.129-0.616c0.042-0.417,0.4-0.468,0.722-0.466
		c0.44,0.003,0.877,0.052,1.315,0.09c0.876,0.074,1.752,0.228,2.626,0.213c1.2-0.021,1.799-0.671,1.675-1.882
		c-0.082-0.783-0.118-1.526,0.127-2.276c0.41,0.068,0.821,0.137,1.232,0.205c0.548,0.293,1.129,0.677,1.205-0.411
		c-0.133-1.358,0.251-2.559,1.047-3.686c0.362,0.171,0.664,0.297,0.953,0.449c2.297,1.207,2.865,1.02,4.069-1.328
		c0.218-0.429,0.252-1.085,1.066-0.91c0.021,0.333,0.056,0.658,0.062,0.981c0.04,1.888-0.201,3.744-0.532,5.601
		c-0.164,0.909,0.361,1.49,1.213,1.637c1.584,0.276,2.916-0.857,4.462-0.77c0.681-0.767-0.047-1.717,0.334-2.536
		c0.184-0.395,0.226-0.858,0.417-1.249c0.144-0.293,0.441-0.475,0.809-0.287c0.294,0.152,0.574,0.331,0.879,0.459
		c1.76,0.729,2.495,0.415,3.414-1.32c0.276-0.521,0.085-1.348,0.923-1.537c0.568,0.4,0.375,1.008,0.389,1.522
		c0.028,1.099,0.065,2.211-0.061,3.301c-0.274,2.364-0.526,3.535,2.796,3.282c0.908-0.068,1.469,0.295,1.863,1.044
		c-0.772,0.77-1.565,1.522-2.309,2.321c-0.466,0.498-0.36,1.063,0.234,1.33c0.593,0.267,1.224,0.448,1.836,0.674
		c0.625,0.229,1.117,0.563,1.494,1.182c0.862,1.421,1.185,1.474,2.367,0.561c0.866-0.665,1.721-1.359,2.312-2.311
		c0.25-0.4,0.052-0.93-0.427-1.003c-1.185-0.185-2.405-0.179-3.5-0.796c-0.789-0.446-1.532-0.887-1.515-1.942
		c1.803,0.138,3.534-0.191,5.191-0.875c0.766-0.315,1.051-1.117,0.744-1.907c-0.118-0.304-0.386-0.55-0.509-0.854
		c-0.236-0.587-0.081-1.111,0.515-1.362c0.496-0.21,1.201-0.14,1.533-0.473c0.589-0.592-0.307-1.154-0.311-1.778
		c-0.006-0.864-0.145-1.755,0.467-2.543c0.327,0.027,0.657,0.027,0.978,0.083c2.302,0.405,2.95-0.05,3.37-2.311
		c0.101-0.539-0.259-1.31,0.773-1.662c0.527,1.672,0.958,3.246,1.152,4.888c0.092,0.764,0.226,1.533,0.44,2.272
		c0.22,0.768,1.484,1.023,1.875,0.313c0.608-1.103,1.489-1.836,2.457-2.56c0.455-0.341,0.653-0.889,0.13-1.417
		c-0.387-0.393-0.886-0.798-0.719-1.398c0.154-0.555,0.719-0.801,1.225-1.041c0.299-0.142,0.599-0.292,0.876-0.473
		c1.014-0.659,0.941-0.921,0.629-2.21c-0.401-1.655-1.866-2.383-2.794-3.44c0.237-0.766,0.759-0.949,1.273-1.133
		c0.526-0.189,1.073-0.372,1.241-0.985c0.352-1.283,1.359-2.238,1.677-3.571c0.184-0.779,0.488-1.436-0.05-2.178
		c-0.313-0.431-0.062-0.841,0.262-1.166c0.382-0.382,0.922-0.627,1-1.273c-0.852-0.524-1.965-0.265-2.795-0.915
		c-0.527-0.415-1.186-0.79-1.092-1.529c0.072-0.583,0.688-0.839,1.232-0.953c1.758-0.37,2.855-1.624,3.955-2.875
		c0.596-0.678,0.412-1.248-0.471-1.349c-1.557-0.179-3.083-0.406-4.311-1.5c-0.147-0.132-0.258-0.381-0.256-0.576
		c0-0.162,0.158-0.409,0.304-0.466c0.41-0.161,0.849-0.248,1.278-0.35c1.177-0.283,2.428-0.28,3.506-0.948
		c0.734-0.456,0.931-1.056,0.57-1.94c-0.758-1.873-0.758-1.867,1.416-2.328c0.177-0.037,0.32-0.234,0.581-0.439
		c-0.824-1.319-1.187-2.758-0.645-4.299c0.262-0.022,0.476-0.07,0.684-0.047c0.216,0.024,0.423,0.14,0.64,0.173
		c2.117,0.329,2.727-0.108,3.15-2.28c0.1-0.513-0.07-1.1,0.429-1.494c0.548,0.098,0.667,0.553,0.768,0.972
		c0.387,1.615,0.735,3.238,1.118,4.853c0.367,1.539,0.77,1.791,2.354,1.535c2.877-0.46,2.878-0.458,2.028,2.184
		c-0.133,0.415-0.372,0.814-0.021,1.446c1.357,0.41,2.881,0.483,4.416,0.323c1.252-0.131,1.697-0.767,1.472-2.008
		c-0.058-0.323-0.247-0.627-0.279-0.948c-0.048-0.496,0.211-0.958,0.706-0.92c1.652,0.125,2.172-0.574,1.854-2.151
		c-0.076-0.382,0.221-0.839,0.344-1.263c0.313-1.083,0.313-1.084,1.936-0.672c1.552,0.73,2.25,0.588,3.06-0.494
		c0.477-0.636,0.329-1.692,1.244-2.139c0.175,0.351,0.33,0.53,0.348,0.72c0.173,1.878,0.07,3.751-0.08,5.628
		c-0.089,1.125,0.371,1.55,1.507,1.746c0.832,0.143,1.956-0.46,2.453,0.448c0.58,1.062-0.442,1.786-1.042,2.541
		c-0.136,0.172-0.299,0.333-0.401,0.524c-0.246,0.46-0.114,0.845,0.321,1.107c0.282,0.17,0.573,0.347,0.883,0.436
		c2.723,0.775,3.076,1.354,1.042,3.362c-0.07,0.069-0.076,0.205-0.153,0.428c0.968,1.17,2.128,2.098,3.774,2.254
		c0.646,0.801,1.731,0.845,2.493,1.451c0.327,0.26,0.277,0.856-0.086,1.086c-0.955,0.611-2.004,0.733-3.105,0.667
		c-0.653-0.038-1.333-0.316-1.955,0.041c0.021-0.055,0.001-0.119-0.062-0.194c-0.011-0.009-0.116,0.039-0.155,0.081
		c-0.025,0.027-0.041,0.042-0.057,0.059c-0.058,0.033-0.09,0.09,0,0c0.055-0.029,0.124-0.026,0.133,0.149
		c-0.022,0.017-0.044,0.025-0.065,0.044c0.027-0.008,0.045-0.02,0.066-0.028c0,0.001,0,0.001,0,0.001
		c0.381,1.745,1.546,2.898,2.941,3.866c0.817,0.568,1.685,1.067,2.491,1.653c0.366,0.265,0.664,0.829,0.278,1.131
		c-0.908,0.713-0.996,1.953-1.857,2.649c-0.592,0.478-1.498,0.889-1.059,1.782c0.297,0.604,1.166,0.488,1.833,0.474
		c0.442-0.011,0.89-0.047,1.326,0.001c0.846,0.095,1.233,0.811,0.938,1.688c-0.197,0.589-0.958,1.184-0.391,1.771
		c0.416,0.429,1.168,0.622,1.804,0.738c1.224,0.226,2.429-0.012,3.576-0.48c0.803-0.328,1.06-0.963,0.795-1.868
		c-0.559-1.905-0.557-1.899,1.271-2.162c0.315-0.046,0.621-0.16,1.113-0.292c-0.997-1.432-1.034-2.881-0.47-4.284
		c0.614-0.275,1.007,0,1.425,0.114c2.039,0.562,2.867,0.101,3.375-1.865c0.156-0.607-0.108-1.333,0.496-1.812
		c0.392,0.038,0.611,0.274,0.67,0.63c0.218,1.31,0.4,2.627,0.629,3.936c0.189,1.071-0.29,2.36,0.596,3.181
		c0.933,0.866,2.099,0.177,3.169,0.031c0.756-0.103,1.23,0.57,0.876,1.312c-0.465,0.97-1.025,1.893-1.524,2.795
		c0.51,0.67,1.13,0.857,1.811,0.935c0.548,0.062,1.104,0.107,1.637,0.241c0.696,0.176,0.95,0.887,0.607,1.586
		c-0.097,0.196-0.266,0.354-0.376,0.545c-0.671,1.175-0.613,1.449,0.482,2.018c0.984,0.512,1.988,0.998,3.122,1.063
		c0.458,0.027,0.889-0.122,1.055-0.61c0.143-0.419,0.192-0.867,0.347-1.28c0.062-0.164,0.278-0.303,0.455-0.387
		c0.222-0.106,0.367,0.036,0.445,0.315c0.473,1.71,0.831,3.423,0.873,5.224c0.042,1.736,0.571,2.066,2.353,1.838
		c0.327-0.042,0.64-0.187,0.967-0.238c1.126-0.176,1.621,0.468,1.167,1.559c-0.211,0.505-0.534,0.965-0.795,1.451
		c-0.562,1.05-0.328,1.604,0.868,1.795c1.748,0.28,3.505,0.526,5.267,0.69c0.872,0.081,1.777,0.027,2.645-0.113
		c1.417-0.229,1.743-0.787,1.53-2.298c-0.202-1.436-0.221-1.502,1.03-1.872c0.705-0.207,1.305-0.333,1.082-1.242
		c-0.269-1.096,0.414-2.196-0.036-3.286c0.391-0.087,0.782-0.175,1.173-0.26c1.97,1.5,1.97,1.5,3.633,0.351
		c1.03-0.709,0.7-2.146,1.492-3.107c0.287,0.557,0.482,0.943,0.681,1.327c-0.005,1.871-0.042,3.74-0.002,5.609
		c0.025,1.142,0.462,1.559,1.612,1.653c0.654,0.051,1.325-0.052,1.966,0.052c0.485,0.079,0.615,0.526,0.554,1.02
		c-0.149,1.178-1.362,1.698-1.792,3.078c1.888,0.747,3.747,1.459,5.926,1.172c-0.737-2.233-0.801-2.795-0.618-3.878
		c0.069-0.406,0.337-0.594,0.643-0.617c0.429-0.031,0.868,0.104,1.304,0.125c1.693,0.076,2.477-0.537,2.642-2.168
		c0.089-0.872,0.026-1.759,0.03-2.638c0.473,0.58,0.973,1.106,1.149,1.905c0.207,0.94,0.604,1.836,0.919,2.751
		c-0.005,0.221-0.049,0.449-0.012,0.663c0.465,2.72,0.075,3.963,3.863,2.813c0.791-0.238,1.365,0.36,1.112,1.094
		c-0.25,0.726-0.619,1.41-0.928,2.116c-0.367,0.834-0.14,1.285,0.7,1.431c0.867,0.152,1.785-0.119,2.617,0.312
		c0.536,0.275,0.884,0.68,0.732,1.313c-0.103,0.431-0.348,0.825-0.434,1.253c-0.15,0.766,0.258,1.27,0.929,1.555
		c0.618,0.261,1.244,0.406,1.92,0.1c0.903-0.414,1.833-0.774,2.761-1.132c0.659-0.254,1.148-0.551,1.13-1.406
		c-0.009-0.39,0.217-0.894,0.505-1.17c1.194-1.146,1.144-2.835,1.901-4.168c0.124-0.218,0.013-0.627-0.092-0.91
		c-0.599-1.607-0.615-1.608,0.502-2.504c0.423-0.339,0.97-0.558,1.028-1.209c-0.532-0.566-1.237-0.249-1.855-0.363
		c-1.359-0.247-2.516-0.824-3.337-1.981c-0.355-0.502-0.247-1.13,0.289-1.405c0.291-0.149,0.592-0.336,0.907-0.386
		c2.637-0.427,4.186-2.359,5.801-4.186c0.181-0.203,0.273-0.666,0.163-0.89c-0.099-0.207-0.525-0.357-0.809-0.357
		c-1.926,0.003-3.753-0.36-5.395-1.411c-0.556-0.356-1.142-0.731-0.98-1.557c0.092-0.062,0.176-0.159,0.277-0.18
		c1.301-0.258,2.606-0.51,3.91-0.755c0.987-0.186,1.952-0.438,2.79-1.016c0.813-0.561,0.977-1.433,0.44-2.264
		c-0.12-0.183-0.313-0.32-0.432-0.504c-1.083-1.66-0.759-2.227,1.314-2.416c0.584-0.053,1.318,0.375,1.727-0.419
		c-1.34-2.047-1.601-2.974-1.451-5.221c0.026-0.39,0.328-0.629,0.663-0.563c0.758,0.145,1.504,0.361,2.243,0.591
		c1,0.313,1.711-0.138,2.353-0.816c0.562-0.595,0.77-1.319,0.825-2.12c0.045-0.656,0.158-1.308,0.259-1.957
		c0.011-0.077,0.146-0.203,0.201-0.194c0.202,0.041,0.475,0.073,0.574,0.211c0.183,0.258,0.298,0.583,0.376,0.894
		c0.665,2.568,1.312,5.138,1.964,7.707c0.034,0.495,0.3,0.703,0.786,0.641c1.403,0.39,2.551-0.502,3.824-0.762
		c0.72-0.146,1.308,0.409,1.185,1.148c-0.074,0.431-0.18,0.861-0.312,1.278c-0.951,2.989-0.955,2.99,2.038,3.208
		c0.548,0.041,1.102,0.096,1.649,0.066c0.764-0.042,1.545-0.077,2.279-0.265c0.949-0.241,1.354-1.092,1.064-2.02
		c-0.097-0.313-0.305-0.592-0.406-0.902c-0.167-0.523-0.324-1.07,0.096-1.556c0.403-0.469,1.009-0.355,1.529-0.486
		c0.297,0.137,0.587,0.352,0.898,0.392c0.899,0.118,1.138-0.227,0.83-1.155c-0.067-0.201-0.241-0.366-0.366-0.545
		c-0.36-1.041,0.521-1.935,0.347-2.953c0.781-1.306,0.782-1.3,1.642-0.847c0.292,0.156,0.561,0.356,0.855,0.507
		c2.173,1.101,3.458,0.617,4.395-1.656c0.25-0.605,0.461-1.227,0.709-1.835c0.032-0.08,0.207-0.188,0.26-0.162
		c0.182,0.083,0.449,0.194,0.485,0.341c0.101,0.421,0.145,0.868,0.139,1.302c-0.031,2.319-0.097,4.637-0.121,6.956
		c-0.011,0.955,0.405,1.421,1.28,1.667c0.768,0.215,1.529,0.184,2.296,0.034c0.776-0.152,1.537-0.201,2.239,0.26
		c-0.228,0.616-0.411,1.255-0.698,1.842c-0.442,0.908-1.229,1.535-1.945,2.222c-0.485,0.466-0.37,0.994,0.165,1.355
		c0.658,0.442,1.393,0.605,2.151,0.778c0.631,0.145,1.251,0.406,1.829,0.707c0.583,0.302,0.662,1.151,0.36,1.731
		c-0.446,0.863-1.635,1.077-1.963,2.159c1.421,1.576,3.184,2.449,4.977,3.27c0.9,0.411,1.83,0.756,2.726,1.175
		c0.385,0.182,0.783,0.43,0.686,0.987c-0.088,0.498-0.489,0.742-0.872,0.891c-1.146,0.445-2.343,0.578-3.57,0.416
		c-0.869-0.115-1.739-0.208-2.612-0.309c-0.041-0.231-0.196-0.331-0.36-0.18c-0.148,0.138-0.045,0.287,0.196,0.321
		c0.598,3.393,2.809,5.246,5.938,6.224c0.08,0.658,0.19,1.319,0.232,1.98c-0.042-0.661-0.152-1.322-0.232-1.982
		c0.783-0.743,0.185-2.002,1.033-2.75c0.821,0.037,1.389,0.616,2.063,0.976c1.751,0.938,3.166,0.41,3.941-1.494
		c0.292-0.713,0.466-1.473,0.748-2.19c0.052-0.137,0.362-0.257,0.54-0.238c0.171,0.018,0.412,0.191,0.467,0.351
		c0.104,0.303,0.101,0.642,0.136,0.967c0.223,2.216,0.057,4.427-0.108,6.636c0.709-0.428,1.108-1.036,1.144-1.883
		c0.033-0.77,0.077-1.538,0.165-2.302c0.014-0.126,0.29-0.315,0.436-0.309c0.191,0.011,0.469,0.146,0.54,0.305
		c0.172,0.394,0.316,0.825,0.354,1.252c0.22,2.428,1.997,3.231,3.96,3.82c0.87,0.262,2.331-0.438,2.118-1.003
		c-0.608-1.607,0.849-2.358,1.147-3.545c0.277-1.095,0.756-0.621,1.392-0.447c0.904,0.246,1.604-0.439,1.317-1.234
		c-0.628-1.746-1.095-3.618-3.063-4.465c-0.292-0.125-0.572-0.35-0.771-0.597c-0.309-0.385-0.318-0.87,0.144-1.11
		c0.675-0.354,1.408-0.607,2.128-0.874c0.563-0.208,0.954-0.53,0.934-1.178c-0.018-0.594,0.202-1.103,0.651-1.451
		c0.898-0.694,0.858-1.727,1.055-2.681c0.627-0.632,1.187-1.295,0.746-2.273c-0.687-1.528-0.7-1.537,0.329-2.414
		c0.41-0.349,0.907-0.613,0.933-1.374c-1.227-0.269-2.482-0.544-3.739-0.822c-0.552-0.599-1.105-1.2-1.656-1.8
		c0.362-0.941,1.159-1.269,2.055-1.473c2.443-0.554,3.908-2.387,5.394-4.175c0.378-0.456,0.064-1.129-0.538-1.21
		c-0.767-0.102-1.55-0.107-2.303-0.264c-1.412-0.292-2.798-0.683-3.842-1.79c-0.317-0.336-0.23-0.967,0.206-1.069
		c1.076-0.248,2.16-0.461,3.245-0.663c1.091-0.204,2.18-0.426,3.124-1.038c0.919-0.595,1.064-1.547,0.441-2.531
		c-0.292-0.459-0.667-0.888-0.865-1.387c-0.169-0.424-0.016-0.951,0.487-1.068c0.851-0.198,1.729-0.277,2.598-0.407
		c0.195,0.018,0.455,0.126,0.572,0.039c0.177-0.133,0.063-0.341-0.205-0.438c-1.317-1.667-1.587-3.495-0.915-5.598
		c0.839,0.194,1.579,0.402,2.335,0.53c1.311,0.223,2.531-0.38,2.979-1.521c0.196-0.503,0.217-1.078,0.272-1.624
		c0.046-0.44-0.017-0.891,0.039-1.327c0.049-0.364-0.221-0.923,0.447-0.996c0.498,0.202,0.625,0.623,0.728,1.055
		c0.591,2.475,1.168,4.953,1.771,7.423c0.313,1.287,0.875,1.703,2.122,1.471c0.975-0.182,1.916-0.53,2.882-0.766
		c0.58-0.14,1.075,0.354,1.053,0.934c-0.045,1.149-0.667,2.097-1.023,3.137c-0.155,0.456,0.021,0.91,0.52,1.048
		c1.949,0.54,3.94,0.591,5.922,0.278c1.086-0.171,1.614-1.15,1.358-2.209c-0.668-2.765-0.668-2.765,2.127-2.504
		c0.329,0.031,0.656,0.039,0.973-0.387c-0.109-0.63-0.352-1.372-0.336-2.107c0.017-0.756,0.307-1.502,0.434-2.259
		c0.033-0.199-0.089-0.426-0.142-0.64c0.327-0.299,0.674-0.627,1.148-0.385c0.584,0.297,1.12,0.69,1.703,0.988
		c1.539,0.783,3.007,0.208,3.782-1.375c0.521-1.065,0.274-2.428,1.283-3.31c0.523,0.371,0.566,0.899,0.583,1.433
		c0.079,2.523,0.068,5.04-0.167,7.559c-0.145,1.549,0.328,2.031,1.766,2.139c0.327,0.024,0.658,0.006,0.987,0.001
		c2.993-0.039,2.993-0.04,2.237,2.921c-0.444,0.314-0.889,0.623-1.328,0.94c-1.254,0.902-1.039,1.664,0.528,2.277
		c0.911,0.355,1.904,0.509,2.805,0.885c0.949,0.397,1.063,1.337,0.448,2.17c-0.493,0.668-1.518,0.885-1.713,1.934
		c1.641,1.59,3.421,2.776,5.63,3.244c0.769,0.396,1.553,0.766,2.298,1.204c0.258,0.152,0.551,0.458,0.586,0.725
		c0.058,0.468-0.338,0.75-0.728,0.973c-0.986,0.571-2.076,0.653-3.168,0.615c-0.978-0.036-1.952-0.183-2.927-0.279
		c-0.151-0.109-0.351-0.342-0.441-0.304c-0.357,0.147-0.313,0.435-0.123,0.718c0.547,2.307,2.082,3.847,3.979,5.086
		c0.925,0.604,1.917,1.105,2.845,1.706c1.008,0.654,1.122,1.355,0.311,2.145c-0.618,0.604-1.285,1.023-1.391,2.077
		c-0.107,1.067-1.665,0.975-2.101,1.937c-0.09,0.2-0.24,0.373-0.322,0.575c-0.147,0.356,0.001,0.701,0.326,0.783
		c0.634,0.163,1.294,0.267,1.949,0.294c0.768,0.032,1.547-0.118,2.31-0.053c0.977,0.083,1.489,1.031,1.131,1.97
		c-0.118,0.305-0.321,0.578-0.473,0.87c-0.739,1.435-0.57,1.798,0.991,2.188c1.539,0.382,3.079,0.246,4.618,0.014
		c0.937-0.142,1.672-0.629,2.083-1.474c0.358-0.737-0.305-1.208-0.613-1.764c-0.107-0.192-0.229-0.38-0.314-0.582
		c-0.361-0.849,0.07-1.56,0.951-1.688c0.901-0.129,1.863,0.435,3.023-0.149c-1.281-1.386-1.56-2.733-1.219-4.391
		c0.357-1.744,0.16-1.787,1.856-1.129c0.206,0.08,0.396,0.202,0.603,0.279c2.001,0.734,3.472-0.096,3.825-2.235
		c0.144-0.865,0.098-1.764,0.138-2.646c0.743,0.041,1.262,0.348,1.375,1.146c0.37,2.624,0.729,5.248,1.117,7.868
		c0.137,0.914,0.681,1.414,1.571,1.343c0.984-0.08,1.952-0.325,2.935-0.454c0.982-0.128,1.497,0.461,1.256,1.36
		c-0.324,1.205-0.997,2.192-1.797,3.131c-0.511,0.606-0.254,1.232,0.577,1.444c0.744,0.189,1.517,0.261,2.272,0.415
		c0.537,0.111,1.081,0.225,1.592,0.418c0.653,0.245,0.937,1.053,0.618,1.649c-0.154,0.289-0.353,0.556-0.545,0.822
		c-1.184,1.643-1.182,1.837,0.421,2.603c1.092,0.521,2.23,0.965,3.384,1.331c1.181,0.375,1.631,0.068,1.895-1.101
		c0.146-0.645,0.232-1.3,0.397-1.939c0.046-0.186,0.326-0.484,0.402-0.459c0.277,0.098,0.671,0.264,0.737,0.49
		c0.365,1.259,0.338,2.633,1.127,3.771c0.041,1.323,0.021,2.652,0.137,3.969c0.111,1.25,0.729,1.709,2.027,1.59
		c0.767-0.071,1.527-0.237,2.278-0.418c1.21-0.29,1.786,0.356,1.484,1.726c-0.249,1.117-1.015,1.948-1.519,2.923
		c-0.518,0.361-0.612,0.68,0.089,0.925c2.603,0.962,5.315,1.276,8.061,1.395c1.023,0.043,2.025,0.048,2.206-1.378
		c0.058-0.452,0.596-0.611,1.059-0.635c0.891-0.045,1.597-0.273,1.123-1.376c-0.4-0.93,0.011-1.732,0.264-2.566
		c0.282-0.928,1.008-0.616,1.636-0.557c0.416,0.338,0.845,0.749,0.992-0.207c-0.004-0.727-0.135-1.469,0.262-2.146
		c0.238-0.404,0.127-0.804-0.018-1.203c0.11-0.446,0.219-0.894,0.328-1.343c0.702,0.136,1.407,0.269,2.11,0.406
		c0.375,0.388,0.688,0.861,1.302,0.901c1.463,0.411,2.271-0.395,2.792-1.583c0.442-1.008,0.628-2.089,0.579-3.199
		c0.442,0.005,0.882,0.01,1.325,0.012c0.267,2.972,0.741,5.933,0.398,8.93c-0.025,0.216-0.027,0.446,0.016,0.663
		c0.116,0.587,0.458,1.06,1.069,1.086c0.989,0.043,1.985,0.017,2.972-0.069c1.29-0.118,2.112,0.476,1.279,2.059
		c-0.455,0.87-1.146,1.611-1.716,2.422c-0.434,0.61-0.217,1.366,0.529,1.566c2,0.537,4.002,1.136,6.193,0.938
		c-1.329-2.634-1.33-2.634-1.288-5.326c0.008-0.535,0.328-0.851,0.822-0.766c0.644,0.114,1.261,0.386,1.898,0.557
		c1.106,0.295,2.01,0.133,2.085-0.359c0.131-0.853-0.725-0.995-1.096-1.489c-0.132-0.177-0.296-0.328-0.432-0.502
		c-0.754-0.981-0.56-1.794,0.605-1.887c1.809-0.146,3.147-1.424,4.848-1.787c0.409-0.088,0.708-0.479,0.851-1.132
		c-1.716-0.811-3.605-1.485-4.95-2.999c0.109-0.426,0.176-0.93,0.747-0.925c0.772,0.01,1.542,0.129,2.313,0.143
		c0.771,0.017,1.554,0.043,2.314-0.076c1.176-0.181,1.54-0.862,1.238-2.129c-0.076-0.318-0.24-0.622-0.281-0.945
		c-0.068-0.532,0.293-0.801,0.744-0.91c0.751-0.183,1.44,0.651,2.225,0.167c-0.522-2.112-0.522-2.112,0.399-4.64
		c0.395,0.177,0.779,0.355,1.167,0.528c1.951,0.864,2.807,0.559,3.636-1.324c0.131-0.3,0.155-0.646,0.265-0.959
		c0.111-0.334,0.322-0.616,0.713-0.442c0.138,0.062,0.249,0.336,0.252,0.517c0.033,1.438,0.042,2.877,0.042,4.316
		c-0.005,0.663-0.071,1.326-0.071,1.988c0,0.639,0.386,1.01,0.973,1.162c0.315,0.081,0.653,0.104,0.981,0.141
		c0.723,0.08,1.659-0.585,2.134,0.268c0.525,0.937-0.304,1.636-0.841,2.313c-0.205,0.26-0.497,0.445-0.711,0.697
		c-0.473,0.556-0.392,1.038,0.247,1.297c0.606,0.247,1.253,0.399,1.875,0.608c1.593,0.528,1.75,0.915,0.935,2.346
		c-0.107,0.19-0.293,0.335-0.399,0.525c-0.318,0.565-0.169,1.094,0.285,1.48c1.19,1.02,2.607,1.654,4.057,2.215
		c0.411,0.159,0.817,0.348,1.203,0.563c0.277,0.157,0.594,0.371,0.441,0.766c-0.071,0.181-0.252,0.342-0.423,0.446
		c-0.998,0.608-2.094,0.656-3.213,0.485c-0.545-0.081-1.084-0.285-1.621-0.271c-0.29,0.005-0.492,0.414-0.371,0.766
		c0.428,1.236,1.326,1.759,2.581,1.467c0.927-0.217,1.479,0.116,1.861,0.905c-0.399,0.442-0.506,1.008-0.461,1.545
		c0.055,0.627,0.701,0.765,1.152,1.058c1.386,0.902,1.797,1.842,1.397,3.296c-0.111,0.419-0.413,0.784-0.589,1.188
		c-0.262,0.597-0.024,1.069,0.461,1.431c0.456,0.343,0.929,0.568,1.506,0.214c1.139-0.696,2.334-1.316,1.759-3.042
		c-0.128-0.385,0.008-0.877,0.079-1.312c0.102-0.613,0.487-0.979,1.119-1.008c0.442-0.02,0.884,0.045,1.326,0.045
		c1.041,0,1.611-0.597,1.898-1.538c0.219-0.718,0.046-1.575,0.885-2.21c1.371,0.741,2.873,1.407,4.214,2.324
		c1.474,1.003,3.03,0.552,3.724-1.202c0.285-0.723,0.537-1.455,1.107-2.021c0.229-0.224,1.077-0.128,1.167,0.174
		c0.157,0.516,0.335,1.051,0.352,1.585c0.076,2.215-0.05,4.418-0.403,6.616c-0.181,1.107,0.323,1.721,1.378,1.861
		c0.875,0.116,1.769,0.1,2.643,0.216c0.847,0.112,1.26,0.856,1.084,1.707c-0.166,0.789-0.61,1.399-1.084,2.024
		c-0.446,0.59-1.345,0.822-1.388,1.729c1.528,0.877,2.576,1.23,3.66,1.257c0.454,0.012,0.93-0.005,1.202-0.395
		c0.747-1.056,1.845-1.031,2.959-1.16c2.019-0.237,2.612-1.469,1.631-3.258c-0.316-0.578-0.782-1.072-1.11-1.647
		c-0.451-0.786,0.078-1.604,1.013-1.53c1.101,0.081,2.191,0.323,3.289,0.388c1.44,0.088,1.79-0.307,1.921-1.913
		c0.118-1.448,0.113-1.474,1.754-1.692c0.47-0.066,0.91-0.038,0.94-0.642c0.081-1.474,0.359-2.838,1.624-3.819
		c0.401-0.312,0.342-0.825,0.116-1.22c-0.438-0.76-1.001-1.456-1.407-2.238c-0.532-1.026-0.012-1.991,1.157-2.229
		c0.54-0.109,1.105-0.093,1.647-0.186c2.016-0.342,3.362-1.159,5.202-3.127c-0.93-0.356-1.858-0.671-2.752-1.07
		c-1.124-0.499-2.142-1.169-2.876-2.186c-0.325-0.449-0.59-0.937-0.302-1.526c0.229-0.466,0.675-0.58,1.098-0.599
		c1.326-0.048,2.657-0.005,3.983-0.062c0.763-0.029,1.545-0.109,2.277-0.314c0.559-0.154,0.902-0.644,0.729-1.288
		c-0.114-0.428-0.359-0.817-0.459-1.243c-0.333-1.423,0.119-2.07,1.547-2.304c0.517-0.086,1.082,0.318,1.604-0.215
		c-0.005-1.026-0.539-2.14,0.199-3.155c0.409-0.556,0.24-1.203,0.281-1.817c1.017-0.097,1.958,0.244,2.923,0.478
		c1.807,0.437,2.695-0.018,3.304-1.714c0.226-0.622,0.332-1.285,0.551-1.908c0.172-0.481,0.262-1.181,1.011-1.019
		c0.601,0.129,0.824,0.707,0.91,1.263c0.1,0.654,0.159,1.317,0.171,1.978c0.038,1.876,0.017,3.752,0.066,5.627
		c0.036,1.478,0.563,1.95,2.068,1.908c0.658-0.02,1.316-0.168,1.975-0.173c1.214-0.006,1.815,0.845,1.48,1.975
		c-0.323,1.094-1.081,1.911-1.716,2.807c-0.456,0.646-0.207,1.271,0.594,1.533c0.732,0.235,1.515,0.333,2.22,0.623
		c1.359,0.559,1.702,1.689,1.008,2.946c-0.316,0.57-1.036,0.865-1.107,1.769c1.094,1.174,2.607,1.815,4.121,2.455
		c1.013,0.43,2.044,0.829,3.047,1.286c0.522,0.237,0.912,0.667,0.889,1.269c-0.019,0.597-0.449,0.993-0.932,1.281
		c-0.779,0.459-1.649,0.648-2.538,0.673c-0.768,0.023-1.54-0.06-2.31-0.101c-0.336-0.019-0.73-0.019-0.818,0.338
		c-0.071,0.28,0.026,0.645,0.157,0.92c0.489,1.02,1.308,1.775,2.177,2.457c0.642,0.502,1.313,0.963,1.973,1.438
		c1.752,1.021,4.701,2.213,8.932,2.279c0.133-1.694,0.081-3.369-0.171-5.055c-0.096-0.646,0.019-1.321,0.035-1.986
		c0.302-0.081,0.829-0.109,0.867-0.262c0.214-0.847,0.247-1.74,0.471-2.588c0.262-1.013,0.675-1.248,1.683-1.134
		c0.328,0.038,0.645,0.166,0.97,0.23c1.117,0.219,1.963-0.129,2.432-1.212c0.131-0.307,0.23-0.625,0.373-0.925
		c0.224-0.466,0.285-1.177,1.064-0.951c0.461,0.129,0.604,0.595,0.68,1.044c0.071,0.439,0.101,0.887,0.224,1.31
		c0.342,1.186,1.227,1.835,2.377,2.058c1.179,0.227,1.844-0.506,2.3-1.487c0.139-0.302,0.286-0.608,0.49-0.86
		c0.121-0.146,0.366-0.25,0.561-0.262c0.38-0.014,0.599,0.28,0.675,0.599c0.371,1.531,0.167,3.09,0.19,4.635
		c0.028,1.896,0.179,2.082,1.882,2.579c2.332,0.677,2.43,0.924,1.208,3.144c-0.104,0.195-0.265,0.359-0.356,0.559
		c-0.248,0.523,0.023,0.851,0.486,1.024c0.533,0.197,1.115,0.229,1.614-0.057c1.152-0.656,2.286-1.346,3.403-2.063
		c0.404-0.259,0.514-0.688,0.297-1.159c-0.183-0.404-0.404-0.799-0.516-1.222c-0.195-0.728,0.104-1.317,0.732-1.688
		c0.373-0.221,0.803-0.371,1.229-0.485c2.821-0.765,2.555-0.945,2.341-3.767c-0.062-0.841-0.318-1.471-1.022-1.956
		c-0.358-0.247-0.66-0.592-0.938-0.932c-0.687-0.836-0.494-1.818,0.58-2.067c2.729-0.632,4.186-2.641,5.645-4.739
		c0.559-0.801,0.771-1.535,0.404-2.462c-0.295-0.751,0.171-1.255,0.731-1.676c0.514-0.385,1.27-0.416,1.598-1.067
		c-1.498-0.28-2.684-1.021-3.532-2.284c-0.95-1.424-0.501-2.628,1.2-2.865c1.795-0.251,3.496-0.602,4.822-1.949
		c1.354,0.208,1.357,0.2,1.604-1.113c-1.354-0.748-2.697-1.516-4.071-2.234c-0.884-0.465-1.635-1.041-2.044-1.979
		c-0.262-0.603,0.038-1.021,0.514-1.362c1.851,0.42,3.735,0.477,5.618,0.366c0.646-0.038,1.312-0.203,1.913-0.442
		c0.801-0.32,1.026-1.071,0.665-1.896c-0.131-0.304-0.344-0.573-0.475-0.877c-0.611-1.418-0.088-2.188,1.381-2.012
		c0.65,0.077,1.285,0.259,2.086,0.426c0.399-1.24-0.896-2.075-0.599-3.152c0.257-0.939,0.504-1.883,0.756-2.821
		c1.043-0.333,1.647,0.496,2.41,0.841c1.464,0.662,2.925,0.233,3.558-1.249c0.383-0.903,0.516-1.916,0.748-2.883
		c0.086-0.363,0.295-0.67,0.646-0.525c0.252,0.101,0.537,0.471,0.552,0.734c0.143,2.646,0.509,5.283,0.157,7.952
		c-0.207,1.575,0.466,2.227,2.063,2.211c0.766-0.008,1.53-0.213,2.301-0.292c1.227-0.126,1.555,0.309,1.188,1.591
		c-0.15,0.531-0.366,1.041-0.552,1.563c-0.627,0.448-1.278,0.865-1.873,1.355c-0.613,0.508-0.428,1.261,0.393,1.462
		c0.953,0.234,1.935,0.341,2.906,0.504c1.614,0.4,1.818,2.064,2.727,3.096c0.423,0.479-0.093,1.036-0.238,1.548
		c-0.226,0.792,0.055,1.295,0.873,1.434c0.859,0.147,1.715,0.1,1.9,1.374c0.117,0.837,1.165,0.882,1.859,1.184
		c0.874,0.38,2.2,0.593,1.977,1.772c-0.178,0.914-1.474,0.75-2.321,0.938c-0.214,0.051-0.419,0.139-0.628,0.207
		c-0.772,0.066-1.542,0.141-2.314,0.195c-0.623,0.043-1.443-0.335-1.724,0.508c-0.173,0.533,0.288,1.037,0.633,1.474
		c0.903,1.144,1.973,2.106,3.279,2.767c1.089,0.547,2.21,1.031,3.315,1.543c-0.202,0.441-0.159,0.874,0.069,1.295
		c-0.659,1.265-1.069,2.78-2.039,3.717c-0.979,0.946-2.515,1.308-3.801,1.938c-0.37,0.183-0.877,0.197-1.017,0.725
		c0.561,0.489,1.257,0.32,1.903,0.385c0.877,0.086,1.764,0.104,2.633,0.237c0.766,0.119,1.094,0.823,0.766,1.488
		c-0.098,0.194-0.204,0.404-0.361,0.554c-0.855,0.824-1.041,1.623-0.098,2.55c0.587,0.573,0.858,1.341,0.423,2.12
		c-0.558,1.006-0.092,1.563,0.626,2.258c0.786,0.763,0.722,1.53,0.121,2.355c-0.97,1.333-2.294,2.003-3.919,2.227
		c-0.542,0.076-1.334-0.461-1.662,0.509c0.944,1.2,2.258,1.688,3.675,2.067c0.915,0.247,1.105,0.82,0.962,1.813
		c-0.199,1.409-1.083,2.142-2.371,2.424c-0.751,0.164-1.545,0.122-2.306,0.247c-1.184,0.193-1.507,1.293-0.746,2.241
		c0.665,0.832,1.555,1.217,2.533,1.465c0.965,0.239,1.951,0.408,2.89,0.713c0.971,0.315,1.46,1.426,0.799,2.103
		c-1.502,1.543-1.402,3.665-2.248,5.426c-0.28,0.585,0.143,1.281,0.701,1.177c1.374-0.254,2.581,0.121,3.841,0.597
		c1.563,0.592,2.564,0.09,3.168-1.407c0.328-0.817,0.572-1.668,0.9-2.481c0.062-0.151,0.356-0.322,0.516-0.299
		c0.3,0.043,0.689,0.143,0.849,0.358c0.62,0.835,0.504,1.904,0.794,2.85c0.173,0.559,0.471,1.015,1.103,1.084
		c0.611,0.066,1.091-0.28,1.396-0.741c0.294-0.442,0.513-0.975,0.622-1.497c0.157-0.754,0.147-1.54,0.295-2.296
		c0.06-0.281,0.323-0.642,0.58-0.737c0.446-0.166,0.857,0.134,1.098,0.504c0.356,0.557,0.62,1.174,0.963,1.742
		c0.43,0.708,1.053,1.119,1.913,1.086c-0.347,0.171-0.694,0.343-1.041,0.514c-0.358,1.302-0.418,2.505,1.06,3.199
		c1.517,1.143,2.082,1.188,3.637,0.28c0.304,0.126,0.602,0.347,0.908,0.361c1.454,0.062,1.844-0.318,1.763-1.628
		c-0.014-0.222-0.102-0.436-0.114-0.654c-0.1-1.887,0.328-2.291,2.301-2.139c0.404,0.031,0.827,0.333,1.198-0.204
		c-0.426-1.724,0.494-3.154,1.243-4.615c0.216-0.419,0.738-0.512,1.167-0.29c0.579,0.304,1.121,0.685,1.668,1.05
		c0.476,0.316,0.972,0.542,1.552,0.428c0.209-0.037,0.469-0.116,0.582-0.271c0.101-0.133,0.124-0.444,0.033-0.594
		c-0.332-0.562-0.779-1.065-1.088-1.643c-0.348-0.656,0.031-1.557,0.698-1.528c1.863,0.081,3.685-1.53,5.583-0.145
		c0.141,0.102,0.43,0.012,0.648-0.013c0.685-0.075,1.268-0.743,1.134-1.373c-0.114-0.532-0.388-1.036-0.494-1.573
		c-0.214-1.041,0.216-1.659,1.298-1.913c0.318-0.074,0.66-0.041,0.991-0.053c0.66-0.023,0.993-0.302,0.917-1.024
		c-0.057-0.542-0.081-1.112,0.015-1.645c0.556-3.161,0.776-3.271,3.719-1.991c0.103,0.042,0.19,0.114,0.295,0.151
		c1.058,0.412,2.039,0.152,2.571-0.826c0.364-0.666,0.516-1.445,0.809-2.153c0.207-0.504,0.435-1.013,0.753-1.45
		c0.212-0.295,0.613-0.188,0.875,0.02c0.461,0.361,0.642,0.894,0.655,1.459c0.036,1.659,0.043,3.317,0.076,4.972
		c0.024,1.202-0.494,2.528,0.243,3.572c0.836,1.19,2.248,0.494,3.412,0.602c1.649,0.146,1.944,0.77,1.212,2.666
		c-0.009-0.005-0.023-0.01-0.037-0.017c-0.046,0.23-0.091,0.464-0.134,0.691c-0.373,0.799-1.356,1.179-1.62,2.035
		c-0.048,0.146,0.088,0.437,0.228,0.541c0.275,0.209,0.761,0.243,0.849-0.068c0.23-0.82,0.385-1.664,0.544-2.508
		c0.086-0.181,0.152-0.38,0.152-0.622c0.01-0.02,0.015-0.033,0.019-0.053c0.276,0.146,0.649,0.237,0.775,0.466
		c1.179,2.13,2.101,4.347,2.02,6.854c-0.014,0.554-0.033,1.109,0.02,1.658c0.116,1.279,0.813,2.049,2.044,2.234
		c1.507,0.229,3.092-0.375,4.563,0.447c0.199,0.109,0.65-0.107,0.917-0.281c0.723-0.466,1.573-0.808,1.932-1.687
		c-0.32-0.633-0.943-0.49-1.447-0.628c-1.409-0.383-2.709-0.986-3.783-1.984c-0.556-0.516-1.227-1.077-0.875-1.975
		c0.285-0.723,1.018-0.78,1.674-0.818c1.214-0.075,2.438-0.057,3.647-0.154c0.873-0.068,1.816-0.078,2.372-0.943
		c0.54-0.837-0.242-1.44-0.43-2.15c-0.029-0.107-0.067-0.212-0.091-0.321c-0.199-1.003,0.3-1.711,1.27-1.984
		c0.708-0.202,1.499,0.385,2.155-0.202c-0.492-1.789-0.549-3.569-0.128-4.91c0.197-0.632,0.718-0.841,1.302-0.708
		c0.535,0.116,1.029,0.39,1.552,0.57c1.888,0.658,2.909,0.149,3.479-1.772c0.222-0.742,0.316-1.517,0.509-2.263
		c0.119-0.461,0.502-0.872,0.927-0.782c0.352,0.078,0.708,0.506,0.903,0.862c0.202,0.371,0.262,0.842,0.297,1.274
		c0.147,1.766,0.34,3.531,0.371,5.3c0.055,3.052,0.093,3.634,3.32,3.199c0.109-0.015,0.219-0.029,0.33-0.031
		c1.89-0.073,2.359,0.527,1.858,2.415c-0.083,0.315-0.278,0.601-0.392,0.915c-0.147,0.408-0.338,0.902,0.252,1.078
		c0.256,0.074,0.627-0.113,0.905-0.261c0.753-0.393,0.974-1.165,1.255-1.888c0.315-0.817,0.605-1.649,0.955-2.452
		c0.183-0.423,0.82-0.39,1.086-0.028c0.49,0.665,0.527,1.416,0.585,2.2c0.161,2.334-0.021,4.642-0.278,6.956
		c-0.121,1.067,0.487,1.636,1.56,1.709c0.81,0.058,1.604-0.019,2.022-0.817c0.698-1.336,1.794-1.86,3.251-1.89
		c0.409-0.007,0.962-0.164,1.197-0.453c1.175-1.45,2.735-2.563,3.665-4.23c0.34-0.618,0.544-1.188,0.302-1.878
		c-0.373-1.064,0.149-1.683,1.079-2.079c0.506-0.217,1.015-0.436,1.476-0.63c-0.76-0.35-1.597-0.642-2.333-1.094
		c-0.861-0.532-1.479-1.321-1.764-2.331c-0.23-0.82,0.128-1.631,0.941-1.828c0.855-0.204,1.749-0.266,2.613-0.441
		c1.949-0.402,3.358-1.343,4.391-2.891c-0.616-0.244-1.238-0.471-1.843-0.734c-1.229-0.539-2.357-1.233-3.203-2.303
		c-0.414-0.521-0.813-1.091-0.447-1.802c0.293-0.575,0.872-0.625,1.422-0.622c1.439,0.007,2.878,0.109,4.315,0.068
		c1.93-0.059,2.246-0.486,2.011-2.412c-0.04-0.33-0.128-0.655-0.133-0.983c-0.015-0.813,0.618-1.507,1.401-1.56
		c1.022-0.066,1.969,0.235,2.891,0.625c0.012-0.002,0.017,0,0.028-0.002c0.019,0.071,0.036,0.143,0.055,0.209
		c0.23-0.161,0.209-0.23-0.055-0.209l-0.01-0.028c-1.107-1.107-1.409-2.384-1.06-3.937c0.575-2.547,0.766-2.686,3.294-1.602
		c0.304,0.129,0.585,0.323,0.898,0.416c0.962,0.285,2.101-0.202,2.481-1.119c0.337-0.813,0.565-1.669,0.846-2.508
		c0.1-0.201,0.204-0.406,0.305-0.605c0.897-0.066,1.542,0.262,1.635,1.212c0.119,1.212,0.209,2.429,0.211,3.646
		c0.003,1.217-0.149,2.434-0.168,3.65c-0.02,1.291,0.463,1.764,1.787,1.873c0.332,0.026,0.665,0.01,0.998,0.017
		c0.865,0.021,1.932-0.295,2.467,0.554c0.713,1.139-0.19,2.082-0.741,3.023c-0.055,0.095-0.143,0.171-0.195,0.269
		c-0.342,0.644-1.497,0.962-1.069,1.847c0.34,0.703,1.331,0.675,2.061,0.91c2.7,0.874,2.939,1.499,1.543,3.969
		c-0.592,1.048-0.519,1.537,0.577,2.137c1.454,0.794,2.973,1.471,4.466,2.195c0.693,0.338,1.449,0.547,1.994,1.155
		c0.349,0.393,0.398,1.157-0.018,1.485c-0.423,0.338-0.881,0.678-1.381,0.867c-1.273,0.48-2.598,0.476-3.931,0.229
		c-0.428-0.078-0.872-0.085-1.307-0.066c-0.05,0.002-0.171,0.401-0.112,0.563c0.197,0.549,0.595,0.981,1.193,1.013
		c0.77,0.04,1.547-0.079,2.319-0.055c0.944,0.033,1.51,0.484,1.445,1.421c-0.104,1.454,0.333,2.45,1.476,3.438
		c1.847,1.6,1.799,3.791,0.167,5.797c-0.202,0.25-0.485,0.459-0.269,0.865c1.017,0.955,2.043,1.519,3.508,0.594
		c0.66-0.423,1.62-0.375,2.747-0.599c-1.402-1.27-1.433-2.695-1.35-4.161c0.068-1.227,0.435-1.631,1.563-1.581
		c0.439,0.02,0.875,0.141,1.316,0.167c1.933,0.113,2.524-0.39,2.833-2.377c0.116-0.758,0.204-1.525,0.383-2.272
		c0.116-0.484,1.048-0.565,1.396-0.194c0.627,0.685,0.808,1.573,1.06,2.402c0.547,1.795,0.955,3.634,1.447,5.45
		c0.302,1.114,0.815,1.411,1.973,1.121c0.749-0.188,1.466-0.508,2.213-0.696c1.192-0.299,1.956,0.335,1.865,1.581
		c-0.048,0.651-0.235,1.297-0.383,1.943c-0.164,0.726-0.998,1.217-0.756,2.082c0.101,0.076,0.181,0.192,0.269,0.2
		c0.766,0.052,1.533,0.09,2.301,0.116c2.659,0.098,3.213,0.97,2.27,3.601c-0.035,0.103-0.113,0.19-0.156,0.292
		c-0.29,0.675,0.083,1.089,0.642,1.276c1.138,0.39,2.298,0.913,3.355-0.271c0.718-0.801,1.966-0.2,2.776-0.927
		c0-0.764-0.101-1.545,0.017-2.294c0.487-3.183,0.667-3.268,3.695-2.172c0.209,0.076,0.409,0.181,0.623,0.235
		c1.038,0.254,2.067-0.523,1.87-1.621c-0.202-1.114-0.184-1.958,0.929-2.526c0.542-0.275,0.585-1.24,1.448-1.105
		c1.837,2.073,2.623,2.448,4.765,2.263c0.943-0.081,1.402-0.589,1.345-1.49c-0.185-3.085-0.185-3.082,2.8-3.123
		c0.091-0.002,0.181-0.102,0.461-0.272c-0.494-1.536,0.476-2.857,0.984-4.288c0.282-0.798,0.822-0.867,1.913-0.385
		c0.195,0.086,0.345,0.273,0.511,0.414c0-0.005,0.119,0.037,0.119,0.037l-0.143-0.09c-1.081-2.591-1.044-2.652,1.732-2.914
		c0.312-0.028,0.615-0.138,1.005-0.232c0.076-0.447,0.162-0.87,0.222-1.298c0.114-0.862-0.04-1.885,0.378-2.555
		c0.665-1.072,1.787-0.238,2.729-0.195c1.701,0.083,2.818-0.991,2.989-2.78c0.093-0.977-0.138-1.994,0.338-2.919
		c2.523-0.482,2.523-0.482,4.577,0.444c1.442,0.654,2.134,0.48,3.142-0.776c0.562-0.701,1.008-1.409,0.875-2.398
		c-0.053-0.395,0.171-0.851,0.333-1.248c0.07-0.173,0.292-0.315,0.479-0.403c0.421-0.197,0.665,0.159,0.749,0.428
		c0.567,1.789,0.592,3.644,0.587,5.497c0,0.209-0.005,0.418-0.005,0.627c0.005,0.222-0.002,0.442,0.023,0.663
		c0.134,1.191-0.66,2.541,0.176,3.544c0.877,1.051,2.279,0.451,3.463,0.514c1.359,0.071,1.928,1.003,1.469,2.274
		c-0.463,1.271-1.525,2.127-2.246,3.105c0.281,0.6,0.692,0.775,1.117,0.896c0.527,0.149,1.089,0.202,1.606,0.383
		c2.144,0.756,2.505,1.892,1.198,3.724c-0.305,0.423-0.913,0.696-0.594,1.514c1.096,1.132,2.631,1.773,4.121,2.481
		c0.986,0.466,2.117,0.67,2.863,1.576v30.382H19.834z"/>
</g>
</svg>
