<?xml version="1.0" encoding="utf-8"?>
<!-- Generator: Adobe Illustrator 16.0.0, SVG Export Plug-In . SVG Version: 6.00 Build 0)  -->
<!DOCTYPE svg PUBLIC "-//W3C//DTD SVG 1.1//EN" "http://www.w3.org/Graphics/SVG/1.1/DTD/svg11.dtd">
<svg version="1.1" id="Layer_1" xmlns="http://www.w3.org/2000/svg" xmlns:xlink="http://www.w3.org/1999/xlink" x="0px" y="0px"
	 width="841.89px" height="595.28px" viewBox="0 0 841.89 595.28" enable-background="new 0 0 841.89 595.28" xml:space="preserve">
<path fill-rule="evenodd" clip-rule="evenodd" d="M829.634,281.202l-4.085,0.321c0.293,0.31,0.586,0.622,0.879,0.932
	c-0.573,0.042-1.145,0.084-1.719,0.126c0.629,1.403,1.257,2.807,1.884,4.212l3.041,3.221v3.779l-1.902,0.139
	c0.302,0.318,0.604,0.639,0.904,0.956c-0.742,0.053-1.484,0.105-2.227,0.156c0.247,0.498,0.491,0.998,0.736,1.495l2.488-1.651v5.229
	v5.931v0.322v1.036v2.821v8.709v58.817h-72.295h-14.215H657.51h-30.95H356.738h-14.215H256.91h-30.951H12.828v-61.802v-6.338v-4.763
	v-1.464v-1.273v-5.041v-0.833v-0.481v-0.778v-4.166v-1.276v-3.406v-0.479v-1.12v-2.113v-1.306v-1.812v-1.071v-1.28v-0.92v-0.479
	v-3.558v-0.924v-0.894v-0.321v-4.233v-0.165v-4.009v-0.424v-1.571v-2.17v-5.338v-0.964v-4.066v-2.219v-2.849v-0.909v-8.864v-0.314
	v-0.867l0.268,1.151l0.002,0.004h-0.002l2.227,9.59l4.317,4.604l-4.939,0.487c0.533,1.649,1.065,3.296,1.599,4.944l2.911-3.103
	l2.024-8.728l-2.601-0.255l4.317-4.606l2.495-10.744l1.776,7.644l2.641-2.816l2.495-10.746l2.495,10.746l4.317,4.602l-4.939,0.489
	c0.715,2.208,1.428,4.417,2.143,6.625c0.561,0.597,1.122,1.194,1.683,1.791l1.292-5.57l2.493,10.744l4.317,4.604l-4.338,0.428
	l1.198,5.163c0.188,0.198,0.375,0.399,0.563,0.597c-0.139,0.01-0.278,0.021-0.416,0.034l0.209,0.907
	c1.664,1.768,3.328,3.539,4.99,5.309c-1.814,0.154-3.63,0.31-5.446,0.468c0.439,1.356,0.879,2.714,1.318,4.073
	c0.517,0.548,1.033,1.097,1.552,1.645c-0.321,0.023-0.641,0.046-0.962,0.069c0.019,0.046,0.036,0.093,0.055,0.139
	c1.32,1.4,2.639,2.801,3.959,4.201c0.884-0.936,1.765-1.873,2.649-2.809c0.074-0.186,0.146-0.374,0.219-0.559
	c-1.479-0.116-2.959-0.232-4.438-0.35c1.614-1.71,3.225-3.421,4.838-5.133c-1.369-0.118-2.738-0.236-4.104-0.354
	c1.668-1.773,3.336-3.547,5.004-5.321c0.137-0.428,0.276-0.856,0.416-1.284c-1.316-0.114-2.632-0.228-3.948-0.339
	c1.595-1.698,3.189-3.394,4.784-5.089l-4.049-0.398l4.317-4.604l0.468-2.016l-3.313-0.327l4.317-4.604l2.495-10.746l2.495,10.746
	l4.317,4.604l-4.939,0.487c0.453,1.405,0.909,2.812,1.362,4.216l2.105,2.244l-1.337,0.13c0.004,0.011,0.009,0.023,0.013,0.034
	c1.667,1.774,3.334,3.55,5.003,5.324c-1.934,0.167-3.866,0.333-5.8,0.5c0.415,1.055,0.831,2.111,1.246,3.17
	c1.027,1.091,2.054,2.183,3.082,3.275c-0.46,0.04-0.919,0.08-1.379,0.12c1.685,1.791,3.373,3.579,5.058,5.368
	c-2.162,0.171-4.321,0.34-6.483,0.511c0.318,0.71,0.637,1.421,0.953,2.132c1.354,1.434,2.706,2.87,4.058,4.305
	c-0.466,0.038-0.932,0.074-1.396,0.109c0.405,0.433,0.812,0.863,1.219,1.293c1.392-1.479,2.784-2.955,4.176-4.434
	c0.276-0.704,0.552-1.406,0.831-2.111l-4.298-0.424l3.347-3.571c-1.12-0.097-2.242-0.192-3.362-0.289
	c1.668-1.773,3.334-3.547,5.003-5.321c0.462-1.43,0.926-2.86,1.388-4.29l0.437-1.879l0.07,0.308
	c0.084-0.255,0.167-0.511,0.249-0.766l-4.939-0.487l4.317-4.604l2.345-10.107l-0.188-0.019l0.257-0.274l0.08-0.346l0.048,0.209
	l3.932-4.193l2.493-10.746l2.495,10.746l4.317,4.604l-4.939,0.487c0.715,2.208,1.428,4.417,2.143,6.625
	c1.626,1.729,3.252,3.461,4.878,5.19l1.156-4.981l2.495,10.744l4.317,4.606l-4.939,0.487c0.715,2.208,1.428,4.417,2.143,6.625
	c1.668,1.774,3.334,3.548,5.003,5.324c-1.932,0.165-3.866,0.331-5.8,0.498c0.772,1.966,1.544,3.931,2.316,5.895
	c0.304,0.323,0.607,0.643,0.909,0.966c1.228-1.303,2.455-2.607,3.682-3.908c0.49-1.242,0.977-2.486,1.466-3.729l-1.687-0.167
	l2.784-2.969c-2.204-0.19-4.408-0.38-6.612-0.57c1.938-2.061,3.879-4.123,5.817-6.186c0.831-2.566,1.66-5.135,2.491-7.702
	l-5.743-0.565l5.02-5.354l2.9-12.49l2.9,12.49l5.018,5.354l-5.741,0.565c0.829,2.567,1.66,5.136,2.489,7.702
	c1.938,2.063,3.879,4.125,5.817,6.186c-2.107,0.182-4.216,0.363-6.323,0.544l2.807,2.995l-1.987,0.196
	c0.485,1.234,0.97,2.465,1.453,3.699c1.862,1.976,3.725,3.953,5.587,5.931l3.984-4.252c-1.533-0.133-3.068-0.263-4.602-0.396
	c1.668-1.773,3.336-3.547,5.005-5.321c0.712-2.208,1.428-4.419,2.141-6.625l-4.938-0.489l4.317-4.604l2.493-10.744l2.495,10.744
	l4.317,4.604l-4.939,0.489c0.715,2.206,1.428,4.417,2.143,6.625c1.35,1.436,2.7,2.872,4.05,4.307
	c0.515-0.544,1.027-1.088,1.542-1.635c0.772-1.966,1.544-3.929,2.316-5.895c-1.934-0.167-3.868-0.333-5.8-0.5
	c1.668-1.774,3.334-3.547,5.003-5.321c0.715-2.21,1.43-4.417,2.143-6.627l-4.94-0.487l4.317-4.604l2.495-10.746l2.493,10.746
	l4.317,4.604l-4.938,0.487c0.713,2.21,1.426,4.417,2.141,6.627c1.668,1.774,3.336,3.547,5.005,5.321
	c-1.934,0.167-3.866,0.333-5.8,0.5c0.771,1.965,1.543,3.929,2.315,5.895c1.898,2.014,3.792,4.026,5.69,6.041
	c-2.16,0.168-4.321,0.339-6.483,0.508c0.77,1.723,1.542,3.446,2.312,5.169c1.877,1.987,3.752,3.973,5.627,5.96
	c0.707-0.75,1.413-1.501,2.118-2.252c0.243-0.54,0.485-1.08,0.726-1.62c-2.16-0.171-4.322-0.339-6.481-0.508
	c1.896-2.014,3.794-4.026,5.688-6.041c0.114-0.287,0.228-0.576,0.339-0.865l-2.566-0.253l4.486-4.783
	c-1.913-0.165-3.828-0.329-5.741-0.496c1.666-1.773,3.334-3.547,5.002-5.321c0.715-2.208,1.428-4.417,2.143-6.625l-4.939-0.487
	l4.317-4.604l2.493-10.746l2.495,10.746l4.317,4.604l-4.939,0.487c0.715,2.208,1.428,4.416,2.143,6.625
	c1.668,1.773,3.336,3.547,5.005,5.321c-1.82,0.158-3.636,0.314-5.454,0.471l4.507,4.809l-2.864,0.283
	c0.107,0.278,0.217,0.557,0.327,0.835c1.896,2.014,3.792,4.026,5.69,6.041c-2.162,0.169-4.324,0.337-6.483,0.508
	c0.146,0.327,0.293,0.656,0.439,0.983c1.82,1.936,3.638,3.87,5.458,5.809c-0.633,0.053-1.268,0.107-1.9,0.162
	c0.888,0.938,1.774,1.879,2.66,2.817c0.561-0.597,1.122-1.191,1.683-1.788c0.082-0.253,0.165-0.506,0.245-0.76
	c-0.331-0.025-0.665-0.048-0.998-0.073c0.519-0.549,1.038-1.097,1.555-1.646c0.447-1.383,0.894-2.765,1.339-4.146l-4.939-0.487
	l4.319-4.604l0.142-0.612l-0.975-0.097l0.789-0.841c-0.006,0-0.015,0-0.021-0.002c0.188-0.198,0.375-0.398,0.565-0.599l1.995-8.595
	l1.205,5.197c0.162-0.171,0.325-0.344,0.487-0.515l1.763-7.595c-1.27-0.107-2.539-0.217-3.809-0.327
	c1.667-1.776,3.335-3.548,5.005-5.321c0.713-2.21,1.428-4.418,2.141-6.627l-4.939-0.487l4.317-4.604l2.495-10.746l2.495,10.746
	l4.315,4.604l-4.938,0.487c0.713,2.208,1.428,4.417,2.141,6.627c1.592,1.693,3.185,3.385,4.775,5.079l1.865-8.036l2.497,10.744
	l2.908,3.104c0.534-1.647,1.065-3.296,1.599-4.944l-4.939-0.487l4.319-4.604l2.493-10.746l2.493,10.746l4.32,4.604l-4.94,0.487
	c0.715,2.208,1.428,4.417,2.143,6.625c1.666,1.773,3.334,3.549,5.003,5.323c-1.932,0.167-3.866,0.333-5.798,0.5
	c0.559,1.426,1.12,2.851,1.679,4.277c1.43-1.522,2.862-3.045,4.292-4.566c0.715-2.21,1.428-4.418,2.143-6.627l-4.939-0.487
	l4.317-4.606l2.495-10.744l2.495,10.744l3.206,3.421l1.875-8.076l1.795,7.736l2.278-9.808l2.9,12.492l5.02,5.353l-5.743,0.565
	c0.831,2.567,1.66,5.134,2.491,7.703c1.938,2.063,3.878,4.124,5.817,6.186c-2.247,0.194-4.495,0.388-6.741,0.58
	c0.188,0.48,0.375,0.962,0.565,1.442l0.285-1.226l1.105,4.767c0.247,0.622,0.491,1.246,0.736,1.871
	c0.938,0.995,1.875,1.99,2.813,2.986c1.949-2.069,3.9-4.141,5.851-6.211c0.211-0.538,0.422-1.076,0.635-1.614
	c-1.022-0.088-2.043-0.175-3.064-0.264c1.571-1.67,3.143-3.341,4.712-5.013c-2.111-0.182-4.22-0.363-6.332-0.544
	c1.938-2.063,3.876-4.123,5.817-6.186c0.053-0.16,0.104-0.32,0.154-0.48l-2.143-0.211l3.376-3.603
	c0.367-1.137,0.734-2.271,1.101-3.408l-5.741-0.565l5.02-5.353l2.897-12.492l2.9,12.492l5.02,5.353l-5.741,0.565
	c0.313,0.968,0.625,1.934,0.937,2.902l3.854,4.108l-2.447,0.242c0.049,0.15,0.097,0.3,0.146,0.449
	c1.938,2.063,3.879,4.124,5.817,6.186c-2.014,0.175-4.028,0.348-6.044,0.521c1.578,1.679,3.157,3.357,4.735,5.036
	c-1.12,0.098-2.242,0.192-3.364,0.289c0.209,0.529,0.416,1.06,0.625,1.589c0.979,1.039,1.957,2.077,2.936,3.114
	c0.696-0.735,1.39-1.474,2.083-2.21c-0.55-0.049-1.103-0.095-1.653-0.144c1.668-1.773,3.336-3.547,5.002-5.323
	c0.449-1.388,0.898-2.775,1.348-4.163c-1.584-0.137-3.166-0.272-4.747-0.409c0.744-0.793,1.491-1.586,2.235-2.377l-1.632-0.163
	l4.317-4.606l1.141-4.908l-3.853-0.379l4.315-4.606l2.495-10.746l2.495,10.746l4.317,4.606l-4.939,0.487
	c0.713,2.206,1.428,4.417,2.141,6.623c0.221,0.236,0.443,0.47,0.665,0.704c1.643-1.742,3.286-3.486,4.929-5.23
	c0.772-1.965,1.544-3.931,2.316-5.897c-1.934-0.167-3.868-0.331-5.8-0.498c1.668-1.776,3.334-3.55,5.003-5.323
	c0.715-2.208,1.428-4.417,2.143-6.625l-4.939-0.487l4.317-4.606l2.495-10.744l2.495,10.744l4.315,4.606l-4.937,0.487
	c0.713,2.208,1.428,4.417,2.141,6.625c1.668,1.773,3.336,3.547,5.005,5.323c-1.934,0.167-3.866,0.331-5.8,0.498
	c0.771,1.966,1.543,3.932,2.315,5.897c1.896,2.012,3.794,4.026,5.69,6.041c-2.16,0.168-4.322,0.337-6.483,0.508
	c0.77,1.721,1.542,3.444,2.312,5.167c2.126,2.255,4.252,4.507,6.378,6.758c-2.348,0.171-4.695,0.344-7.042,0.517
	c0.729,1.48,1.457,2.963,2.187,4.443c0.069,0.076,0.141,0.15,0.213,0.227c1.474-1.563,2.949-3.124,4.423-4.687
	c0.77-1.724,1.542-3.446,2.313-5.17c-2.162-0.168-4.324-0.339-6.483-0.508c1.896-2.012,3.792-4.026,5.688-6.039
	c0.772-1.965,1.543-3.931,2.318-5.897c-1.934-0.167-3.868-0.333-5.8-0.5c1.667-1.774,3.334-3.548,5.003-5.321
	c0.715-2.208,1.428-4.417,2.143-6.625l-4.939-0.489l4.317-4.604l2.495-10.746l2.493,10.746l4.317,4.604l-4.937,0.489
	c0.713,2.208,1.426,4.414,2.141,6.625c1.149,1.223,2.299,2.446,3.45,3.669c1.238-1.313,2.476-2.63,3.716-3.944
	c0.772-1.965,1.544-3.931,2.316-5.897c-1.934-0.167-3.868-0.331-5.8-0.498c1.668-1.774,3.337-3.55,5.003-5.323
	c0.713-2.208,1.428-4.417,2.143-6.625l-4.939-0.487l4.317-4.606l2.495-10.744l2.495,10.744l4.315,4.606l-4.938,0.487
	c0.713,2.208,1.428,4.416,2.141,6.625c1.477,1.569,2.951,3.138,4.427,4.708l1.609-6.931l1.223,5.275
	c0.677-1.723,1.354-3.446,2.031-5.169c-1.934-0.167-3.866-0.333-5.8-0.5c1.668-1.773,3.336-3.547,5.005-5.321
	c0.712-2.21,1.428-4.418,2.141-6.626l-4.939-0.487l4.319-4.604l2.493-10.746l2.495,10.746l4.317,4.604l-4.939,0.487
	c0.715,2.208,1.428,4.417,2.143,6.626c1.667,1.774,3.335,3.548,5.003,5.321c-1.934,0.167-3.866,0.333-5.798,0.5
	c0.772,1.966,1.544,3.929,2.316,5.895c1.896,2.014,3.792,4.026,5.688,6.041c-2.16,0.168-4.321,0.339-6.483,0.508
	c0.772,1.723,1.542,3.446,2.314,5.169c0.635,0.673,1.27,1.346,1.907,2.019c1.58-1.675,3.161-3.352,4.743-5.026
	c0.77-1.723,1.542-3.446,2.313-5.169c-2.162-0.171-4.324-0.339-6.483-0.508c1.898-2.014,3.794-4.026,5.69-6.041
	c0.772-1.965,1.544-3.931,2.316-5.895c-1.934-0.167-3.868-0.333-5.8-0.5c1.668-1.774,3.337-3.547,5.005-5.321
	c0.713-2.208,1.428-4.418,2.141-6.626l-4.939-0.487l4.317-4.604l2.495-10.746l2.493,10.746l4.319,4.604l-4.939,0.487
	c0.713,2.208,1.428,4.418,2.143,6.626c1.667,1.774,3.334,3.547,5.003,5.321c-1.934,0.167-3.866,0.333-5.8,0.5
	c0.771,1.963,1.543,3.929,2.315,5.895c0.958,1.015,1.913,2.029,2.869,3.045c1.196-1.271,2.389-2.543,3.585-3.813
	c0.08-0.253,0.162-0.506,0.245-0.759c-0.333-0.025-0.665-0.048-0.998-0.074c0.519-0.548,1.035-1.097,1.552-1.645
	c0.447-1.382,0.894-2.765,1.341-4.146l-4.939-0.487l4.319-4.606l0.352-1.516c-0.139-0.011-0.278-0.021-0.417-0.032
	c0.188-0.2,0.375-0.398,0.563-0.599l1.995-8.596l1.207,5.196c0.641-0.681,1.284-1.36,1.926-2.042
	c0.771-1.965,1.543-3.931,2.315-5.897c-1.934-0.165-3.868-0.333-5.8-0.498c1.668-1.774,3.336-3.547,5.003-5.323
	c0.715-2.208,1.428-4.417,2.143-6.625l-4.939-0.487l4.317-4.604l2.495-10.746l2.493,10.746l4.319,4.604l-4.939,0.487
	c0.713,2.208,1.428,4.416,2.141,6.625c1.592,1.693,3.183,3.387,4.777,5.081l1.864-8.036l2.493,10.746l2.911,3.102
	c0.533-1.647,1.065-3.296,1.599-4.943l-4.939-0.487l4.317-4.606l2.495-10.743l1.032,4.441v-2.168v-0.314v-0.867l0.268,1.151
	l0.002,0.004h-0.002l2.227,9.59l2.278,2.43l0.738-3.174l1.221,5.266l0.078,0.083l-0.057,0.006l0.083,0.359l1.571-6.764l-2.6-0.255
	l4.317-4.606l2.495-10.744l1.776,7.644l2.641-2.816l2.495-10.746l2.494,10.746l4.317,4.602l-4.939,0.489
	c0.713,2.208,1.428,4.417,2.144,6.625c0.561,0.597,1.121,1.194,1.681,1.791l1.295-5.57l2.493,10.744l4.317,4.604l-4.339,0.428
	l1.198,5.163c0.188,0.198,0.375,0.399,0.563,0.597c-0.139,0.01-0.278,0.021-0.415,0.034l0.209,0.907
	c1.664,1.768,3.328,3.539,4.99,5.309c-1.814,0.154-3.63,0.31-5.446,0.468c0.441,1.356,0.88,2.714,1.318,4.073
	c0.517,0.548,1.033,1.097,1.553,1.645c-0.321,0.023-0.642,0.046-0.962,0.069c0.019,0.046,0.035,0.093,0.055,0.139
	c1.32,1.4,2.639,2.801,3.959,4.201c0.884-0.936,1.765-1.873,2.648-2.809c0.074-0.186,0.146-0.374,0.22-0.559
	c-1.479-0.116-2.959-0.232-4.438-0.35c1.613-1.71,3.225-3.421,4.836-5.133c-1.366-0.118-2.735-0.236-4.103-0.354
	c1.669-1.773,3.337-3.547,5.005-5.321c0.138-0.428,0.276-0.856,0.414-1.284c-1.314-0.114-2.63-0.228-3.946-0.339
	c1.595-1.698,3.188-3.394,4.783-5.089l-4.049-0.398l4.316-4.604l0.469-2.016l-3.313-0.327l4.317-4.604l2.495-10.746l2.495,10.746
	l4.314,4.604l-4.937,0.487c0.453,1.405,0.908,2.812,1.362,4.216l2.103,2.244l-1.335,0.13c0.004,0.011,0.006,0.023,0.011,0.034
	c1.668,1.774,3.336,3.55,5.005,5.324c-1.935,0.167-3.866,0.333-5.801,0.5c0.416,1.055,0.831,2.111,1.247,3.17
	c1.027,1.091,2.054,2.183,3.081,3.275c-0.46,0.04-0.919,0.08-1.379,0.12c1.685,1.791,3.372,3.579,5.058,5.368
	c-2.162,0.171-4.322,0.34-6.483,0.511c0.318,0.71,0.635,1.421,0.953,2.132c1.352,1.434,2.706,2.87,4.058,4.305
	c-0.466,0.038-0.932,0.074-1.398,0.109c0.407,0.433,0.814,0.863,1.222,1.293c1.392-1.479,2.784-2.955,4.176-4.434
	c0.276-0.704,0.553-1.406,0.829-2.111l-4.297-0.424l3.348-3.571c-1.12-0.097-2.242-0.192-3.362-0.289
	c1.669-1.773,3.335-3.547,5.003-5.321c0.462-1.43,0.924-2.86,1.388-4.29l0.435-1.879l0.072,0.308
	c0.084-0.255,0.164-0.511,0.248-0.766l-4.939-0.487l4.317-4.604l2.346-10.107l-0.188-0.019l0.257-0.274l0.08-0.346l0.049,0.209
	l3.929-4.193l2.495-10.746l2.495,10.746l4.317,4.604l-4.939,0.487c0.715,2.208,1.428,4.417,2.143,6.625
	c1.626,1.729,3.253,3.461,4.879,5.19l1.155-4.981l2.495,10.744l4.317,4.606l-4.939,0.487c0.715,2.208,1.428,4.417,2.143,6.625
	c1.666,1.774,3.335,3.548,5.003,5.324c-1.932,0.165-3.866,0.331-5.8,0.498c0.771,1.966,1.544,3.931,2.315,5.895
	c0.304,0.323,0.605,0.643,0.909,0.966c1.228-1.303,2.455-2.607,3.683-3.908c0.489-1.242,0.977-2.486,1.464-3.729l-1.686-0.167
	l2.784-2.969c-2.204-0.19-4.408-0.38-6.612-0.57c1.938-2.061,3.879-4.123,5.817-6.186c0.831-2.566,1.659-5.135,2.49-7.702
	l-5.743-0.565l5.021-5.354l2.899-12.49l2.898,12.49l5.02,5.354l-5.741,0.565c0.829,2.567,1.66,5.136,2.488,7.702
	c1.938,2.063,3.879,4.125,5.817,6.186c-2.107,0.182-4.216,0.363-6.323,0.544l2.808,2.995l-1.987,0.196
	c0.485,1.234,0.968,2.465,1.453,3.699c1.862,1.976,3.725,3.953,5.585,5.931l3.986-4.252c-1.535-0.133-3.068-0.263-4.602-0.396
	c1.668-1.773,3.336-3.547,5.004-5.321c0.713-2.208,1.429-4.419,2.142-6.625l-4.94-0.489l4.32-4.604l2.492-10.744l2.495,10.744
	l4.317,4.604l-4.939,0.489c0.715,2.206,1.428,4.417,2.143,6.625c1.351,1.436,2.7,2.872,4.05,4.307
	c0.515-0.544,1.027-1.088,1.54-1.635c0.771-1.966,1.543-3.929,2.315-5.895c-1.932-0.167-3.866-0.333-5.798-0.5
	c1.668-1.774,3.334-3.547,5.003-5.321c0.715-2.21,1.428-4.417,2.143-6.627l-4.939-0.487l4.317-4.604l2.493-10.746l2.495,10.746
	l4.316,4.604l-4.939,0.487c0.716,2.21,1.429,4.417,2.144,6.627c1.668,1.774,3.336,3.547,5.005,5.321
	c-1.935,0.167-3.866,0.333-5.801,0.5c0.772,1.965,1.544,3.929,2.316,5.895c1.896,2.014,3.792,4.026,5.69,6.041
	c-2.162,0.168-4.322,0.339-6.483,0.508c0.77,1.723,1.542,3.446,2.312,5.169c1.877,1.987,3.752,3.973,5.627,5.96
	c0.706-0.75,1.411-1.501,2.119-2.252c0.241-0.54,0.481-1.08,0.724-1.62c-2.162-0.171-4.321-0.339-6.481-0.508
	c1.896-2.014,3.795-4.026,5.688-6.041c0.114-0.287,0.226-0.576,0.34-0.865l-2.567-0.253l4.486-4.783
	c-1.913-0.165-3.828-0.329-5.741-0.496c1.667-1.773,3.335-3.547,5.003-5.321c0.713-2.208,1.428-4.417,2.143-6.625l-4.939-0.487
	l4.317-4.604l2.493-10.746l2.495,10.746l4.317,4.604l-4.939,0.487c0.715,2.208,1.428,4.416,2.141,6.625
	c1.671,1.773,3.339,3.547,5.007,5.321c-1.82,0.158-3.636,0.314-5.454,0.471l4.507,4.809l-2.866,0.283
	c0.11,0.278,0.22,0.557,0.329,0.835c1.896,2.014,3.792,4.026,5.69,6.041c-2.161,0.169-4.323,0.337-6.483,0.508
	c0.146,0.327,0.294,0.656,0.439,0.983c1.819,1.936,3.638,3.87,5.458,5.809c-0.633,0.053-1.268,0.107-1.9,0.162
	c0.888,0.938,1.773,1.879,2.659,2.817c0.562-0.597,1.122-1.191,1.684-1.788c0.082-0.253,0.164-0.506,0.244-0.76
	c-0.331-0.025-0.664-0.048-0.997-0.073c0.519-0.549,1.035-1.097,1.554-1.646c0.447-1.383,0.895-2.765,1.34-4.146l-4.939-0.487
	l4.317-4.604l0.144-0.612l-0.975-0.097l0.789-0.841c-0.009,0-0.016,0-0.021-0.002c0.188-0.198,0.375-0.398,0.565-0.599l1.995-8.595
	l1.204,5.197c0.162-0.171,0.325-0.344,0.487-0.515l1.763-7.595c-1.27-0.107-2.539-0.217-3.809-0.327
	c1.666-1.776,3.334-3.548,5.003-5.321c0.715-2.21,1.43-4.418,2.143-6.627l-4.939-0.487l4.317-4.604l2.495-10.746l2.493,10.746
	l4.316,4.604l-4.937,0.487c0.713,2.208,1.426,4.417,2.141,6.627c1.592,1.693,3.183,3.385,4.774,5.079l1.864-8.036l2.495,10.744
	l2.911,3.104c0.533-1.647,1.064-3.296,1.599-4.944l-4.939-0.487l4.319-4.604l2.493-10.746l2.492,10.746l4.319,4.604l-4.939,0.487
	c0.713,2.208,1.429,4.417,2.144,6.625c1.666,1.773,3.334,3.549,5.002,5.323c-1.932,0.167-3.865,0.333-5.798,0.5
	c0.56,1.426,1.12,2.851,1.68,4.277c1.43-1.522,2.861-3.045,4.292-4.566c0.715-2.21,1.43-4.418,2.143-6.627l-4.939-0.487l4.317-4.606
	l2.495-10.744l2.492,10.744l3.208,3.421l1.875-8.076l1.797,7.736l2.276-9.808l2.899,12.492l5.02,5.353l-5.743,0.565
	c0.831,2.567,1.66,5.134,2.491,7.703c1.938,2.063,3.877,4.124,5.816,6.186c-2.248,0.194-4.494,0.388-6.74,0.58
	c0.188,0.48,0.376,0.962,0.565,1.442l0.284-1.226l1.105,4.767c0.247,0.622,0.491,1.246,0.736,1.871
	c0.938,0.995,1.875,1.99,2.813,2.986c1.948-2.069,3.899-4.141,5.851-6.211c0.211-0.538,0.422-1.076,0.633-1.614
	c-1.021-0.088-2.042-0.175-3.063-0.264c1.571-1.67,3.143-3.341,4.712-5.013c-2.111-0.182-4.221-0.363-6.332-0.544
	c1.938-2.063,3.877-4.123,5.817-6.186c0.051-0.16,0.104-0.32,0.153-0.48l-2.143-0.211l3.377-3.603
	c0.367-1.137,0.733-2.271,1.101-3.408l-5.741-0.565l5.021-5.353l2.897-12.492l2.9,12.492l5.02,5.353l-5.743,0.565
	c0.314,0.968,0.626,1.934,0.938,2.902l3.854,4.108l-2.447,0.242c0.049,0.15,0.098,0.3,0.146,0.449
	c1.938,2.063,3.879,4.124,5.817,6.186c-2.015,0.175-4.03,0.348-6.045,0.521c1.578,1.679,3.157,3.357,4.735,5.036
	c-1.122,0.098-2.242,0.192-3.364,0.289c0.209,0.529,0.415,1.06,0.624,1.589c0.979,1.039,1.957,2.077,2.936,3.114
	c0.696-0.735,1.391-1.474,2.084-2.21c-0.55-0.049-1.103-0.095-1.655-0.144c1.67-1.773,3.339-3.547,5.005-5.323
	c0.449-1.388,0.898-2.775,1.348-4.163c-1.584-0.137-3.166-0.272-4.748-0.409c0.745-0.793,1.491-1.586,2.236-2.377l-1.633-0.163
	l4.317-4.606l1.139-4.908l-3.851-0.379l4.314-4.606l2.495-10.746l2.495,10.746l4.317,4.606l-4.939,0.487
	c0.713,2.206,1.428,4.417,2.141,6.623c0.222,0.236,0.443,0.47,0.662,0.704c1.646-1.742,3.286-3.486,4.932-5.23
	c0.771-1.965,1.544-3.931,2.315-5.897c-1.934-0.167-3.868-0.331-5.8-0.498c1.666-1.776,3.334-3.55,5.003-5.323
	c0.715-2.208,1.428-4.417,2.143-6.625l-4.939-0.487l4.317-4.606l2.495-10.744l2.492,10.744l4.317,4.606l-4.937,0.487
	c0.713,2.208,1.425,4.417,2.141,6.625c1.668,1.773,3.336,3.547,5.005,5.323c-1.935,0.167-3.868,0.331-5.801,0.498
	c0.772,1.966,1.544,3.932,2.316,5.897c1.896,2.012,3.794,4.026,5.69,6.041c-2.16,0.168-4.322,0.337-6.483,0.508
	c0.77,1.721,1.541,3.444,2.312,5.167c2.126,2.255,4.252,4.507,6.378,6.758c-2.348,0.171-4.695,0.344-7.043,0.517
	c0.73,1.48,1.458,2.963,2.188,4.443c0.069,0.076,0.142,0.15,0.213,0.227c1.475-1.563,2.948-3.124,4.423-4.687
	c0.77-1.724,1.542-3.446,2.312-5.17c-2.159-0.168-4.321-0.339-6.481-0.508c1.896-2.012,3.792-4.026,5.688-6.039
	c0.771-1.965,1.544-3.931,2.315-5.897c-1.932-0.167-3.865-0.333-5.798-0.5c1.667-1.774,3.335-3.548,5.003-5.321
	c0.715-2.208,1.428-4.417,2.143-6.625l-4.941-0.489l4.319-4.604l2.495-10.746l2.493,10.746l4.317,4.604l-4.939,0.489
	c0.715,2.208,1.428,4.414,2.143,6.625c1.149,1.223,2.299,2.446,3.45,3.669c1.238-1.313,2.477-2.63,3.717-3.944
	c0.771-1.965,1.544-3.931,2.315-5.897c-1.934-0.167-3.868-0.331-5.8-0.498c1.666-1.774,3.337-3.55,5.003-5.323
	c0.713-2.208,1.428-4.417,2.143-6.625l-4.939-0.487l4.317-4.606l2.495-10.744l2.493,10.744l4.316,4.606l-4.937,0.487
	c0.713,2.208,1.428,4.416,2.141,6.625c1.477,1.569,2.95,3.138,4.427,4.708l1.609-6.931l1.223,5.275
	c0.678-1.723,1.354-3.446,2.031-5.169c-1.934-0.167-3.868-0.333-5.8-0.5c1.668-1.773,3.337-3.547,5.005-5.321
	c0.713-2.21,1.428-4.418,2.141-6.626l-4.939-0.487l4.319-4.604l2.493-10.746l2.495,10.746l4.317,4.604l-4.939,0.487
	c0.713,2.208,1.428,4.417,2.143,6.626c1.666,1.774,3.334,3.548,5.003,5.321c-1.935,0.167-3.866,0.333-5.798,0.5
	c0.771,1.966,1.544,3.929,2.315,5.895c1.896,2.014,3.792,4.026,5.688,6.041c-2.16,0.168-4.321,0.339-6.483,0.508
	c0.771,1.723,1.542,3.446,2.313,5.169c0.635,0.673,1.27,1.346,1.904,2.019c1.582-1.675,3.164-3.352,4.746-5.026
	c0.771-1.723,1.541-3.446,2.312-5.169c-2.16-0.171-4.322-0.339-6.481-0.508c1.896-2.014,3.794-4.026,5.69-6.041
	c0.771-1.965,1.544-3.931,2.315-5.895c-1.934-0.167-3.868-0.333-5.8-0.5c1.668-1.774,3.334-3.547,5.005-5.321
	c0.713-2.208,1.426-4.418,2.141-6.626l-4.939-0.487l4.317-4.604l2.495-10.746l2.493,10.746l4.319,4.604l-4.939,0.487
	c0.713,2.208,1.428,4.418,2.141,6.626c1.668,1.774,3.336,3.547,5.005,5.321c-1.935,0.167-3.866,0.333-5.801,0.5
	c0.772,1.963,1.544,3.929,2.316,5.895c0.955,1.015,1.913,2.029,2.868,3.045c1.196-1.271,2.39-2.543,3.583-3.813
	c0.083-0.253,0.165-0.506,0.247-0.759c-0.333-0.025-0.664-0.048-0.998-0.074c0.52-0.548,1.036-1.097,1.553-1.645
	c0.447-1.382,0.895-2.765,1.342-4.146l-4.939-0.487l4.319-4.606l0.35-1.516c-0.139-0.011-0.276-0.021-0.415-0.032
	c0.188-0.2,0.375-0.398,0.563-0.599l1.995-8.596l1.207,5.196c0.641-0.681,1.282-1.36,1.923-2.042
	c0.772-1.965,1.544-3.931,2.316-5.897c-1.933-0.165-3.866-0.333-5.798-0.498c1.668-1.774,3.336-3.547,5.003-5.323
	c0.715-2.208,1.428-4.417,2.143-6.625l-4.939-0.487l4.317-4.604l2.495-10.746l2.492,10.746l4.317,4.604l-4.938,0.487
	c0.713,2.208,1.428,4.416,2.141,6.625c1.593,1.693,3.183,3.387,4.775,5.081l1.866-8.036l2.493,10.746l2.91,3.102
	c0.534-1.647,1.065-3.296,1.6-4.943l-4.939-0.487l4.316-4.606l2.495-10.743l2.495,10.743l3.308,3.531l0.74-3.18l2.492,10.743
	l4.317,4.606l-4.937,0.487c0.033,0.107,0.069,0.215,0.103,0.323c0.167,0.177,0.334,0.354,0.5,0.531
	c-0.107,0.008-0.213,0.017-0.318,0.025c0.618,1.915,1.236,3.83,1.856,5.745c1.668,1.774,3.336,3.547,5.002,5.323
	c-1.725,0.148-3.45,0.297-5.178,0.445c0.281,0.298,0.563,0.597,0.844,0.895c-0.367,0.029-0.733,0.059-1.099,0.086
	c0.649,1.656,1.299,3.313,1.951,4.969l4.56,4.84V281.202z"/>
</svg>
