<?xml version="1.0" encoding="utf-8"?>
<!-- Generator: Adobe Illustrator 16.0.0, SVG Export Plug-In . SVG Version: 6.00 Build 0)  -->
<!DOCTYPE svg PUBLIC "-//W3C//DTD SVG 1.1//EN" "http://www.w3.org/Graphics/SVG/1.1/DTD/svg11.dtd">
<svg version="1.1" id="Layer_1" xmlns="http://www.w3.org/2000/svg" xmlns:xlink="http://www.w3.org/1999/xlink" x="0px" y="0px"
	 width="841.89px" height="595.28px" viewBox="0 0 841.89 595.28" enable-background="new 0 0 841.89 595.28" xml:space="preserve">
<path fill="#010101" d="M834.584,275.884v17.872v36.265v11.517v13.371h-236.63h-33.833h-62.784h-16.919h-25.385h-59.736H185.381
	h-22.634h-0.337h-0.381h-0.018h-0.539h-0.162h-0.097h-0.302h-4.143H8.246v-14.169v-10.719v-52.803v-4.982
	c0.04-0.04,0.101-0.079,0.158-0.118c0.061-0.062,0.14-0.119,0.219-0.18c-0.136,0.061-0.258,0.118-0.376,0.18v-6.574
	c0.758-0.202,1.516-0.398,1.953-0.878c-0.639-0.121-1.313-0.16-1.953-0.261v-0.775c0.876-0.12,1.774-0.199,2.65-0.398
	c0.337-0.079,0.696-0.199,1.038-0.298c0.018,0,0.057-0.022,0.057-0.022c0.758-0.239,1.498-0.458,2.234-0.696
	c0.28-0.101,0.556-0.219,0.814-0.32c0.42-0.617,0.819-1.255,1.218-1.872c-0.438,0.438-1.056,0.777-1.555,1.036
	c-0.319,0.16-2.492,1.274-2.768,1.056c0.097-0.18,0.894-1.075,1.135-1.095c-0.736,0.18-1.476,0.359-2.234,0.239
	c-0.478-0.081-0.972-0.219-1.472-0.3c1.196-0.278,2.83-1.154,3.246-1.432c1.279-0.797,2.172-1.835,3.171-2.911
	c-1.156-0.239-2.313-0.519-3.508-0.558c-0.376,0-2.273-0.04-3.425,0.16c0.315-0.16,0.596-0.379,0.894-0.559
	c0.578-0.319,1.217-0.438,1.853-0.596c-0.276,0.099-1.156-0.12-1.415-0.219c0.123-0.241,2.211-0.32,2.47-0.342
	c0.617-0.039,1.335-0.079,1.975,0.042c-0.959-0.34-1.914-0.699-2.908-0.957c-0.701-0.16-1.516-0.399-2.313-0.578
	c0.876-0.059,1.792-0.399,2.549-0.418c0.719-0.04,1.476,0.081,2.194,0.16c0.237,0.02,1.673,0.399,1.892,0.28
	c-0.359-0.561-1.397-0.359-1.813-0.919c0.158,0,0.758,0.18,0.897,0c-0.381-0.298-0.858-0.396-1.296-0.635
	c0.915,0.258,1.853,0.337,2.75,0.556c0.675,0.16,1.433,0.519,2.111,0.539c-0.32-0.298-0.876-0.379-1.274-0.517
	c-0.837-0.3-1.656-0.617-2.47-0.937c-1.117-0.379-2.891-1.314-4.086-0.876c1.095-0.64,3.469,0.18,4.524,0.537
	c1.432,0.479,2.947,1.075,4.384,1.415c-0.6-0.699-1.437-1.115-1.993-1.873c0.158-0.12,0.359,0.199,0.517,0.101
	c-0.381-0.6-1.117-1.196-1.634-1.675c0.718,0.497,1.555,0.856,2.313,1.333c0.495,0.32,1.034,0.797,1.634,0.959
	c-0.438-0.718-1.078-1.117-1.397-1.934c-0.118-0.339-0.674-1.636-0.517-1.973c0.758,0.898,1.235,1.973,1.971,2.869
	c-0.376-0.915-0.416-1.751-0.337-2.75c0.079-1.033,0.241-1.294,0.735-2.111c0.062,1.056,0.898,3.267,1.695,4.005
	c0-0.379-1.454-4.284-0.556-4.205c0.158,0.199-0.083,0.339,0.118,0.519c0.197-0.32-0.359-3.149,0.876-2.51
	c0.298,0.158,0.337,0.894,0.438,1.193c0.201,0.677,0.398,1.794,0.959,2.271c0.057-0.618-0.539-1.375-0.6-2.032
	c-0.079-0.955,0.32-1.712,0.999-2.391c0.557-0.596,1.235-0.916,1.989-1.196c0.718-0.236,1.914-0.916,2.671-0.896
	c0.062,0.081-1.296,0.817-1.432,0.957c-0.578,0.556-0.797,1.454-1.196,2.172c0,0,0.018-0.022,0.04-0.04
	c0.118-0.202,0.236-0.398,0.315-0.46c0.162-0.158,0.359-0.298,0.561-0.438c-0.079,0.101-0.118,0.18-0.162,0.219
	c-0.158,0.28-0.276,0.558-0.398,0.858c-0.079,0.455-0.398,1.572-0.556,2.291c-0.04,0.158-0.04,0.32-0.04,0.478
	c0.241-0.578,0.438-1.095,0.556-1.494c0.062,0.458,0.162,0.937,0.162,1.415c0,0.596-0.241,1.274-0.42,1.873
	c0.061-0.399,0.797-1.196,1.056-1.474c0.101,0.079-0.916,2.291-0.995,2.47c0,0.04-0.039,0.079-0.039,0.118
	c0.039,0.202,0.057,0.399,0.079,0.6c0.618-0.639,1.235-1.276,1.792-1.953c0.64-0.758,1.357-1.516,2.032-2.313
	c-0.556,0.999-0.876,2.152-1.454,3.149c-0.416,0.696-0.955,1.354-1.454,2.032c-0.079,0.118-0.696,0.758-1.034,1.196
	c-0.022,0.079-0.04,0.16-0.04,0.258c0.618-0.298,1.016-1.075,1.691-1.336c-0.057,0.121-0.618,0.64-0.495,0.797
	c0.517-0.318,0.933-0.756,1.415-1.075c-0.701,0.676-1.296,1.434-1.975,2.113c-0.298,0.337-0.679,0.657-1.034,0.995
	c-0.044,0.14-0.123,0.28-0.18,0.398c0.377-0.258,0.714-0.635,1.056-0.916c0.797-0.718,1.634-1.395,2.47-2.111
	c1.016-0.898,2.79-2.072,3.206-3.43c-0.096,1.237-2.212,2.992-3.009,3.747c-1.375,1.277-2.926,2.431-4.244,3.747
	c0.92-0.32,1.734-0.858,2.65-1.137c0.043,0.14-0.355,0.219-0.355,0.359c0.854-0.219,1.77-0.659,2.588-0.997
	c-1.314,0.696-3.109,1.476-4.227,2.47c0.92-0.18,1.638-0.556,2.593-0.618c0.359-0.04,1.734-0.278,2.05-0.04
	c-1.252,0.359-2.527,0.517-3.784,0.876c0.938-0.098,1.813,0,2.729,0.241c0.319,0.079,0.836,0.118,1.117,0.298
	c0.298,0.179,0.298,0.337,0.517,0.556c-1.274-0.177-3.346-0.099-4.542,0.32c1.038,0.219,3.267-0.539,4.104,0.3
	c0.162,0.177-0.556,0.121-0.595,0.121c0.197,0.179,3.307,0.477,1.813,1.034c-1.134,0.438-2.65-0.298-3.845,0.081
	c1.156,0.34,2.549-0.359,3.547,0.699c0.478,0.537,0.438,1.115,0.18,1.771c-0.022,0.059-0.74,1.457-0.74,1.316
	c0-0.258,0.202-0.539,0.04-0.819c-0.197-0.376-0.675-0.595-1.073-0.875c0.079,0.14,0.118,0.3,0.118,0.459
	c-0.039-0.061-0.079-0.101-0.118-0.14c-0.28-0.241-0.6-0.418-0.92-0.598c-0.276-0.099-0.556-0.199-0.836-0.3
	c0.04,0.081,0.101,0.179,0.123,0.28c0.057,0.14,0.097,0.258,0.158,0.398c0.517,1.474,1.038,2.768,1.875,4.064
	c0.118,0.14,0.197,0.298,0.276,0.438c0.083,0.101,0.162,0.199,0.241,0.298c0.28,0.341,0.876,0.878,0.994,1.217
	c0.083,0.079,0.123,0.14,0.201,0.219c0.158,0.14,0.32,0.32,0.517,0.497c-0.236-0.04-0.456-0.099-0.596-0.177
	c0.416,0.416,0.797,0.915,1.332,1.173c0.162,0.079,1.437,0.298,1.437,0.359c-0.337,0.337-1.695,0.398-2.172,0.458
	c-0.916,0.099-1.712-0.138-2.431-0.716c-0.679-0.539-1.095-1.336-1.375-2.172c-0.197-0.559-0.219-1.314-0.539-1.833
	c-0.079,0.917,0.398,2.052,0.679,2.928c0.079,0.258,0.438,0.938,0.438,1.355l0.78,0.657c0.894,0.758,1.651,1.636,2.409,2.512
	c0.158,0.197,0.32,0.376,0.478,0.556c0.381,0.479,0.758,0.938,1.156,1.415c1.353,1.594,2.47,3.309,3.885,4.862
	c0.46,0.438,0.898,0.878,1.336,1.316c0.298,0.317,0.718,0.716,1.038,1.075c0.595,0.6,1.195,1.176,1.791,1.774
	c0.079,0.079,0.158,0.121,0.241,0.199c0.477-0.239,0.977-0.478,1.454-0.699c0.197,0.162,0.456,0.342,0.675,0.5
	c0-0.398,0.18-0.637,0.46-0.775c-0.478-0.101-0.955-0.179-1.713-0.319c0.995-0.578,1.612-0.938,2.291-1.336
	c-0.298-0.478-0.596-0.977-1.056-1.734c0.635,0.061,1.034,0.101,1.494,0.14c0.061-1.056,0.14-2.133,0.696-3.068
	c1.257,0.559,0.438,1.912,0.999,2.79c0.32-0.081,0.696-0.16,1.156-0.278c0,0.376,0.018,0.635,0.04,0.935
	c-0.32,0.199-0.64,0.379-0.959,0.578v1.594c0.342,0.199,0.6,0.339,0.758,0.458c0.258-0.219,0.438-0.359,0.64-0.539
	c0-0.497-0.04-0.994,0.018-1.494c0.021-0.18,0.319-0.337,0.539-0.556c0.359,0.177,0.679,0.357,0.999,0.517
	c0.158,0.797,0.315,1.572,0.456,2.212c0.539,0.418,1.016,0.758,1.633,1.196c-0.219,0.539-0.438,1.055-0.674,1.614
	c0.079,0.04,0.18,0.079,0.258,0.121c0.478-0.18,0.955-0.359,1.433-0.539c0.219,0.517,0.398,0.916,0.561,1.275
	c1.073-0.101,0.438-2.032,1.651-1.892c0.359,1.393,0.701,2.807,1.1,4.342c0.136-0.438,0.236-0.755,0.315-1.036
	c0.302-0.14,0.561-0.258,0.797-0.379c0.04-0.738,0.083-1.435,0.123-2.192c0.556,0.12,0.933,0.201,1.274,0.28
	c0.416-1.137-0.118-1.853-0.517-2.571c-0.482-0.797-0.561-1.493,0.057-2.15c0.421,0.219,0.819,0.399,1.178,0.596
	c0.04-0.099,0.097-0.18,0.158-0.278c-0.359-0.519-0.679-1.058-1.038-1.634c-0.096-0.718-0.236-1.496,0.521-1.934
	c-0.202-0.657-0.381-1.274-0.561-1.873c0.521-0.519,0.977-0.977,1.437-1.415l-0.18-0.121c0.359-0.896,0.696-1.791,1.056-2.708
	c0.398,0.12,0.6,0.179,0.915,0.278c-0.197,1.914,0.359,3.368,1.835,4.266c-0.28,0.536-0.517,0.915-0.758,1.333
	c0.197,0.935-0.28,2.052,0.5,2.79c-0.04,0.519-0.079,0.974-0.101,1.274c0.04,0.059,0.04,0.099,0.079,0.16h0.079
	c0,0.059,0.022,0.118,0.04,0.158c0.32,0.521,0.618,0.999,0.898,1.457c-0.101,0.02-0.18,0.039-0.259,0.059v2.054
	c0.28-0.062,0.478-0.101,0.679-0.141c0.079,0.141,0.118,0.259,0.197,0.399c0-0.18,0.022-0.379,0.04-0.559
	c0.258-0.121,0.521-0.239,0.898-0.398c0.062,0.258,0.101,0.458,0.18,0.716c0.061-0.118,0.118-0.197,0.197-0.317
	c0.521,0.379,0.819,0.578,1.038,0.738c0.258-0.679,0.6-1.316,0.758-2.015c0.197-0.736,0.359-1.373,1.296-1.611
	c-0.18,0.935-0.302,1.712-0.46,2.61c0.158,0.236,0.377,0.536,0.556,0.775c-0.04,0.3-0.079,0.539-0.118,0.797
	c0.337,0.16,0.6,0.28,0.955,0.459c-0.714,1.174-1.769,1.634-2.785,2.172c0.517,0.18,0.955,0.337,1.213,0.438
	c0.557,0.517,0.938,0.856,1.296,1.196c-0.123,0.138-0.241,0.278-0.42,0.478c0.718,0.04,1.397,0.079,2.111,0.118
	c0.123,0.3,0.223,0.539,0.319,0.797c0.657,0.101,0.876,0.657,1.095,1.077c-0.276,0.758-0.517,1.415-0.736,1.993h1.577
	c0.197-0.319,0.376-0.578,0.495-0.777c1.734,0.239,1.936,0.099,2.251-1.614c-0.714-0.079-1.393-0.16-2.37-0.28
	c0.898-1.873,1.893-3.386,2.711-5.059c-0.5-0.521-0.938-0.959-1.178-1.196v-4.384c0.258-0.539,0.6-1.257,0.959-1.993
	c0.517,0.14,1.073,0.278,1.594,0.398c1.113-1.077,1.113-1.077,2.47-0.14c0.118-0.298,0.237-0.598,0.398-0.955
	c-0.561-0.101-1.038-0.202-1.835-0.342c0.819-0.576,1.358-0.955,1.993-1.393c-0.337-0.478-0.635-0.898-1.117-1.516h1.577
	c0.539-0.977-0.298-2.47,1.134-3.228c0.119,1.095,0.241,1.993,0.337,3.009c0.482-0.14,0.858-0.298,1.257-0.32
	c0.119-0.018,0.241,0.339,0.478,0.699c-0.517,0.379-0.955,0.698-1.156,0.836c-0.118,1.277,0,1.953,0.88,2.032
	c0.438-0.398,0.854-0.795,1.274-1.176c0.097,0.081,0.197,0.14,0.276,0.219c-0.118,0.46-0.236,0.917-0.359,1.355
	c0.679,0.239,1.555-0.339,2.155,0.839c-0.561,0.398-1.038,0.797-1.476,1.115c0.202,0.357,0.398,0.755,0.578,1.136
	c0.539-0.639,1.196-0.757,2.054-0.219c-0.561,1.016-1.078,1.951-1.555,2.807c0.337,0.3,0.718,0.618,1.117,0.957
	c0-0.317,0-0.698,0.04-1.215c0.236-0.079,0.477-0.158,0.696-0.239c0.04-0.757,0.061-1.434,0.101-2.192
	c0.359,0.02,0.596,0.02,0.876,0.04c0.057,0.578,0.118,1.077,0.197,1.695c0.381-0.398,0.6-0.657,0.836-0.917
	c0.359,0.777,0.359,0.777,1.516,0.699c0.079,0.098,0.201,0.197,0.28,0.317c0.079,0.121,0.157,0.239,0.359,0.519v-1.616
	c-0.28-0.497-0.758-0.497-1.235-0.456c-0.141-0.3-0.32-0.578-0.399-0.898c-0.123-0.337-0.162-0.696-0.219-1.077
	c0.495-0.099,0.797-0.158,1.095-0.219c-0.718-0.197-1.397-0.398-2.233-0.635c0.241-0.519,0.398-0.898,0.561-1.277
	c-0.701-0.398-0.758-1.097-0.679-1.853h0.719c0.197,0.339,0.359,0.617,0.596,1.055c0.42-0.657,0.718-1.136,1.055-1.673
	c0.482,0.16,0.898,0.3,1.375,0.458c-0.337,0.119-0.557,0.199-0.815,0.298c0.258,0.836,0.456,1.616,0.736,2.532
	c0.118-0.359,0.202-0.539,0.258-0.736c0.259-0.121,0.539-0.241,0.859-0.359c-0.079-0.42-0.162-0.777-0.202-1.077
	c0.398-0.539,1.279,0.438,1.476-0.637c-0.241-0.3-0.557-0.677-0.898-1.115v-1.274c0.302-0.3,0.578-0.578,0.701-0.699
	c0-0.917,0.079-1.634-0.044-2.332c-0.118-0.938,0.219-1.513,1.196-1.774c0.044-0.478,0.083-0.916,0.101-1.375
	c0.259-0.236,0.561-0.497,0.859-0.755c0.276,0.278,0.477,0.497,0.696,0.716c-0.062,0.381-0.101,0.698-0.18,1.055
	c0.298,0.101,0.539,0.18,0.736,0.261c0.263-0.18,0.46-0.317,0.661-0.458c0.237,0.775-0.46,0.617-0.718,0.876
	c0,0,0.04,0.039,0.079,0.079c0.28,0.062,0.596,0.121,0.797,0.162c0.955,0.975-0.876,1.553-0.28,2.431
	c0.162-0.101,0.298-0.201,0.521-0.381c0.595,1.875,2.347,2.413,3.941,3.21c0.14-0.28,0.28-0.519,0.438-0.797
	c0.28,0.158,0.521,0.317,0.836,0.497c-0.136,0.537-0.276,0.997-0.398,1.474c0.202,0.398,0.359,0.797,0.561,1.176
	c1.034,0.099,1.034,0.121,1.673,0.917c-0.298-0.04-0.596-0.081-0.916-0.14c-0.201,0.219-0.381,0.458-0.521,0.598
	c-0.775,0.2-1.494,0.379-2.431,0.618c0.701,0.138,1.139,0.219,1.835,0.339c-0.679,0.517-1.156,0.876-1.656,1.255
	c0.359,0.278,0.701,0.537,1.078,0.795c0.775,0.062,1.555,0.101,2.211,0.14c0.399-0.278,0.679-0.477,1.038-0.716
	c0.355,0.357,0.675,0.657,0.955,0.917c-0.381,0.677-0.718,1.274-1.117,1.993h1.095v0.177h0.381c0.04,0.677,0.079,1.336,0.101,1.954
	c0.376,0.239,0.696,0.418,1.055,0.637c-0.039,0.28-0.039,0.478-0.083,0.736c0.162,0.022,0.302,0.022,0.442,0.042
	c0.057,0.458,0.096,0.856,0.158,1.235c0.241,0.418,0.797,0.698,0.876,1.195c0.398-0.042,0.797-0.059,1.077-0.081
	c0.32,0.32,0.556,0.561,0.815,0.797c0.381-0.517,0.657-0.916,1.055-1.454c-0.674-0.099-1.195-0.197-1.791-0.298
	c0.021-0.539,0.039-0.977,0.061-1.555h2.808c-0.556-0.337-0.836-0.517-1.156-0.718c0.04-0.318,0.101-0.578,0.123-0.775
	c0.994-0.478,1.393,0.556,2.032,0.856c0.556-0.638,0.354-1.375,0.315-2.074c-0.359-0.357-0.675-0.657-1.073-1.016
	c0.32-0.416,0.578-0.755,0.815-1.073c0.297,0.219,0.539,0.416,0.897,0.696c0.281-1.257-0.219-2.632,1.038-3.407
	c0.276,0.219,0.596,0.477,0.972,0.797v2.869c0.701-0.118,1.257-0.219,1.936-0.359c-0.438,0.836-1.038,1.375-0.959,1.892
	c0.836,0.878,1.577,1.633,2.313,2.431c0.438-0.04,0.797-0.057,1.134-0.099v-0.04c-0.079-0.179-0.18-0.359-0.258-0.558h0.04
	c0.083,0.14,0.162,0.28,0.219,0.42v-0.101l-0.057-0.319c0.478-0.04,0.894-0.079,1.235-0.101c0.398,0.3,0.736,0.561,0.994,0.758
	c0.32-0.537,0.639-1.056,0.959-1.594c-0.797-0.04-1.616,0-1.975-1.095c1.117,0.241,1.936-0.158,2.79-0.517
	c-0.478-0.3-0.854-0.539-1.336-0.858c1.279-0.758,2.413,0.559,3.547-0.158v-0.898c-0.438-0.359-0.875-0.657-1.213-1.016
	c-0.162-0.18-0.18-0.478-0.32-0.898c0.758,0.101,1.296,0.162,1.932,0.241v-1.774c0.561-0.199,0.718-0.955,1.397-0.718
	c0.04-0.079,0.04-0.179,0.079-0.258c0.079-0.02,0.141-0.02,0.197-0.02c0.123,0.278,0.258,0.558,0.398,0.878
	c0.359-0.061,0.718-0.121,1.117-0.201c0.021,0.201,0.039,0.339,0.039,0.438c-0.298,0.18-0.556,0.342-1.033,0.618
	c1.112,0.44,2.049,0.78,2.627,1.476c-0.14,0.219-0.28,0.418-0.556,0.836c0.675-0.239,1.056-0.379,1.494-0.539
	c0.219,0.16,0.416,0.3,0.696,0.5c-0.736,0.499-1.415,0.955-2.093,1.415c0.101,0.059,0.179,0.101,0.263,0.14
	c0.136,0.197,0.315,0.477,0.477,0.716c0.276-0.177,0.596-0.379,0.977-0.617c-0.062,0.539-0.101,0.838-0.14,1.176
	c0.477,0.18,1.274-0.18,1.476,0.5c0,0.017-0.044,0.039-0.044,0.039h0.6c0.039,0.258,0.061,0.438,0.079,0.578
	c-0.657,0.478-1.314,0.955-1.953,1.415c0.499,0.119,0.999,0.219,1.537,0.318c-0.46,0.917,1.213,0.797,1.056,1.594
	c-0.438-0.02-0.876-0.04-1.336-0.059c-0.079,0.337-0.14,0.657-0.219,0.955c0.718,0.46,1.573-0.118,2.229,0.5
	c-0.096,0.14-0.236,0.199-0.359,0.319c0.123,0.099,0.241,0.219,0.341,0.298c1.095,0.04,1.095,0.04,1.774,0.32
	c-0.6,0.197-1.156,0.377-1.734,0.556c0.416,0.718,1.634,0.598,1.853,1.395c-0.14,0.059-0.28,0.14-0.438,0.239
	c-1.117-0.556-2.234-1.095-3.307-1.612c-0.079,0.138-0.14,0.317-0.219,0.497c-0.28,0-0.499-0.02-0.701-0.02
	c-0.04-0.04-0.04-0.062-0.079-0.079c0.039,0.158,0.101,0.337,0.123,0.497c0.04,0.2,0.04,0.399,0.079,0.576
	c0.237,0.14,0.539,0.241,0.837,0.342c0.298,0.079,0.596,0.138,0.915,0.197c0.28,0.062,0.557,0.121,0.898,0.121
	c0.057,0.317,0.079,0.578,0.101,0.716c0.315,0.339,0.556,0.6,0.837,0.878c0.219,0.099,0.456,0.219,0.696,0.339
	c-0.062,0.337-0.079,0.618-0.118,0.935c-0.342,0.02-0.578,0.042-0.819,0.059c0.377,0.3,0.718,0.6,1.117,0.878
	c0.258,0.199,0.875,4.064,1.335,4.163c0.136,0.14,0.377,0.358,0.618,0.617c0.556-0.157,0.994-0.298,1.393-0.416v-1.077
	c-0.478-0.259-1.156-0.32-1.297-0.938c0.101-0.079,0.219-0.197,0.302-0.259c0.399,0.141,0.758,0.259,1.275,0.438
	c0.079-0.596,0.118-1.056,0.179-1.572c0.197-0.16,0.298-0.559,0.977-0.48c0.14,0.716,0.298,1.434,0.477,2.192
	c0.478-0.059,0.916-0.118,1.393-0.18c0.039,0.141,0.039,0.281,0.083,0.379c-0.398,0.261-0.718,0.458-1.099,0.699
	c0.438,0.258,0.779,0.457,1.117,0.635c0.258,0.162,0.775,0.319,0.775,0.479c0.021,0.52,0.679,0.317,0.897,0.659
	c-0.039,0.178-0.101,0.398-0.14,0.696c0.578-0.101,1.078-0.18,1.594-0.258c0.241,0.18,0.46,0.337,0.64,0.477
	c-1.095,0.697-2.15,1.354-3.188,1.993c0.158,0.219,0.241,0.359,0.376,0.539c0.18-0.121,0.342-0.342,0.482-0.381
	c-0.101,0.039-0.263,0.339-0.42,0.499c0.118,0.14,0.241,0.319,0.359,0.478c0.719-0.398,1.038-0.994,1.875-1.056
	c0.315,0.499-0.6,0.915,0.039,1.435c0.237-0.021,0.517-0.04,0.894-0.079c-0.219-0.359-0.416-0.638-0.596-0.918
	c0.197-0.398,0.438-0.677,1.016-0.758c0.337,0.438,0.657,0.879,0.977,1.297c0.359-0.319,0.657-0.559,0.977-0.858
	c0.276,0.28,0.477,0.46,0.735,0.698v1.415h0.219v-2.529c0.398,0.18,0.64,0.298,0.679,0.317c0.718-0.16,1.253-0.259,2.01-0.418
	c-1.134-0.22-1.931-0.598-2.925-1.117c0.674-0.099,1.073-0.157,1.55-0.219c-0.916-0.478-1.971-0.677-2.746-1.314
	c0.836-0.478,1.472,0.28,2.51,0.021c-0.797-0.239-1.314-0.419-1.835-0.559c-0.315-0.438,0.079-0.677,0.342-0.856
	c-0.14-0.52-0.28-0.918-0.42-1.373c0.32-0.022,0.478-0.042,0.718-0.042c0.359,0.777,0.718,1.555,1.077,2.332
	c0.197-0.28,0.355-0.519,0.596-0.836c0.399,0.298,0.697,0.517,0.994,0.735v1.656c0.32-0.141,0.64-0.301,1.1-0.52
	c0.118-0.398-0.302-1.075,0.337-1.535c-0.219-0.418-0.438-0.816-0.679-1.296c0.359-0.276,0.679-0.518,0.938-0.717
	c-0.101-0.974,0.162-1.833,0.517-2.708c-0.096-0.022-0.298-0.101-0.574-0.199c0.04-0.239,0.079-0.479,0.118-0.738
	c0.359,0.039,0.657,0.061,0.994,0.079c-0.359-0.537,0.083-0.836,0.421-1.154c-0.219-1.058-0.141-1.136,0.915-1.018
	c0.101,0.44,0.18,0.898,0.298,1.375c0.342,0.202,0.74,0.438,1.235,0.738c-0.136,0.418-0.276,0.817-0.416,1.255
	c0.14,0.039,0.376,0.14,0.459,0.179c0.315,0.438,0.158,0.758-0.083,1.056c0.04,0.202,0.083,0.438,0.123,0.618
	c0.197,0.021,0.438,0.062,0.753,0.081l-0.237,0.479c0.32,0.219,0.596,0.416,0.938,0.675c-0.202,0.46-0.381,0.92-0.578,1.396
	c0,0,0.018,0,0.04,0.018c0.179,0.081,0.398,0.162,0.596,0.261c0.123,0.34,0.123,0.638,0.039,0.918
	c0.044,0.018,0.101,0.039,0.162,0.059c0.018,0.099,0.04,0.199,0.079,0.301c0.101,0.017,0.201,0.039,0.298,0.039
	c0.179-0.539,0.341-1.056,0.499-1.535c-0.337-0.977-0.42-1.951-0.197-2.97c0.315-0.16,0.556-0.258,0.635-0.317
	c-0.236-0.679-0.438-1.274-0.635-1.875c0.315-0.497,0.595-0.916,0.876-1.314c-0.241-0.418-0.438-0.858-0.64-1.235
	c0.679-0.697,1.235-1.296,1.712-1.794c0.083-0.878,0.123-1.555,0.162-2.172c0.736-0.558,0.736-0.558,1.594-0.398
	c0.197,1.255,0.398,2.512,0.596,3.747c0.32-0.079,0.561-0.121,0.74-0.18c0.337,0.677,0.657,1.294,0.972,1.873
	c-0.315,0.438-0.556,0.777-0.836,1.176c0.319,0.578,0.6,1.095,0.858,1.594c-0.438,1.953,0.977,3.823-0.062,5.519
	c0.162,0.858,0.28,1.594,0.398,2.352c0.32,0.079,0.64,0.239,0.977,0.359c0.04-0.897,0.061-1.773,0.101-2.73
	c0.578-0.099,1.038-0.18,1.437-0.239c0.197-0.219,0.337-0.358,0.438-0.46c0.079,0.042,0.158,0.081,0.236,0.121
	c0.162-1.235,0.521-2.251,1.555-2.989c0.201,0.64,0.28,1.218,0.241,1.773c0.14,0.578,0.276,1.137,0.398,1.634
	c0.315-0.02,0.596-0.039,0.876-0.059c0-0.021,0-0.021,0.018-0.04h1.616c0.197-0.319,0.376-0.598,0.499-0.777
	c1.73,0.219,1.932,0.101,2.251-1.634c-0.718-0.078-1.397-0.14-2.391-0.258c0.915-1.875,1.914-3.408,2.729-5.063
	c-0.517-0.517-0.938-0.955-1.174-1.213v-4.365c0.236-0.558,0.596-1.255,0.955-1.993c0.517,0.121,1.078,0.278,1.594,0.398
	c1.117-1.075,1.117-1.075,2.453-0.16c0.136-0.298,0.258-0.598,0.399-0.938c-0.539-0.098-1.017-0.197-1.813-0.337
	c0.797-0.578,1.354-0.957,1.988-1.415c-0.354-0.459-0.657-0.875-1.112-1.493h1.572c0.539-0.999-0.32-2.473,1.134-3.228
	c0.123,1.073,0.219,1.991,0.342,3.009c0.478-0.14,0.854-0.3,1.252-0.319c0.123-0.022,0.241,0.337,0.482,0.676
	c-0.521,0.379-0.959,0.699-1.156,0.837c-0.123,1.294,0,1.973,0.876,2.052c0.438-0.416,0.854-0.797,1.274-1.196
	c0.079,0.081,0.202,0.16,0.28,0.241c-0.123,0.458-0.241,0.916-0.381,1.354c0.701,0.241,1.577-0.337,2.155,0.836
	c-0.539,0.399-1.038,0.78-1.454,1.117c0.175,0.359,0.376,0.757,0.556,1.134c0.556-0.657,1.196-0.755,2.05-0.219
	c-0.556,1.016-1.073,1.934-1.55,2.812c0.556,0.478,1.235,0.935,1.773,1.572c0.478,0.578,1.354,0.977,1.056,2.153
	c-0.779,0.081-1.537,0.317-2.251,0.179c-0.718-0.14-1.397-0.659-2.352-1.156c0.495,0.938,0.876,1.634,1.196,2.253
	c1.073,0.276,1.993,0.495,2.689,0.675c0.596,0.479,1.016,0.819,1.476,1.178c0.057-0.021,0.096-0.062,0.136-0.101
	c0-0.319,0.04-0.637,0.04-0.996c0.319,0.02,0.521,0.039,0.757,0.039c0,0.199,0.04,0.379,0.062,0.578c0.118,0,0.219,0.06,0.337,0.219
	c-0.097,0.099-0.197,0.18-0.276,0.278c0.017,0.141,0.039,0.241,0.057,0.398c0.32-0.356,0.521-0.578,0.74-0.797
	c0.298,0.679,0.298,0.679,1.274,0.617c0.079,0.062,0.18,0.162,0.258,0.261c0.079,0.099,0.14,0.199,0.298,0.458v-1.415
	c-0.219-0.418-0.635-0.418-1.055-0.376c-0.118-0.261-0.259-0.521-0.337-0.78c-0.101-0.298-0.14-0.618-0.202-0.935
	c0.421-0.081,0.679-0.14,0.938-0.199c-0.596-0.18-1.174-0.34-1.914-0.559c0.18-0.438,0.342-0.755,0.5-1.097
	c-0.64-0.337-0.679-0.955-0.618-1.594h0.618c0.179,0.3,0.32,0.521,0.517,0.92c0.381-0.578,0.64-0.999,0.92-1.457
	c0.438,0.14,0.775,0.261,1.196,0.398c-0.28,0.099-0.482,0.18-0.719,0.261c0.237,0.716,0.438,1.393,0.657,2.19
	c0.101-0.32,0.158-0.478,0.219-0.657c0.241-0.079,0.478-0.18,0.736-0.298c-0.057-0.359-0.118-0.679-0.179-0.938
	c0.359-0.46,1.117,0.398,1.296-0.539c-0.219-0.278-0.478-0.598-0.775-0.977v-1.095c0.236-0.258,0.478-0.517,0.596-0.618
	c0-0.797,0.061-1.415-0.04-2.012c-0.118-0.817,0.197-1.316,1.038-1.535c0.04-0.418,0.079-0.797,0.079-1.196
	c0.237-0.219,0.495-0.418,0.758-0.657c0.237,0.258,0.438,0.438,0.596,0.617c-0.04,0.32-0.079,0.598-0.158,0.916
	c0.276,0.101,0.478,0.162,0.635,0.219c0.241-0.138,0.398-0.259,0.6-0.377c0.179,0.657-0.421,0.517-0.64,0.736
	c0,0,0.04,0.062,0.062,0.101c0.258,0.04,0.517,0.079,0.696,0.119c0.836,0.858-0.758,1.357-0.241,2.113
	c0.123-0.098,0.241-0.179,0.442-0.339c0.535,1.616,2.032,2.094,3.425,2.79c0.118-0.239,0.241-0.458,0.359-0.696
	c0.241,0.158,0.478,0.278,0.736,0.438c-0.118,0.458-0.219,0.856-0.337,1.274c0.158,0.339,0.32,0.696,0.478,1.016
	c0.898,0.079,0.916,0.101,1.437,0.797c-0.241-0.04-0.481-0.079-0.779-0.119c-0.158,0.18-0.32,0.377-0.416,0.517
	c-0.701,0.18-1.318,0.339-2.155,0.539c0.64,0.101,0.999,0.18,1.594,0.28c-0.595,0.456-0.994,0.775-1.432,1.095
	c0.32,0.238,0.635,0.458,0.955,0.696c0.657,0.039,1.336,0.079,1.914,0.118c0.319-0.236,0.556-0.416,0.876-0.635
	c0.337,0.318,0.6,0.578,0.858,0.797c-0.342,0.596-0.64,1.114-0.999,1.732h0.959v0.457c0.04-0.238,0.096-0.517,0.18-0.758
	c0.079-0.258,0.315-0.556,0.354-0.814c-0.438,1.555-0.354,2.97-0.04,4.542c0.083-0.157,0.241-0.259,0.32-0.418
	c0.079,0.02,0.18,0.02,0.258,0.02c-0.018-0.06-0.101-0.157-0.101-0.199c0.044,0.042,0.123,0.14,0.162,0.199
	c0.101,0,0.197,0.02,0.28,0.02c-0.123-0.298-0.241-0.576-0.359-0.876c-0.083-0.16-0.201-0.617-0.359-0.957
	c0.118,0.101,0.197,0.18,0.236,0.219c0.263,0.34,0.482,0.758,0.718,1.117c0.04,0.039,0.119,0.158,0.219,0.32
	c-0.219-0.32-0.456-0.699-0.539-0.999c0.162-0.039,0.263,0.34,0.398,0.34c0-0.18-0.398-0.559-0.478-0.738
	c-0.197-0.377-0.416-0.856-0.478-1.274c0.241,0.617,0.736,1.035,1.196,1.476c-0.079-0.201-0.201-0.381-0.298-0.561
	c0.097,0.162,0.377,0.359,0.657,0.6c0-0.159,0.04-0.319,0.04-0.479c-0.022-0.099-0.04-0.238-0.079-0.317
	c-0.04-0.062-0.101-0.219-0.18-0.359c0.118,0.119,0.18,0.158,0.298,0.281c0.04-0.241,0.062-0.44,0.079-0.68
	c-0.118-0.339-0.276-0.679-0.416-0.996c-0.162-0.398-0.342-0.856-0.578-1.235c-0.162-0.239-0.381-0.359-0.438-0.677
	c0.276,0.416,0.736,0.755,1.056,1.173c0.101,0.121,0.298,0.398,0.5,0.657c0-0.099,0.018-0.197,0.04-0.298
	c-0.219-0.418-0.5-0.876-0.6-1.075c-0.298-0.677-0.556-1.474-0.697-2.212c0.04-0.02,0.815,0.957,0.898,1.016
	c0.04-0.238-0.258-0.896-0.438-1.254c0.158,0.278,0.574,0.814,0.657,0.814c0.018-0.456-0.32-1.034-0.381-1.494
	c-0.057-0.418-0.14-1.255-0.039-1.653c0.28,0.18,0.337,1.115,0.459,1.415c0.101,0.278,0.259,0.559,0.399,0.837
	c0.101-1.373,0.197-2.47,0.298-2.47c0.28,0.278,0.499,0.479,0.718,0.677c-0.022-0.119-0.04-0.278-0.04-0.377
	c0.04,0.18,0.079,0.337,0.14,0.497c0.04-0.099,0.057-0.199,0.118-0.3c0.101-0.258,0.236-0.517,0.377-0.775
	c0.079-0.14,0.162-0.28,0.28-0.398c-0.517-0.101-0.994-0.18-1.516-0.258c0.04-0.539,0.04-0.977,0.079-1.555h2.391
	c0-0.101,0-0.179,0-0.258c-0.258-0.162-0.534-0.32-0.736-0.46c0.062-0.319,0.101-0.578,0.14-0.777
	c0.219-0.12,0.359,0.042,0.539,0.081c0-0.081-0.021-0.12-0.021-0.18c0.021-0.021,0.079,0.14,0.101,0.18c0.062,0,0.14,0,0.18,0.018
	c0-0.057-0.04-0.099-0.04-0.158c0.04,0.059,0.079,0.101,0.118,0.18c0.079,0.02,0.158-0.04,0.202,0
	c-0.022-0.16-0.044-0.359-0.083-0.46c0.04,0.14,0.162,0.339,0.28,0.578c0.04,0.081,0.119,0.121,0.18,0.16
	c0.04-0.398-0.022-0.875,0.022-1.235c0.04-0.239,0.158-0.598,0.236-0.977c-0.14-0.138-0.28-0.278-0.438-0.438
	c0.28-0.398,0.556-0.738,0.797-1.075c0.298,0.239,0.539,0.438,0.876,0.718c0.32-1.277-0.197-2.652,1.038-3.408
	c0.276,0.219,0.596,0.478,0.994,0.775v2.391c0.079-0.059,0.201-0.14,0.258-0.219c-0.136,0.14-0.136,0.32-0.258,0.46v0.258
	c0.679-0.121,1.235-0.241,1.931-0.359c-0.455,0.837-1.033,1.354-0.955,1.892c0.337,0.34,0.618,0.64,0.916,0.957
	c0.937-0.817,1.896-1.614,3.092-2.091c-0.499-0.201-0.999-0.42-1.318-0.558c-0.315-0.677-0.578-1.196-0.876-1.813
	c0.517-0.042,0.897-0.081,1.235-0.099c0.359,0.258,0.639,0.478,0.876,0.657c0.28-0.479,0.521-0.917,0.797-1.397
	c-0.657-0.017-1.375,0-1.69-0.935c0.977,0.199,1.651-0.138,2.409-0.458c-0.398-0.258-0.718-0.46-1.134-0.718
	c1.095-0.677,2.089,0.46,3.066-0.158v-0.78c-0.376-0.317-0.753-0.556-1.056-0.875c-0.14-0.158-0.157-0.399-0.276-0.775
	c0.657,0.079,1.113,0.138,1.673,0.197v-1.533c0.517-0.18,0.596-0.917,1.292-0.598c0.101,0.896,0.18,1.793,0.28,2.77
	c0.578-0.261,1.056-0.479,1.533-0.659c0.044-0.02,0.14,0.042,0.219,0.059c-0.097,0.32-0.219,0.64-0.337,0.938
	c-0.236,0.16-0.438,0.298-0.814,0.539c0.657,0.337,1.196,0.598,1.853,0.916c0.276,0.438,0.635,0.977,1.034,1.574h1.835
	c0.04,0.221,0.057,0.379,0.079,0.497c-1.078,0.78-2.094,1.535-3.206,2.352c0.337,0.379,0.578,0.64,0.814,0.917
	c0.6-0.44,0.876-1.294,1.875-0.817c-0.123,0.438-0.202,0.837-0.28,1.196c0.618,0.398,1.354-0.101,1.932,0.438
	c-0.618,0.836-1.494,1.196-2.527,1.435c0.079,0.26,0.118,0.458,0.158,0.659c0.04,0.219,0.04,0.456,0.062,0.635
	c0.775,0.16,1.533,0.339,2.251,0.48c0.04,0.398,0.079,0.676,0.118,0.974c0.438,0.219,0.876,0.42,1.336,0.64
	c-0.04,0.298-0.062,0.539-0.101,0.817c-0.298,0.02-0.517,0.039-0.758,0.059c-0.219-0.239-0.438-0.458-0.635-0.696
	c-0.179,0.258-0.319,0.497-0.521,0.797c-0.478-0.379-0.876-0.699-1.252-0.999c-0.101,0.123-0.162,0.221-0.258,0.32
	c-0.062,0.079-0.162,0.14-0.202,0.18c0.14,0.16,0.258,0.28,0.42,0.459c-0.302,0.138-0.539,0.237-0.78,0.337
	c0.079,0.16,0.18,0.32,0.359,0.598c1.117,0.14,2.33,0.261,3.587,0.399c0.101,0.199,0.219,0.418,0.337,0.617
	c0.779,0.02,1.493,0.06,2.291,0.099c-0.04,0.381-0.079,0.659-0.079,0.858c-0.736,0.158-1.354,0.298-2.19,0.458
	c0.556,0.317,0.977,0.539,1.353,0.777c0.359,0.219,0.718,0.418,1.016,0.679c0.258,0.219,0.298,0.517-0.179,0.836
	c-1.354-0.64-2.948-1.016-4.003-2.273c-0.061,0.379-0.14,0.758-0.202,1.137c-0.376,0.039-0.696,0.039-1.033,0.059
	c0.14-0.856-0.342-1.314-1.139-1.555c-0.557,0.062-0.797,0.281-0.714,0.819c0.517,0.298,1.073,0.618,1.634,0.935
	c0.758,1.075,1.954,1.114,3.188,1.097c0.237,0.239,0.478,0.478,0.714,0.736c-0.197,0.18-0.315,0.28-0.416,0.379
	c0.398,0.379,0.815,0.777,1.252,1.215c-0.039,0.298-0.079,0.618-0.118,0.977c-0.319,0.021-0.517,0.021-0.758,0.04
	c-0.219-0.239-0.398-0.478-0.635-0.677c-0.062-0.06-0.241-0.02-0.398-0.042c0.236,0.342,0.455,0.618,0.617,0.819
	c0.456,0.197,0.815,0.359,1.016,0.416c0.32,0.421,0.596,0.758,0.836,1.058c0.955-0.278,1.875-0.536,2.79-0.797
	c-0.061-0.039-0.079-0.081-0.123-0.12c-0.136-0.04-0.276-0.099-0.376-0.119c-0.062-0.12-0.018-0.199,0.061-0.297
	c-0.079-0.141-0.101-0.32-0.079-0.52c-0.28,0.219-0.561,0.458-0.977,0.837v-1.196c-0.74-0.159-0.701,0.936-1.577,0.458
	c-0.039-0.775,0.876-1.075,1.275-1.611c0.381-0.521,1.397-0.68,1.515-1.516c-0.478,0.359-0.898,0.656-1.354,0.977
	c-0.123-0.16-0.219-0.28-0.341-0.421c0.28-0.277,0.561-0.517,0.78-0.797c0.236-0.298,0.398-0.617,0.617-0.935
	c0.775-0.059,1.415-0.261,1.971-0.537c0.639-0.3,1.195-0.659,1.594-1.237h-1.056c-0.298,0.261-0.618,0.539-0.955,0.839
	c-0.241-0.221-0.42-0.381-0.578-0.539c-0.915,0.416-1.813,0.836-2.772,1.255c-0.097-0.817,1.156-0.777,1.195-1.435l-1.252-0.398
	c0.018-0.062,0.04-0.121,0.04-0.16c0.477-0.039,0.916-0.081,1.476-0.12c0.617-0.696,1.651-0.556,2.588-0.637
	c0.241-0.178,0.477-0.34,0.596-0.438c-0.197-0.357-0.355-0.677-0.517-1.016c-0.298,0.179-0.596,0.339-0.876,0.497
	c-0.14-0.079-0.28-0.158-0.438-0.258c-0.298,0.199-0.517,0.617-0.999,0.14c0.32-0.697,1.235-0.957,1.835-1.375l2.251-0.898
	l-0.062-0.138h-1.432c-0.517-0.239-0.959-0.438-1.437-0.637c0-0.121,0-0.259,0.04-0.438c0.438-0.04,0.819-0.081,1.257-0.14
	c-0.022-0.298-0.061-0.539-0.101-0.997c0.521,0.379,0.858,0.637,1.178,0.878c0.18-0.26,0.416-0.578,0.657-0.917
	c-0.876-0.398-1.734-0.718-2.194-1.535c0.46-0.039,0.819-0.039,1.156-0.059c0.42-0.637,1.056-1.097,2.072-1.434
	c-0.236-0.259-0.438-0.519-0.714-0.876c0.495-0.022,0.876-0.042,1.274-0.062c0.04-0.499,0.079-1.016,0.118-1.555
	c0.32,0.101,0.517,0.18,0.718,0.241c0.057,0.438,0.119,0.836,0.18,1.274c0.416-0.079,0.758-0.14,1.314-0.241
	c-0.438,0.479-0.736,0.819-1.095,1.196c0.18,0.261,0.359,0.499,0.539,0.779c0.416-0.241,0.775-0.438,1.095-0.639
	c0.635,0.499-0.241,0.618-0.241,0.937c0.46,0,0.898-0.02,1.336,0c0.14,0,0.258,0.079,0.46,0.16c-0.438,0.3-0.718,0.478-0.819,0.537
	c-0.14,0.438-0.197,0.718-0.319,1.136c0.617-0.258,1.156-0.479,1.695-0.698c0.118,0.219,0.201,0.359,0.28,0.519
	c-0.359,0.359-0.718,0.719-1.078,1.115c0.679,0.679,1.835,0.977,2.194,1.835c-0.162,0.101-0.241,0.14-0.359,0.199
	c-0.083-0.121-0.162-0.239-0.18-0.3c-0.42,0.18-0.679,0.3-0.92,0.399c-0.618-0.239-1.134-0.438-1.791-0.677
	c0.022,0.339,0.039,0.578,0.061,0.817c0.456,0.238,0.876,0.459,1.292,0.696l0.062-0.138c0.858,0.239,1.712,0.458,2.549,0.696
	c0.32,0.121,0.561-0.558,0.999,0.06c-0.398,0.28-0.797,0.578-1.217,0.878c0.14,0.177,0.28,0.398,0.438,0.598
	c-0.136,0.119-0.258,0.199-0.337,0.278c-0.556-0.339-1.117-0.677-1.752-1.075c-0.123,0.478-0.219,0.817-0.342,1.255
	c-0.297-0.138-0.455-0.219-0.657-0.3c-0.18-0.099-0.359-0.18-0.635-0.298c-0.083,0.259-0.123,0.418-0.179,0.598
	c1.752,0.617,3.683,0.836,5.137,1.872c0.14-0.278,0.263-0.517,0.398-0.736c0.381,0.197,0.701,0.359,1.016,0.517
	c0.281-0.14,0.482-0.258,0.797-0.438c-0.355-0.398-0.657-0.758-1.073-1.235c0.478,0.04,0.797,0.062,1.156,0.079
	c0.04-0.438,0.118-0.836,0.158-1.196c0.258-0.079,0.46-0.138,0.696-0.219c0.062,0.558,0.14,1.016,0.18,1.496h1.594
	c1.095,0.755,2.133,1.434,3.188,2.152c0.14-0.241,0.28-0.46,0.398-0.698c-0.819-0.438-1.572-0.817-2.071-1.075
	c-0.736-0.657-1.274-1.117-1.813-1.575c0.416-0.458,0.46-0.997,1.078-1.255c0.736,0.497,0.955,1.333,1.892,1.712
	c0.276-0.657-0.259-1.055-0.679-1.474c0.281-0.18,0.478-0.32,0.679-0.458c0.219,0.118,0.359,0.219,0.556,0.337
	c0.101-0.179,0.202-0.337,0.28-0.517c-0.6-0.398-1.178-0.758-1.734-1.156c-0.079-0.04-0.079-0.18-0.14-0.298
	c0.28-0.101,0.517-0.202,0.779-0.3v-0.578c-0.101-0.039-0.219-0.098-0.341-0.138c-0.14-0.062-0.276-0.14-0.398-0.18
	c-0.04-0.499,0.28-0.558,0.74-0.46c0.219,0.241,0.456,0.5,0.714,0.797c0.14-0.219,0.219-0.377,0.302-0.539
	c0.197,0.039,0.376,0.061,0.517,0.081c0.158-0.141,0.28-0.239,0.398-0.34c0.46-0.039,0.916-0.079,1.354-0.118
	c-0.517-0.258-0.994-0.478-1.555-0.758c0.302-0.16,0.481-0.28,0.639-0.359c-0.477-0.199-0.955-0.398-1.594-0.657
	c0.42-0.14,0.64-0.199,0.836-0.28c-0.158-0.079-0.28-0.179-0.459-0.278c0.219-0.199,0.381-0.357,0.539-0.519
	c-0.158-0.219-0.276-0.398-0.438-0.618c0.162-0.079,0.32-0.158,0.478-0.258c0.521,0.339,0.539,0.797,0.6,1.215
	c0.359-0.02,0.657-0.04,1.016-0.079c0.119,0.477,0.219,0.896,0.337,1.333c0.162-0.04,0.32-0.079,0.539-0.118
	c0.04-0.64,0.062-1.257,0.119-2.072c0.319-0.718,1.257-1.616,0.302-2.632c0.438-0.357,0.797-0.716,1.196-1.075
	c-0.083-0.02-0.123-0.04-0.201-0.059c0.101-0.241,0.201-0.478,0.359-0.898c0.556,0.78,0.977,1.375,1.354,1.875
	c0.039,0.377,0.123,0.696,0.123,0.994c0.018,0.32-0.04,0.64-0.062,0.959c0.14,0.099,0.298,0.219,0.417,0.298
	c-0.197,0.539-0.377,0.977-0.557,1.434c0.381,0.02,0.679,0.04,0.955,0.059c0.083,0.359,0.14,0.64,0.201,0.938
	c0.837-0.199,0.736-0.777,0.955-1.355c0.381,0.339,0.639,0.578,0.897,0.797c0.141-0.138,0.298-0.3,0.657-0.617
	c-0.079,0.698-0.118,1.195-0.197,1.714c-0.162,0.099-0.381,0.239-0.6,0.359c-0.04,0.298-0.057,0.596-0.079,0.677
	c-0.916,0.777-1.712,1.395-2.571,2.091c0.779,0.179,0.959-0.718,1.655-0.379c0.359-0.559,1.073-0.239,1.594-0.418
	c0.276-0.32,0.557-0.637,0.876-1.036c0.398,0.856-0.28,1.754,0.679,2.391c-1.038,0.677-1.993,1.316-2.952,1.934
	c0.359,0.197,0.64,0.377,0.876,0.517c0.521-0.239,0.74-0.797,1.498-0.5c-0.062,0.241-0.101,0.479-0.18,0.819
	c0.438-0.46,0.775-0.819,1.156-1.218c0.674,0.64,0.517,0.999,0.04,1.316l0.854,0.3c0.101,0.298,0.179,0.578,0.258,0.797
	c-0.118,0.119-0.219,0.219-0.219,0.219c0.202,0.416,0.381,0.775,0.5,1.036c0.517,0.059,0.955,0.099,1.655,0.177
	c-0.499,0.359-0.819,0.6-1.178,0.878c0,0.578,0.499,1.154,0.241,1.793c0,0.04,0.101,0.102,0.197,0.18
	c0.241-0.28,0.481-0.538,0.74-0.797h1.095c0.061,0.418-0.359,0.719-0.158,1.156c0.079,0.197-0.302,0.578-0.561,0.814
	c-0.28,0.241-0.657,0.398-0.938,0.561v1.572c0.342-0.101,0.657-0.179,0.959-0.258c0.018-0.398,0.057-0.738,0.079-1.017
	c0.258-0.219,0.5-0.379,0.736-0.558c0.18,0.179,0.342,0.339,0.517,0.497c0.359-0.618,0.223-1.454,1.195-1.792
	c0.6,0.458-0.175,0.758-0.118,1.135c0.18,0.101,0.359,0.201,0.517,0.28c0.044,0.596,0.101,1.156,0.162,1.833
	c0.635-0.398,1.117-0.699,1.634-1.019c-0.42-0.259-1.077,0.042-1.257-0.576c0.679-0.159,1.357-0.317,2.071-0.479
	c-0.157-0.138-0.258-0.236-0.455-0.438c0.477-0.099,0.836-0.18,1.314-0.278c-0.438-0.199-0.837-0.379-1.095-0.52
	c-0.18-0.477-0.342-0.896-0.499-1.313c0.241-0.118,0.398-0.219,0.6-0.319c0.315,0.24,0.596,0.42,0.753,0.538
	c0.5-0.159,0.88-0.28,1.156-0.379c-0.517-0.3-1.112-0.637-1.73-0.996c0.057-0.239,0.136-0.438,0.197-0.677
	c-0.298-0.221-0.657-0.458-0.977-0.699v-1.673c0.438-0.118,0.819-0.219,1.235-0.337c0.359,0.119,0.736,0.237,1.078,0.357
	c0.319-0.081,0.596-0.16,0.915-0.258c-0.477-0.519-0.876-0.977-1.296-1.456c0.18-0.118,0.32-0.219,0.438-0.318
	c-0.534-0.519-1.095-1.055-1.69-1.653c0.359-0.179,0.596-0.28,0.955-0.459c0.6,0.499,1.196,0.977,1.875,1.496
	c0.219,0.039,0.557,0.081,0.837,0.16c0.319,0.101,0.617,0.258,0.994,0.438c0.123-0.239,0.162-0.379,0.201-0.478
	c-0.561-0.381-1.055-0.738-1.555-1.077c-0.376-0.101-0.758-0.199-1.196-0.32c0.158-0.158,0.258-0.219,0.359-0.298
	c-0.5-0.278-0.977-0.578-1.437-0.836c-0.399-0.898,0.578-1.296,0.88-1.973c1.033,0.659,1.393,1.693,2.487,2.192
	c0.539-0.797-0.376-1.156-0.735-1.752c0.157-0.219,0.319-0.44,0.517-0.698c0.359,0.16,0.618,0.258,0.876,0.379
	c0.083-0.28,0.162-0.478,0.241-0.679c-0.797-0.477-1.594-0.955-2.509-1.513c0.359-0.239,0.635-0.418,0.915-0.598
	c-0.158-0.398-0.319-0.777-0.477-1.176c0.14-0.2,0.276-0.418,0.517-0.699c0.438,0.44,0.819,0.797,1.196,1.156
	c0.28-0.337,0.517-0.618,1.038-0.236c0.018,0.396,0.057,0.814,0.079,1.235c0.236-0.578,0.236-1.117,0.258-1.675
	c0.018-0.099,0.219-0.219,0.32-0.317c0.14,0.118,0.219,0.197,0.315,0.278c0.18-0.081,0.381-0.179,0.539-0.278
	c0.28,0.118,0.539,0.236,0.92,0.398v-0.519c-0.758-0.261-1.437-0.458-2.273-0.758c0.478-0.177,0.797-0.3,1.117-0.438
	c-0.819-0.199-1.516-0.497-2.133-1.036c0.376-0.18,0.639-0.241,0.897,0.059c0.237,0.278,0.478,0.199,0.876-0.04
	c-0.517-0.219-0.937-0.379-1.357-0.558c0.162-0.199,0.319-0.377,0.46-0.556c-0.062-0.28-0.141-0.519-0.158-0.78
	c-0.022-0.079,0.14-0.158,0.276-0.298c0.263,0.241,0.499,0.438,0.661,0.598c0.04,0.418,0.079,0.758,0.118,1.097
	c0.32-0.14,0.578-0.26,0.876-0.381c0.259,0.219,0.478,0.398,0.64,0.539c0.236,0.718-0.162,1.476,0.398,2.072
	c0.876-0.099,0.797-0.677,1.073-1.095c-0.197-0.039-0.337-0.059-0.517-0.101c-0.022-0.755-0.04-1.513-0.04-2.269
	c0-0.14,0.04-0.32,0.141-0.42c0.617-0.736,0.696-1.572,0.657-2.271c-0.219-0.339-0.359-0.559-0.46-0.699
	c0.5-0.456,0.916-0.836,1.257-1.134c0.057-0.398,0.079-0.696,0.14-1.036c0.337,0.138,0.557,0.219,0.775,0.317
	c0.04,0.381,0.04,0.718,0.079,0.977c0.438,0.259,0.858,0.478,1.235,0.696c-0.197,0.32-0.359,0.579-0.478,0.797
	c0.241,0.261,0.438,0.46,0.657,0.679c-0.219,0.359-0.456,0.657-0.618,0.997c-0.04,0.081,0.04,0.199,0.04,0.317
	c0.202-0.138,0.359-0.258,0.561-0.398c0.578,0.858-0.14,1.358-0.679,1.975c0.179,0.099,0.28,0.178,0.398,0.197
	c0.18,0.022,0.359-0.02,0.517-0.02c0.123,0,0.241,0.059,0.399,0.081c0.083,0.297,0.162,0.578,0.219,0.856
	c0.342,0.079,0.618,0.121,0.938,0.199c0.039-0.517,0.079-0.937,0.118-1.415c0.28,0,0.442-0.022,0.521-0.022
	c0.32,0.3,0.596,0.578,0.894,0.878c0.18-0.3,0.302-0.48,0.46-0.756c0.241,0.219,0.42,0.357,0.6,0.517
	c0.477-0.079,0.955-0.16,1.432-0.258c0.079-0.022,0.118-0.18,0.179-0.259c-0.258-0.123-0.499-0.201-0.775-0.3
	c0.04-0.18,0.04-0.317,0.079-0.458c0.438-0.04,0.797-0.081,1.213-0.121c-0.18-0.219-0.276-0.359-0.376-0.519
	c0.578-0.337,1.274,0.578,1.695-0.099c0.18-0.558-0.999-0.677-0.521-1.277c0.219,0,0.42,0.022,0.661,0.042
	c0.079-0.479,0.079-0.977,0.916-1.156c0.118,0.418,0.236,0.797,0.319,1.176c0.337,0.118,0.635,0.239,1.034,0.398
	c-0.319,0.118-0.517,0.199-0.679,0.259c-0.079,0.696,0.841,0.418,1.038,0.797l0.639,1.016c0.315-0.118,0.596-0.199,0.894-0.298
	c0.14,0.18,0.241,0.298,0.381,0.497c-0.359,0.199-0.679,0.398-1.017,0.578c-0.657,0.317-0.74,0.479-0.499,1.277
	c0.32-0.18,0.64-0.381,0.955-0.561c0.083-0.04,0.241,0,0.399,0c-0.118,0.28-0.237,0.499-0.315,0.718
	c0.416,0.101,0.797,0.199,1.235,0.298c-0.561,0.698-1.397,0.797-2.115,0.999c0.32,0.716,1.178,0.517,1.795,0.677
	c0.237,0.238,0.438,0.477,0.679,0.698c0.236,0.197,0.534,0.337,0.797,0.517c-0.661,0.079-1.239,0.059-1.795-0.02
	c-0.219-0.042-0.398-0.199-0.557-0.278c-0.162,0.317-0.341,0.617-0.561,0.994c0.74,0.201,1.516,0.398,2.273,0.657
	c0.718,0.219,1.594,0.121,2.273,0.46c-0.28,0.418-1.239-0.02-1.06,0.736c0.359,0.18,0.718,0.398,1.257,0.679
	c-1.437,0.337-1.993-0.558-2.869-0.836c-0.141,0.118-0.281,0.239-0.517,0.438c-0.359-0.28-0.679-0.517-1.038-0.777
	c-0.241,0.02-0.477,0.081-0.876,0.14c1.156,1.016,2.409,1.614,3.846,1.912c0.258,0.5,0.477,0.938,0.696,1.336
	c-0.197,0.199-0.32,0.337-0.478,0.517c0.241,0.16,0.517,0.3,0.718,0.499c0.197,0.18,0.359,0.418,0.517,0.637
	c0.241-0.099,0.438-0.199,0.6-0.278c0.039-0.399,0.079-0.758,0.157-1.196c0.359,0.258,0.64,0.438,0.758,0.517
	c0.797-0.438,1.516-0.814,2.172-1.213c0.158-0.101,0.219-0.32,0.337-0.521c-0.64-0.177-1.134-0.337-1.712-0.495v-1.675
	c-0.28-0.121-0.521-0.219-0.758-0.3v-0.458c0.517,0.099,0.994,0.221,1.533,0.339c0.118-0.101,0.259-0.219,0.42-0.359
	c-0.302-0.359-0.561-0.677-0.836-1.016l0.359-0.298c-0.442-0.3-0.797-0.618-0.64-1.137h1.516c0.359-0.239,0.797-0.519,1.235-0.797
	c-0.876-0.618-0.876-0.618-1.055-1.316c0.617,0.14,1.195,0.28,1.831,0.438c0.022-0.814-0.539-1.294-1.196-1.831
	c0.46-0.101,0.78-0.18,1.095-0.241c-0.039-0.179-0.079-0.317-0.096-0.497c0.337-0.042,0.635-0.098,0.994-0.16
	c-0.258-0.258-0.477-0.478-0.736-0.758c0.237-0.118,0.438-0.219,0.635-0.337c0.32,0.157,0.578,0.278,0.797,0.376
	c0.319-0.158,0.6-0.298,0.88-0.438c-0.201-0.197-0.438-0.398-0.679-0.618c0.32-0.118,0.517-0.197,0.814-0.298
	c-0.416-0.241-0.753-0.418-1.095-0.617c0.022-0.32,0.04-0.618,0.04-0.876c0.28-0.101,0.46-0.162,0.657-0.241
	c-0.534-0.398-0.534-0.836-0.175-1.274c0.04-0.04,0.158-0.04,0.259-0.061c0.057,0.219,0.118,0.44,0.197,0.718
	c0.5,0.079,0.999,0.16,1.494,0.219c0.04,0.14,0.123,0.28,0.162,0.42c0.456-0.101,0.836-0.241,0.635-0.699
	c-0.517-0.398-1.073-0.816-1.73-1.316c0.517-0.099,0.815-0.158,0.994-0.197c-0.42-0.219-0.915-0.479-1.454-0.757
	c0.219-0.202,0.337-0.3,0.398-0.359c-0.18-0.241-0.359-0.478-0.517-0.718c0.04-0.04,0.079-0.079,0.119-0.118
	c0.28,0.099,0.556,0.197,0.814,0.298c0.18-0.398,0.219-0.398,0.701-0.677c0.758,0.199,0.276,0.836,0.635,1.215
	c0.241-0.101,0.398-0.16,0.539-0.219c-0.018-0.199-0.04-0.359-0.062-0.519c0.482-0.079,0.88-0.138,1.318-0.219
	c-0.179-0.637-1.156-1.016-0.758-1.714h0.635c-0.158-0.276-0.315-0.537-0.477-0.775c0.201-0.241,0.359-0.46,0.499-0.618
	c-0.14-0.258-0.258-0.46-0.258-0.499c0.477-0.677,0.876-1.215,1.252-1.752c0.74,0.158,0.359,0.677,0.618,0.955
	c0.28,0.3,0.639,0.559,0.999,0.876c-0.118,0.162-0.28,0.32-0.359,0.42c0.079,0.596,0.141,1.117,0.219,1.833
	c-0.022-0.042,0.101,0.079,0.18,0.199c0.101,0.118,0.158,0.258,0.219,0.337c-0.337,1.038-0.219,1.515,0.539,2.133
	c0.04-0.398,0.04-0.758,0.079-1.196c0.398-0.079,0.758-0.158,1.196-0.238c0.201-0.359,0.398-0.758,0.639-1.137
	c0.18,0,0.315,0.022,0.315,0.022c0.162,0.677,0.28,1.294,0.438,1.993c-0.258,0.158-0.574,0.357-0.894,0.556l-0.14,0.657
	c-0.337,0.079-0.639,0.14-0.937,0.219c0.022,0.062,0.022,0.121,0.022,0.18c0.674,0.16,1.393,0.32,2.111,0.499
	c0.118,0.119,0.28,0.259,0.398,0.377c0.258-0.337,0.478-0.618,0.758-0.955c0.674,0.618,0.04,1.156,0.118,1.695
	c0.202,0.057,0.376,0.118,0.618,0.197c-0.539,0.696-1.296,1.038-2.054,1.395c0.123,0.16,0.202,0.3,0.28,0.418
	c0.398,0.061,0.78,0.101,1.274,0.16c-0.315,0.359-0.556,0.618-0.836,0.896c0.022,0.219,0.04,0.46,0.079,0.898
	c0.639-0.617,1.077-1.117,1.594-1.574c0.141-0.138,0.359-0.219,0.578-0.357c0.32,0.497,0.578,0.915,0.819,1.294
	c-0.241,0.576-0.797,0.738-1.336,0.935c0.022,0.618-0.858,0.539-1.156,0.957c-0.258,0.339-0.898,0.519-1.375,0.758
	c0.28,0.3,0.477,0.479,0.679,0.716c0.158-0.775,0.797-1.075,1.612-1.095c0.46-0.556,0.898-0.977,1.813-0.997v0.677
	c-0.276,0.101-0.517,0.202-0.797,0.32c-0.04,0.337-0.079,0.696-0.097,1.095c-0.219,0.219-0.499,0.5-0.836,0.837
	c0.237,0.219,0.416,0.398,0.578,0.539c0.438-0.239,0.797-0.458,1.152-0.657c0.359,0.18,0.618,0.298,0.841,0.399v1.454
	c-0.302,0.199-0.539,0.359-0.797,0.519c0.079,0.177,0.118,0.317,0.158,0.458c-0.955,0.957-1.038,1.077-0.977,1.914
	c0.297-0.339,0.539-0.657,0.819-0.917c0.158-0.121,0.438-0.138,0.635-0.2c0.6,0.778-0.438,0.977-0.596,1.354
	c0.158,0.342,0.276,0.578,0.398,0.819c0.04,0.119,0.118,0.239,0.276,0.539c0.083-0.679,0.162-1.137,0.219-1.594
	c0.263,0,0.381-0.022,0.539-0.022c0.162,0.241,0.359,0.46,0.561,0.718c0.298-0.18,0.517-0.298,0.714-0.418
	c0.679,0.519-0.337,0.716-0.158,1.137c0.101,0.138,0.241,0.278,0.359,0.438c-0.578,0.239-1.135,0.458-1.954,0.797
	c0.679-0.061,1.078-0.101,1.476-0.101c0.398-0.02,0.775-0.02,0.994-0.02c0.916-0.258,1.712-0.497,2.431-0.738
	c-0.456-0.239-1.196,0.16-1.791-0.298c0.617-0.379,1.252-0.101,1.791-0.298c0.718-0.219,1.437-0.398,2.155-0.6
	c0.04-0.018,0.079-0.079,0.079-0.099c-0.359-0.099-0.718-0.199-1.218-0.339c0.398-0.18,0.618-0.278,0.819-0.359v-1.115
	c-0.478,0.479-0.876,0.878-1.318,1.316c-0.237-0.062-0.495-0.101-0.736-0.162c-0.377,0.101-0.736,0.201-1.375,0.381
	c0.359-0.398,0.521-0.578,0.679-0.777c-0.875-0.479-1.117,0.559-1.795,0.458c0.28-1.215,1.318-1.353,2.475-1.296
	c0.354-0.219,0.696-0.416,1.016-0.617c-0.044-0.237-0.062-0.438-0.101-0.618c-0.719-0.079-1.336,0.738-2.151-0.059
	c0.753-0.219,1.432-0.418,2.032-0.598c-0.162-0.079-0.398-0.157-0.701-0.298c0.819-0.499,1.896,0.119,2.492-0.539
	c-0.438-0.199-0.836-0.379-1.196-0.539c0.158-0.278,0.241-0.458,0.359-0.677c-0.797,0-0.64,0.917-1.516,0.758
	c0.062-0.261,0.118-0.479,0.202-0.699l-0.162-0.059c-0.359,0.418-0.718,0.817-1.156,1.294c-0.118-0.219-0.236-0.377-0.298-0.537
	c-0.057-0.14-0.057-0.3-0.101-0.497c-0.478,0.317-0.438,0.915-1.196,1.034c0.083-0.377,0.123-0.677,0.219-1.115
	c0.521-0.379,1.06-0.856,1.734-1.215c0.639-0.339,1.375-0.578,2.115-0.777c0.596-0.16,1.235-0.2,1.91-0.3
	c0.039-0.278,0.079-0.497,0.162-0.836c-0.539,0.18-0.897,0.28-1.318,0.42c-0.119-0.398-0.237-0.699-0.355-1.137
	c-0.561,0.34-0.999,0.657-1.476,0.918c-0.101,0.057-0.32,0-0.639,0c0.28-0.34,0.477-0.578,0.679-0.797
	c-0.6-0.202-1.196-0.46-1.375-1.137c0.459,0.079,0.836,0.239,1.134,0.16c1.139-0.258,2.273-0.559,3.35-0.938
	c0.557-0.199,0.876-0.617,0.596-1.117c-0.775,0.32-1.515,0.618-2.251,0.917c-0.118-0.219-0.219-0.379-0.258-0.497
	c-0.32,0.018-0.6,0.018-0.955,0.04c0.517-0.657,1.634-1.437,2.588-1.835c-0.757-0.259-1.156-0.775-1.633-1.472
	c0.718,0.039,1.235,0.057,1.712,0.098c0.162-0.219,0.32-0.44,0.517-0.659c-0.315-0.057-0.574-0.099-0.915-0.158
	c-0.079-0.16-0.158-0.34-0.28-0.559c0.679-0.04,1.195-0.059,1.813-0.099c-0.158-0.162-0.258-0.241-0.315-0.339
	c-0.061-0.099-0.123-0.219-0.258-0.479c0.618,0.201,1.034,0.339,1.55,0.499c0.18-0.258,0.359-0.499,0.482-0.679
	c-0.32-0.398-1.06-0.456-0.797-1.034c0.298,0.018,0.595,0.018,0.955,0.059c0.079-0.458,0.118-0.838,0.158-1.276
	c0.241,0,0.398-0.018,0.6-0.018c0.197,0.497,0.376,0.994,0.517,1.415h1.038c-0.28,0.317-0.478,0.537-0.74,0.814
	c0.46,0.219,0.88,0.438,1.498,0.738c-0.64,0.099-1.038,0.16-1.437,0.219c0.477,0.878,1.195-0.239,1.673,0.239
	c0,0.18-0.04,0.339-0.057,0.5c0.574,0.02,1.135-0.438,1.59,0.118c-0.696,0.479-1.353,0.937-2.049,1.415
	c0.158,0.28,0.298,0.5,0.438,0.738c0.398-0.238,0.757-0.458,1.213-0.738c0.062,0.46,0.123,0.777,0.18,1.156h1.117
	c-0.539,0.718-1.393,0.696-2.071,0.938c-0.399-0.079-0.797-0.14-1.432-0.241c1.095,0.797,2.229,1.097,3.385,1.476
	c-0.202,0.637,1.174,0.478,0.994,1.156h-1.73c-0.022-0.062-0.101-0.219-0.18-0.479c-0.42,0.519-0.639,0.817-0.977,1.237
	c1.69,0.376,3.285,0.736,5.02,1.134c-0.977,0.258-0.977,0.258-1.336,0.657c0.438,0.32,0.88,0.64,1.336,0.957
	c-0.18,0.138-0.298,0.219-0.377,0.278c-0.876-0.398-1.717-0.797-2.51-1.156c-0.263,0.14-0.481,0.261-0.679,0.381
	c-0.359-0.32-0.657-0.6-0.999-0.917c-0.315,0.04-0.657,0.081-1.134,0.121c0.618,0.935,1.734,1.213,2.413,1.752
	c0.657,0.12,1.235,0.241,1.551,0.3c0.481,0.677,0.836,1.154,1.195,1.653c-0.276,0.118-0.517,0.199-0.797,0.298
	c0.521,0.438,0.999,0.878,1.515,1.316c0.18-0.04,0.399-0.081,0.679-0.121c0.118,0.121,0.197,0.241,0.319,0.339
	c0.158,0.138,0.315,0.239,0.478,0.339c0.635-0.241,0.635-0.241,1.095-0.718c-0.42-0.376-0.819-0.758-1.217-1.156
	c-0.018,0,0.022-0.059,0.083-0.14c0.359,0.022,0.714,0.062,1.073,0.081c0.398-0.478,0.083-1.196,0.758-1.575
	c0.32,0.6,0.6,1.156,0.876,1.715c0.381-0.02,0.661-0.042,1.235-0.059c-0.376,0.278-0.556,0.398-0.714,0.537
	c-0.14,0.14-0.258,0.3-0.42,0.479c0.639,0.197,1.134,0.359,1.656,0.517c-0.04,0.04-0.079,0.079-0.123,0.101
	c0.32,0.258,0.6,0.497,0.88,0.757c-0.039,0.158-0.083,0.298-0.123,0.517c0.64-0.16,1.156-0.298,1.756,0.14
	c-0.88,0.578-1.673,1.115-2.553,1.673c0.241,0.337,0.481,0.697,0.797,1.176c0.28-0.539,0.478-0.938,1.117-1.058
	c-0.017-0.158-0.14-0.197-0.158-0.377c0.539-0.079,0.714,0.158,0.977,0.337c0.018-0.079,0.018-0.158,0.018-0.219
	c0.241-0.02,0.42-0.02,0.561-0.039c0.236,0.337,0.477,0.657,0.775,1.036c0.298-0.618,0.736-0.975,1.494-0.357
	c0.04-0.219,0.04-0.44,0.258-0.618c0.022,0.018,0.022,0.018,0.062,0.04c0.04-0.258,0.079-0.519,0.118-0.78
	c-0.197-0.057-0.359-0.138-0.578-0.219c0.302-0.079,0.42-0.099,0.618-0.158c0.04-0.121,0.04-0.241,0.083-0.359
	c-0.6-0.238-1.156-0.499-1.795-0.777c0.679-0.677,1.077,0.339,1.633,0.059c0.022-0.736-0.876-0.376-1.077-0.578
	c0.101-0.456,0.201-0.836,0.28-1.213c0.061-0.18,0.162-0.359,0.241-0.578c0.836,0.497,0.556,1.156,0.718,1.712
	c0.079-0.02,0.136-0.059,0.219-0.101c0.354-2.569,0.876-4.98,3.009-5.836c0,0.318,0.04,0.598,0.04,0.918
	c0.635-0.48,0.797-1.139,0.933-1.774c0.263,0.018,0.42,0.04,0.618,0.04c0.162,0.458,0.28,0.875,0.42,1.294
	c0.337,0.239,0.696,0.479,1.016,0.699c-0.158,0.298-0.28,0.517-0.359,0.696c0.241,0.241,0.438,0.438,0.64,0.657
	c0.079,0.578-1.038,0.758-0.679,1.395c0.201-0.16,0.398-0.317,0.657-0.519c0.258,0.797,0.062,1.397-0.657,1.914
	c0.201,0.16,0.398,0.298,0.499,0.379h0.758c0.04,0.339,0.079,0.637,0.096,0.917c0.359,0.079,0.662,0.14,0.977,0.197
	c0.061-0.497,0.123-0.955,0.18-1.393c0.28-0.021,0.398-0.039,0.521-0.039c0.298,0.278,0.574,0.556,0.876,0.876
	c0.158-0.28,0.258-0.46,0.376-0.679c0.241,0.04,0.42,0.081,0.679,0.14c-0.258,0.418-0.477,0.797-0.696,1.196
	c0.079,0.101,0.197,0.239,0.399,0.438c-0.482,0.241-0.88,0.42-1.257,0.598c0.14,0.221,0.298,0.458,0.517,0.817
	c-0.578,0.34-1.095,0.618-1.634,0.938c0.46,0.079,0.977,0.239,1.358,0.258c-0.062,0.14,0.018,0.219-0.044,0.339
	c0.241-0.042,0.481-0.081,0.701-0.14c0.158,0.059,0.32,0.14,0.517,0.239c0.079-0.376,0.118-0.657,0.157-0.994
	c0.28,0,0.482,0.018,0.819,0.018c-0.101,0.519-0.202,0.937-0.241,1.117c0.18,0.418,0.259,0.618,0.342,0.836
	c0.096,0.219,0.197,0.438,0.298,0.679c-0.977,0.617-1.953,1.235-2.97,1.872c-0.039,0.121,0.04,0.219-0.039,0.357
	c0.736,1.358,0.556-1.712,2.251-0.876c0.32,0.559,0.219,1.095,0.062,1.594c0.018,0.121,0.039,0.199,0.039,0.32
	c0.5-0.519,0.837-1.117,1.734-1.235c0.399,0.676-0.123,1.055-0.521,1.474c0.398,0.059,0.78,0.099,1.218,0.16
	c-0.202,0.775-1.139,0.775-1.712,1.255c0.157,0.258,0.236,0.618,0.517,0.797c0.556,0.379,1.235,0.637,1.914,0.957
	c0.276-0.141,0.556-0.3,0.915-0.5c0.32,0.18,0.596,0.34,0.876,0.5c0.916-0.699,0.557-1.555,0.478-2.392
	c0-0.062-0.018-0.121-0.018-0.18c0.197-0.079,0.398-0.16,0.618-0.241c0.04-0.376,0.079-0.736,0.118-1.115
	c0.241-0.04,0.398-0.059,0.517-0.079c0.319,0.458,0.639,0.876,1.038,1.415c0.101,0.3,0.237,0.738,0.399,1.193
	c-0.118,0.123-0.241,0.3-0.359,0.46c0.241,0.238,0.416,0.418,0.596,0.617c-0.197,0.298-0.398,0.559-0.534,0.817
	c-0.062,0.081,0.018,0.199,0.057,0.3c0.202-0.021,0.359-0.062,0.6-0.081c0.096,0.278,0.197,0.559,0.276,0.797
	c0.219,0.06,0.381,0.121,0.6,0.199c0.04-0.337,0.118-0.656,0.158-1.016h0.6c0.118,0.18,0.219,0.359,0.416,0.679
	c0.022-0.539,0.062-0.858,0.062-0.938c1.095-2.054,3.167-2.81,5.339-3.525c1.314-0.042,2.908-0.64,2.829-1.139
	c-0.197-0.138-0.438-0.298-0.674-0.438c-0.42,0.26-0.521,0.836-1.24,0.6c0.202-0.578-0.354-0.878-0.696-1.316
	c-0.758,0.497-1.415,0.935-2.089,1.375c-0.123-0.042-0.241-0.081-0.42-0.14c0.258-0.637,0.977-0.935,1.572-1.435
	c-0.535,0.079-0.955,0.16-1.213,0.199c-0.46-0.339-0.797-0.578-1.196-0.878c0.018-0.079,0.04-0.219,0.079-0.398
	c0.539,0.12,1.016,0.241,1.314,0.3c1.498-0.379,2.829-0.716,4.086-1.036c0.797-0.618,1.437-1.176,1.117-2.052
	c-1.016,0.478-1.875,1.137-3.07,1.474c-0.14-0.32-0.236-0.578-0.359-0.856c-0.337,0.18-0.635,0.317-0.955,0.478
	c-0.079-0.121-0.158-0.239-0.28-0.357c0.92-0.659,1.813-1.296,2.75-1.954c0.202-0.022,0.478-0.061,0.797-0.121
	c-0.438-0.258-0.837-0.477-1.257-0.716c0.062-0.04,0.101-0.062,0.14-0.081c-0.276-0.357-0.556-0.716-0.814-1.095
	c0.517-0.06,0.977-0.042,1.415,0.258c0.438,0.278,0.937,0.497,1.555,0.3c-0.32-0.16-0.639-0.3-0.999-0.479
	c0.241-0.339,0.398-0.576,0.6-0.817c-0.398-0.199-0.758-0.376-1.178-0.598c0.18-0.177,0.342-0.3,0.42-0.398
	c0.478,0.042,0.876,0.098,1.292,0.12c0.101,0,0.18-0.12,0.302-0.219c-0.28-0.241-0.561-0.46-0.876-0.718
	c0.876-0.377,1.274,0.039,1.634,0.477c0.355-0.179,0.596-0.337,0.894-0.477c-0.018-0.278-0.018-0.539-0.018-0.677
	c-0.359-0.458-0.959-0.637-1.056-1.075c0.535-0.42,0.736,0.04,1.095,0.158c0.158-0.079,0.298-0.14,0.477-0.239
	c0.04-0.537,0.079-1.075,0.119-1.614h0.657c0.18,0.657,0.342,1.297,0.5,1.954c0.438-0.022,0.836-0.04,1.335-0.062
	c0.022-0.398,0.04-0.814,0.337-1.075c0.241,1.196,0.5,2.392,0.758,3.506c0,0,0.022,0,0.04,0c0.039-0.237,0.123-0.537,0.241-0.935
	c0.219,0.3,0.438,0.558,0.696,0.876v0.637h0.337v0.917c-0.118,0.059-0.237,0.12-0.337,0.199v1.515
	c0.062-0.021,0.101-0.061,0.18-0.081c0.241-0.34,0.477-0.677,0.639-0.918c-0.123-2.888,0-5.417,0.337-7.929
	c0.158-1.137,0.022-2.411,0.022-3.686c0.876-0.679,0.836-2.153,0.753-3.728c0.341-0.098,0.6-0.179,0.959-0.278
	c0.04,1.058,0.079,1.894,0.118,2.669c0.28,0.3,0.5,0.519,0.797,0.819c-0.377,1.533,0.517,2.928,0.022,4.463
	c0.416,1.533,0.136,3.088-0.062,4.604c0.359,0.258,0.64,0.477,0.876,0.657c0.101,0.935,0.202,1.732,0.32,2.65
	c0.319-1.257,0.596-2.352,0.897-3.528c0.158,0.059,0.338,0.12,0.478,0.16c0.101,0.458,0.18,0.836,0.259,1.215
	c0.18-0.418,0.359-0.797,0.718-1.675c-0.039,1.855-0.078,3.129-0.122,4.665c-0.478,0.199-0.916,0.398-1.393,0.598
	c0.24,0.219,0.477,0.418,0.718,0.657c-0.039,0.578-0.079,1.075-0.079,1.355c-0.6,1.454-1.795,1.434-1.835,3.784
	c0.359,0.039,0.64,0.081,0.876,0.101c0.359-0.559,0.617-0.997,0.837-1.375c0.438-0.079,0.779-0.158,1.038-0.219
	c0.236-0.736,0.398-1.274,0.696-2.291c0.062,1.572,0.078,2.588,0.101,3.646c0.157,0.16,0.28,0.339,0.416,0.497
	c-0.136,0.46-0.236,0.738-0.337,1.038c0.157,0.278,0.28,0.556,0.438,0.876c-0.219,0.418-0.377,0.677-0.517,0.955l0.718-0.18
	c0.04-1.016,0.079-1.853,0.097-2.709c0.062,0.059,0.101,0.099,0.141,0.16l0.381-1.375c-0.062,0.258-0.101,0.517-0.18,0.777
	c0.275,0.199,0.556,0.379,0.854,0.578c-0.096,0.458-0.179,0.935-0.219,1.016c0.201,1.215,0.342,2.113,0.478,2.967
	c0.083-0.157,0.162-0.356,0.302-0.635c0.22,0.458,0.399,0.876,0.578,1.314c-0.24,0.418-0.438,0.718-0.561,0.954
	c0.202,0.64,0.359,1.196,0.561,1.796h1.433c0.241-0.379,0.421-0.718,0.578-1.016c1.135,0.157,2.111-0.081,2.852-1.974
	c-1.017-0.221-1.993-0.457-2.991-0.677c-0.158-1.038-0.994-0.977-0.955-2.453c0.635-0.098,1.213-0.219,1.892-0.337
	c-0.14-0.977-0.28-1.715-0.337-2.453c-0.039-0.398,0-0.836,0.039-1.533c0.636,1.075,1.117,1.914,1.634,2.79
	c0.337-1.077,0.596-1.892,0.876-2.81c-0.556-0.398-1.038-0.699-1.555-1.058c-0.478-1.115-0.994-2.311-1.533-3.585
	c0.696-0.937,1.494-0.042,2.094-0.598c0.018-0.618,0.039-1.156,0.057-1.793c0.68,0.179,1.139,1.373,1.854,0.738
	c-0.837-0.797-1.595-1.535-2.033-3.469h1.796c-0.162-0.556-0.24-0.916-0.398-1.354c0.32-0.12,0.596-0.241,0.797-0.32
	c-0.161-0.556-0.24-1.016-0.398-1.653c0.438,0.081,0.719,0.138,1.034,0.219c0.24-0.479,0.438-0.896,0.679-1.415
	c-0.158-0.48-0.319-0.896-0.359-1.016c0.201-1.137,0.32-2.032,0.438-2.529c0.398-0.918,0.718-1.555,1.038-2.273
	c0.118,0.101,0.275,0.199,0.398,0.28c0.275,1.275-0.123,2.667,0.398,3.924c0.319-0.359,0.556-0.679,0.876-1.016
	c0.078,0.32,0.118,0.539,0.197,0.817c-0.276,0.578-0.557,1.176-0.754,1.614c0.276,0.418,0.517,0.757,0.754,1.095
	c-0.197,0.438-0.315,0.679-0.438,0.917c0.083,0.081,0.123,0.16,0.162,0.258c0.398-0.317,0.837-0.657,1.274-0.974
	c0.236,1.314-0.359,1.633-0.718,2.529c0.836-0.16,1.437-0.278,2.071-0.399v1.075c-0.236,0.219-0.478,0.421-0.758,0.657
	c0.039,0.519,0.162,0.999,0.162,1.456c0,0.379-0.201,0.756-0.359,1.255c0.876,0.062,1.314-1.712,2.111-1.056
	c-0.118,1.892-0.797,2.97-1.433,3.865c0.276,0.357,0.596,0.738,0.916,1.115c0.994-0.596,1.673-0.977,2.549-1.494
	c-0.557-0.539-0.876-0.856-1.393-1.335c0.674-0.18,1.156-0.318,1.712-0.478c0.241-0.977,0.438-1.914,0.68-2.891
	c0.275,0.18,0.556,0.32,0.797,0.479c0.039,0.878,0.078,1.653,0.118,2.411c0.556-0.059,1.033-0.101,1.634-0.158
	c-0.518,0.916-0.955,1.69-1.354,2.35c0.315,0.836,0.556,1.474,1.235,1.235c0.517-0.399,0.915-0.716,1.393-1.075
	c0.6,1.294-1.034,1.114-0.758,2.091c0.758,0.598,1.516-0.16,2.273-0.059c0.118,0.219,0.196,0.398,0.358,0.676
	c-0.6,0.261-1.077,0.48-1.673,0.738c0.197,0.337,0.398,0.637,0.596,0.916c-0.039,0.519-1.077,0.657-0.398,1.437
	c1.796-1.358,1.796-1.358,2.947-1.117c-0.478,0.777-0.954,1.533-1.432,2.33c-0.28,0.101-0.561,0.241-0.916,0.381
	c1.433,1.134,2.948,2.032,3.902,3.846c-0.196,0.138-0.398,0.258-0.556,0.376c-0.359-0.238-0.601-0.438-0.876-0.617
	c-0.123,0.379-0.241,0.696-0.32,0.977c-1.313,0.219-2.032-1.533-3.307-1.274c-0.083,1.174,0.714,1.673,1.156,2.33
	c1.235,0.398,2.388,0.797,3.627,1.235c-0.32-0.478-0.561-0.916-0.841-1.334c0.561-0.839,1.318-0.222,1.914-0.34
	c-0.04-0.358-0.119-0.598-0.119-0.735c0.438-0.617,0.798-1.156,1.117-1.634c0.596-0.261,1.156-0.499,1.752-0.758
	c-0.398-0.6-0.679-1.055-1.117-1.714h1.438c0.236-1.036,0.438-1.993,0.635-3.029c0.438,0.101,0.797,0.16,1.278,0.258v-2.45
	l0.237-0.059c0.201,0.438,0.398,0.897,0.6,1.375c0.797,0.377,1.594,0.775,2.392,1.196c0.236-0.42,0.517-0.858,0.714-1.257
	c-0.916-0.635-1.87-1.156-2.15-2.589c0.438-0.101,0.758-0.16,1.077-0.219c-0.64-0.339-1.279-0.679-1.914-1.038
	c0.079-0.935-0.079-1.594-0.201-2.251c-0.04-0.158,0.044-0.359,0.083-0.657c0.398,0.258,0.714,0.478,1.033,0.696
	c0.119-0.337,0.202-0.657,0.32-0.977h0.758c0.118,0.659,0.236,1.277,0.319,1.875h0.955c0-0.499-0.04-0.916-0.04-1.454h1.394
	c-0.276-1.055-0.557-1.993-0.798-2.908c0.28-0.3,0.482-0.521,0.561-0.6v-3.068c0.636-1.333,1.156-2.411,1.713-3.585
	c0.28,0.276,0.517,0.537,0.557,0.596c0.201,1.016,0.319,1.754,0.438,2.411c0.32,0.121,0.561,0.199,0.841,0.3
	c-0.201,0.376-0.359,0.718-0.6,1.213c0.28,1.257,0.6,2.652,0.998,4.367c0,0.797,0.04,1.951,0.079,3.187
	c0.398-0.04,0.635-0.06,0.915-0.079c0.04-0.937,0.118-1.833,0.995-2.153c0.122,0.16,0.24,0.298,0.319,0.438
	c0.398-1.633,0.797-2.291,1.274-2.172c0.719,0.64-0.079,0.999-0.158,1.415c0.281,0.241,0.478,0.438,0.719,0.659
	c-0.162,0.199-0.28,0.317-0.438,0.458c0.196,0.239,0.358,0.46,0.596,0.797c-0.478,0.438-0.877,0.856-1.314,1.296
	c0.039,0.197,0.118,0.438,0.197,0.756c0.062-0.04,0.044-0.178,0.122-0.219c0,0.935,0,1.855,0.058,2.709
	c0.021,0.04,0.021,0.062,0.021,0.101c0.517-0.499,0.916-0.876,1.195-1.176c-0.477-2.072-0.477-2.072,0.438-3.348
	c-0.157-1.594,0.797-3.167-0.398-4.562c0.438-0.121,0.797-0.219,1.038-0.278c0.315-1.038,0.596-2.032,0.876-3.109
	c0.236,0.061,0.517,0.12,0.797,0.179c0.039,0.758,0.079,1.415,0.118,2.013c0.359,0.199,0.601,0.317,0.915,0.497
	c0.04,0.64,0.079,1.296,0.123,1.953c0.197,0.34,0.398,0.657,0.596,0.997l-0.679,1.395c0.398,0.379,0.718,0.718,0.959,0.957
	c-0.079,1.215-1.313,1.833-0.837,3.028c0.478,0.02,0.955,0.059,1.472,0.079c-0.039,0.618-0.078,0.977-0.118,1.355
	c0.32,0.278,0.557,0.497,0.837,0.755c0.319-1.016,0.162-2.131,1.077-2.847c0.276,0.497,0.557,0.935,0.837,1.375
	c0.359-0.28,0.596-0.499,1.033-0.838c-0.079,1.176-0.157,2.091-0.236,3.149c-0.6,0.357-1.314,0.755-2.032,1.176l1.156,0.239
	c0,0.3,0.039,0.497,0.039,0.777c-0.561,0.497-1.077,1.115-1.712,1.533c-0.719,0.477-1.117,1.156-1.358,2.015
	c0,0.079,0.119,0.219,0.202,0.396c0.315-0.219,0.674-0.419,1.033-0.657c0.241,0.3,0.438,0.598,0.64,0.918
	c0.118-0.479,0.197-0.918,0.276-1.355c0.6-0.099,1.077-0.16,1.594-0.239c0.442-0.6,0.841-1.176,1.397-1.953v2.51
	c0.556,0.858,0.994,1.715,0.478,2.949c-0.359,0.139-0.837,0.317-1.314,0.497c0.039,0.062,0.079,0.101,0.118,0.162
	c-0.797,0.814-1.555,1.651-2.392,2.549c0.438,0.478,0.837,0.898,1.196,1.297c0.438-0.64,0.876-1.237,1.357-1.936
	c0.315,0.319,0.596,0.538,0.876,0.818c1.791-1.176,3.465-2.851,5.619-2.75c0.438-0.539,0.797-0.996,1.152-1.454
	c-0.197-0.141-0.398-0.259-0.636-0.379c-0.358,0.317-0.679,0.637-1.156,1.036c-0.157-0.798-0.118-1.634-0.954-1.993
	c-0.679,0.6-1.358,1.235-2.273,2.071c0.079-0.814,0.158-1.393,0.241-2.131c-0.359-0.457-0.758-1.035-1.196-1.633
	c0.557-0.716,0.876,0.059,1.073,0.18c1.757-0.797,3.39-1.513,5.023-2.231c0.158-0.618,0.276-1.156,0.438-1.853
	c-1.078,0.556-1.953,1.016-2.79,1.474c-0.601-0.359-1.156-0.716-1.835-1.156c1.116-1.097,2.115-2.072,2.991-2.928
	c-0.478-0.797-0.959-1.616-1.555-2.61c0.64-0.062,1.077-0.101,1.354-0.121c0.521,0.458,0.919,0.777,1.318,1.097
	c0.039-0.062,0.118-0.121,0.157-0.202c-0.157-0.357-0.359-0.736-0.517-1.114c0.118-0.261,0.275-0.519,0.478-0.918
	c-0.758,0-1.274-0.337-1.516-1.274h2.549c-0.478-0.618-1.274-0.876-0.797-1.853c0.481,0.379,0.959,0.736,1.437,1.134
	c0.28-0.197,0.517-0.298,0.6-0.497c0.158-0.258,0.197-0.598,0.276-0.836c-0.438-0.618-0.758-1.137-1.117-1.675
	c0.201-0.258,0.359-0.416,0.521-0.596c0.236,0.258,0.438,0.458,0.797,0.876c0.236-1.274,0.438-2.251,0.596-3.228
	c0.118-0.02,0.201-0.02,0.28-0.039c0.28,0.996,0.517,1.971,0.797,2.93c0.399,0.099,0.758,0.197,1.156,0.318
	c-0.24,0.398-0.398,0.676-0.718,1.215c0.517,0.46,0.955,0.836,1.393,1.255c0.039,0.042,0,0.221,0,0.398
	c-0.398,0.059-0.797,0.12-1.354,0.199c0.28,0.379,0.398,0.559,0.557,0.738c0.64,0.02,1.156-0.797,1.796-0.14
	c-0.118,0.3-0.241,0.598-0.438,1.115c0.635-0.398,0.994-0.635,1.433-0.916c0.24,0.32,0.398,0.559,0.679,0.898
	c-0.158,0.18-0.32,0.337-0.478,0.497c0.837,0.659,1.433,1.115,2.032,1.575c0.118-0.517,0.236-0.957,0.398-1.594
	c-0.679-0.637-1.437-1.274-2.111-1.993c-0.201-0.199-0.201-0.657-0.28-0.916c0.876-0.42,1.634-0.758,2.431-1.156
	c0.197,0.158,0.438,0.337,0.68,0.517c0-0.416,0.157-0.637,0.438-0.797c-0.478-0.099-0.92-0.18-1.717-0.317
	c0.999-0.578,1.638-0.938,2.313-1.336c-0.319-0.458-0.596-0.975-1.073-1.715c0.636,0.042,1.034,0.081,1.512,0.123
	c0.039-1.058,0.122-2.133,0.679-3.07c1.274,0.558,0.438,1.931,0.994,2.81c0.319-0.099,0.718-0.18,1.156-0.3
	c0,0.381,0.039,0.64,0.039,0.938c-0.315,0.199-0.635,0.379-0.955,0.578v1.594c0.359,0.199,0.596,0.337,0.758,0.458
	c0.28-0.219,0.438-0.357,0.636-0.537c0-0.499-0.04-0.999,0.043-1.496c0-0.177,0.315-0.339,0.518-0.559
	c0.358,0.18,0.679,0.359,0.994,0.539c0.162,0.777,0.319,1.555,0.481,2.192c0.517,0.418,1.033,0.755,1.634,1.196
	c-0.241,0.558-0.442,1.056-0.679,1.614c0.078,0.04,0.157,0.079,0.236,0.118c0.481-0.179,0.959-0.337,1.437-0.517
	c0.241,0.499,0.398,0.898,0.557,1.255c1.077-0.099,0.438-2.032,1.677-1.895c0.355,1.397,0.675,2.812,1.073,4.345
	c0.162-0.438,0.241-0.757,0.319-1.036c0.32-0.138,0.557-0.258,0.798-0.357c0.039-0.758,0.078-1.456,0.118-2.212
	c0.561,0.118,0.959,0.197,1.318,0.278c0.398-1.137-0.162-1.855-0.561-2.571c-0.478-0.797-0.557-1.496,0.078-2.153
	c0.399,0.219,0.798,0.398,1.156,0.6c0.04-0.081,0.123-0.18,0.162-0.261c-0.358-0.537-0.679-1.075-1.038-1.653
	c-0.078-0.718-0.24-1.494,0.518-1.934c-0.197-0.657-0.359-1.274-0.557-1.873l1.437-1.415l-0.162-0.118
	c0.359-0.898,0.679-1.796,1.077-2.711c0.359,0.118,0.557,0.179,0.876,0.28c-0.201,1.912,0.359,3.366,1.831,4.261
	c-0.275,0.539-0.517,0.917-0.753,1.355c0.197,0.918-0.28,2.032,0.517,2.771c-0.039,0.517-0.079,0.977-0.118,1.274
	c0.039,0.062,0.039,0.101,0.079,0.16c0.039,0,0.039,0,0.078,0.02c0,0.039,0.04,0.101,0.04,0.14c0.319,0.517,0.639,0.994,0.915,1.454
	c-0.118,0.02-0.197,0.039-0.276,0.079v2.032c0.276-0.059,0.478-0.099,0.675-0.138c0.083,0.138,0.123,0.258,0.201,0.398
	c0.04-0.18,0.04-0.379,0.04-0.559c0.28-0.118,0.517-0.239,0.915-0.398c0.039,0.258,0.079,0.46,0.162,0.718
	c0.079-0.121,0.118-0.202,0.197-0.32c0.517,0.379,0.836,0.578,1.038,0.736c0.275-0.674,0.596-1.314,0.758-2.01
	c0.196-0.738,0.354-1.375,1.313-1.616c-0.201,0.938-0.319,1.715-0.478,2.61c0.197,0.261,0.398,0.539,0.557,0.78
	c-0.04,0.298-0.079,0.556-0.118,0.797c0.359,0.158,0.596,0.278,0.994,0.456c-0.758,1.178-1.791,1.636-2.829,2.172
	c0.517,0.18,0.959,0.339,1.234,0.438c0.561,0.519,0.92,0.858,1.274,1.196c-0.118,0.14-0.236,0.3-0.398,0.479
	c0.719,0.04,1.397,0.081,2.116,0.121c0.118,0.298,0.196,0.536,0.314,0.797c0.64,0.099,0.881,0.677,1.078,1.075
	c-0.28,0.755-0.518,1.415-0.719,1.991h1.555c0.202-0.298,0.398-0.576,0.518-0.775c1.717,0.239,1.913,0.101,2.233-1.614
	c-0.719-0.081-1.393-0.16-2.353-0.261c0.876-1.892,1.875-3.407,2.712-5.059c-0.518-0.539-0.955-0.977-1.196-1.217v-4.384
	c0.28-0.537,0.596-1.252,0.955-1.991c0.521,0.138,1.077,0.278,1.594,0.418c1.117-1.078,1.117-1.078,2.471-0.16
	c0.122-0.3,0.241-0.598,0.398-0.957c-0.557-0.098-1.033-0.179-1.831-0.337c0.837-0.559,1.354-0.957,1.993-1.395
	c-0.319-0.479-0.64-0.896-1.117-1.513h1.595c0.517-0.977-0.32-2.473,1.116-3.228c0.119,1.095,0.237,1.991,0.359,3.007
	c0.478-0.121,0.837-0.3,1.235-0.317c0.118,0,0.236,0.337,0.478,0.696c-0.517,0.379-0.959,0.696-1.156,0.836
	c-0.118,1.274,0,1.954,0.876,2.032c0.438-0.398,0.876-0.797,1.274-1.174c0.122,0.079,0.201,0.158,0.28,0.219
	c-0.118,0.458-0.241,0.915-0.359,1.353c0.679,0.258,1.555-0.337,2.15,0.836c-0.556,0.421-1.033,0.797-1.472,1.117
	c0.197,0.359,0.398,0.758,0.596,1.134c0.521-0.635,1.196-0.755,2.032-0.219c-0.556,1.016-1.073,1.954-1.555,2.812
	c0.359,0.317,0.719,0.618,1.117,0.955c0-0.298,0-0.696,0.039-1.215c0.241-0.081,0.478-0.16,0.719-0.239
	c0.039-0.757,0.039-1.434,0.078-2.192c0.359,0.02,0.601,0.02,0.876,0.042c0.083,0.576,0.123,1.073,0.202,1.691
	c0.398-0.399,0.639-0.657,0.836-0.916c0.359,0.777,0.359,0.777,1.516,0.696c0.079,0.101,0.197,0.202,0.276,0.32
	c0.083,0.118,0.161,0.241,0.358,0.517v-1.612c-0.275-0.499-0.758-0.499-1.234-0.459c-0.119-0.298-0.276-0.578-0.399-0.896
	c-0.118-0.339-0.157-0.698-0.196-1.075c0.477-0.101,0.797-0.16,1.072-0.219c-0.674-0.202-1.393-0.398-2.229-0.64
	c0.24-0.517,0.398-0.896,0.556-1.274c-0.675-0.398-0.758-1.095-0.675-1.853h0.715c0.201,0.337,0.358,0.618,0.6,1.056
	c0.438-0.657,0.718-1.135,1.077-1.654c0.478,0.138,0.876,0.278,1.354,0.438c-0.319,0.121-0.557,0.2-0.797,0.3
	c0.24,0.836,0.438,1.612,0.718,2.529c0.118-0.357,0.197-0.537,0.276-0.738c0.241-0.118,0.521-0.219,0.841-0.359
	c-0.083-0.416-0.162-0.775-0.201-1.073c0.438-0.539,1.274,0.438,1.476-0.639c-0.241-0.298-0.561-0.677-0.88-1.117v-1.274
	c0.28-0.278,0.561-0.578,0.679-0.696c0-0.916,0.078-1.634-0.04-2.33c-0.118-0.937,0.241-1.515,1.196-1.774
	c0.039-0.479,0.079-0.917,0.118-1.375c0.241-0.241,0.561-0.5,0.836-0.758c0.281,0.28,0.521,0.5,0.719,0.718
	c-0.079,0.377-0.118,0.696-0.197,1.056c0.315,0.101,0.557,0.18,0.758,0.258c0.236-0.18,0.438-0.32,0.635-0.458
	c0.241,0.777-0.438,0.618-0.718,0.856c0,0.02,0.039,0.079,0.083,0.119c0.276,0.042,0.596,0.101,0.797,0.14
	c0.955,0.977-0.841,1.555-0.28,2.453c0.158-0.121,0.32-0.219,0.517-0.399c0.601,1.873,2.353,2.409,3.946,3.206
	c0.158-0.258,0.28-0.517,0.438-0.797c0.28,0.18,0.517,0.32,0.836,0.499c-0.118,0.539-0.24,0.997-0.398,1.474
	c0.202,0.398,0.398,0.797,0.557,1.176c1.038,0.101,1.038,0.118,1.678,0.938c-0.28-0.062-0.601-0.101-0.92-0.16
	c-0.158,0.219-0.359,0.458-0.478,0.598c-0.797,0.199-1.516,0.398-2.471,0.637c0.719,0.12,1.156,0.199,1.836,0.317
	c-0.68,0.519-1.156,0.878-1.634,1.257c0.354,0.278,0.674,0.539,1.073,0.817c0.757,0.04,1.555,0.081,2.193,0.121
	c0.399-0.28,0.675-0.46,1.034-0.718c0.359,0.359,0.679,0.657,0.959,0.915c-0.359,0.699-0.718,1.277-1.117,2.015h1.117v0.157h0.354
	c0.044,0.679,0.084,1.356,0.123,1.973c0.359,0.219,0.675,0.399,1.033,0.618c-0.039,0.278-0.039,0.497-0.078,0.738
	c0.162,0.02,0.319,0.02,0.438,0.04c0.079,0.478,0.123,0.856,0.162,1.235c0.236,0.418,0.797,0.696,0.876,1.195
	c0.398-0.039,0.797-0.061,1.073-0.079c0.319,0.317,0.561,0.556,0.841,0.797c0.354-0.519,0.635-0.917,1.033-1.454
	c-0.679-0.101-1.195-0.201-1.791-0.3c0.039-0.539,0.039-0.977,0.079-1.555h2.79c-0.561-0.339-0.837-0.519-1.156-0.716
	c0.039-0.32,0.118-0.558,0.118-0.779c0.998-0.478,1.396,0.561,2.071,0.858c0.521-0.637,0.319-1.375,0.28-2.072
	c-0.359-0.359-0.679-0.657-1.077-1.016c0.319-0.42,0.6-0.758,0.836-1.078c0.28,0.241,0.521,0.421,0.881,0.699
	c0.275-1.255-0.201-2.63,1.033-3.407c0.28,0.238,0.601,0.479,0.999,0.797v2.889c0.675-0.14,1.235-0.239,1.909-0.377
	c-0.438,0.837-1.033,1.373-0.954,1.892c0.836,0.876,1.594,1.634,2.313,2.431c0.438-0.039,0.797-0.061,1.156-0.101v-0.04
	c-0.084-0.179-0.202-0.359-0.28-0.539c0.039,0,0.039-0.018,0.039-0.018c0.079,0.138,0.157,0.276,0.241,0.416v-0.118l-0.084-0.298
	c0.482-0.042,0.92-0.081,1.235-0.101c0.398,0.32,0.758,0.556,0.999,0.758c0.319-0.539,0.639-1.056,0.954-1.594
	c-0.797-0.04-1.594,0-1.953-1.097c1.117,0.239,1.914-0.16,2.79-0.519c-0.478-0.298-0.876-0.537-1.354-0.836
	c1.274-0.775,2.431,0.539,3.587-0.18v-0.896c-0.478-0.357-0.915-0.657-1.234-1.016c-0.162-0.18-0.202-0.458-0.32-0.896
	c0.758,0.099,1.274,0.158,1.914,0.239v-1.774c0.557-0.199,0.719-0.957,1.393-0.716c0.04-0.081,0.04-0.18,0.079-0.261
	c0.083-0.02,0.162-0.02,0.201-0.02c0.118,0.28,0.28,0.558,0.398,0.876c0.359-0.059,0.719-0.118,1.117-0.197
	c0.039,0.197,0.039,0.337,0.039,0.438c-0.28,0.18-0.561,0.337-1.038,0.618c1.117,0.438,2.072,0.775,2.633,1.474
	c-0.123,0.219-0.28,0.418-0.561,0.836c0.679-0.239,1.077-0.379,1.516-0.536c0.201,0.157,0.398,0.297,0.679,0.497
	c-0.719,0.519-1.397,0.957-2.072,1.415c0.079,0.059,0.158,0.099,0.237,0.138c0.162,0.202,0.319,0.48,0.477,0.718
	c0.28-0.179,0.601-0.376,0.999-0.617c-0.079,0.539-0.118,0.836-0.157,1.176c0.477,0.18,1.274-0.18,1.471,0.497
	c0,0.022,0,0.04-0.039,0.062h0.601c0.039,0.258,0.078,0.438,0.078,0.556c-0.64,0.479-1.274,0.959-1.953,1.437
	c0.517,0.099,0.994,0.197,1.555,0.298c-0.478,0.937,1.196,0.797,1.034,1.594c-0.438-0.02-0.876-0.04-1.314-0.04
	c-0.079,0.32-0.157,0.657-0.241,0.938c0.719,0.456,1.595-0.121,2.234,0.517c-0.079,0.118-0.241,0.18-0.359,0.298
	c0.118,0.101,0.241,0.219,0.359,0.3c1.077,0.04,1.077,0.04,1.752,0.318c-0.596,0.201-1.156,0.381-1.713,0.578
	c0.398,0.718,1.634,0.578,1.835,1.375c-0.122,0.079-0.28,0.16-0.438,0.241c-1.117-0.561-2.234-1.097-3.312-1.616
	c-0.039,0.14-0.118,0.32-0.197,0.499c-0.28,0-0.517-0.02-0.718-0.02c-0.04-0.042-0.04-0.059-0.079-0.081
	c0.079,0.16,0.118,0.339,0.118,0.5c0.04,0.199,0.079,0.398,0.079,0.578c0.241,0.14,0.561,0.238,0.837,0.337
	c0.319,0.081,0.6,0.14,0.919,0.202c0.276,0.057,0.557,0.118,0.916,0.118c0.039,0.32,0.078,0.578,0.078,0.718
	c0.32,0.337,0.562,0.596,0.837,0.876c0.241,0.101,0.478,0.219,0.719,0.337c-0.04,0.341-0.079,0.617-0.119,0.937
	c-0.358,0.022-0.6,0.04-0.836,0.062c0.398,0.298,0.714,0.596,1.112,0.896c0.28,0.18,0.88,4.045,1.357,4.146l0.596,0.617
	c0.601-0.159,0.999-0.3,1.397-0.42v-1.075c-0.478-0.259-1.156-0.317-1.274-0.936c0.079-0.081,0.197-0.201,0.275-0.261
	c0.399,0.141,0.758,0.261,1.275,0.44c0.083-0.6,0.122-1.058,0.201-1.576c0.197-0.158,0.319-0.557,0.955-0.478
	c0.161,0.718,0.319,1.437,0.477,2.212c0.482-0.079,0.92-0.141,1.397-0.199c0.039,0.159,0.039,0.277,0.079,0.398
	c-0.359,0.238-0.719,0.439-1.078,0.698c0.442,0.238,0.758,0.438,1.117,0.617c0.28,0.158,0.758,0.32,0.758,0.478
	c0.039,0.517,0.679,0.32,0.915,0.657c-0.039,0.14-0.078,0.34-0.118,0.519c0.062,0.04,0.118,0.099,0.202,0.139
	c0.275-0.04,0.556-0.079,0.797-0.118c0.118-0.518,0.079-1.235,0.674-1.117c-1.393-2.649-1.033-4.323-1.515-7.949
	c1.318-0.101,0.442,1.774,1.239,2.391c0.517-1.016,0.994,0.359,1.673-0.398c-0.28-0.517-0.28-1.476-0.561-1.993
	c-0.556-3.068-0.837-4.284-0.994-7.949c1.033-0.259,0.359,0.814,0.359,1.993c0.319-0.738,0.517-2.492,1.432-1.196
	c0.478-3.309,0.241-7.592,2.273-8.746c0,2.251,0,4.52,0.876,5.558v1.594c0.64,1.474,1.437,1.932,2.352,1.993
	c-0.6,1.474,0.28,2.49-0.319,3.964c0.478,1.257,0.359-1.572,1.437-0.797c0.557,1.437-0.876,2.649,0.596,3.587
	c0.201,1.095-0.596,0.797-0.596,1.594c0.039,0.298,0.315,0.239,0.557,0.258c0.258,0.022,0.517,0.04,0.757,0.062
	c-0.358-0.539,0.079-0.837,0.438-1.156c-0.241-1.038-0.158-1.137,0.915-1.016c0.079,0.438,0.162,0.896,0.28,1.375
	c0.359,0.219,0.758,0.438,1.235,0.736c-0.118,0.42-0.28,0.819-0.398,1.257c0.118,0.06,0.359,0.138,0.438,0.18
	c0.32,0.438,0.162,0.756-0.078,1.056c0.039,0.219,0.078,0.438,0.118,0.617c0.201,0.02,0.438,0.06,0.758,0.079
	c-0.079,0.18-0.158,0.319-0.237,0.478c0.315,0.219,0.596,0.42,0.955,0.679c-0.201,0.458-0.398,0.915-0.6,1.393l0.044,0.022
	c0.196,0.078,0.398,0.157,0.596,0.258c0.118,0.34,0.118,0.638,0.039,0.916c0.039,0.021,0.118,0.041,0.157,0.061
	c0.044,0.101,0.044,0.199,0.084,0.298c0.118,0.022,0.196,0.04,0.314,0.04c0.162-0.537,0.32-1.056,0.482-1.533
	c-0.32-0.977-0.398-1.953-0.201-2.97c0.319-0.157,0.561-0.258,0.639-0.298c-0.24-0.696-0.438-1.296-0.639-1.892
	c0.319-0.5,0.6-0.918,0.875-1.316c-0.236-0.418-0.438-0.856-0.635-1.235c0.675-0.699,1.235-1.294,1.713-1.793
	c0.078-0.876,0.118-1.555,0.157-2.172c0.758-0.557,0.758-0.557,1.595-0.399c0.201,1.257,0.398,2.51,0.6,3.745
	c0.32-0.079,0.557-0.118,0.758-0.177c0.359,0.677,0.635,1.294,0.955,1.873c-0.32,0.438-0.557,0.777-0.837,1.176
	c0.32,0.598,0.596,1.097,0.876,1.594c-0.438,1.951,0.959,3.826-0.079,5.519c0.158,0.856,0.28,1.594,0.398,2.352
	c0.359,0.079,0.64,0.239,0.995,0.357c0.043-0.896,0.043-1.771,0.083-2.729c0.596-0.101,1.033-0.18,1.432-0.239
	c0.202-0.219,0.359-0.358,0.438-0.457c0.079,0.039,0.162,0.078,0.28,0.118c0.118-1.235,0.478-2.251,1.516-2.987
	c0.196,0.635,0.275,1.213,0.236,1.771c0.162,0.578,0.28,1.137,0.398,1.636c0.319-0.021,0.6-0.041,0.876-0.061
	c0-0.021,0-0.021,0.044-0.04h1.594c0.197-0.319,0.398-0.598,0.517-0.777c1.713,0.239,1.914,0.099,2.229-1.634
	c-0.714-0.081-1.393-0.14-2.392-0.261c0.92-1.87,1.914-3.407,2.751-5.058c-0.517-0.519-0.955-0.957-1.195-1.218v-4.362
	c0.24-0.539,0.6-1.257,0.959-1.993c0.517,0.118,1.073,0.28,1.594,0.398c1.112-1.077,1.112-1.077,2.471-0.14
	c0.118-0.319,0.236-0.617,0.398-0.955c-0.561-0.101-1.038-0.202-1.835-0.339c0.797-0.578,1.357-0.957,1.992-1.415
	c-0.358-0.458-0.635-0.878-1.116-1.496h1.594c0.521-0.994-0.319-2.47,1.117-3.228c0.118,1.077,0.241,1.993,0.359,3.009
	c0.477-0.14,0.836-0.298,1.234-0.32c0.118-0.018,0.241,0.342,0.478,0.679c-0.517,0.379-0.955,0.697-1.156,0.858
	c-0.118,1.275,0,1.952,0.876,2.032c0.442-0.42,0.881-0.797,1.279-1.195c0.078,0.079,0.197,0.158,0.275,0.236
	c-0.118,0.46-0.236,0.917-0.358,1.358c0.679,0.236,1.555-0.342,2.154,0.836c-0.561,0.398-1.038,0.775-1.476,1.115
	c0.201,0.359,0.398,0.757,0.561,1.136c0.556-0.657,1.191-0.757,2.071-0.219c-0.561,1.016-1.077,1.953-1.555,2.807
	c0.557,0.48,1.235,0.938,1.752,1.577c0.478,0.576,1.357,0.974,1.077,2.15c-0.797,0.079-1.555,0.337-2.272,0.199
	c-0.719-0.16-1.394-0.677-2.353-1.176c0.521,0.938,0.881,1.656,1.196,2.251c1.077,0.28,1.992,0.499,2.711,0.679
	c0.6,0.478,0.998,0.814,1.476,1.174c0.039-0.018,0.079-0.059,0.118-0.079c0-0.337,0.04-0.656,0.04-0.996
	c0.319,0,0.517,0.02,0.757,0.02c0.04,0.202,0.04,0.398,0.079,0.578c0.118,0.02,0.201,0.079,0.32,0.241l-0.28,0.258
	c0.039,0.141,0.039,0.259,0.078,0.399c0.32-0.359,0.521-0.578,0.719-0.798c0.319,0.677,0.319,0.677,1.274,0.618
	c0.083,0.078,0.201,0.157,0.28,0.258c0.079,0.102,0.118,0.22,0.28,0.46v-1.417c-0.201-0.418-0.64-0.418-1.038-0.379
	c-0.118-0.258-0.276-0.517-0.359-0.774c-0.078-0.301-0.118-0.601-0.197-0.938c0.438-0.079,0.719-0.141,0.955-0.199
	c-0.596-0.18-1.195-0.34-1.914-0.559c0.202-0.438,0.32-0.758,0.482-1.095c-0.64-0.34-0.68-0.957-0.601-1.594h0.601
	c0.196,0.298,0.314,0.539,0.517,0.915c0.398-0.578,0.64-0.994,0.915-1.454l1.195,0.399c-0.28,0.101-0.477,0.179-0.718,0.258
	c0.241,0.718,0.438,1.397,0.679,2.192c0.079-0.317,0.158-0.478,0.201-0.637c0.237-0.101,0.478-0.199,0.754-0.32
	c-0.079-0.359-0.118-0.677-0.197-0.935c0.359-0.458,1.117,0.398,1.313-0.539c-0.236-0.258-0.477-0.598-0.797-0.975v-1.097
	c0.241-0.26,0.478-0.519,0.601-0.618c0-0.777,0.078-1.415,0-2.012c-0.162-0.797,0.157-1.314,0.994-1.533
	c0.039-0.42,0.078-0.797,0.078-1.195c0.241-0.202,0.521-0.42,0.758-0.659c0.241,0.26,0.438,0.44,0.601,0.637
	c-0.04,0.32-0.079,0.598-0.123,0.917c0.241,0.079,0.442,0.138,0.601,0.199c0.24-0.14,0.398-0.258,0.596-0.379
	c0.201,0.657-0.399,0.537-0.636,0.738c0,0,0.04,0.059,0.079,0.098c0.241,0.042,0.517,0.081,0.679,0.121
	c0.837,0.856-0.758,1.354-0.241,2.111c0.119-0.079,0.28-0.18,0.438-0.32c0.561,1.616,2.032,2.074,3.43,2.772
	c0.118-0.241,0.236-0.44,0.358-0.699c0.237,0.16,0.478,0.278,0.754,0.438c-0.118,0.458-0.236,0.856-0.355,1.277
	c0.158,0.337,0.315,0.696,0.478,1.016c0.916,0.079,0.916,0.098,1.433,0.797c-0.236-0.042-0.478-0.081-0.758-0.123
	c-0.157,0.202-0.315,0.398-0.438,0.521c-0.675,0.178-1.314,0.337-2.111,0.537c0.6,0.121,0.955,0.18,1.555,0.278
	c-0.557,0.46-0.999,0.777-1.437,1.098c0.319,0.238,0.64,0.457,0.959,0.696c0.675,0.042,1.354,0.081,1.914,0.12
	c0.315-0.24,0.557-0.42,0.876-0.64c0.359,0.32,0.596,0.578,0.876,0.798c-0.359,0.6-0.64,1.116-0.999,1.734h0.96v0.937
	c-0.876,0.618-1.634,1.156-2.554,1.833c0.718,0.139,1.195,0.259,1.717,0.357c0.039,0.319,0.039,0.578,0.079,0.878
	c-0.64,0.52-1.117,1.115-0.758,2.032c0.994-0.896,1.835-1.833,2.313-3.028c0.275,0.02,0.556,0.039,0.836,0.062
	c0.04,0.398,0.079,0.735,0.119,1.072c0.078,0.102,0.157,0.18,0.24,0.261c0-0.039-0.039-0.059-0.039-0.099
	c0.039,0,0.079-0.18,0.118-0.28c0.197-1.833,0.398-3.985,0.596-5.639c0.201-2.849,0.359-5.659,0.521-5.678
	c0.358,0.337,0.595,0.578,0.836,0.817c0.359-0.519,0.675-0.918,1.034-1.454c-0.675-0.121-1.156-0.199-1.792-0.3
	c0.04-0.539,0.04-0.977,0.079-1.555h2.79c-0.517-0.337-0.797-0.517-1.117-0.716c0.04-0.317,0.079-0.576,0.118-0.777
	c0.96-0.477,1.358,0.559,2.037,0.858c0.556-0.639,0.354-1.375,0.275-2.071c-0.358-0.359-0.674-0.659-1.033-1.038
	c0.315-0.398,0.556-0.736,0.797-1.075c0.315,0.239,0.557,0.438,0.915,0.716c0.281-1.274-0.24-2.649,1.034-3.407
	c0.28,0.219,0.561,0.479,0.959,0.797v2.869c0.679-0.119,1.235-0.219,1.953-0.357c-0.398,0.716-0.74,1.154-0.818,1.594
	c0,0,0,0,0.021,0c0.714-0.62,1.533-1.176,2.33-1.754c-0.241-0.499-0.46-0.937-0.696-1.454c0.517-0.04,0.915-0.079,1.235-0.101
	c0.319,0.241,0.556,0.42,0.775,0.6c0.061-0.042,0.14-0.081,0.201-0.123c0.236-0.396,0.455-0.795,0.696-1.213
	c-0.64-0.022-1.354,0.02-1.673-0.938c0.915,0.2,1.594-0.118,2.313-0.438c0-0.02,0-0.039,0.039-0.061
	c-0.162-0.099-0.302-0.18-0.438-0.258c-0.32,0.12-0.64,0.241-0.96,0.258c-0.078-0.197,0.438-0.416,0.561-0.517
	c-0.538-0.16-1.278,0.18-1.795,0.2c0.28-0.099,2.593-0.977,2.272-1.513c-2.47,0.595-4.743,1.075-7.253,0.977
	c0.994,0.04,1.954-0.342,2.908-0.578c0.518-0.121,1.954-0.339,2.234-0.938c-0.241-0.061-0.482-0.039-0.719-0.039
	c0.236-0.141,1.87-0.559,1.791-0.938c-0.039-0.359-0.954-0.199-1.195-0.219c0.837,0.02,1.756-0.281,2.632-0.478
	c0.359-0.081,1.634-0.202,1.87-0.6c-0.836-0.18-1.673-0.138-2.47-0.219c-0.837-0.079-1.673-0.278-2.51-0.337
	c1.595,0.101,3.188-0.079,4.743-0.28c1.117-0.118,3.105-0.239,3.986-1.115c-1.235-0.239-2.515-0.398-3.75-0.519
	c0.64,0.101,1.438-0.197,2.032-0.298c0.758-0.101,1.516-0.14,2.234-0.32c0.28-0.059,0.556-0.158,0.836-0.239c0,0,0.04,0,0.04-0.02
	c0.6-0.18,1.156-0.359,1.752-0.539c0.201-0.079,0.442-0.18,0.639-0.258c0.32-0.478,0.64-0.977,0.955-1.476
	c-0.354,0.359-0.836,0.62-1.235,0.819c-0.236,0.14-1.948,0.994-2.15,0.836c0.079-0.14,0.719-0.836,0.876-0.858
	c-0.556,0.14-1.156,0.28-1.752,0.18c-0.398-0.057-0.757-0.158-1.156-0.236c0.916-0.219,2.234-0.898,2.55-1.117
	c0.998-0.617,1.717-1.437,2.47-2.273c-0.876-0.219-1.791-0.416-2.707-0.456c-0.319,0-1.795-0.042-2.711,0.138
	c0.241-0.138,0.478-0.3,0.719-0.438c0.438-0.261,0.915-0.359,1.432-0.479c-0.196,0.081-0.915-0.099-1.112-0.18
	c0.118-0.18,1.752-0.237,1.949-0.258c0.481-0.02,1.038-0.059,1.555,0.021c-0.758-0.26-1.511-0.539-2.308-0.74
	c-0.521-0.119-1.156-0.318-1.796-0.456c0.679-0.062,1.396-0.32,1.992-0.339c0.557-0.02,1.156,0.079,1.713,0.138
	c0.201,0.022,1.318,0.32,1.516,0.219c-0.32-0.438-1.117-0.278-1.437-0.716c0.122,0,0.6,0.138,0.718-0.02
	c-0.319-0.219-0.718-0.298-1.033-0.5c0.714,0.219,1.432,0.28,2.15,0.46c0.556,0.118,1.116,0.398,1.673,0.398
	c-0.236-0.241-0.679-0.28-0.994-0.398c-0.679-0.219-1.318-0.478-1.953-0.718c-0.876-0.32-2.273-1.036-3.188-0.696
	c0.836-0.5,2.711,0.14,3.548,0.418c1.116,0.379,2.308,0.837,3.425,1.115c-0.478-0.556-1.117-0.876-1.555-1.474
	c0.122-0.081,0.28,0.16,0.398,0.081c-0.276-0.479-0.876-0.938-1.274-1.316c0.561,0.399,1.195,0.677,1.795,1.036
	c0.398,0.258,0.837,0.617,1.274,0.757c-0.319-0.558-0.836-0.875-1.077-1.515c-0.079-0.258-0.517-1.274-0.398-1.555
	c0.6,0.698,0.999,1.555,1.555,2.273c-0.319-0.738-0.359-1.395-0.28-2.172c0.083-0.817,0.201-1.016,0.601-1.653
	c0.039,0.817,0.718,2.569,1.313,3.147c0-0.298-1.156-3.366-0.438-3.307c0.118,0.16-0.04,0.258,0.078,0.398
	c0.162-0.239-0.28-2.47,0.679-1.971c0.28,0.138,0.28,0.716,0.359,0.935c0.158,0.537,0.32,1.415,0.758,1.794
	c0.039-0.478-0.398-1.078-0.438-1.594c-0.084-0.758,0.196-1.356,0.753-1.892c0.438-0.46,0.959-0.699,1.555-0.918
	c0.561-0.199,1.516-0.738,2.111-0.698c0.044,0.04-1.034,0.639-1.112,0.718c-0.478,0.46-0.64,1.176-0.96,1.712h0.04
	c0.083-0.158,0.201-0.317,0.241-0.376c0.118-0.121,0.28-0.241,0.438-0.359c-0.039,0.079-0.079,0.158-0.118,0.18
	c-0.118,0.219-0.201,0.458-0.319,0.677c-0.04,0.359-0.32,1.237-0.438,1.813c0,0.121-0.039,0.239-0.039,0.359
	c0.196-0.458,0.358-0.856,0.478-1.176c0,0.379,0.078,0.736,0.118,1.117c0,0.477-0.197,1.016-0.359,1.474
	c0.083-0.3,0.64-0.957,0.841-1.156c0.079,0.059-0.719,1.793-0.758,1.912l-0.083,0.123c0.044,0.138,0.083,0.298,0.083,0.478
	c0.478-0.5,0.955-1.016,1.433-1.555c0.477-0.598,1.038-1.196,1.555-1.813c-0.438,0.797-0.679,1.695-1.117,2.47
	c-0.315,0.559-0.758,1.078-1.156,1.594c-0.039,0.101-0.556,0.618-0.797,0.957c0,0.059-0.04,0.121-0.04,0.199
	c0.482-0.241,0.798-0.836,1.318-1.038c-0.039,0.081-0.481,0.5-0.358,0.6c0.398-0.241,0.718-0.578,1.072-0.836
	c-0.517,0.517-0.994,1.115-1.511,1.673c-0.24,0.259-0.561,0.5-0.836,0.775c-0.044,0.101-0.084,0.219-0.123,0.32
	c0.28-0.219,0.561-0.517,0.797-0.736c0.64-0.559,1.318-1.097,1.954-1.656c0.797-0.696,2.193-1.611,2.509-2.689
	c-0.078,0.977-1.712,2.352-2.352,2.948c-1.073,0.999-2.309,1.894-3.307,2.93c0.679-0.238,1.318-0.676,2.071-0.897
	c0,0.14-0.315,0.179-0.275,0.3c0.674-0.16,1.393-0.519,2.032-0.777c-1.038,0.519-2.431,1.156-3.351,1.934
	c0.718-0.138,1.318-0.438,2.076-0.497c0.236-0.022,1.353-0.202,1.594-0.022c-0.998,0.28-1.993,0.398-2.991,0.679
	c0.758-0.061,1.437,0.02,2.15,0.197c0.241,0.062,0.64,0.101,0.88,0.241c0.237,0.14,0.237,0.259,0.399,0.438
	c-0.999-0.14-2.593-0.079-3.588,0.241c0.837,0.177,2.589-0.42,3.268,0.236c0.118,0.14-0.478,0.081-0.478,0.101
	c0.158,0.14,2.589,0.359,1.433,0.817c-0.876,0.318-2.111-0.239-3.026,0.04c0.915,0.278,1.992-0.258,2.79,0.559
	c0.358,0.438,0.315,0.876,0.118,1.395c0,0.04-0.557,1.154-0.557,1.036c0-0.199,0.118-0.418,0.04-0.637
	c-0.162-0.3-0.562-0.479-0.837-0.699c0.039,0.121,0.079,0.241,0.079,0.381c-0.04-0.061-0.079-0.101-0.123-0.123
	c-0.197-0.197-0.438-0.337-0.714-0.477c-0.201-0.06-0.438-0.158-0.64-0.239c0,0.081,0.079,0.16,0.079,0.239l0.123,0.3
	c0.398,1.154,0.836,2.192,1.471,3.208c0.079,0.099,0.162,0.219,0.241,0.32l0.158,0.236c0.24,0.281,0.718,0.699,0.797,0.977
	c0.079,0.039,0.122,0.101,0.162,0.16c0.118,0.099,0.236,0.261,0.398,0.379c-0.162-0.02-0.359-0.079-0.481-0.14
	c0.358,0.339,0.639,0.738,1.077,0.938c0.118,0.059,1.117,0.219,1.117,0.28c-0.281,0.258-1.314,0.317-1.713,0.357
	c-0.719,0.081-1.357-0.099-1.914-0.559c-0.517-0.438-0.837-1.056-1.077-1.712c-0.158-0.438-0.158-1.038-0.398-1.437
	c-0.079,0.718,0.319,1.616,0.517,2.313c0.083,0.18,0.319,0.718,0.359,1.055c0.201,0.18,0.398,0.34,0.6,0.519
	c0.679,0.598,1.313,1.277,1.875,1.973c0.157,0.14,0.275,0.278,0.394,0.438c0.28,0.359,0.601,0.736,0.92,1.095
	c1.033,1.257,1.914,2.61,3.026,3.828l1.038,1.034c0.236,0.258,0.596,0.559,0.837,0.858c0.477,0.458,0.954,0.916,1.393,1.375
	c1.156,1.174,2.392,2.19,3.709,3.188c0.315,0.258,0.715,0.337,1.056,0.517c0.079-0.062,0.097-0.18,0.22-0.241
	c0.319,0.221,0.596,0.46,0.814,0.74c0.342,0.158,0.656,0.376,1.016,0.517c-0.078-0.398-0.319-0.718-0.635-1.016
	c0.275-0.18,0.478-0.32,0.675-0.46c0.24,0.121,0.358,0.219,0.561,0.342c0.118-0.18,0.196-0.342,0.275-0.5
	c-0.596-0.42-1.151-0.777-1.712-1.156c-0.079-0.059-0.079-0.199-0.158-0.319c0.276-0.099,0.517-0.197,0.797-0.298v-0.578
	c-0.122-0.04-0.24-0.101-0.358-0.14c-0.118-0.06-0.28-0.138-0.398-0.18c-0.04-0.497,0.28-0.556,0.757-0.456
	c0.197,0.236,0.438,0.517,0.719,0.797c0.118-0.221,0.197-0.381,0.275-0.539c0.202,0.04,0.399,0.059,0.521,0.079
	c0.158-0.14,0.276-0.239,0.398-0.337c0.478-0.042,0.916-0.081,1.354-0.123c-0.517-0.258-0.998-0.478-1.555-0.756
	c0.319-0.16,0.478-0.278,0.64-0.359c-0.482-0.199-0.959-0.398-1.595-0.657c0.438-0.141,0.636-0.2,0.837-0.278
	c-0.162-0.081-0.28-0.18-0.438-0.258l0.518-0.539c-0.158-0.219-0.28-0.398-0.438-0.617c0.197-0.081,0.32-0.162,0.478-0.261
	c0.517,0.339,0.557,0.797,0.596,1.215c0.359-0.02,0.679-0.04,1.038-0.079c0.118,0.477,0.201,0.897,0.319,1.335
	c0.158-0.039,0.32-0.061,0.557-0.12c0.039-0.637,0.079-1.255,0.122-2.074c0.315-0.716,1.235-1.612,0.315-2.628
	c0.398-0.359,0.758-0.718,1.156-1.078c-0.078-0.02-0.118-0.04-0.196-0.059c0.118-0.239,0.196-0.479,0.358-0.896
	c0.557,0.775,0.994,1.375,1.354,1.892c0.039,0.379,0.118,0.679,0.118,0.977c0.04,0.32-0.039,0.637-0.039,0.955
	c0.118,0.101,0.28,0.219,0.398,0.3c-0.197,0.537-0.359,0.977-0.557,1.454c0.398,0.02,0.675,0.02,0.955,0.042
	c0.079,0.357,0.162,0.635,0.201,0.935c0.837-0.199,0.754-0.777,0.955-1.333c0.398,0.317,0.64,0.556,0.915,0.775
	c0.123-0.14,0.28-0.278,0.64-0.617c-0.079,0.718-0.118,1.195-0.201,1.712c-0.158,0.101-0.359,0.241-0.596,0.359
	c-0.039,0.3-0.039,0.6-0.079,0.679c-0.92,0.775-1.717,1.415-2.553,2.091c0.757,0.179,0.959-0.716,1.633-0.379
	c0.359-0.556,1.078-0.239,1.595-0.398c0.28-0.337,0.561-0.657,0.88-1.056c0.395,0.858-0.28,1.754,0.675,2.391
	c-1.033,0.679-1.993,1.314-2.947,1.932c0.358,0.202,0.635,0.381,0.876,0.519c0.517-0.219,0.758-0.797,1.515-0.497
	c-0.078,0.239-0.118,0.478-0.201,0.814c0.438-0.456,0.797-0.814,1.156-1.213c0.679,0.637,0.517,0.994,0.04,1.313
	c0.28,0.101,0.561,0.2,0.876,0.298c0.083,0.3,0.161,0.579,0.24,0.797c-0.118,0.14-0.197,0.201-0.197,0.219
	c0.197,0.421,0.355,0.78,0.478,1.038c0.517,0.06,0.955,0.101,1.673,0.18c-0.517,0.359-0.836,0.617-1.156,0.876
	c-0.039,0.578,0.478,1.156,0.202,1.794c0,0.039,0.118,0.098,0.197,0.179c0.24-0.277,0.477-0.538,0.757-0.797h1.117
	c0.039,0.418-0.398,0.716-0.201,1.154c0.078,0.201-0.28,0.6-0.557,0.819c-0.28,0.238-0.64,0.398-0.92,0.556v1.574
	c0.32-0.098,0.64-0.177,0.96-0.258c0-0.398,0.039-0.738,0.078-1.017c0.241-0.199,0.478-0.379,0.719-0.558l0.517,0.499
	c0.398-0.618,0.241-1.454,1.195-1.796c0.601,0.46-0.157,0.758-0.118,1.139c0.197,0.099,0.359,0.197,0.518,0.276
	c0.039,0.6,0.118,1.156,0.157,1.835c0.64-0.398,1.117-0.696,1.638-1.017c-0.398-0.258-1.077,0.04-1.239-0.578
	c0.679-0.159,1.357-0.319,2.076-0.478c-0.162-0.14-0.28-0.24-0.481-0.438c0.481-0.101,0.836-0.18,1.318-0.28
	c-0.438-0.199-0.837-0.379-1.078-0.499c-0.197-0.497-0.359-0.916-0.517-1.334c0.236-0.12,0.398-0.219,0.596-0.317
	c0.319,0.236,0.6,0.416,0.758,0.536c0.517-0.159,0.876-0.278,1.156-0.379c-0.517-0.298-1.117-0.637-1.713-0.996
	c0.04-0.219,0.118-0.438,0.197-0.677c-0.319-0.219-0.675-0.46-0.994-0.696v-1.675c0.438-0.121,0.837-0.219,1.235-0.339
	c0.359,0.121,0.758,0.241,1.073,0.359c0.319-0.079,0.6-0.157,0.919-0.238c-0.477-0.537-0.876-0.997-1.274-1.474
	c0.158-0.12,0.315-0.219,0.438-0.3c-0.561-0.537-1.117-1.075-1.717-1.673c0.358-0.179,0.6-0.278,0.959-0.44
	c0.596,0.479,1.195,0.959,1.87,1.496c0.241,0.02,0.561,0.059,0.837,0.14c0.319,0.099,0.639,0.258,0.998,0.438
	c0.118-0.239,0.158-0.379,0.197-0.479c-0.557-0.376-1.034-0.736-1.551-1.073c-0.358-0.101-0.758-0.201-1.195-0.3
	c0.157-0.16,0.275-0.239,0.359-0.32c-0.482-0.278-0.96-0.576-1.437-0.836c-0.399-0.896,0.596-1.294,0.876-1.973
	c1.038,0.657,1.396,1.695,2.509,2.212c0.521-0.817-0.398-1.174-0.757-1.774c0.161-0.219,0.319-0.438,0.521-0.696
	c0.359,0.16,0.636,0.28,0.876,0.379c0.118-0.261,0.158-0.479,0.241-0.677c-0.797-0.479-1.595-0.957-2.514-1.516
	c0.358-0.238,0.639-0.418,0.919-0.598c-0.162-0.398-0.319-0.777-0.481-1.176c0.162-0.197,0.319-0.418,0.521-0.697
	c0.478,0.438,0.836,0.797,1.195,1.174c0.276-0.357,0.517-0.635,1.034-0.258c0.039,0.398,0.078,0.819,0.122,1.235
	c0.197-0.557,0.197-1.115,0.236-1.673c0-0.101,0.202-0.219,0.32-0.32c0.118,0.121,0.197,0.202,0.319,0.28
	c0.158-0.079,0.359-0.179,0.517-0.28c0.28,0.121,0.557,0.241,0.916,0.399v-0.517c-0.758-0.239-1.394-0.46-2.27-0.736
	c0.518-0.201,0.798-0.32,1.113-0.46c-0.798-0.199-1.512-0.499-2.111-1.036c0.359-0.18,0.64-0.239,0.876,0.059
	c0.241,0.28,0.478,0.199,0.876-0.04c-0.517-0.219-0.915-0.378-1.354-0.556c0.162-0.201,0.319-0.381,0.478-0.561
	c-0.079-0.278-0.158-0.517-0.158-0.775c-0.039-0.081,0.119-0.16,0.28-0.3c0.237,0.239,0.478,0.44,0.675,0.618
	c0,0.398,0.04,0.738,0.079,1.075c0.319-0.138,0.6-0.258,0.88-0.376c0.276,0.219,0.478,0.398,0.636,0.539
	c0.24,0.736-0.158,1.472,0.398,2.071c0.876-0.101,0.797-0.679,1.077-1.097c-0.201-0.04-0.319-0.06-0.517-0.099
	c0-0.758-0.04-1.516-0.04-2.273c0-0.14,0.04-0.317,0.158-0.416c0.596-0.74,0.679-1.577,0.635-2.273
	c-0.197-0.337-0.354-0.556-0.438-0.696c0.481-0.46,0.92-0.836,1.234-1.137c0.084-0.398,0.123-0.698,0.162-1.036
	c0.32,0.14,0.557,0.219,0.758,0.32c0.04,0.376,0.079,0.716,0.079,0.977c0.438,0.258,0.876,0.478,1.235,0.696
	c-0.202,0.32-0.32,0.578-0.478,0.797c0.236,0.258,0.438,0.458,0.675,0.696c-0.237,0.339-0.438,0.639-0.636,0.977
	c-0.039,0.079,0.04,0.199,0.04,0.32c0.196-0.14,0.358-0.258,0.556-0.398c0.601,0.856-0.118,1.353-0.674,1.971
	c0.196,0.101,0.275,0.18,0.398,0.202c0.196,0.017,0.358-0.022,0.517-0.022c0.118,0,0.241,0.061,0.398,0.101
	c0.079,0.278,0.157,0.556,0.241,0.856c0.315,0.059,0.596,0.12,0.915,0.179c0.079-0.519,0.079-0.935,0.157-1.395
	c0.241-0.02,0.399-0.039,0.478-0.039l0.92,0.896c0.158-0.317,0.276-0.497,0.438-0.777c0.236,0.219,0.438,0.359,0.596,0.519
	c0.477-0.081,0.959-0.16,1.437-0.261c0.078-0.018,0.118-0.177,0.196-0.258c-0.275-0.118-0.517-0.197-0.797-0.298
	c0.04-0.18,0.04-0.298,0.083-0.46c0.438-0.04,0.793-0.079,1.235-0.118c-0.201-0.219-0.28-0.359-0.398-0.517
	c0.596-0.34,1.274,0.595,1.713-0.101c0.157-0.558-0.999-0.679-0.518-1.274c0.197,0.02,0.399,0.02,0.636,0.04
	c0.078-0.478,0.078-0.977,0.915-1.137c0.123,0.398,0.241,0.777,0.359,1.156c0.319,0.121,0.6,0.258,0.998,0.418
	c-0.319,0.101-0.521,0.18-0.679,0.239c-0.079,0.698,0.837,0.418,1.038,0.797c0.197,0.339,0.438,0.677,0.635,1.016
	c0.32-0.099,0.601-0.199,0.92-0.3c0.04,0.061,0.079,0.101,0.118,0.14c0.018-0.059,0.018-0.18,0.04-0.239
	c0.061,0.059,0,0.239,0.018,0.359c0.061,0.081,0.122,0.138,0.18,0.239c-0.04,0.04-0.097,0.062-0.158,0.101
	c-0.021,0.297,0,0.617,0.039,0.775c0.022,0.438,0.119,0.858,0.22,1.277c0.101,0.02,0.18,0.04,0.258,0.079
	c0.079-0.738,0.28-1.592,0.64-2.091c-0.18,0.337-0.46,1.932-0.28,2.172c0.021,0,0.021,0,0.039,0c0.162-0.241,0.22-0.819,0.32-1.077
	c0.157-0.399,0.398-0.697,0.64-1.036c0.157-0.219,0.314-0.418,0.517-0.617c0.28-0.278,0.718-0.519,0.954-0.797
	c-1.274,1.316-2.071,2.731-2.549,4.544c-0.039,0.04-0.039,0.079-0.039,0.118c0.157,0.32,0.236,0.738,0.319,1.038
	c0.079,0.057,0.141,0.138,0.197,0.197c0.079,0.061,0.162,0.101,0.219,0.14c0-0.14-0.057-0.32-0.057-0.418
	c0.039,0.099,0.079,0.3,0.118,0.458c0.197,0.12,0.359,0.219,0.517,0.339c-0.157,0.02-0.28-0.02-0.416,0
	c0.097,0.458,0.237,0.935,0.456,1.075c0.078-0.118-0.04-0.278,0.039-0.398c0.141,0.258,0.162,0.578,0.241,0.858
	c0.018,0,0.039,0.018,0.079,0.039c-0.018-0.319-0.04-0.617-0.079-0.917c-0.04-0.219-0.28-1.036-0.118-1.235
	c0.236,0.219,0.275,1.136,0.315,1.456c0.043,0.237,0.061,0.478,0.083,0.736c0.118,0,0.219,0.04,0.337,0.062
	c0.141-0.539,0.337-1.058,0.377-1.496v-0.099c0.039,0.057,0.039,0.118,0.039,0.177c0.123,0.398,0.28,0.797,0.398,1.196
	c0-0.178-0.039-0.379-0.039-0.559c-0.039-0.278-0.039-0.758-0.118-1.156c0.28,0.977,0.438,2.035,0.517,3.009
	c0.123-0.278,0-0.716,0-1.016c0-0.438,0.039-0.876-0.039-1.314c-0.079-0.876-0.197-1.773-0.276-2.669
	c0.197,0.598,0.517,1.154,0.636,1.772c0.118,0.698,0.201,1.415,0.319,2.113c0.197,1.255,0.157,2.512,0.241,3.765v-0.018
	c0.039-0.121,0.039-0.241,0.078-0.379v-0.199c0-0.199-0.162-0.977-0.039-1.095c0.039,0.079,0.079,0.177,0.118,0.276
	c0-0.298,0.039-0.596,0.039-0.916c0.04-0.876,0-1.752,0.158-2.63c0.122,0.317,0.083,0.698,0.083,1.058
	c0.517,0.118,0.955,0.197,1.511,0.317c0.123-0.099,0.241-0.219,0.398-0.359c-0.275-0.357-0.556-0.677-0.836-1.016
	c0.122-0.099,0.241-0.199,0.359-0.3c-0.438-0.298-0.798-0.596-0.636-1.114h1.512c0.358-0.259,0.797-0.537,1.234-0.817
	c-0.876-0.618-0.876-0.618-1.033-1.314c0.635,0.138,1.195,0.278,1.831,0.438c0-0.819-0.557-1.296-1.196-1.835
	c0.442-0.098,0.758-0.177,1.077-0.236c-0.039-0.18-0.078-0.32-0.078-0.479c0.319-0.059,0.635-0.121,0.994-0.18
	c-0.276-0.258-0.478-0.478-0.758-0.755c0.241-0.121,0.442-0.219,0.64-0.339c0.319,0.16,0.6,0.278,0.797,0.379
	c0.319-0.16,0.6-0.3,0.876-0.438c-0.197-0.202-0.438-0.399-0.675-0.618c0.315-0.121,0.517-0.18,0.837-0.28
	c-0.438-0.258-0.758-0.438-1.117-0.637c0.04-0.318,0.04-0.618,0.04-0.878c0.28-0.099,0.477-0.158,0.679-0.236
	c-0.561-0.398-0.561-0.839-0.202-1.277c0.04-0.04,0.162-0.04,0.28-0.059c0.04,0.219,0.119,0.438,0.197,0.718
	c0.482,0.079,0.999,0.158,1.477,0.219c0.039,0.158,0.118,0.298,0.157,0.416c0.481-0.099,0.837-0.239,0.64-0.696
	c-0.517-0.399-1.077-0.817-1.713-1.314c0.518-0.101,0.798-0.162,0.994-0.202c-0.438-0.219-0.915-0.478-1.471-0.758
	c0.236-0.197,0.354-0.298,0.398-0.357l-0.521-0.716c0.039-0.042,0.079-0.081,0.123-0.121c0.275,0.099,0.556,0.199,0.836,0.3
	c0.158-0.398,0.197-0.398,0.675-0.679c0.758,0.199,0.28,0.856,0.64,1.215c0.236-0.099,0.398-0.16,0.556-0.219
	c-0.039-0.199-0.039-0.359-0.079-0.519c0.478-0.079,0.876-0.14,1.314-0.219c-0.158-0.637-1.156-1.016-0.714-1.712h0.596
	c-0.158-0.28-0.32-0.539-0.478-0.777c0.197-0.239,0.359-0.458,0.517-0.618c-0.157-0.26-0.236-0.458-0.28-0.479
	c0.481-0.696,0.881-1.235,1.279-1.774c0.714,0.162,0.354,0.679,0.596,0.959c0.28,0.298,0.639,0.556,0.998,0.876
	c-0.122,0.158-0.28,0.319-0.359,0.418c0.079,0.598,0.158,1.115,0.237,1.833c-0.04-0.04,0.078,0.079,0.162,0.199
	c0.118,0.121,0.157,0.258,0.236,0.339c-0.359,1.034-0.236,1.513,0.517,2.131c0.044-0.398,0.083-0.755,0.083-1.196
	c0.398-0.079,0.758-0.16,1.196-0.238c0.196-0.359,0.438-0.758,0.635-1.135c0.201,0,0.319,0.018,0.319,0.018
	c0.158,0.679,0.28,1.296,0.438,1.993c-0.236,0.16-0.557,0.359-0.876,0.558c-0.079,0.219-0.118,0.44-0.158,0.659
	c-0.319,0.079-0.639,0.138-0.919,0.219c0,0.059,0,0.118,0,0.179c0.679,0.158,1.396,0.318,2.115,0.497l0.394,0.379
	c0.28-0.339,0.521-0.617,0.758-0.957c0.679,0.618,0.04,1.154,0.123,1.693c0.197,0.062,0.398,0.121,0.635,0.202
	c-0.556,0.696-1.313,1.034-2.071,1.393c0.118,0.16,0.201,0.298,0.28,0.42c0.398,0.057,0.797,0.099,1.274,0.158
	c-0.32,0.359-0.557,0.618-0.837,0.898c0.04,0.219,0.04,0.458,0.079,0.896c0.64-0.617,1.117-1.114,1.594-1.574
	c0.158-0.14,0.359-0.219,0.601-0.359c0.315,0.5,0.557,0.917,0.793,1.296c-0.236,0.578-0.793,0.736-1.314,0.938
	c0,0.618-0.876,0.537-1.156,0.955c-0.275,0.339-0.915,0.519-1.393,0.758c0.28,0.298,0.478,0.5,0.679,0.718
	c0.158-0.78,0.797-1.078,1.634-1.078c0.438-0.578,0.876-0.994,1.791-1.016v0.679c-0.28,0.118-0.517,0.197-0.797,0.317
	c-0.039,0.339-0.079,0.699-0.079,1.097l-0.836,0.836c0.236,0.219,0.398,0.398,0.556,0.556c0.438-0.258,0.798-0.458,1.156-0.676
	c0.359,0.179,0.64,0.3,0.837,0.418v1.437c-0.28,0.197-0.517,0.357-0.797,0.537c0.078,0.16,0.118,0.3,0.162,0.438
	c-0.96,0.957-1.038,1.075-0.96,1.912c0.281-0.337,0.518-0.657,0.837-0.915c0.123-0.119,0.398-0.14,0.601-0.2
	c0.595,0.778-0.438,0.997-0.601,1.356c0.162,0.337,0.28,0.578,0.398,0.816c0.04,0.121,0.123,0.259,0.28,0.537
	c0.079-0.657,0.158-1.134,0.241-1.594c0.236,0,0.354-0.018,0.517-0.018c0.158,0.237,0.359,0.458,0.557,0.716
	c0.319-0.18,0.521-0.3,0.718-0.418c0.679,0.517-0.319,0.718-0.157,1.135c0.118,0.14,0.236,0.28,0.354,0.44
	c-0.557,0.239-1.112,0.458-1.949,0.795c0.675-0.057,1.073-0.099,1.472-0.099c0.398-0.02,0.797-0.02,0.999-0.02
	c0.915-0.258,1.712-0.5,2.431-0.736c-0.438-0.241-1.196,0.18-1.796-0.3c0.64-0.378,1.279-0.098,1.796-0.278
	c0.718-0.241,1.432-0.42,2.15-0.618c0.039-0.022,0.079-0.081,0.079-0.081c-0.359-0.12-0.714-0.219-1.196-0.357
	c0.398-0.18,0.601-0.28,0.798-0.359v-1.117c-0.478,0.478-0.876,0.876-1.314,1.314c-0.241-0.057-0.478-0.099-0.718-0.158
	c-0.399,0.101-0.758,0.2-1.394,0.377c0.359-0.398,0.518-0.576,0.68-0.775c-0.881-0.478-1.117,0.578-1.796,0.458
	c0.28-1.215,1.354-1.333,2.47-1.294c0.359-0.219,0.719-0.42,1.038-0.618c-0.039-0.241-0.079-0.438-0.122-0.618
	c-0.715-0.081-1.314,0.736-2.151-0.061c0.758-0.219,1.437-0.418,2.072-0.596c-0.197-0.081-0.438-0.162-0.714-0.3
	c0.793-0.498,1.87,0.12,2.47-0.539c-0.438-0.199-0.836-0.379-1.195-0.537c0.157-0.28,0.236-0.459,0.359-0.679
	c-0.798,0-0.64,0.916-1.516,0.758c0.079-0.258,0.118-0.478,0.197-0.696c-0.04-0.022-0.118-0.042-0.158-0.062
	c-0.359,0.418-0.718,0.817-1.156,1.296c-0.118-0.219-0.24-0.381-0.28-0.539c-0.079-0.14-0.079-0.298-0.118-0.5
	c-0.478,0.32-0.438,0.918-1.195,1.038c0.078-0.359,0.157-0.679,0.24-1.117c0.518-0.359,1.034-0.856,1.713-1.196
	c0.64-0.359,1.393-0.598,2.111-0.797c0.6-0.158,1.234-0.199,1.914-0.298c0.039-0.28,0.078-0.5,0.157-0.819
	c-0.517,0.162-0.876,0.261-1.313,0.399c-0.119-0.399-0.241-0.697-0.359-1.135c-0.557,0.359-0.994,0.657-1.433,0.916
	c-0.122,0.062-0.359,0-0.679,0c0.28-0.337,0.478-0.556,0.679-0.797c-0.6-0.197-1.195-0.456-1.357-1.134
	c0.438,0.079,0.837,0.238,1.117,0.157c1.156-0.258,2.272-0.556,3.346-0.935c0.561-0.199,0.876-0.617,0.6-1.114
	c-0.757,0.317-1.515,0.617-2.233,0.915c-0.118-0.219-0.197-0.379-0.275-0.499c-0.32,0.022-0.601,0.042-0.96,0.042
	c0.518-0.659,1.634-1.435,2.593-1.833c-0.757-0.258-1.156-0.758-1.633-1.476c0.714,0.04,1.234,0.062,1.712,0.101
	c0.158-0.219,0.32-0.438,0.517-0.657c-0.319-0.061-0.556-0.101-0.915-0.16c-0.079-0.16-0.162-0.339-0.28-0.559
	c0.679-0.04,1.195-0.059,1.835-0.101c-0.162-0.158-0.28-0.237-0.319-0.337c-0.079-0.101-0.118-0.219-0.28-0.478
	c0.64,0.197,1.038,0.337,1.555,0.497c0.201-0.26,0.359-0.497,0.478-0.676c-0.32-0.399-1.034-0.46-0.797-1.038
	c0.319,0.022,0.6,0.04,0.959,0.061c0.078-0.438,0.118-0.836,0.157-1.274c0.241,0,0.438-0.022,0.596-0.022
	c0.201,0.519,0.398,0.999,0.561,1.415h0.994c-0.275,0.319-0.478,0.539-0.714,0.819l1.472,0.736c-0.635,0.101-1.033,0.16-1.432,0.219
	c0.477,0.876,1.195-0.239,1.673,0.241c0,0.179-0.04,0.337-0.04,0.497c0.557,0.02,1.113-0.44,1.595,0.12
	c-0.719,0.478-1.357,0.935-2.071,1.415c0.157,0.278,0.314,0.497,0.438,0.736c0.398-0.239,0.753-0.458,1.235-0.718
	c0.039,0.459,0.118,0.757,0.157,1.136h1.117c-0.517,0.716-1.397,0.699-2.071,0.938c-0.399-0.081-0.798-0.14-1.397-0.239
	c1.077,0.797,2.194,1.095,3.351,1.474c-0.202,0.637,1.195,0.479,0.994,1.154h-1.713c-0.039-0.04-0.122-0.219-0.201-0.478
	c-0.398,0.519-0.635,0.819-0.955,1.235c1.673,0.381,3.307,0.738,5.02,1.137c-0.994,0.278-0.994,0.278-1.354,0.659
	c0.438,0.317,0.876,0.635,1.354,0.955c-0.197,0.14-0.315,0.219-0.398,0.281c-0.876-0.399-1.713-0.797-2.51-1.157
	c-0.236,0.141-0.478,0.259-0.679,0.377c-0.354-0.317-0.635-0.596-0.994-0.896c-0.32,0.02-0.64,0.059-1.117,0.098
	c0.601,0.938,1.713,1.237,2.392,1.756c0.679,0.118,1.235,0.237,1.555,0.298c0.478,0.677,0.837,1.156,1.235,1.653
	c-0.32,0.121-0.557,0.199-0.837,0.3l1.516,1.314c0.18-0.04,0.398-0.062,0.635-0.119c-0.14-0.6-0.315-0.999-0.438-1.714
	c0.582-0.033,0.906,0.21,1.169,0.495c0.011-0.011,0.033-0.033,0.065-0.116c0.359,0.02,0.719,0.059,1.078,0.079
	c0.398-0.478,0.078-1.174,0.797-1.572c0.28,0.596,0.557,1.174,0.837,1.712c0.376-0.02,0.656-0.04,1.195-0.061
	c-0.079-0.18-0.118-0.399-0.241-0.537c-0.876-3.349-3.823-4.684-4.024-8.667c1.634-0.278,1.756,0.896,1.795,2.17
	c0.518-0.795,0.798-2.707,2.229-1.292c0.758-3.609,0.438-8.269,3.587-9.545C833.467,272.556,833.59,274.627,834.584,275.884z"/>
</svg>
