
<svg version="1.1" id="Layer_1" xmlns="http://www.w3.org/2000/svg" xmlns:xlink="http://www.w3.org/1999/xlink" x="0px" y="0px"
	 width="841.89px" height="595.28px" viewBox="0 0 841.89 595.28" enable-background="new 0 0 841.89 595.28" xml:space="preserve">
<path fill-rule="evenodd" clip-rule="evenodd" fill="#010101" d="M829.061,326.177c-0.467-0.543-1.071-1.026-1.344-1.658
	c-0.32-0.741,0.516-1.274,0.73-1.95c0.078-0.257,0.208-0.502,0.312-0.749c0.288-0.693,0.14-1.268-0.55-1.575
	c-0.787-0.353-1.066-0.874-0.897-1.717c0.186-0.937-0.062-1.8-0.664-2.539c-0.348-0.431-0.778-0.336-1.206-0.112
	c-0.122-1.117-0.669-2.294,0.746-3.102c0.419-0.24,0.189-0.815-0.199-1.154c-0.646-0.567-1.689-0.602-2.221-1.488
	c0.998-0.469,1.923-0.183,2.803-0.318c1.104-0.171,2.138-0.476,2.771-1.499c0.085-0.135,0.117-0.366,0.064-0.504
	c-0.048-0.133-0.279-0.312-0.378-0.286c-1.401,0.394-2.688-0.048-3.965-0.522c-0.293-0.109-0.792-0.171-0.614-0.666
	c0.063-0.169,0.454-0.213,0.688-0.334c0.479-0.25,0.279-0.508,0.032-0.822c-0.65-0.814-0.623-1.158-0.298-1.848
	c0.229-0.482,1.14-0.322,0.947-1.172c-0.938-0.462-1.918-0.925-2.875-1.424c-1.044-0.55-2.063-1.147-2.903-1.994
	c-0.107-0.107-0.169-0.353-0.123-0.485c0.036-0.112,0.276-0.24,0.409-0.222c0.447,0.057,0.882,0.195,1.328,0.268
	c1.17,0.197,2.342,0.297,3.515,0.03c0.142-0.032,0.315-0.204,0.354-0.346c0.037-0.126-0.051-0.348-0.158-0.447
	c-0.448-0.407-1.227-0.327-1.52-0.991c0.157-0.091,0.297-0.217,0.462-0.266c0.335-0.107,0.756-0.124,0.802-0.565
	c0.041-0.442-0.364-0.604-0.676-0.753c-0.654-0.309-1.335-0.568-2.006-0.845c-1.344-0.557-2.699-1.074-4.018-1.681
	c-0.543-0.247-1.223-0.462-1.255-1.321c0.642-0.297,1.219,0.115,1.823,0.163c1.167,0.099,2.354,0.284,3.471-0.261
	c0.146-0.069,0.309-0.252,0.32-0.398c0.014-0.142-0.114-0.392-0.243-0.439c-0.76-0.282-1.543-0.492-2.303-0.776
	c-0.323-0.124-0.87-0.384-0.856-0.542c0.124-1.449-1.095-1.719-1.926-2.342c-0.467-0.353-0.346-0.948-0.016-1.191
	c0.902-0.673,1.623-1.245,0.247-2.141c-0.063-0.041-0.142-0.169-0.123-0.233c0.348-1.298-0.632-1.717-1.464-2.253
	c-0.457-0.295-0.895-0.62-1.32-0.961c-0.691-0.559-1.028-1.231-0.698-2.154c0.148-0.41,0.387-1.063,0.204-1.275
	c-0.752-0.872-0.774-2.01-1.287-2.949c-0.22-0.398-0.889-0.488-1.149-0.11c-0.557,0.79-0.874,1.77-2.106,1.861
	c-0.496,0.039-0.712,0.668-0.567,1.087c0.533,1.548-0.211,2.372-1.497,2.977c-0.415,0.197-0.797,0.469-0.727,1.023
	c0.071,0.524-0.183,0.838-0.6,1.104c-0.671,0.435-1.708,0.534-1.916,1.397c-0.242,1.012,0.861,1.481,1.277,2.244
	c0.037,0.068,0.012,0.165,0.021,0.357c-1.151,0.673-2.479,0.948-3.789,1.298c-0.695,0.185-1.373,0.456-2.044,0.721
	c-0.145,0.058-0.291,0.257-0.316,0.408c-0.025,0.14,0.078,0.343,0.19,0.454c0.421,0.412,0.989,0.398,1.526,0.469
	c0.259,0.034,0.573,0.078,0.548,0.423c-0.114,1.521,0.577,3.322-1.479,4.178c-0.584,0.243-0.668,0.822-0.584,1.394
	c0.066,0.444,0.195,0.882,0.291,1.328c0.107,0.49-0.055,0.914-0.435,1.2c-0.504,0.382-1.035,0.73-1.589,1.033
	c-0.458,0.256-0.813,0.025-1.195-0.307c-0.822-0.712-0.872-0.701-1.504,0.188c-0.264,0.375-0.463,0.817-0.937,0.923
	c-0.927,0.21-1.211,0.78-0.889,1.604c0.417,1.063,0.023,1.729-0.865,2.273c-0.444,0.272-1.108,0.398-1.131,1.053
	c-0.053,1.505-1.378,1.791-2.299,2.413c-0.634,0.429-1.442-0.222-1.433-1.158c0.004-0.431-0.078-0.673-0.433-0.865
	c-0.797-0.435-1.61-0.847-2.374-1.33c-0.948-0.604-1.854-1.264-1.178-2.633c0.105-0.22,0.145-0.648,0.015-0.781
	c-0.802-0.803-0.928-1.937-1.481-2.85c-0.172-0.284-0.749-0.316-0.941-0.041c-0.357,0.518-0.579,1.346-1.051,1.518
	c-1.417,0.526-1.429,1.424-1.049,2.587c0.053,0.151,0.023,0.373-0.057,0.513c-0.076,0.14-0.252,0.268-0.405,0.305
	c-0.158,0.041-0.451,0.027-0.501-0.062c-0.349-0.625-0.642-1.282-0.976-1.914c-0.165-0.318-0.797-0.371-0.907-0.046
	c-0.448,1.369-1.758,1.691-2.756,2.401c-0.499,0.354-1.008,0.387-1.543,0.236c-1.41-0.398-2.658-1.147-3.849-1.979
	c-0.216-0.153-0.286-0.497,0.021-0.671c0.309-0.172,0.657-0.312,1.005-0.378c0.62-0.119,1.259-0.155,1.882-0.265
	c0.14-0.025,0.318-0.195,0.355-0.334c0.034-0.135-0.037-0.373-0.147-0.458c-0.21-0.16-0.474-0.256-0.726-0.354
	c-1.051-0.408-1.984-0.863-2.03-2.237c-0.025-0.706-0.742-0.982-1.236-1.367c-0.6-0.467-0.813-0.948-0.197-1.568
	c0.117-0.119,0.259-0.426,0.22-0.462c-0.925-0.856-0.348-2.491-1.698-3.15c-0.948-0.465-1.396-1.282-1.548-2.386
	c-0.272-1.985-1.601-3.601-2.161-5.504c-0.092-0.309-0.705-0.302-0.925-0.004c-0.158,0.218-0.353,0.438-0.422,0.689
	c-0.22,0.813-0.646,1.218-1.552,1.138c-0.554-0.048-0.824,0.469-0.751,0.925c0.264,1.648-0.17,2.848-1.848,3.437
	c-0.557,0.197-0.52,0.618-0.325,1.108c0.114,0.289-0.107,0.529-0.428,0.499c-0.371-0.032-0.781-0.192-0.797-0.6
	c-0.023-0.664,0.332-1.143,0.852-1.598c0.683-0.602,0.65-0.703-0.009-1.225c-0.495-0.398-1.1-0.632-0.861-1.484
	c0.146-0.531-0.354-0.771-0.728-1.023c-0.827-0.559-1.672-1.092-2.471-1.689c-0.707-0.526-1.119-1.179-0.659-2.111
	c0.197-0.41,0.394-1.007,0.085-1.298c-0.933-0.877-0.925-2.118-1.415-3.157c-0.252-0.538-0.984-0.536-1.301,0.037
	c-0.518,0.929-0.801,2.035-2.193,2.102c-0.302,0.014-0.474,0.524-0.435,0.911c0.036,0.357,0.082,0.724,0.199,1.063
	c0.293,0.847-0.09,1.394-0.737,1.845c-0.373,0.256-0.758,0.499-1.141,0.746c-0.327,0.211-0.423,0.513-0.489,0.9
	c-0.204,1.167-0.761,1.756-1.768,1.882c-0.229,0.028-0.543-0.089-0.717-0.247c-0.257-0.241-0.394-0.607-0.637-0.868
	c-0.3-0.323-0.673-0.284-0.918,0.062c-0.506,0.708-0.675,1.678-1.729,1.944c-0.361,0.089-0.32,0.598-0.451,0.93
	c-0.302,0.778-0.489,0.868-1.142,0.451c-0.838-0.533-1.653-1.108-2.43-1.729c-0.606-0.487-0.854-1.145-0.6-1.943
	c0.16-0.504,0.535-1.097,0.112-1.55c-0.726-0.778-0.884-1.763-1.231-2.685c-0.238-0.632-0.834-0.712-1.255-0.22
	c-0.46,0.529-0.468,1.495-1.333,1.612c-1.254,0.169-1.422,0.978-1.243,1.967c0.211,1.172-0.272,1.912-1.284,2.408
	c-0.746,0.367-1.49,0.721-1.182,1.813c0.042,0.156-0.263,0.446-0.457,0.618c-0.646,0.565-1.873,0.606-1.883,1.735
	c-0.006,0.964,1.202,1.275,1.498,2.262c-0.797,0.586-1.779,0.797-2.711,1.12c-1.112,0.382-2.248,0.71-3.361,1.104
	c-0.208,0.078-0.439,0.332-0.492,0.545c-0.08,0.318,0.223,0.472,0.492,0.518c0.713,0.114,1.429,0.194,2.141,0.286
	c-0.021,1.605-0.021,1.609,1.226,1.804c0.361,0.057,0.724,0.068,1.085,0.101l0.046,0.05c-0.753,1.186-1.836,1.923-3.171,2.313
	c-0.066-0.08-0.135-0.158-0.204-0.238c0.023-0.65-0.407-0.952-0.897-1.239c-0.288-0.167-0.765-0.3-0.565-0.778
	c0.236-0.561-0.029-0.847-0.451-1.097c-0.7-0.419-1.429-0.796-2.097-1.257c-0.531-0.366-1.053-0.899-0.902-1.575
	c0.398-1.735-1.044-2.788-1.442-4.224c-0.133-0.481-0.879-0.499-1.051-0.005c-0.373,1.067-1.085,1.566-2.149,1.809
	c-1.566,0.351-2.961-0.565-2.936-2.191c0.014-0.987-0.146-1.724-0.908-2.399c-0.373-0.334-0.488-0.955-0.722-1.445
	c-0.158-0.341-0.39-0.652-0.778-0.671c-0.392-0.018-0.637,0.261-0.773,0.634c-0.221,0.575-0.335,1.145-1.02,1.5
	c-1.238,0.636-1.204,0.709-0.986,1.777c0.087,0.437,0.235,0.872,0.266,1.314c0.022,0.382-0.257,0.659-0.563,0.872
	c-0.353,0.245-0.707,0.153-1.017-0.045c-0.737-0.474-1.223-1.065-0.899-2.04c0.14-0.421,0.392-1.056,0.206-1.282
	c-0.822-1.017-0.976-2.306-1.589-3.391c-0.16-0.289-0.753-0.325-0.957-0.078c-0.117,0.14-0.281,0.268-0.323,0.428
	c-0.261,1.04-0.762,1.781-1.937,1.949c-0.357,0.05-0.49,0.513-0.465,0.893c0.025,0.359,0.066,0.728,0.181,1.067
	c0.248,0.719,0.005,1.239-0.586,1.635c-0.375,0.252-0.765,0.49-1.17,0.694c-0.632,0.318-0.858,0.707-0.79,1.497
	c0.092,1.007-0.908,1.241-1.65,1.511c-0.724,0.263-0.836-0.467-1.167-0.856c-0.497-0.584-0.985-0.634-1.271,0.032
	c-0.595,1.378-1.574,1.287-2.701,0.971c-0.174-0.05-0.344-0.119-0.506-0.197c-0.41-0.197-0.822-0.392-1.221-0.607
	c-0.855-0.469-0.869-0.717-0.014-1.227c0.307-0.183,0.719-0.248,0.712-0.689c-0.011-0.554-0.455-0.76-0.899-0.86
	c-0.613-0.145-1.25-0.195-1.863-0.332c-0.129-0.028-0.31-0.374-0.293-0.387c0.6-0.563,0.43-1.506,1.09-2.063
	c0.842-0.712,0.799-0.742,0.178-1.193c-0.819-0.595-1.662-1.067-2.713-1.154c-1.002-0.083-1.948-0.426-2.795-0.989
	c1.085-0.032,2.173-0.069,3.26-0.094c0.907-0.021,1.818,0.002,2.723-0.039c0.845-0.037,1.613-0.309,2.154-0.991
	c0.145-0.179,0.169-0.483,0.174-0.73c0.002-0.055-0.303-0.142-0.474-0.171c-0.351-0.06-0.768,0.016-1.042-0.153
	c-0.513-0.316-0.078-0.809-0.075-1.228c0.002-0.465-0.298-0.65-0.701-0.506c-1.559,0.565-2.997,0.547-4.229-0.744
	c0.366-0.746,1.228-0.268,1.667-0.657c0.49-0.439,0.833-1.044,1.22-1.55c-0.723-0.671-1.921-0.529-2.314-1.438
	c-0.346-0.804-0.991-0.969-1.646-1.241c-0.39-0.162-0.921-0.178-0.955-0.803c0.773-0.428,1.587-0.028,2.377-0.103
	c0.771-0.073,1.623,0.183,2.275-0.463c-0.238-0.588-0.783-0.474-1.147-0.687c-0.322-0.192-0.881-0.19-0.799-0.84
	c0.279-0.071,0.536-0.137,0.795-0.194c0.245-0.055,0.579-0.048,0.597-0.357c0.017-0.289-0.256-0.442-0.528-0.54
	c-0.941-0.332-1.887-0.65-2.812-1.023c-0.346-0.14-0.598-0.438-0.22-0.815c0.339-0.344,0.19-0.644-0.048-0.943
	c-0.349-0.431-0.071-0.607,0.291-0.778c0.313-0.151,0.656-0.302,0.574-0.822c-0.407-0.117-0.836-0.288-1.28-0.348
	c-1.149-0.161-2.017-0.515-2.204-1.887c-0.083-0.598-0.732-0.959-1.291-1.31c-0.568-0.357-0.504-0.92,0.004-1.349
	c0.289-0.242,0.642-0.506,0.296-0.835c-0.538-0.508-0.843-0.968-0.962-1.786c-0.105-0.742-1.271-0.891-1.907-1.385
	c-0.215-0.167-0.439-0.318-0.661-0.479c-0.822-0.59-1.255-1.287-0.73-2.314c0.272-0.534,0.211-1.017-0.3-1.447
	c-0.252-0.213-0.401-0.58-0.526-0.907c-0.193-0.492-0.143-1.298-0.681-1.385c-0.838-0.128-0.843,0.808-1.071,1.333
	c-0.346,0.797-1.192,0.286-1.625,0.744c-0.813,0.858-1.457,0.233-2.135-0.218c-0.693-0.462-0.963-1.046-0.6-1.856
	c0.227-0.506,0.485-1.269,0-1.502c-1.19-0.582-1.131-1.784-1.648-2.688c-0.087-0.146-0.297-0.353-0.398-0.33
	c-0.233,0.055-0.549,0.19-0.636,0.378c-0.412,0.929-0.313,2.127-1.914,2.228c-0.681,0.043-0.431,1.087-0.136,1.637
	c0.553,1.025,0.149,1.673-0.639,2.335c-0.625,0.526-2.11,0.701-1.085,2.118c0.051,0.069-0.092,0.348-0.208,0.451
	c-1.184,1.037-2.393,1.959-4.146,1.374c-1.03-0.346-2.115-0.522-3.161-0.827c-0.671-0.197-1.784-0.279-1.743-1
	c0.056-0.906,1.127-0.377,1.745-0.517c0.707-0.163,1.427-0.263,2.132-0.424c0.366-0.083,0.643-0.3,0.625-0.735
	c-0.17-0.06-0.332-0.153-0.506-0.176c-1.301-0.188-2.769-0.009-3.293-1.74c-0.073-0.24-0.608-0.332-0.922-0.506
	c-1.065-0.6-1.209-0.831-0.573-1.875c0.39-0.637,0.335-0.935-0.256-1.271c-0.218-0.126-0.596-0.369-0.568-0.474
	c0.296-1.188-0.682-1.293-1.351-1.667c-0.554-0.309-1.126-0.593-1.657-0.936c-0.657-0.421-1.063-0.964-0.774-1.825
	c0.225-0.662,0.099-1.225-0.563-1.637c-0.502-0.307-0.48-0.948-0.742-1.417c-0.165-0.298-0.259-0.767-0.732-0.623
	c-0.201,0.06-0.364,0.351-0.483,0.57c-0.213,0.394-0.3,1.097-0.574,1.17c-1.337,0.355-1.5,1.048-0.909,2.17
	c0.383,0.726-0.176,1.154-0.6,1.635c-0.392,0.439-1.326,0.524-1.117,1.346c0.203,0.808-0.238,1.165-0.751,1.568
	c-0.419,0.328-0.962,0.545-1.11,1.131c0.238,0.895,1.419,1.058,1.575,2.079c-0.71,0.724-1.667,1.046-2.551,1.495
	c-0.937,0.472-2.076,0.6-2.866,1.632c0.49,0.137,0.831,0.236,1.175,0.323c0.428,0.112,0.971,0.151,0.978,0.726
	c0.002,0.5-0.417,0.767-0.845,0.969c-0.247,0.117-0.499,0.222-0.735,0.357c-0.22,0.126-0.549,0.229-0.359,0.582
	c0.071,0.137,0.261,0.254,0.417,0.291c0.437,0.105,0.964,0.039,1.313,0.264c0.607,0.392-0.181,1.007,0.053,1.451
	c0.55,1.046-0.188,1.823-0.394,2.729c-0.233,1.026-0.531,1.82-1.536,2.315c-0.6,0.293-0.561,0.417,0.252,0.945
	c0.261,0.174,0.41,0.307,0.24,0.604c-0.043,0.078-0.119,0.137-0.192,0.19c-1.206,0.911-3.169,1.186-2.82,3.414
	c0.022,0.145-0.325,0.382-0.538,0.526c-0.522,0.353-1.066,0.671-1.623,1.015c1.049,0.881,1.049,0.881-0.119,1.5
	c-0.323-0.016-0.646-0.028-0.969-0.042c-0.533-0.483-1.063-0.978-1.604-1.449c-0.618-0.533-0.639-0.986,0.053-1.509
	c0.329-0.242,0.222-0.609-0.099-0.904c-0.31-0.279-1.021-0.419-0.783-0.927c0.33-0.708,0.053-0.955-0.485-1.262
	c-0.705-0.405-1.396-0.84-2.052-1.319c-0.695-0.508-1.189-1.115-0.753-2.076c0.19-0.415,0.305-1.003-0.05-1.285
	c-0.73-0.582-0.781-1.392-0.991-2.17c-0.073-0.266-0.271-0.492-0.573-0.46c-0.144,0.018-0.375,0.19-0.389,0.316
	c-0.206,1.438-1.539,1.529-2.478,2.069c-0.206,0.117-0.528,0.145-0.765,0.083c-1.24-0.325-1.841-1.323-1.565-2.621
	c0.091-0.442,0.396-1.12,0.009-1.248c-1.346-0.453-1.107-1.763-1.648-2.637c-0.142-0.227-0.312-0.435-0.632-0.387
	c-0.318,0.045-0.444,0.286-0.531,0.54c-0.313,0.914-0.503,1.779-1.797,1.978c-0.717,0.112-0.444,1.12-0.149,1.642
	c0.587,1.042,0.146,1.671-0.629,2.321c-0.664,0.554-2.018,0.788-1.197,2.177c-0.271,0.9-2.26,2.139-3.288,1.935
	c-1.95-0.387-3.919-0.751-5.765-1.543c-0.394-0.169-0.867-0.298-0.966-0.943c0.565-0.323,1.186-0.119,1.771-0.13
	c0.994-0.023,2.001,0.071,2.944-0.355c0.215-0.096,0.526-0.194,0.417-0.524c-0.048-0.14-0.243-0.291-0.394-0.323
	c-0.708-0.145-1.422-0.266-2.139-0.362c-0.938-0.124-0.606-1.259-1.291-1.578c-0.248-0.112-0.499-0.22-0.732-0.359
	c-1.067-0.641-1.113-0.712-0.55-1.884c0.158-0.33,0.499-0.662,0.133-0.904c-0.652-0.439-0.804-1.06-1.104-1.712
	c-0.238-0.522-1.193-0.712-1.822-1.063c-0.396-0.22-0.778-0.462-1.163-0.7c-0.708-0.438-0.989-1.012-0.646-1.839
	c0.224-0.538,0.24-1.073-0.371-1.398c-0.442-0.231-0.604-0.646-0.774-1.069c-0.164-0.4-0.191-0.964-0.746-1.017
	c-0.604-0.055-0.62,0.541-0.778,0.92c-0.172,0.421-0.252,0.893-0.797,0.987c-1.131,0.194-0.925,0.886-0.6,1.607
	c0.288,0.644,0.266,1.198-0.281,1.724c-0.65,0.621-1.857,0.932-1.337,2.278c0.048,0.124-0.289,0.421-0.483,0.604
	c-0.458,0.426-1.085,0.675-1.374,1.28c0.058,0.167,0.069,0.369,0.179,0.49c1.63,1.765,1.626,1.815-0.518,2.861
	c-0.407,0.199-0.828,0.371-1.243,0.554c-2.621,1.154-2.214,0.591-3.018,3.645c-0.068,0.261-0.082,0.538-0.121,0.808
	c-0.08,0.583-0.467,0.613-0.966,0.65c-1.287,0.096-1.575,0.5-1.275,1.674c0.131,0.524,0.323,1.04,0.552,1.527
	c0.361,0.779,0.184,1.415-0.449,1.935c-0.625,0.513-1.272,1.005-1.928,1.488c-0.361,0.268-0.76,0.499-0.838,1
	c-0.67,0.435-1.431,0.721-1.79,1.57c-0.233,0.559-0.843,0.639-1.403,0.483c-0.561-0.153-0.94-0.545-1.042-1.126
	c-0.073-0.439,0.064-0.957-0.114-1.33c-0.329-0.691-0.213-1.953-1.097-1.944c-0.78,0.002-1.385,0.982-1.938,1.669
	c-0.102,0.126-0.11,0.348-0.11,0.524c-0.005,0.682-0.348,1.161-0.813,1.639c-0.557,0.579-0.978,1.282-1.521,1.875
	c-0.421,0.46-0.497,0.914-0.272,1.477c0.271,0.683-0.068,0.987-0.724,1.106c-0.256,0.048-0.496,0.199-0.746,0.302
	c-0.856,0.359-1.55-0.286-2.324-0.423c-0.35-0.06,0.115-0.6,0.037-0.93c-0.071-0.307-0.295-0.46-0.57-0.513
	c-0.828-0.154-0.952-0.536-0.671-1.335c0.456-1.282,0.286-1.504-0.945-1.982c-0.32-0.122-0.746,0.037-0.962-0.369
	c0.98-0.138,1.97-0.213,2.929-0.426c0.877-0.199,0.978-0.833,0.392-1.573c-0.403-0.506-0.778-0.979-1.518-0.943
	c-0.667,0.034-0.941-0.421-1.098-0.984c0.202-0.213,0.401-0.424,0.601-0.637c0.417-0.194,0.407-0.353-0.041-0.476
	c-0.774-0.664-1.553-1.328-2.396-2.051c0.841-0.435,1.645-0.002,2.276-0.465c-0.218-0.824-0.083-1.843-1.264-2.088
	c-0.941-0.192-1.047-0.93-0.911-1.676c0.089-0.488,0.196-0.914-0.385-1.067c-0.77-0.208-1.202-0.62-1.456-1.417
	c-0.192-0.609-0.969-0.875-0.689-1.861c0.165-0.588-0.3-1.554-1.053-2.035c-0.96-0.616-1.633-1.3-1.468-2.646
	c0.064-0.541-0.3-1.383-1.017-1.751c-0.449,0.467-0.879,0.897-1.493,1.106c-0.893,0.304-1.771-0.115-1.712-1.063
	c0.077-1.321-0.749-2.054-1.326-3.155c-0.712,1.181-2.172,1.747-1.54,3.313c0.045,0.117-0.085,0.354-0.195,0.478
	c-0.523,0.607-1.025,1.17-1.261,2.017c-0.186,0.675-0.974,1.197-1.731,1.069c-1.218-0.211-2.541-0.24-3.546-1.163
	c0.479-0.863,1.644-0.266,2.106-1.074c-1.921-0.902-2.127-1.188-3.05-3.7c-0.181-0.492-0.463-1.129-0.875-1.326
	c-1.261-0.6-1.907-1.472-2.04-2.873c-0.045-0.474-0.572-0.9-0.89-1.36c-0.577,0.441-1.365,1.037-1.275,1.611
	c0.22,1.388-0.957,2.082-1.271,3.185c-0.204,0.715-0.848,1.209-0.779,2.178c0.069,0.95-0.876,1.504-1.783,1.806
	c-0.748,0.25-1.392-0.208-1.504-1.063c-0.194-1.477-0.194-1.477-1.417-2.823c-0.114,0.126-0.259,0.233-0.339,0.375
	c-0.439,0.801-1.58,1.316-1.042,2.521c-0.622,1.06-1.192,2.152-1.894,3.15c-0.22,0.312-0.816,0.563-1.199,0.513
	c-1.301-0.165-2.648-0.282-3.847-1.168c0.733-0.783,1.938-0.201,2.459-1.108c-2.015-0.735-1.982-0.749-3.093-3.526
	c-0.291-0.724-0.662-1.451-1.531-1.806c-0.873-0.355-1.415-0.971-1.415-2.09c-0.003-0.6-0.479-1.289-1.067-1.809
	c-0.54,0.937-1.712,1.344-1.277,2.614c0.078,0.231-0.22,0.687-0.462,0.909c-0.628,0.577-0.485,1.57-1.228,2.083
	c-0.32,0.222-0.192,0.596-0.082,0.971c0.339,1.145,0.29,1.17-0.57,1.683c-0.609,0.364-1.376,0.469-1.841,1.128
	c0.235,0.277,0.609,0.518,0.666,0.82c0.101,0.529-0.38,0.749-0.801,0.932c-0.497,0.22-0.957,0.046-1.187-0.353
	c-0.567-0.989-1.506-1.506-2.395-2.111c-1.008-0.689-0.279-2.168-1.264-2.885c-0.128-0.096-0.257-0.199-0.572-0.444
	c-0.11,0.803-1.364,0.914-1.154,1.612c0.376,1.241-0.654,1.763-0.918,2.644c-0.272,0.911-1.151,1.504-1.014,2.692
	c0.103,0.909-0.852,1.509-1.791,1.781c-0.787,0.224-1.405-0.188-1.536-1.037c-0.231-1.502-0.231-1.502-1.335-3.052
	c-0.235,0.38-0.38,0.902-0.707,1.081c-0.78,0.421-0.982,0.881-0.73,1.751c0.398,1.369-1.694,1.607-1.511,3.006
	c0.032,0.229-0.644,0.552-0.998,0.822c-0.069,0.048-0.17,0.076-0.257,0.078c-1.648,0.027-3.182-0.295-4.523-1.401
	c0.773-0.657,1.85,0.05,2.514-0.76c-1.772-0.994-1.763-0.996-2.798-3.672c-0.128-0.328-0.307-0.68-0.565-0.909
	c-0.664-0.59-1.531-1.012-2.045-1.701c-0.503-0.687-0.174-1.795-0.915-2.468c-0.131-0.117-0.279-0.21-0.513-0.392
	c-0.422,0.511-1.236,1.06-1.195,1.539c0.126,1.536-0.962,2.47-1.557,3.608c-0.339,0.657-0.509,1.048-0.071,1.662
	c0.235,0.332,0.068,0.723-0.264,0.929c-0.76,0.477-1.55,0.909-2.325,1.362c0.084,0.135,0.114,0.231,0.183,0.277
	c0.899,0.6,0.93,0.623,0.392,1.243c-0.3,0.351-0.753,0.591-0.14,1.03c0.641,0.456,0.424,1.159,0.431,1.754
	c0,0.424-0.371,0.858-0.362,1.282c0.019,0.774-0.978,1.042-0.78,1.905c0.249,1.078-1.083,0.998-1.388,1.701
	c-0.438,0.318-0.373,0.73-0.231,1.161c-0.215,0.174-0.43,0.348-0.646,0.522c-0.833,0.382-0.916,1.211-1.153,1.944
	c1.229,0.922,0.227,1.145-0.463,1.252c-0.678,0.11-1.149,0.433-1.609,0.875c-0.236,0.231-0.52,0.117-0.712-0.098
	c-0.238-0.266-0.383-0.721-0.664-0.817c-0.522-0.188-0.691,0.405-1.012,0.687c-0.456,0.405-0.957,0.76-1.616,1.28
	c-0.483-1.587-1.802-2.468-2.358-3.92c-0.852,0.236-0.893,1.051-1.429,1.39c-0.274,0.174-0.483,0.538-0.591,0.856
	c-0.242,0.742-0.682,0.737-1.241,0.424c-0.746-0.415-1.373-0.935-1.261-1.903c0.08-0.675-0.213-1.229-0.453-1.818
	c-0.401-0.991-0.401-1.017-1.473-0.284c-0.325,0.227-0.627,0.318-0.998,0.25c-0.504-0.087-0.802,0.137-1.108,0.554
	c-0.728,0.994-1.994,1.472-2.546,2.694c-0.192,0.421-0.828,0.657-1.288,0.927c-0.216,0.128-0.415,0.034-0.557-0.126
	c0.256-0.062,0.501-0.171,0.724-0.392c-0.238-0.588-0.783-0.474-1.147-0.687c-0.322-0.192-0.881-0.19-0.799-0.84
	c0.279-0.071,0.535-0.137,0.797-0.194c0.242-0.055,0.579-0.048,0.595-0.357c0.017-0.289-0.254-0.442-0.526-0.54
	c-0.94-0.332-1.889-0.65-2.812-1.023c-0.348-0.14-0.595-0.438-0.222-0.815c0.341-0.344,0.189-0.644-0.048-0.943
	c-0.349-0.431-0.069-0.607,0.29-0.778c0.316-0.151,0.66-0.302,0.577-0.822c-0.41-0.117-0.836-0.288-1.282-0.348
	c-1.146-0.161-2.017-0.515-2.204-1.887c-0.083-0.598-0.733-0.959-1.292-1.31c-0.567-0.357-0.503-0.92,0.005-1.349
	c0.288-0.242,0.642-0.506,0.298-0.835c-0.54-0.508-0.845-0.968-0.964-1.786c-0.105-0.742-1.269-0.891-1.907-1.385
	c-0.215-0.167-0.439-0.318-0.659-0.479c-0.824-0.59-1.255-1.287-0.732-2.314c0.27-0.534,0.21-1.017-0.298-1.447
	c-0.254-0.213-0.403-0.58-0.526-0.907c-0.195-0.492-0.143-1.298-0.683-1.385c-0.838-0.128-0.843,0.808-1.071,1.333
	c-0.344,0.797-1.19,0.286-1.626,0.744c-0.813,0.858-1.456,0.233-2.131-0.218c-0.694-0.462-0.967-1.046-0.603-1.856
	c0.227-0.506,0.487-1.269,0.003-1.502c-1.191-0.582-1.132-1.784-1.651-2.688c-0.087-0.146-0.298-0.353-0.398-0.33
	c-0.233,0.055-0.549,0.19-0.634,0.378c-0.414,0.929-0.313,2.127-1.916,2.228c-0.678,0.043-0.431,1.087-0.133,1.637
	c0.549,1.025,0.146,1.673-0.642,2.335c-0.622,0.526-2.11,0.701-1.085,2.118c0.051,0.069-0.092,0.348-0.208,0.451
	c-1.184,1.037-2.393,1.959-4.146,1.374c-1.03-0.346-2.115-0.522-3.159-0.827c-0.673-0.197-1.786-0.279-1.743-1
	c0.052-0.906,1.126-0.377,1.745-0.517c0.705-0.163,1.424-0.263,2.13-0.424c0.366-0.083,0.645-0.3,0.624-0.735
	c-0.167-0.06-0.331-0.153-0.505-0.176c-1.3-0.188-2.769-0.009-3.292-1.74c-0.072-0.24-0.611-0.332-0.923-0.506
	c-1.065-0.6-1.208-0.831-0.573-1.875c0.39-0.637,0.334-0.935-0.256-1.271c-0.217-0.126-0.593-0.369-0.566-0.474
	c0.294-1.188-0.682-1.293-1.352-1.667c-0.554-0.309-1.124-0.593-1.656-0.936c-0.657-0.421-1.063-0.964-0.774-1.825
	c0.222-0.662,0.097-1.225-0.564-1.637c-0.5-0.307-0.48-0.948-0.741-1.417c-0.165-0.298-0.26-0.767-0.735-0.623
	c-0.201,0.06-0.36,0.351-0.48,0.57c-0.212,0.394-0.3,1.097-0.574,1.17c-1.338,0.355-1.5,1.048-0.91,2.17
	c0.382,0.726-0.176,1.154-0.601,1.635c-0.391,0.439-1.326,0.524-1.117,1.346c0.202,0.808-0.237,1.165-0.752,1.568
	c-0.419,0.328-0.96,0.545-1.109,1.131c0.24,0.895,1.418,1.058,1.576,2.079c-0.711,0.724-1.669,1.046-2.551,1.495
	c-0.936,0.472-2.078,0.6-2.866,1.632c0.489,0.137,0.831,0.236,1.176,0.323c0.428,0.112,0.97,0.151,0.975,0.726
	c0.002,0.5-0.417,0.767-0.844,0.969c-0.247,0.117-0.499,0.222-0.736,0.357c-0.22,0.126-0.547,0.229-0.359,0.582
	c0.072,0.137,0.261,0.254,0.418,0.291c0.437,0.105,0.965,0.039,1.313,0.264c0.607,0.392-0.182,1.007,0.054,1.451
	c0.55,1.046-0.188,1.823-0.395,2.729c-0.235,1.026-0.531,1.82-1.536,2.315c-0.599,0.293-0.56,0.417,0.253,0.945
	c0.26,0.174,0.41,0.307,0.239,0.604c-0.042,0.078-0.119,0.137-0.191,0.19c-1.207,0.911-3.169,1.186-2.82,3.414
	c0.023,0.145-0.326,0.382-0.539,0.526c-0.522,0.353-1.066,0.671-1.622,1.015c1.047,0.881,1.047,0.881-0.121,1.5
	c-0.323-0.016-0.643-0.028-0.966-0.042c-0.535-0.483-1.063-0.978-1.607-1.449c-0.617-0.533-0.637-0.986,0.054-1.509
	c0.328-0.242,0.222-0.609-0.101-0.904c-0.306-0.279-1.02-0.419-0.782-0.927c0.332-0.708,0.054-0.955-0.484-1.262
	c-0.705-0.405-1.397-0.84-2.054-1.319c-0.696-0.508-1.19-1.115-0.752-2.076c0.189-0.415,0.306-1.003-0.049-1.285
	c-0.732-0.582-0.781-1.392-0.992-2.17c-0.073-0.266-0.271-0.492-0.57-0.46c-0.145,0.018-0.375,0.19-0.393,0.316
	c-0.205,1.438-1.535,1.529-2.476,2.069c-0.205,0.117-0.527,0.145-0.763,0.083c-1.241-0.325-1.84-1.323-1.567-2.621
	c0.093-0.442,0.397-1.12,0.01-1.248c-1.347-0.453-1.107-1.763-1.648-2.637c-0.141-0.227-0.31-0.435-0.633-0.387
	c-0.317,0.045-0.443,0.286-0.53,0.54c-0.314,0.914-0.502,1.779-1.798,1.978c-0.717,0.112-0.444,1.12-0.15,1.642
	c0.59,1.042,0.149,1.671-0.626,2.321c-0.665,0.554-2.02,0.788-1.201,2.177c-0.269,0.9-2.257,2.139-3.286,1.935
	c-1.953-0.387-3.92-0.751-5.765-1.543c-0.394-0.169-0.868-0.298-0.966-0.943c0.565-0.323,1.185-0.119,1.771-0.13
	c0.995-0.023,2.002,0.071,2.943-0.355c0.217-0.096,0.528-0.194,0.416-0.524c-0.047-0.14-0.24-0.291-0.392-0.323
	c-0.708-0.145-1.423-0.266-2.141-0.362c-0.935-0.124-0.605-1.259-1.288-1.578c-0.248-0.112-0.501-0.22-0.733-0.359
	c-1.068-0.641-1.112-0.712-0.549-1.884c0.157-0.33,0.498-0.662,0.132-0.904c-0.654-0.439-0.805-1.06-1.104-1.712
	c-0.239-0.522-1.194-0.712-1.825-1.063c-0.394-0.22-0.777-0.462-1.162-0.7c-0.708-0.438-0.988-1.012-0.645-1.839
	c0.225-0.538,0.241-1.073-0.372-1.398c-0.442-0.231-0.603-0.646-0.773-1.069c-0.163-0.4-0.191-0.964-0.744-1.017
	c-0.605-0.055-0.623,0.541-0.778,0.92c-0.174,0.421-0.253,0.893-0.798,0.987c-1.133,0.194-0.927,0.886-0.601,1.607
	c0.288,0.644,0.267,1.198-0.282,1.724c-0.649,0.621-1.857,0.932-1.336,2.278c0.047,0.124-0.29,0.421-0.483,0.604
	c-0.459,0.426-1.085,0.675-1.375,1.28c0.059,0.167,0.071,0.369,0.18,0.49c1.628,1.765,1.625,1.815-0.519,2.861
	c-0.409,0.199-0.829,0.371-1.243,0.554c-2.62,1.154-2.212,0.591-3.018,3.645c-0.067,0.261-0.082,0.538-0.119,0.808
	c-0.082,0.583-0.467,0.613-0.967,0.65c-1.286,0.096-1.575,0.5-1.276,1.674c0.028,0.11,0.068,0.22,0.102,0.33
	c-0.623,0.652-0.891,1.477-0.48,2.649c0.051,0.144-0.009,0.474-0.086,0.499c-1.224,0.378-1.389,2.147-2.885,2.175
	c-0.341,0.007-0.726,0.101-0.923,0.483c0.165,0.229,0.363,0.369,0.58,0.458c-0.31,0.231-0.583,0.513-0.758,0.927
	c-0.237,0.559-0.843,0.639-1.405,0.483c-0.563-0.153-0.943-0.545-1.042-1.126c-0.076-0.439,0.063-0.957-0.116-1.33
	c-0.327-0.691-0.212-1.953-1.094-1.944c-0.536,0-0.99,0.467-1.399,0.978c-0.053-0.284-0.019-0.595,0.132-0.943
	c0.176-0.414,0.256-0.95-0.133-1.257c-0.34-0.266-0.806-0.336-1.049-0.788c-0.217-0.405-0.024-1.161-0.904-1.12
	c-0.414,1.395-1.612,2.466-1.322,4.186c0.145,0.858-1.079,1.357-2.022,0.964c-0.408-0.17-0.818-0.36-1.177-0.611
	c-0.276-0.195-0.213-0.765-0.734-0.797c-0.295-0.312-0.633-0.538-1.15-0.513c-0.667,0.034-0.942-0.421-1.097-0.984
	c0.199-0.213,0.401-0.424,0.599-0.637c0.418-0.194,0.409-0.353-0.039-0.476c-0.776-0.664-1.552-1.328-2.397-2.051
	c0.843-0.435,1.645-0.002,2.276-0.465c-0.216-0.824-0.08-1.843-1.264-2.088c-0.941-0.192-1.046-0.93-0.91-1.676
	c0.09-0.488,0.197-0.914-0.385-1.067c-0.77-0.208-1.201-0.62-1.457-1.417c-0.193-0.609-0.967-0.875-0.688-1.861
	c0.164-0.588-0.3-1.554-1.053-2.035c-0.96-0.616-1.632-1.3-1.467-2.646c0.064-0.541-0.299-1.383-1.016-1.751
	c-0.452,0.467-0.882,0.897-1.493,1.106c-0.894,0.304-1.772-0.115-1.715-1.063c0.08-1.321-0.749-2.054-1.324-3.155
	c-0.712,1.181-2.175,1.747-1.542,3.313c0.048,0.117-0.083,0.354-0.195,0.478c-0.525,0.607-1.024,1.17-1.258,2.017
	c-0.187,0.675-0.976,1.197-1.733,1.069c-1.22-0.211-2.541-0.24-3.546-1.163c0.476-0.863,1.644-0.266,2.105-1.074
	c-1.918-0.902-2.128-1.188-3.048-3.7c-0.181-0.492-0.464-1.129-0.875-1.326c-1.264-0.6-1.908-1.472-2.042-2.873
	c-0.044-0.474-0.57-0.9-0.888-1.36c-0.577,0.441-1.364,1.037-1.274,1.611c0.217,1.388-0.957,2.082-1.273,3.185
	c-0.204,0.715-0.847,1.209-0.776,2.178c0.067,0.95-0.877,1.504-1.785,1.806c-0.748,0.25-1.392-0.208-1.505-1.063
	c-0.196-1.477-0.196-1.477-1.416-2.823c-0.115,0.126-0.259,0.233-0.338,0.375c-0.44,0.801-1.581,1.316-1.044,2.521
	c-0.62,1.06-1.19,2.152-1.894,3.15c-0.217,0.312-0.817,0.563-1.199,0.513c-1.301-0.165-2.648-0.282-3.845-1.168
	c0.734-0.783,1.937-0.201,2.461-1.108c-2.019-0.735-1.986-0.749-3.095-3.526c-0.29-0.724-0.663-1.451-1.532-1.806
	c-0.874-0.355-1.415-0.971-1.417-2.09c0-0.6-0.475-1.289-1.066-1.809c-0.539,0.937-1.711,1.344-1.276,2.614
	c0.079,0.231-0.22,0.687-0.462,0.909c-0.626,0.577-0.486,1.57-1.227,2.083c-0.322,0.222-0.193,0.596-0.083,0.971
	c0.336,1.145,0.292,1.17-0.57,1.683c-0.609,0.364-1.377,0.469-1.842,1.128c0.236,0.277,0.61,0.518,0.667,0.82
	c0.101,0.529-0.381,0.749-0.802,0.932c-0.497,0.22-0.958,0.046-1.185-0.353c-0.567-0.989-1.508-1.506-2.395-2.111
	c-1.008-0.689-0.278-2.168-1.261-2.885c-0.132-0.096-0.259-0.199-0.575-0.444c-0.11,0.803-1.366,0.914-1.154,1.612
	c0.376,1.241-0.657,1.763-0.919,2.644c-0.273,0.911-1.149,1.504-1.013,2.692c0.102,0.909-0.853,1.509-1.79,1.781
	c-0.787,0.224-1.408-0.188-1.538-1.037c-0.229-1.502-0.229-1.502-1.333-3.052c-0.236,0.38-0.379,0.902-0.708,1.081
	c-0.782,0.421-0.982,0.881-0.729,1.751c0.398,1.369-1.694,1.607-1.511,3.006c0.03,0.229-0.644,0.552-1,0.822
	c-0.068,0.048-0.17,0.076-0.257,0.078c-1.647,0.027-3.18-0.295-4.521-1.401c0.775-0.657,1.847,0.05,2.512-0.76
	c-1.769-0.994-1.763-0.996-2.797-3.672c-0.129-0.328-0.308-0.68-0.563-0.909c-0.665-0.59-1.533-1.012-2.043-1.701
	c-0.505-0.687-0.175-1.795-0.92-2.468c-0.129-0.117-0.276-0.21-0.513-0.392c-0.419,0.511-1.234,1.06-1.194,1.539
	c0.126,1.536-0.96,2.47-1.556,3.608c-0.341,0.657-0.509,1.048-0.072,1.662c0.235,0.332,0.068,0.723-0.264,0.929
	c-0.761,0.477-1.547,0.909-2.327,1.362c0.087,0.135,0.117,0.231,0.183,0.277c0.902,0.6,0.932,0.623,0.395,1.243
	c-0.302,0.351-0.754,0.591-0.141,1.03c0.639,0.456,0.425,1.159,0.428,1.754c0.002,0.424-0.37,0.858-0.36,1.282
	c0.018,0.774-0.978,1.042-0.78,1.905c0.247,1.078-1.082,0.998-1.389,1.701c-0.435,0.318-0.372,0.73-0.231,1.161
	c-0.214,0.174-0.43,0.348-0.645,0.522c-0.833,0.382-0.917,1.211-1.154,1.944c1.229,0.922,0.227,1.145-0.461,1.252
	c-0.681,0.11-1.149,0.433-1.61,0.875c-0.237,0.231-0.521,0.117-0.713-0.098c-0.238-0.266-0.382-0.721-0.663-0.817
	c-0.521-0.188-0.692,0.405-1.011,0.687c-0.458,0.405-0.956,0.76-1.618,1.28c-0.484-1.587-1.802-2.468-2.36-3.92
	c-0.852,0.236-0.893,1.051-1.428,1.39c-0.271,0.174-0.482,0.538-0.59,0.856c-0.243,0.742-0.68,0.737-1.24,0.424
	c-0.748-0.415-1.376-0.935-1.26-1.903c0.078-0.675-0.215-1.229-0.455-1.818c-0.403-0.991-0.402-1.017-1.472-0.284
	c-0.326,0.227-0.626,0.318-0.999,0.25c-0.504-0.087-0.803,0.137-1.108,0.554c-0.729,0.994-1.992,1.472-2.546,2.694
	c-0.19,0.421-0.827,0.657-1.288,0.927c-0.27,0.16-0.518-0.025-0.652-0.256c-0.506-0.881-0.925-0.623-1.367,0.057
	c-0.253,0.392-0.588,0.398-0.851,0.012c-0.197-0.295-0.248-0.763-0.504-0.918c-0.553-0.339-0.715,0.281-1.013,0.567
	c-0.257,0.25-0.609,0.415-0.834,0.683c-0.622,0.753-0.993,0.503-1.354-0.236c-0.125-0.252-0.541-0.323-0.691-0.131
	c-0.534,0.694-1.545,1.056-1.516,2.148c0.013,0.471-0.184,0.86-0.499,1.222c-0.645,0.742-1.218,1.55-1.895,2.26
	c-0.439,0.465-0.528,0.888-0.283,1.456c0.271,0.623-0.072,0.994-0.568,1.339c-1.221,0.856-2.42,0.348-3.629,0.007l-0.051-0.048
	c-0.303-0.671-0.885-0.932-1.558-1.065c-0.067-0.371-0.017-0.698,0.255-0.996c0.175-0.19,0.408-0.492,0.158-0.71
	c-1.028-0.911-1.105-2.612-2.607-3.12c-0.256-0.085-0.511-0.186-0.75-0.31c-0.879-0.453-1.472-1.025-1.034-2.149
	c0.123-0.312,0.162-0.939,0.007-1.028c-1.048-0.623-0.906-1.918-1.618-2.704c-0.288-0.313-0.553-0.037-0.65,0.149
	c-0.421,0.808-0.392,1.939-1.643,2.152c-0.119,0.021-0.208,0.454-0.239,0.705c-0.057,0.444-0.014,0.902-0.096,1.342
	c-0.111,0.595-0.484,0.978-1.134,0.879c-0.701-0.105-1.399,0.025-2.121-0.248c-0.72-0.27-0.897-1.053-1.562-1.424
	c-0.419,0.613-0.837,1.087-1.091,1.639c-0.175,0.378-0.075,0.875-0.178,1.298c-0.229,0.939-1.053,1.355-2.05,1.081
	c-1.025-0.284-1.055-0.291-1.335,0.528c-0.287,0.833-0.354,1.779-1.606,1.809c-0.336,0.007-0.429,0.536-0.357,0.904
	c0.122,0.62,0.327,1.222,0.402,1.847c0.024,0.19-0.256,0.419-0.398,0.632c-0.254-0.016-0.512-0.066-0.761-0.043
	c-1.276,0.13-1.334,0.258-0.814,1.621c-0.328,0.733-0.521,1.658-1.594,1.578c-0.978-0.073-1.762-0.497-1.814-1.628
	c-0.031-0.664-0.531-0.895-0.968-1.195c-0.727-0.501-1.207-1.071-0.814-2.046c0.17-0.428,0.128-0.914-0.426-1.106
	c-0.601-0.21-0.743-0.751-0.964-1.241c-0.173-0.387-0.447-0.474-0.863-0.387c-0.991,0.202-1.875,0.229-1.658-1.248
	c0.023-0.156-0.283-0.408-0.484-0.531c-0.617-0.384-1.267-0.708-1.884-1.09c-0.817-0.499-1.44-1.11-1.106-2.211
	c0.132-0.439,0.223-1.053-0.154-1.282c-0.927-0.547-0.752-1.609-1.278-2.317c-0.1-0.135-0.29-0.274-0.44-0.274
	c-0.131-0.002-0.291,0.167-0.394,0.295c-0.442,0.549-0.156,1.554-0.974,1.822c-0.832,0.27-0.954,0.822-0.695,1.458
	c0.443,1.099,0.213,1.917-0.738,2.601c-0.342,0.243-0.664,0.474-0.75,1.023c-0.341,2.193-1.366,2.708-3.202,1.715
	c-0.159-0.087-0.313-0.186-0.468-0.279c-0.865-0.536-0.911-0.726-0.307-1.669c0.193-0.304,0.599-0.757,0.358-0.929
	c-1.106-0.778-0.977-2.292-1.967-3.107c-0.572-0.467-0.65-1.051-0.355-1.706c0.222-0.492,0.075-0.833-0.36-1.147
	c-0.279-0.199-0.46-0.531-0.687-0.801c-0.188-0.229-0.084-0.765-0.64-0.634c-0.411,0.701-0.871,1.367-1.2,2.095
	c-0.132,0.291,0.033,0.71,0.048,1.072c0.022,0.508-0.271,0.856-0.653,1.115c-0.525,0.357-1.061,0.705-1.622,0.996
	c-0.724,0.373-0.542,1.291-1.15,1.756c-0.363,0.277,0.073,0.627,0.167,0.945c0.14,0.463,0.143,0.948-0.338,1.179
	c-1.101,0.531-1.412,2.12-2.912,2.129c-0.171,0-0.396,0.366-0.035,0.572c0.467,0.272,1.065,0.472,1.032,1.124
	c-0.043,0.858-0.868,0.811-1.42,1c-0.507,0.181-1.06,0.272-1.598,0.3c-0.924,0.048-2.211-0.712-2.233-1.589
	c-0.021-0.872-0.384-1.31-0.949-1.774c-0.531-0.442-0.758-0.985-0.524-1.692c0.142-0.424,0.338-1.14-0.023-1.269
	c-1.084-0.385-1.034-1.575-1.696-2.221c-0.84,0.435-0.498,1.465-1.096,1.884c-0.915,0.639-0.397,1.444-0.422,2.216
	c-0.032,1.01-1.185,1.605-2.161,1.2c-0.405-0.167-0.858-0.222-1.149-0.643c-0.213-0.307-0.196-0.904-0.982-0.792
	c-0.061,0.961-1.067,1.68-0.799,2.731c0.284,1.12-0.327,1.685-1.054,2.278c-1.506,1.229-1.498,1.239-1.656,3.643
	c-0.01,0.172-0.01,0.394-0.113,0.501c-0.434,0.458-0.883,0.911-1.372,1.307c-0.405,0.332-1.186,0.051-1.228-0.485
	c-0.037-0.474-0.024-0.876-0.459-1.174c-0.368-0.252-0.793-0.499-0.716-1.046c0.073-0.515-0.19-0.899-0.52-1.19
	c-0.54-0.476-1.163-0.858-1.728-1.312c-0.354-0.284-0.363-0.577,0.109-0.77c0.303-0.124,0.458-0.313,0.172-0.584
	c-1.297-1.211-1.44-2.763-1.437-4.412c0.001-0.696,0.228-0.998,0.857-1.113c0.371-0.066,0.397-0.361,0.21-0.574
	c-0.232-0.261-0.593-0.403-0.846-0.653c-0.403-0.396-0.354-0.769,0.162-1.076c0.291-0.176,0.688-0.172,0.88-0.662
	c-0.859-0.46-1.752-0.886-2.598-1.399c-1.194-0.721-1.186-0.918-0.396-1.841c0.331-0.382,0.574-0.824,0.093-1.138
	c-1.219-0.797-1.018-2.459-2.136-3.327c-0.363-0.282-0.083-0.852,0.008-1.293c0.073-0.359,0.14-0.808-0.299-0.927
	c-0.858-0.231-0.653-1.213-1.252-1.635c-0.804,0.41-0.498,1.575-1.334,1.964c-0.088,0.041-0.121,0.355-0.075,0.511
	c0.358,1.231-0.367,1.868-1.29,2.381c-1.428,0.797-2.413,1.783-1.778,3.597c0.051,0.144-0.01,0.474-0.087,0.499
	c-1.223,0.378-1.388,2.147-2.884,2.175c-0.342,0.007-0.727,0.101-0.924,0.483c0.789,1.076,2.24,0.259,3.162,1.055
	c-1.411,0.987-3.667,1.823-4.795,1.694c-0.956-0.115-1.897-0.627-2.01-1.543c-0.099-0.813-0.349-1.314-0.94-1.781
	c-0.627-0.495-0.863-1.12-0.519-1.923c0.176-0.414,0.258-0.95-0.133-1.257c-0.34-0.266-0.805-0.336-1.048-0.788
	c-0.218-0.405-0.024-1.161-0.904-1.12c-0.413,1.395-1.612,2.466-1.321,4.186c0.145,0.858-1.081,1.357-2.022,0.964
	c-0.406-0.17-0.82-0.36-1.177-0.611c-0.313-0.222-0.188-0.932-0.987-0.781c-0.19,1.078-1.139,1.978-0.751,3.269
	c0.136,0.465-0.182,0.875-0.536,1.179c-0.415,0.355-0.858,0.671-1.276,1.017c-0.692,0.577-1.196,1.902-1.005,2.935
	c0.077,0.417,0.017,0.732-0.265,0.955c-0.44,0.357-0.875,0.771-0.925,1.298c-0.079,0.824-0.623,1.028-1.229,1.241
	c-0.332,0.121-0.666,0.24-0.942,0.339c-0.238,0.639,0.217,1.064,0.27,1.589c0.082,0.771-0.023,1.181-0.736,1.447
	c-0.506,0.19-1.034,0.362-1.487,0.646c-0.611,0.385,0.479,0.959-0.084,1.399c-0.071,0.057-0.136,0.119-0.213,0.167
	c-0.471,0.287-0.362,0.492,0.068,0.701c0.646,0.32,1.476-0.135,2.056,0.499c-0.788,0.934-1.437,1.992-2.583,2.438
	c0.228,0.819,0.649,1.223,1.224,1.573c0.507,0.313,0.396,0.689-0.186,0.957c-0.247,0.112-0.499,0.323-0.743,0.316
	c-0.533-0.021-1.085-0.291-1.587-0.206c-0.688,0.114-0.062,1.005-0.575,1.316c-0.077,0.048-0.162,0.084-0.248,0.103
	c-0.329,0.069-0.826,0.037-0.69,0.536c0.081,0.293,0.441,0.557,0.734,0.737c0.564,0.346,1.225,0.284,1.858,0.302
	c0.996,0.023,1.992,0.039,2.987,0.057c-0.018,0.179-0.001,0.353,0.047,0.524c-0.733,0.204-1.468,0.412-2.199,0.616
	c-1.933,0.575-1.962,0.65-1.237,2.152c0.183,0.378,0.536,0.754,0.327,1.255c-0.066,0.053-0.127,0.133-0.207,0.165
	c-0.167,0.066-0.347,0.099-0.516,0.155c-1.076,0.371-1.085,0.378-0.587,1.681c0.115,0.298,0.05,0.531-0.175,0.696
	c-0.29,0.21-0.6,0.405-0.928,0.554c-1.099,0.501-1.204,0.479-2.184-0.655c-0.433-0.499-0.745-0.368-1.02,0.104
	c-0.199,0.337-0.415,0.595-0.839,0.479c-0.448-0.124-1.037-0.378-1.027-0.778c0.023-1.083-0.633-1.587-1.388-2.104
	c-0.494-0.339-0.626-0.858-0.574-1.438c0.048-0.54,0.201-1.257-0.277-1.524c-0.789-0.435-1.128-1.129-1.545-1.818
	c-0.19-0.321-0.795-0.241-0.859,0.13c-0.228,1.367-1.57,2.449-0.915,4.073c0.228,0.565-0.613,1.222-1.217,1.064
	c-0.537-0.14-0.637-0.575-0.56-1.067c0.014-0.089,0.031-0.183,0.066-0.266c0.378-0.904,0.167-1.524-0.755-1.992
	c-0.342-0.176-0.472-0.737-0.74-1.092c-0.287-0.375-0.759-0.307-0.881,0.03c-0.41,1.135-1.708,1.889-1.293,3.418
	c0.204,0.753-0.667,1.335-1.42,1.11c-1.196-0.353-2.065-0.897-2.182-2.388c-0.091-1.133-1.427-1.449-2.134-2.203
	c-0.975,0.286-0.542,1.445-1.211,1.959c-0.29,0.223-0.219,0.676-0.094,1.026c0.34,0.957-0.156,1.55-0.861,2.063
	c-0.514,0.373-1.014,0.763-1.535,1.126c-0.881,0.614-2.169,0.548-2.938-0.297c-0.586-0.642,0.339-1.097,0.435-1.674
	c0.016-0.09,0.031-0.181,0.047-0.271c-0.322-0.92-1.655-1.021-1.795-1.897c-0.132-0.84-0.541-1.278-1.136-1.688
	c-0.693-0.476-0.842-1.099-0.595-1.877c0.105-0.336,0.167-0.925-0.191-0.943c-1.178-0.062-1.163-1.392-2.013-1.9
	c-0.329,0.808-0.559,1.479-0.872,2.111c-0.214,0.428-0.356,0.863-0.156,1.28c0.513,1.067-0.103,1.717-0.801,2.319
	c-0.679,0.583-1.408,1.112-2.117,1.664c-0.05,0.163-0.11,0.279-0.182,0.341c0.072-0.062,0.131-0.178,0.182-0.341
	c-0.222,0.053-0.446,0.104-0.669,0.153c-0.052-0.952-0.06-0.95-1.034-2.548c-0.174-0.286-0.088-0.781-0.519-0.85
	c-0.487-0.071-0.409,0.483-0.628,0.721c-0.195,0.208-0.44,0.336-0.714,0.231c-0.687-0.263-1.503-0.616-1.579-1.335
	c-0.078-0.726-0.306-1.165-0.864-1.536c-0.761-0.503-1.07-1.163-0.758-2.09c0.142-0.421,0.128-1.133-0.336-1.154
	c-1.216-0.05-0.951-1.474-1.973-1.85c-0.207,1.486-1.694,2.581-0.925,4.291c0.09,0.199-0.23,0.678-0.472,0.911
	c-0.52,0.497-1.124,0.902-1.67,1.374c-0.262,0.229-0.705,0.561-0.668,0.776c0.19,1.149-1.06,1.381-1.315,2.214
	c-0.026,0-0.054,0-0.08,0c0.004,0.007,0.009,0.012,0.013,0.021c-0.787,0.032-1.373-0.238-1.522-1.099
	c-0.063-0.357,0.077-0.829-0.108-1.063c-0.646-0.822-1.394-1.568-2.104-2.34c-1.032,0.295-0.55,1.415-1.088,2.003
	c-0.574,0.625-0.662,1.474-0.752,2.283c-0.096,0.854-0.418,1.527-1.1,2.083c-1.045,0.854-1.366,2.003-1.182,3.324
	c0.035,0.25,0.035,0.621-0.113,0.756c-1.115,1.003-1.114,2.941-2.888,3.402c-0.316,0.084-0.173,0.682,0.223,0.819
	c0.339,0.119,0.701,0.172,1.05,0.254c0.27,0.066,0.568,0.177,0.515,0.492c-0.038,0.229-0.209,0.495-0.402,0.637
	c-2.106,1.529-2.733,1.866-4.913-0.536c-0.061-0.063-0.106-0.148-0.178-0.203c-0.357-0.271-0.66-0.184-0.877,0.186
	c-0.134,0.229-0.226,0.489-0.337,0.736c-0.112,0.248-0.228,0.527-0.565,0.449c-0.302-0.073-0.403-0.364-0.331-0.618
	c0.249-0.865,0.26-1.609-0.727-2.033c-0.147-0.066-0.246-0.254-0.354-0.398c-0.292-0.396-0.251-1.211-0.984-1.039
	c-0.444,0.101-0.435,0.737-0.594,1.153c-0.096,0.252-0.21,0.497-0.318,0.744c-0.497-0.15-0.996-0.288-1.5-0.405v2.515v1.467v10.943
	v4.955v19.87v3.12v5.703h91h23.125h3.305h0.143h47.502h5.452h61.777h90.999h23.125h3.306h0.142h47.501h5.453h49.475h1.337h67.153
	h11.314h2.147h2.313h6.637h13.7h34.563h93.139h1.335h67.155h11.314h2.147h2.311h6.637h13.702h34.563v-12.883c0-0.545,0-1.09,0-1.635
	v-6.546c0-0.904,0-1.817,0-2.727v-2.18c0-0.545,0-1.09,0-1.634v-1.09C831.959,328.592,830.32,327.64,829.061,326.177z
	 M447.461,272.235c-0.201,0.206-0.436,0.204-0.639-0.019C447.035,272.24,447.248,272.253,447.461,272.235z M326.602,272.23
	c-0.075,0.341-0.092,0.703,0.028,1.104c0.005,0.023,0.005,0.039,0.01,0.058c-0.18-0.199-0.496-0.351-0.997-0.545
	c-0.318-0.122-0.748,0.037-0.959-0.369C325.322,272.389,325.964,272.324,326.602,272.23z"/>
</svg>
