<?xml version="1.0" encoding="utf-8"?>
<!-- Generator: Adobe Illustrator 16.0.0, SVG Export Plug-In . SVG Version: 6.00 Build 0)  -->
<!DOCTYPE svg PUBLIC "-//W3C//DTD SVG 1.1//EN" "http://www.w3.org/Graphics/SVG/1.1/DTD/svg11.dtd">
<svg version="1.1" id="Layer_1" xmlns="http://www.w3.org/2000/svg" xmlns:xlink="http://www.w3.org/1999/xlink" x="0px" y="0px"
	 width="841.89px" height="595.28px" viewBox="0 0 841.89 595.28" enable-background="new 0 0 841.89 595.28" xml:space="preserve">
<path fill-rule="evenodd" clip-rule="evenodd" fill="#010101" d="M30.25,265.1c0.001,0.007,0.002,0.014,0.002,0.016
	c-0.009,0.004-0.016,0.004-0.024,0.004L30.25,265.1z M832.027,247.171c-0.251,0.435-0.445,0.904-0.684,1.348
	c-0.049,0.088-0.203,0.167-0.302,0.161c-0.091-0.007-0.245-0.13-0.247-0.208c-0.051-0.913-0.942-1.271-1.291-1.99
	c-0.128-0.26-0.438-0.441-0.684-0.638c-0.188-0.146-0.556,0.007-0.622,0.234c-0.196,0.688-0.088,1.379-0.03,2.071
	c0.074,0.88,0.202,1.761,0.244,2.645c0.047,0.927-0.456,1.213-1.339,0.81c-0.344-0.159-0.666-0.359-1.015-0.505
	c-0.296-0.124-0.642,0.105-0.701,0.426c-0.168,0.9,0.006,1.762,0.275,2.616c0.21,0.659,0.433,1.314,0.627,1.983
	c0.028,0.093-0.064,0.229-0.113,0.342c-0.057,0.146-0.16,0.154-0.313,0.113c-0.485-0.124-0.777-0.814-1.322-0.594
	c-0.635,0.26-0.189,1.05-0.542,1.494c0.04,0.724,0.629,0.922,1.149,1.101c0.71,0.245,0.985,0.68,0.983,1.414
	c-0.004,0.556,0.128,1.112,0.198,1.67c-0.463,0.134-0.48-0.289-0.661-0.479c-0.459-0.479-1.026-0.421-1.598-0.355
	c-0.763,0.088-1.383,0.558-2.08,0.827c-0.002,0.007-0.007,0.018-0.011,0.029l-0.119,0.075l0.102-0.095
	c0.009-0.002,0.02-0.009,0.028-0.009c0.312-0.803,0.646-1.575,0.075-2.435c-0.43-0.648-0.633-0.796-1.52-0.66
	c-0.673,0.106-0.739,0.048-0.764-0.578c-0.018-0.441-0.03-0.874,0.326-1.211c-0.109-0.324-0.092-0.584,0.25-0.794
	c1.584-0.979,1.703-1.712,0.447-3.082c-0.286-0.313-0.419-0.609-0.414-0.997c0.004-0.636,0.02-1.271,0.03-1.906
	c0.021-1.076,0.062-2.153,0.054-3.231c-0.005-0.554-0.45-0.726-0.927-0.415c-0.788,0.514-1.179,1.294-1.5,2.137
	c-0.035,0.09-0.19,0.183-0.291,0.192c-0.087,0.004-0.221-0.097-0.265-0.185c-0.49-0.979-1.275-2.131-1.805-2.539
	c-0.133-0.102-0.373-0.168-0.519-0.119c-0.146,0.046-0.329,0.262-0.329,0.406c-0.004,0.821,0.022,1.644,0.073,2.464
	c0.044,0.697,0.163,1.388,0.189,2.083c0.035,0.936-0.456,1.218-1.339,0.818c-0.058-0.024-0.108-0.064-0.163-0.095
	c-0.435-0.227-0.887-0.708-1.368-0.3c-0.414,0.351-0.286,0.946-0.216,1.447c0.07,0.501,0.189,0.997,0.307,1.489
	c0.091,0.368,0.219,0.728,0.104,1.116c0.104,0.152,0.247,0.295,0.298,0.465c0.051,0.167,0.068,0.395-0.009,0.542
	c-0.097,0.192-0.307,0.128-0.47,0.02c-0.159-0.106-0.309-0.234-0.48-0.302c-0.539-0.223-0.914-0.029-0.958,0.499
	c-0.024,0.317,0.005,0.635-0.009,0.951c-0.018,0.505,0.186,0.847,0.68,1.006c0.119,0.038,0.225,0.117,0.333,0.181
	c0.88,0.509,1.16,1.182,0.904,2.204c-0.046,0.189-0.165,0.32-0.377,0.366c-0.371,0.077-0.743,0.146-1.095,0.278
	c-0.437,0.163-0.754,0.455-0.728,0.988c0.014,0.251,0.075,0.556-0.04,0.75c-0.535,0.922-0.304,1.822-0.021,2.744
	c0.068,0.227,0.051,0.505-0.009,0.739c-0.062,0.251-0.265,0.413-0.554,0.393c-0.06-0.004-0.117-0.048-0.172-0.077
	c-1.983-1.032-2.372-0.41-3.051,1.123c-0.336,0.765-0.72,1.118-1.535,1.079c-0.234-0.016-0.494,0.104-0.715,0.218
	c-0.613,0.32-0.856,0.966-0.627,1.61c0.04,0.117,0.084,0.25,0.168,0.337c0.54,0.571,0.34,1.143,0.021,1.721
	c-0.088,0.159-0.165,0.322-0.269,0.519c-0.821-0.45-1.646-0.68-2.542-0.307c-0.97,0.408-1.27,1.286-0.701,2.157
	c0.137,0.212,0.291,0.45,0.499,0.565c0.726,0.403,1.001,1.123,1.35,1.791c0.273,0.527,0.203,0.655-0.443,0.951
	c-0.174,0.075-0.377,0.095-0.531,0.196c-0.657,0.417-0.958,1.211-0.481,1.793c0.904,1.105,1.225,2.446,1.752,3.704
	c0.119,0.292,0.267,0.589,0.291,0.892c0.079,1.098-0.45,1.48-1.451,1.081c-0.296-0.117-0.578-0.26-0.865-0.39
	c-0.966-0.433-1.043-0.413-1.222,0.602c-0.079,0.47-0.146,0.781-0.71,0.939c-1.037,0.296-1.424,1.22-1.011,2.195
	c0.121,0.284,0.319,0.547,0.524,0.787c0.468,0.541,0.685,1.211,0.993,1.833c0.161,0.324,0.15,0.64-0.261,0.75
	c-0.518,0.134-0.65,0.549-0.824,0.961c-0.1,0.232-0.238,0.472-0.563,0.357c-0.25-0.088-0.473-0.26-0.492-0.525
	c-0.07-0.902-0.534-1.544-1.264-2.014c-0.774-0.5-1.533-0.147-1.699,0.744c-0.137,0.748,0.068,1.374,0.538,1.943
	c0.527,0.631,0.753,1.273,0.236,2.06c-0.189,0.293-0.128,0.741-0.225,1.103c-0.268,0.984-0.175,1.88,0.566,2.645
	c0.188,0.192,0.298,0.408,0.15,0.678c-0.186,0.333-0.487,0.347-0.818,0.3c-0.768-0.108-1.44-0.452-2.122-0.801
	c-0.578-0.298-0.976-0.033-1.032,0.622c-0.06,0.64-0.031,1.262,0.28,1.854c0.218,0.414,0.454,0.721,0.981,0.761
	c1.438,0.108,2.488,0.86,3.216,2.08c0.084,0.139,0.098,0.397,0.018,0.525c-0.07,0.116-0.313,0.189-0.475,0.176
	c-0.566-0.051-1.136-0.112-1.541-0.608c-0.159-0.194-0.362-0.359-0.569-0.501c-0.38-0.256-0.821-0.456-1.24-0.2
	c-0.282,0.17-0.202,0.568-0.216,0.878c-0.014,0.381-0.11,0.792,0,1.136c0.41,1.33,0.133,2.588-0.313,3.955
	c-0.754-0.251-1.553-0.242-2.352-0.284c-0.375-0.022-0.564-0.354-0.445-0.678c0.291-0.783,0.684-1.471,1.434-1.926
	c1.006-0.615,1.205-1.023,0.936-1.775c-0.353-0.999-0.918-1.37-1.88-1.165c-0.123,0.024-0.251,0.047-0.377,0.051
	c-0.051,0.005-0.102-0.042-0.209-0.093c-0.232-0.745,0.156-1.451,0.253-2.186c0.082-0.625-0.242-0.946-0.889-0.863
	c-0.313,0.045-0.657,0.071-0.918,0.228c-0.606,0.362-1.085,0.073-1.597-0.191c-0.395-0.203-0.439-0.384-0.186-0.894
	c0.17-0.342,0.439-0.413,0.764-0.175c0.146,0.106,0.251,0.271,0.366,0.415c0.207,0.261,0.454,0.265,0.573-0.022
	c0.389-0.929,0.755-1.866,1.072-2.821c0.137-0.413,0.163-0.872,0.191-1.311c0.027-0.397-0.33-0.688-0.738-0.686
	c-0.601,0.002-1.099,0.276-1.6,0.552c-0.424,0.234-0.776,0.083-1.227-0.1c-1.088-0.443-1.07-1.606-1.705-2.323
	c-0.075-0.086,0.026-0.355,0.082-0.527c0.116-0.361,0.284-0.708,0.379-1.074c0.1-0.381-0.161-0.798-0.545-0.869
	c-0.37-0.068-0.754-0.046-1.129-0.097c-0.098-0.014-0.232-0.119-0.263-0.214c-0.033-0.099-0.011-0.278,0.06-0.346
	c0.229-0.209,0.485-0.395,0.745-0.567c0.331-0.225,0.609-0.496,0.548-0.922c-0.08-0.532-0.49-0.682-0.967-0.739
	c-0.177-0.022-0.344-0.11-0.494-0.159c-0.156-0.443,0.104-0.774,0.189-1.136c0.131-0.56,0.182-1.127,0.089-1.696
	c-0.15-0.924-0.878-1.222-1.69-0.743c-0.423,0.251-0.621,0.823-1.301,0.858c0.172-1.524,0.344-3.022,0.503-4.518
	c0.093-0.882,0.181-1.765,0.242-2.651c0.018-0.245-0.042-0.519-0.293-0.649c-0.333-0.176-0.611,0-0.858,0.203
	c-0.552,0.448-0.936,1.028-1.266,1.652c-0.446,0.836-0.735,1.736-1.013,2.678c-0.247-0.07-0.424-0.108-0.594-0.172
	c-0.904-0.329-1.141-0.199-1.174,0.739c-0.032,0.88-0.009,1.763-0.009,2.601c-0.414,0.41-0.741,0.022-1.083,0.002
	c-0.569-0.035-0.981,0.258-1.087,0.812c-0.11,0.571-0.068,1.136,0.128,1.688c0.128,0.349,0.244,0.701,0.388,1.114
	c-0.317,0.106-0.558,0.168-0.785,0.26c-0.247,0.104-0.445,0.283-0.403,0.574c0.126,0.871,0.105,1.773,0.491,2.599
	c0.106,0.227,0.168,0.496,0.439,0.571c0.201,0.06,0.589-0.119,0.479,0.293c-0.042,0.166-0.384,0.331-0.608,0.355
	c-0.808,0.088-1.624,0.115-2.423,0.163c-0.109-0.602,0.182-0.977,0.287-1.4c0.184-0.737-0.049-1.101-0.771-1.207
	c-0.248-0.033-0.508,0.002-0.76-0.018c-0.189-0.015-0.384-0.073-0.375-0.32c0.005-0.115,0.042-0.269,0.122-0.335
	c0.24-0.203,0.509-0.371,0.77-0.552c0.335-0.231,0.576-0.527,0.47-0.951c-0.104-0.415-0.447-0.584-0.854-0.631
	c-0.064-0.007-0.126-0.016-0.189-0.022c-0.401-0.049-0.557-0.28-0.424-0.651c0.287-0.79,0.441-1.588,0.278-2.426
	c-0.159-0.816-0.865-1.13-1.575-0.693c-0.212,0.13-0.397,0.311-0.592,0.474c-0.185,0.159-0.309,0.404-0.631,0.402
	c-0.333-0.208-0.163-0.549-0.132-0.821c0.177-1.511,0.397-3.016,0.578-4.529c0.075-0.628,0.112-1.264,0.121-1.893
	c0.005-0.236-0.06-0.505-0.362-0.602c-0.275-0.088-0.5,0.024-0.699,0.176c-0.509,0.395-0.899,0.891-1.204,1.458
	c-0.48,0.894-0.906,1.809-1.085,2.962c-1.141-0.344-2.131-0.88-3.229-1.054c-0.331-0.053-0.596-0.854-0.31-1.149
	c0.834-0.867,0.685-2.003,0.965-3.015c0.247-0.889,0.048-1.103-0.911-1.163c-0.38-0.024-0.761-0.002-1.143-0.004
	c-1.015-0.004-1.196-0.214-1.223-1.18c-0.02-0.622,0.36-1.065,0.561-1.591c0.375-0.975,0.221-1.394-0.69-1.837
	c-0.335-0.161-0.695-0.278-1.053-0.421c0.131-0.613,0.627-0.933,1.026-1.332c0.538-0.536,1.092-1.059,1.604-1.622
	c0.349-0.381,0.62-0.843,0.384-1.383c-0.26-0.591-0.834-0.512-1.323-0.463c-0.545,0.057-1.081,0.216-1.654,0.34
	c-0.014-0.863,0.304-1.527,0.661-2.188c0.27-0.503,0.49-1.026,0.519-1.619c0.038-0.818-0.313-1.198-1.116-1.112
	c-0.249,0.029-0.487,0.141-0.734,0.188c-0.221,0.042-0.382-0.117-0.389-0.3c-0.026-0.823,0-1.648-0.026-2.473
	c-0.018-0.567-0.053-1.143-0.158-1.696c-0.075-0.404-0.38-0.648-0.832-0.602c-0.24,0.024-0.531,0.201-0.701-0.026
	c-0.14-0.181-0.161-0.468-0.192-0.715c-0.132-1.129-0.251-2.257-0.375-3.388c-0.309-0.324-0.419-0.741-0.564-1.149
	c-0.159-0.439-0.205-1.092-0.812-1.083c-0.494,0.006-0.512,0.6-0.68,0.984c-0.097,0.214-0.27,0.39-0.41,0.584
	c-0.024,2.279-0.049,4.555-0.079,6.834c-0.003,0.033-0.084,0.066-0.182,0.141c-0.375-0.391-0.745-0.803-1.145-1.18
	c-0.371-0.351-0.797-0.631-1.323-0.684c-0.355-0.035-0.616,0.119-0.713,0.472c-0.137,0.51-0.04,1.01,0.133,1.489
	c0.317,0.896,0.668,1.778,0.994,2.669c0.104,0.28,0.347,0.534,0.184,0.872c-0.386,0.247-0.729-0.075-1.088-0.075
	c-0.313,0-0.638-0.009-0.935,0.071c-0.607,0.156-0.89,0.783-0.636,1.35c0.344,0.77,0.936,1.344,1.528,1.917
	c0.071,0.068,0.102,0.254,0.063,0.344c-0.087,0.196-0.301,0.231-0.468,0.141c-1.057-0.567-2.193-0.887-3.34-1.001
	c-0.128-0.596,0.212-0.951,0.326-1.365c0.119-0.426,0.27-0.85,0.309-1.284c0.071-0.781-0.353-1.127-1.18-1.012
	c-0.307,0.042-0.583,0.26-0.971,0.121c-0.212-0.701-0.046-1.462-0.088-2.212c-0.04-0.693-0.042-1.392-0.126-2.08
	c-0.066-0.523-0.333-0.783-0.92-0.693c-0.606,0.095-0.792-0.068-0.845-0.633c-0.128-1.321-0.291-2.634-0.437-3.953
	c-0.508-0.278-0.446-0.865-0.697-1.282c-0.157-0.267-0.283-0.622-0.658-0.547c-0.326,0.066-0.449,0.401-0.533,0.701
	c-0.189,0.658-0.212,1.363-0.587,1.963c0,1.939,0,3.876,0,6.002c-0.585-0.576-1.015-1.021-1.469-1.438
	c-0.331-0.304-0.708-0.538-1.183-0.545c-0.357-0.006-0.618,0.137-0.704,0.494c-0.154,0.64-0.024,1.262,0.21,1.86
	c0.32,0.827,0.664,1.646,0.992,2.473c0.086,0.218,0.27,0.435,0.049,0.728c-0.521-0.051-1.074-0.161-1.623-0.144
	c-0.909,0.024-1.295,0.77-0.909,1.617c0.302,0.655,0.834,1.107,1.33,1.595c0.077,0.077,0.142,0.243,0.112,0.337
	c-0.06,0.208-0.273,0.247-0.445,0.192c-0.603-0.196-1.183-0.461-1.793-0.624c-0.938-0.25-1.706-0.06-1.882,0.441
	c-0.224,0.631,0.17,1.099,0.542,1.522c0.468,0.527,0.772,1.054,0.918,1.795c0.128,0.646,0.159,1.222,0.026,1.844
	c-0.048,0.24-0.099,0.527-0.024,0.746c0.291,0.845-0.156,1.319-0.773,1.736c-0.256,0.174-0.641,0.174-0.762,0.505
	c-0.126,0.344,0.161,0.589,0.275,0.875c0.197,0.477,0.173,0.507-0.353,0.492c-0.123-0.007-0.249-0.097-0.366-0.084
	c-0.697,0.075-1.032,0.702-0.543,1.185c0.438,0.437,0.292,0.565-0.037,0.94c-0.399,0.457-0.894,0.399-1.365,0.529
	c-0.734,0.205-0.986,0.79-0.657,1.476c0.11,0.225,0.251,0.443,0.417,0.631c0.165,0.183,0.379,0.32,0.575,0.481
	c-0.179,0.693-1.271,0.688-1.114,1.56c0.005,0.002,0.012,0.002,0.016,0.004c0.133,0.13,0.263,0.26,0.396,0.393
	c0.006,0.009,0.011,0.022,0.02,0.036c0.242,0.146,0.489,0.287,0.715,0.457c0.058,0.044,0.03,0.192,0.042,0.291
	c-0.108-0.009-0.276,0.022-0.32-0.035c-0.163-0.225-0.295-0.475-0.437-0.712c-0.014-0.009-0.022-0.016-0.035-0.022
	c-0.133-0.13-0.263-0.26-0.393-0.39c-0.003-0.009,0-0.013-0.003-0.02c-0.864-0.3-1.74,0.038-2.609-0.026
	c-0.393-0.029-0.719,0.229-0.822,0.651c-0.1,0.397-0.016,0.801,0.282,1.05c0.37,0.313,0.82,0.532,1.279,0.823
	c-0.594,0.313-1.025,0.137-1.507-0.082c-0.582-0.265-0.992-0.033-1.153,0.556c-0.271,1.001-0.205,2.01,0.035,3.002
	c0.104,0.43,0.231,0.869,0.438,1.255c0.371,0.679,0.256,1.167-0.396,1.588c-0.487,0.315-0.567,0.808-0.424,1.346
	c0.016,0.064,0.018,0.132,0.049,0.186c0.825,1.372,0.256,2.64-0.291,3.924c-0.613-0.115-0.355-0.892-0.852-1.112
	c-0.263-0.115-0.305-0.391-0.194-0.648c0.384-0.92,0.203-1.877,0.189-2.819c-0.007-0.567,0.075-1.224-0.181-1.67
	c-0.273-0.472-1.034-0.095-1.496-0.293c-0.127-0.276,0.019-0.426,0.117-0.583c0.364-0.571,0.774-1.067,0.604-1.879
	c-0.104-0.509,0.203-1.103,0.338-1.656c0.139-0.561,0.207-1.123,0.116-1.694c-0.086-0.556-0.551-0.86-1.113-0.715
	c-0.179,0.044-0.331,0.188-0.508,0.251c-0.158,0.055-0.335,0.06-0.613,0.102c0.04-1.33-0.084-2.583-0.405-3.807
	c-0.194-0.735-0.406-1.467-0.83-2.113c-0.214-0.327-0.485-0.636-0.917-0.523c-0.327,0.084-0.492,0.399-0.541,0.719
	c-0.086,0.563-0.104,1.136-0.191,1.696c-0.223,1.436-0.349,2.878-0.261,4.308c-0.388,0.143-0.492-0.095-0.591-0.32
	c-0.106-0.232-0.159-0.49-0.291-0.702c-0.312-0.499-0.741-0.887-1.354-0.909c-0.636-0.018-0.75,0.589-1.032,0.986
	c0.048,0.629,0.083,1.26,0.141,1.891c0.058,0.618,0.133,1.231,0.228,2.078c-0.704-0.492-0.876-1.094-1.198-1.584
	c-0.305-0.463-0.54-1.043-1.229-1.043c-0.479,0.002-0.816,0.576-0.896,1.5c-0.135,1.568,0.275,3.016,1.055,4.366
	c0.223,0.384,0.496,0.734,0.738,1.107c0.133,0.203,0.362,0.406,0.19,0.675c-0.177,0.269-0.429,0.148-0.662,0.055
	c-0.351-0.139-0.701-0.315-1.094-0.214c-0.261,0.07-0.438,0.251-0.426,0.547c0.004,0.119,0.023,0.256,0.081,0.357
	c0.79,1.341,0.732,2.775,0.384,4.2c-0.176,0.712,0.089,1.356,0.106,2.012c-0.375,0.307-0.739,0.174-1.099,0.062
	c-0.424-0.13-0.839-0.315-1.269-0.386c-0.604-0.102-1.123,0.386-1.112,1.008c0.016,0.64,0.08,1.291,0.625,1.728
	c0.454,0.363,0.026,0.456-0.146,0.657c-0.177,0.207-0.031,0.384,0.163,0.395c0.871,0.044,1.742,0.056,2.611,0.296
	c-0.018,0.415-0.412,0.298-0.533,0.258c-0.813-0.271-1.438,0.289-2.148,0.446c-0.627,0.141-0.947,0.78-0.618,1.332
	c0.393,0.659,0.437,1.438,0.856,2.069c0.118,0.179,0.132,0.363,0.004,0.507c-0.172,0.203-0.389,0.249-0.671,0.159
	c-1.896-0.604-2.069-0.473-1.947,1.502c0.037,0.629,0.144,1.246-0.126,1.868c-0.265,0.622-0.172,1.216,0.271,1.778
	c0.174,0.221,0.196,0.594,0.209,0.897c0.014,0.247-0.221,0.289-0.37,0.154c-0.265-0.24-0.494-0.353-0.829-0.13
	c-0.42,0.285-0.867,0.519-1.289,0.799c-0.435,0.291-1.085-0.13-1.404,0.379c-0.263,0.415-0.402,0.916-0.594,1.379
	c-0.07,0.177-0.119,0.366-0.217,0.525c-0.057,0.088-0.24,0.212-0.282,0.183c-0.154-0.097-0.356-0.233-0.388-0.384
	c-0.15-0.768-0.084-1.502,0.468-2.133c0.538-0.618,1.081-1.24,1.577-1.895c0.386-0.51,0.613-1.104,0.65-1.761
	c0.037-0.668-0.424-1.057-1.076-0.962c-0.604,0.089-1.086,0.645-1.807,0.492c1.237-1.044,1.474-1.434,1.528-2.486
	c0.053-1.01-0.728-1.674-1.729-1.4c-0.459,0.123-0.878,0.396-1.316,0.604c-0.077-0.17-0.17-0.282-0.17-0.393
	c-0.031-2.045-0.592-4-0.918-5.998c-0.066-0.399-0.291-0.669-0.454-0.995c-0.3-0.606-0.936-1.255-0.098-1.985
	c0.184-0.161,0.128-0.598,0.173-0.909c0.063-0.474-0.033-0.872-0.49-1.136c-0.273-0.156-0.516-0.366-0.768-0.556
	c-0.836-0.622-0.816-0.638-0.172-1.445c0.302-0.379,1.027-0.737,0.794-1.174c-0.317-0.591-0.997-0.161-1.522-0.026
	c-0.176,0.044-0.353,0.084-0.529,0.126c0,0.009,0,0.022,0,0.031c-0.119,0.108-0.24,0.218-0.359,0.327
	c-0.016,0.018-0.033,0.035-0.046,0.05l-0.051,0.038l0.055-0.048c0.014-0.013,0.026-0.026,0.042-0.04
	c0.112-0.117,0.223-0.234,0.338-0.351c0.006-0.002,0.013-0.004,0.021-0.006c0.005-0.362,0.075-0.719-0.097-1.083
	c-0.291-0.606-0.58-1.136-1.407-0.933c-0.318,0.078-0.473-0.178-0.455-0.443c0.04-0.492,0.01-1.017,0.563-1.317
	c1.016-0.545,0.869-1.42,0.607-2.316c-0.648-0.293-0.688-0.891-0.607-1.452c0.252-1.718-0.249-3.346-0.56-4.996
	c-0.13-0.684-0.673-1.055-1.353-1.165c-0.648-0.099-1.253,0.042-1.796,0.435c-0.295,0.209-0.454,0.631-0.926,0.589
	c-0.481-0.445-0.303-1.057-0.355-1.604c-0.079-0.816-0.062-1.644-0.15-2.459c-0.062-0.571-0.277-1.103-0.787-1.458
	c-0.472-0.333-0.964-0.135-1.454-0.073c-0.002,0.004,0,0.011-0.002,0.018c-0.009,0-0.02,0-0.031,0
	c-0.134,0.108-0.26,0.238-0.414,0.311c-0.075,0.033-0.207-0.058-0.315-0.088c0.065-0.068,0.126-0.176,0.2-0.194
	c0.172-0.031,0.354-0.024,0.529-0.028c0.01-0.004,0.014-0.013,0.021-0.018c0.004,0,0.009,0,0.013,0
	c0.104-0.525-0.438-0.85-0.447-1.368c0.191-0.042,0.368-0.104,0.549-0.122c1.008-0.084,1.013-0.08,1.086-0.854
	c0.053-0.558,0.095-1.119,0.139-1.652c-0.485-0.331-0.967-0.618-1.398-0.968c-0.282-0.229-0.774-0.3-0.799-0.735
	c-0.014-0.311,0.463-0.584,0.044-0.977c-0.139-0.126,0.128-0.304,0.292-0.362c0.109-0.04,0.246,0,0.375,0
	c0.803,0.004,0.84-0.011,0.895-0.556c0.045-0.439,0.049-0.885,0.089-1.328c0.042-0.492-0.106-0.818-0.587-1.063
	c-0.561-0.282-1.067-0.675-1.584-1.043c-0.633-0.453-0.68-0.858-0.174-1.383c0.437-0.452,0.882-0.898,1.334-1.333
	c0.19-0.185,0.42-0.41,0.254-0.631c-0.121-0.161-0.443-0.207-0.682-0.231c-0.913-0.11-1.707,0.293-2.515,0.752
	c-0.018-0.227-0.07-0.371-0.022-0.432c0.345-0.472,0.821-0.898,0.122-1.476c-0.177-0.148-0.217-0.453-0.34-0.673
	c-0.32-0.581-0.752-0.754-1.423-0.527c-0.531,0.181-0.889-0.139-0.799-0.64c0.128-0.722,0.199-1.396,1.015-1.869
	c1.158-0.668,1.298-1.868,0.391-2.894c-0.514-0.584-0.701-1.149-0.673-1.877c0.042-1.075,0.047-2.149,0.221-3.219
	c0.097-0.604,0.223-1.292-0.379-1.756c-0.387-0.293-1.037,0.046-1.686,0.913c-0.331,0.441-0.587,0.938-0.892,1.438
	c-0.225-0.584-1.526-2.345-1.959-2.676c-0.396-0.298-0.927-0.11-1.05,0.366c-0.141,0.567-0.062,1.129-0.004,1.699
	c0.105,1.006,0.189,2.016,0.229,3.028c0.021,0.536-0.407,0.799-0.908,0.603c-0.354-0.139-0.675-0.355-1.028-0.492
	c-0.668-0.262-1.094,0.042-1.143,0.79c-0.044,0.701,0.035,1.39,0.27,2.06c0.251,0.715,0.498,1.434,0.728,2.157
	c0.031,0.097-0.021,0.267-0.1,0.333c-0.068,0.057-0.22,0.031-0.333,0.02c-0.055-0.009-0.105-0.066-0.158-0.104
	c-0.397-0.271-0.755-0.876-1.288-0.492c-0.448,0.313-0.217,0.938-0.252,1.432c-0.044,0.667,0.242,1.094,0.887,1.249
	c0.918,0.216,1.211,0.834,1.125,1.697c-0.051,0.505,0.357,0.955,0.146,1.557c-0.529-0.404-1.054-0.69-1.703-0.295
	c-0.396,0.247-0.731,0.474-0.714,1.01c0.013,0.313,0.044,0.675-0.089,0.933c-0.375,0.739-0.382,1.434-0.044,2.184
	c0.123,0.276,0.105,0.62,0.119,0.933c0.011,0.318-0.357,0.591-0.64,0.499c-0.056-0.02-0.1-0.079-0.157-0.104
	c-1.63-0.715-2.301-0.737-3.074,1.436c-0.21,0.589-0.426,0.856-1.037,0.816c-0.249-0.016-0.51,0.015-0.752,0.082
	c-0.967,0.26-1.412,1.003-0.911,1.871c0.529,0.924,0.364,1.641-0.192,2.402c-0.816-0.461-1.672-0.561-2.55-0.221
	c-0.927,0.359-1.23,1.125-0.754,1.981c0.179,0.322,0.432,0.635,0.721,0.858c0.788,0.611,1.023,1.535,1.516,2.244
	c-0.238,0.353-0.507,0.317-0.739,0.395c-1.155,0.379-1.301,0.651-1.092,1.968c0.018,0.125,0.031,0.251,0.044,0.377
	c0.569,0.608,1.216,1.149,1.227,2.111c0.005,0.346,0.199,0.75,0.431,1.019c0.717,0.827,0.459,1.599-0.038,2.418
	c-0.908-0.009-1.597-0.651-2.422-0.914c-0.357-0.11-0.604,0.026-0.684,0.408c-0.04,0.185-0.06,0.375-0.058,0.563
	c0.009,0.514-0.163,0.814-0.75,0.834c-0.922,0.033-0.979,0.825-1.183,1.469c0.095,0.653,0.481,1.156,0.825,1.694
	c0.375,0.583,0.676,1.215,0.997,1.831c0.098,0.188,0.042,0.43-0.139,0.485c-0.622,0.185-0.856,0.69-1.139,1.189
	c-0.134,0.243-0.69,0.132-0.805-0.141c-0.095-0.232-0.112-0.497-0.216-0.719c-0.159-0.342-0.318-0.699-0.557-0.984
	c-0.542-0.653-1.363-0.867-1.849-0.542c-0.419,0.282-0.628,1.05-0.458,1.74c0.044,0.181,0.088,0.395,0.211,0.523
	c0.902,0.916,0.896,1.93,0.508,3.093c-0.415,1.237-0.51,2.49,0.62,3.507c0.179,0.161-0.188,0.699-0.464,0.688
	c-0.633-0.037-1.26-0.114-1.833-0.426c-0.275-0.152-0.542-0.328-0.829-0.454c-0.389-0.17-0.83,0.053-0.86,0.45
	c-0.044,0.631-0.038,1.266-0.053,1.901c0.45,0.573,0.747,1.141,1.753,1.125c1.357-0.024,2.224,0.99,2.765,2.212
	c-1.16,0.473-1.223,0.477-1.941-0.134c-0.468-0.399-0.82-1.002-1.586-0.827c-0.117,0.139-0.236,0.273-0.355,0.412
	c-0.181,1.304-1.003,2.283-1.725,3.298c-0.702,0.986-1.805,1.057-2.903,1.032c-0.207-0.004-0.322-0.147-0.34-0.357
	c-0.006-0.062-0.013-0.13-0.004-0.189c0.401-2.043,0.801-4.088,1.209-6.13c0.021-0.115,0.128-0.215,0.193-0.32
	c-0.097-0.163-0.193-0.329-0.286-0.496c-0.228-0.408-0.536-0.459-0.951-0.27c-0.452,0.21-0.638,0.792-1.288,0.862
	c-0.033-0.84-0.051-1.647-0.105-2.457c-0.024-0.373-0.098-0.752-0.212-1.107c-0.047-0.146-0.259-0.311-0.408-0.326
	c-0.154-0.016-0.375,0.097-0.485,0.225c-0.419,0.49-0.646,1.092-0.838,1.698c-0.154,0.481-0.287,0.976-0.38,1.472
	c-0.114,0.638-0.194,1.183-1.023,1.374c-0.594,0.14-0.648,0.892-0.82,1.423c-0.188,0.565-0.473,0.845-1.104,0.776
	c-0.454-0.048-0.631,0.296-0.732,0.709c-0.172,0.675-0.37,1.345-0.587,2.005c-0.2,0.615-0.6,0.792-1.151,0.556
	c-0.445-0.189-0.652-0.653-0.349-1.09c0.583-0.825,0.565-1.758,0.732-2.629c-0.521-0.393-1.057-0.265-1.548-0.354
	c-0.64-0.107-0.962-0.622-0.781-1.237c0.016-0.062,0.037-0.123,0.073-0.174c0.589-0.885,0.615-1.631-0.439-2.215
	c-0.34-0.192-0.225-0.554,0.009-0.81c0.345-0.375,0.728-0.713,1.063-1.095c0.203-0.233,0.37-0.505,0.521-0.78
	c0.142-0.267-0.049-0.71-0.313-0.797c-0.062-0.02-0.128-0.02-0.186-0.046c-0.428-0.19-1.087,0.269-1.327-0.406
	c-0.19-0.531,0.225-0.959,0.375-1.436c0.114-0.364,0.223-0.726,0.335-1.089c-0.445-0.66-1.118-0.417-1.859-0.411
	c0-0.902,0.016-1.78-0.007-2.656c-0.009-0.463-0.133-0.889-0.695-0.979c-0.366-0.06-0.531-0.307-0.589-0.642
	c-0.141-0.81-0.198-1.643-0.441-2.422c-0.185-0.596-0.044-1.652-0.966-1.577c-0.71,0.055-0.622,1.008-0.71,1.595
	c-0.121,0.808-0.095,1.639-0.115,2.462c-0.016,0.611-0.004,1.224-0.004,1.84c-0.669,0.011-0.838-0.475-1.156-0.746
	c-0.203-0.172-0.212-0.399-0.158-0.677c0.196-1.055,0.193-1.103-0.81-1.518c-0.45-0.186-0.578-0.421-0.475-0.852
	c0.091-0.369,0.186-0.735,0.265-1.107c0.105-0.523-0.022-1.006-0.273-1.462c-0.221-0.408-0.706-0.633-1.132-0.439
	c-0.496,0.227-0.948,0.542-1.5,0.867c-0.084-1.518,0.064-2.894,0.415-4.249c-0.119-0.633-0.012-1.253,0.097-1.875
	c0.056-0.307,0.097-0.622,0.086-0.929c-0.018-0.492-0.529-0.783-0.953-0.534c-0.321,0.183-0.604,0.437-0.977,0.71
	c-0.426-0.322-0.598-0.922-1.132-1.14c-0.554-0.223-1.116-0.15-1.679-0.11c-0.463,0.031-0.701-0.196-0.757-0.638
	c-0.028-0.251-0.053-0.503-0.053-0.752c-0.005-1.366-1.094-2.054-1.851-2.936c-0.312-0.362-0.836-0.135-1.253-0.232
	c-0.002,0.004,0,0.009,0,0.011c-0.007,0.002-0.012,0.002-0.016,0.004c-0.018,0.329-0.184,0.556-0.51,0.624
	c-0.088,0.016-0.238-0.066-0.293-0.147c-0.031-0.046,0.057-0.236,0.128-0.269c0.216-0.093,0.447-0.144,0.675-0.208
	c0-0.007,0.002-0.011,0.002-0.018c0.005,0.002,0.009,0.002,0.014,0.002c0.006-0.377-0.075-0.724-0.554-0.942
	c0.335-0.11,0.445-0.166,0.56-0.176c1.044-0.102,1.044-0.097,1.135-1.021c0.039-0.441,0.083-0.88,0.132-1.381
	c-0.578-0.375-1.2-0.781-1.826-1.185c-0.31-0.203-0.238-0.492-0.273-0.807c-0.066-0.565,0.044-0.885,0.635-0.856
	c0.561,0.026,0.825-0.219,0.874-0.748c0.03-0.315,0.062-0.631,0.074-0.946c0.019-0.399-0.125-0.66-0.465-0.942
	c-0.708-0.589-1.749-0.79-2.111-1.778c0.413-0.794,1.156-1.295,1.723-1.955c0.104-0.119,0.128-0.333,0.126-0.5
	c0-0.055-0.205-0.135-0.322-0.152c-0.577-0.084-1.138-0.009-1.681,0.198c-0.344,0.132-0.686,0.276-1.067,0.228
	c-0.005,0.006-0.009,0.011-0.011,0.015c-0.005,0.004-0.01,0.009-0.016,0.016c0.021,0.144,0.035,0.287-0.159,0.337
	c-0.007,0.002-0.062-0.102-0.049-0.117c0.063-0.08,0.137-0.148,0.208-0.221c0-0.011-0.003-0.02-0.005-0.031
	c0.011,0.002,0.021-0.002,0.031,0c0.64-0.902,0.128-1.666-0.347-2.402c-0.229-0.355-0.633-0.3-1.037-0.221
	c-0.694,0.135-0.92-0.07-0.845-0.692c0.084-0.697,0.263-1.267,0.953-1.728c1.187-0.794,1.269-1.606,0.309-2.685
	c-0.438-0.496-0.542-0.966-0.533-1.542c0.021-1.271,0.062-2.541,0.068-3.81c0.002-0.362,0.055-0.801-0.396-0.977
	c-0.498-0.192-0.877,0.102-1.151,0.45c-0.388,0.496-0.706,1.047-1.111,1.661c-0.547-0.454-0.759-1.127-1.136-1.676
	c-0.506-0.741-0.984-1.035-1.333-0.801c-0.524,0.355-0.342,0.913-0.342,1.392c0.002,0.569,0.102,1.136,0.154,1.703
	c0.049,0.505,0.128,1.01,0.142,1.516c0.013,0.704-0.445,0.966-1.151,0.686c-0.351-0.141-0.685-0.346-1.046-0.43
	c-0.34-0.08-0.615,0.11-0.717,0.463c-0.148,0.505-0.075,1.015,0.072,1.5c0.273,0.909,0.596,1.804,0.881,2.711
	c0.028,0.095-0.033,0.258-0.108,0.335c-0.075,0.068-0.251,0.121-0.331,0.083c-0.223-0.117-0.41-0.302-0.631-0.421
	c-0.216-0.119-0.452-0.247-0.71-0.078c-0.238,0.159-0.27,0.402-0.265,0.662c0.021,0.882,0.247,1.606,1.239,1.871
	c0.473,0.124,0.69,0.532,0.737,1.01c0.053,0.564,0.097,1.131,0.143,1.698c-0.386,0.274-0.535-0.185-0.807-0.214
	c-0.759-0.083-1.229,0.229-1.44,1.103c-0.104,0.433-0.199,0.688-0.711,0.646c-0.302-0.024-0.617,0.06-0.922,0.115
	c-0.242,0.044-0.477,0.121-0.732,0.185c-0.304-0.805-0.058-1.57-0.116-2.318c-0.054-0.695-0.051-1.396-0.135-2.087
	c-0.066-0.549-0.309-0.794-0.904-0.686c-0.613,0.11-0.821-0.066-0.856-0.622c-0.009-0.125-0.002-0.256-0.03-0.377
	c-0.184-0.808,0.768-1.564-0.075-2.482c-0.51-0.556-0.578-1.513-0.858-2.283c-0.064-0.177-0.179-0.338-0.28-0.497
	c-0.177-0.273-0.626-0.295-0.805-0.046c-0.435,0.613-0.552,1.392-1.101,1.963c-0.248,0.258-0.042,0.732,0.127,1.083
	c0.122,0.247,0.168,0.527-0.079,0.675c-0.265,0.152-0.437-0.088-0.608-0.283c-0.746-0.858-0.563-1.903-0.561-2.896
	c0.002-0.512,0.6-0.598,0.897-0.922c-0.134-0.567-0.428-1.043-0.849-1.445c-0.534-0.509-0.823-1.105-0.604-1.851
	c0.154-0.529,0.17-1.01-0.349-1.35c-0.559-0.366-1.008-0.293-1.689,0.269c-0.133,0.106-0.179,0.331-0.417,0.289
	c-0.47-0.739-0.911-1.498-1.419-2.21c-0.335-0.463-1.023-0.355-1.23,0.188c-0.318,0.834-0.521,1.683-0.357,2.601
	c0.132,0.746,0.188,1.509,0.231,2.265c0.024,0.417-0.382,0.728-0.768,0.584c-0.598-0.223-1.188-0.441-1.842-0.359
	c-0.461,0.057-0.803,0.423-0.836,0.887c-0.033,0.461,0.068,0.889,0.335,1.26c0.293,0.415,0.606,0.812,0.916,1.215
	c0.163,0.209,0.317,0.45,0.109,0.673c-0.158,0.172-0.401,0.295-0.631,0.368c-0.328,0.108-0.622-0.064-0.884-0.245
	c-0.629-0.441-1.295-0.803-2.027-1.035c-0.596-0.189-0.976,0.177-0.843,0.823c0.063,0.305,0.212,0.589,0.277,0.891
	c0.018,0.084-0.092,0.243-0.185,0.292c-0.091,0.046-0.282,0.037-0.34-0.027c-0.618-0.677-0.931-1.429-0.852-2.402
	c0.055-0.651-0.079-1.26,0.71-1.529c0.238-0.08,0.212-0.315,0.124-0.468c-0.252-0.432-0.473-0.874-0.874-1.227
	c-0.485-0.435-0.717-1.039-0.521-1.711c0.152-0.519,0.234-1.02-0.286-1.363c-0.604-0.404-1.193-0.36-1.719,0.181
	c-0.086,0.088-0.196,0.152-0.399,0.305c-0.438-0.677-0.847-1.368-1.314-2.019c-0.475-0.657-1.165-0.563-1.452,0.189
	c-0.273,0.715-0.445,1.45-0.304,2.235c0.123,0.686,0.212,1.381,0.263,2.073c0.065,0.931-0.201,1.13-1.079,0.896
	c-0.424-0.11-0.856-0.238-1.29-0.267c-0.727-0.044-1.163,0.507-1.07,1.235c0.055,0.457,0.26,0.849,0.525,1.207
	c0.265,0.357,0.56,0.693,0.82,1.05c0.203,0.275,0.077,0.62-0.256,0.765c-0.115,0.051-0.234,0.095-0.354,0.135
	c-1.138,0.397-1.166,0.439-1.098,1.573c0.044,0.746,0.304,1.478-0.036,2.248c-0.214,0.49,0.182,0.971,0.313,1.454
	c0.106,0.379-0.273,0.71-0.68,0.682c-0.542-0.042-0.896-0.455-1.367-0.629c-0.47-0.17-0.896,0.082-0.948,0.6
	c-0.082,0.765-0.012,1.526,0.229,2.256c0.216,0.662,0.467,1.313,0.705,1.97c0.071,0.183,0.096,0.373-0.051,0.525
	c-0.139,0.148-0.307,0.167-0.505,0.066c-1.474-0.734-1.474-0.73-1.522,0.812c-0.004,0.192,0.005,0.388-0.039,0.571
	c-0.104,0.421,0.097,0.574,0.475,0.606c0.353,0.033,0.598,0.223,0.672,0.565c0.054,0.238,0.117,0.534,0.024,0.73
	c-0.114,0.25-0.43,0.223-0.675,0.13c-1.043-0.404-2.274-0.335-3.112-1.282c-0.214-0.243-0.587-0.159-0.9-0.051
	c-0.229,0.075-0.468,0.119-0.701,0.177c-0.344-0.752-0.205-1.421,0.033-2.094c0.112-0.313,0.317-0.492,0.606-0.673
	c1.262-0.801,1.575-1.804,0.624-2.75c-0.712-0.71-0.717-1.414-0.706-2.232c0.021-1.334,0.047-2.667,0.054-4
	c0.002-0.245-0.06-0.503-0.322-0.635c-0.329-0.167-0.615-0.042-0.885,0.139c-0.375,0.256-0.589,0.651-0.867,0.995
	c-0.3,0.375-0.156,1.019-0.747,1.196c-0.212-0.417-0.283-0.872-0.697-1.222c-0.473-0.397-0.675-1.065-1.214-1.447
	c-0.41-0.287-0.939-0.095-1.021,0.391c-0.106,0.638,0.004,1.262,0.068,1.895c0.092,0.882,0.167,1.767,0.2,2.654
	c0.021,0.49-0.441,0.84-0.894,0.704c-0.359-0.11-0.701-0.287-1.048-0.443c-0.571-0.256-0.968,0.026-1.334,0.417
	c0.158,1.46,0.468,2.876,1.078,4.22c0.066,0.146,0.064,0.401-0.02,0.523c-0.207,0.28-0.433,0.082-0.64-0.062
	c-0.21-0.144-0.41-0.3-0.636-0.415c-0.293-0.148-0.699,0.051-0.721,0.359c-0.047,0.686-0.066,1.375-0.102,2.125
	c0.307,0.057,0.61,0.097,0.909,0.174c0.747,0.196,1.213,0.586,1.195,1.464c-0.012,0.616,0.146,1.238,0.229,1.886
	c-0.166-0.077-0.32-0.093-0.382-0.181c-0.296-0.408-0.668-0.629-1.132-0.351c-0.454,0.273-1.132,0.401-0.978,1.205
	c0.049,0.238,0.115,0.578-0.006,0.734c-0.759,0.982-0.25,1.921,0.016,2.876c0.048,0.177,0.057,0.371,0.048,0.556
	c-0.009,0.196-0.608,0.571-0.732,0.448c-0.238-0.24-0.531-0.313-0.818-0.439c-0.717-0.32-1.272-0.307-1.854,0.344
	c-0.532,0.593-1.333,0.942-1.518,1.837c-0.019,0.08-0.331,0.134-0.51,0.139c-0.21,0.004-0.371-0.172-0.369-0.353
	c0.007-0.951,0.058-1.902,0.075-2.853c0.014-0.692,0.115-1.394-0.11-2.076c-0.048-0.143-0.123-0.227-0.277-0.196
	c-0.115,0.022-0.265,0.044-0.329,0.119c-0.333,0.399-0.43,0.904-0.575,1.39c-0.404,1.321-0.296,2.744-0.993,4.03
	c-0.349,0.638-0.119,1.494,0.203,2.217c0.205,0.463,0.428,0.936,0.28,1.46c-0.029,0.099-0.144,0.192-0.24,0.247
	c-0.133,0.075-0.245,0.004-0.276-0.154c-0.132-0.686-0.24-1.376-0.391-2.054c-0.22-0.991-0.423-1.988-0.724-2.956
	c-0.302-0.975-0.44-1.028-1.493-1.043c-0.761-0.009-1.521-0.006-2.283-0.02c-0.593-0.014-0.75-0.19-0.812-0.794
	c-0.04-0.388-0.037-0.754,0.163-1.107c0.154-0.273,0.309-0.554,0.415-0.854c0.242-0.668,0.097-1.092-0.508-1.438
	c-0.326-0.189-0.684-0.322-1.021-0.479c-0.183-0.474,0.17-0.708,0.422-0.964c0.445-0.452,0.936-0.86,1.372-1.319
	c0.305-0.32,0.585-0.67,0.816-1.043c0.304-0.492,0.011-1.079-0.55-1.14c-0.311-0.033-0.633-0.024-0.946,0.011
	c-0.247,0.029-0.487,0.13-0.732,0.192c-0.177,0.046-0.353,0.08-0.547,0.122c-0.013-0.735,0.228-1.341,0.561-1.943
	c0.304-0.552,0.529-1.152,0.524-1.807c-0.004-0.594-0.368-0.92-0.964-0.885c-0.363,0.026-0.664,0.413-1.069,0.179
	c-0.243-0.351-0.137-0.734-0.066-1.094c0.177-0.896,0.004-1.771-0.093-2.649c-0.07-0.66-0.335-1.081-1.087-0.988
	c-0.316,0.04-0.462-0.177-0.506-0.443c-0.137-0.81-0.233-1.63-0.384-2.442c-0.123-0.684-0.265-1.372-0.468-2.036
	c-0.141-0.463-0.256-1.105-0.899-1.05c-0.497,0.044-0.604,0.596-0.675,1.03c-0.137,0.812-0.301,1.625-0.331,2.446
	c-0.054,1.456-0.016,2.916-0.016,4.37c-0.536,0.097-0.651-0.362-0.902-0.596c-0.421-0.388-0.832-0.781-1.368-1.01
	c-0.518-0.221-1.076,0.154-1.023,0.719c0.08,0.893,0.441,1.711,0.737,2.547c0.229,0.645,0.659,1.22,0.671,1.941
	c0.009,0.002,0.018,0.002,0.021,0.002l0.04,0.064l-0.06-0.044c0-0.009-0.002-0.015-0.002-0.022c-0.494-0.033-0.988-0.099-1.48-0.088
	c-1.055,0.02-1.438,0.761-0.845,1.668c0.304,0.47,0.715,0.871,1.059,1.319c0.063,0.084,0.095,0.263,0.049,0.349
	c-0.044,0.077-0.229,0.144-0.322,0.119c-0.419-0.128-0.823-0.302-1.24-0.439c-0.298-0.093-0.602-0.188-0.911-0.221
	c-0.438-0.048-0.906-0.055-1.176,0.395c-0.267,0.441-0.07,0.84,0.19,1.215c0.072,0.099,0.141,0.216,0.238,0.293
	c0.997,0.801,1.109,1.873,0.939,3.038c-0.035,0.245-0.07,0.507-0.033,0.748c0.152,0.92-0.147,1.619-0.986,2.039
	c-0.64,0.32-0.514,0.759-0.26,1.246c0.079,0.146,0.048,0.293-0.102,0.289c-0.163-0.004-0.324-0.108-0.487-0.167
	c-0.104,0.073-0.223,0.125-0.313,0.214c-0.611,0.598-0.618,0.885,0.028,1.339c0.517,0.36,0.997,0.786,1.633,0.955
	c0.233,0.062,0.441,0.21,0.64,0.309c-0.066,0.406-0.331,0.401-0.569,0.421c-0.648,0.057-1.257-0.117-1.859-0.333
	c-0.598-0.21-1.229-0.53-1.82-0.122c-0.677,0.468-1.31,1.017-1.528,1.875c-0.077,0.309-0.132,0.62-0.2,0.931
	c-0.093,0.412-0.334,0.672-0.762,0.739c-0.126,0.02-0.258,0.02-0.375,0.06c-0.992,0.333-1.141,0.721-0.657,1.721
	c0.056,0.11,0.135,0.216,0.226,0.302c0.284,0.273,0.065,0.477-0.131,0.596c-0.529,0.313-1.045,0.563-1.484,1.079
	c-0.576,0.673,0.196,0.657,0.324,1.03c-0.468,0.251-0.764,0.768-1.381,0.852c-0.582,0.077-1.023-0.331-0.855-0.897
	c0.158-0.543,0.365-1.075,0.577-1.604c0.117-0.287,0.354-0.538,0.413-0.832c0.105-0.521,0.65-1.092,0.07-1.58
	c-0.496-0.419-1.088-0.064-1.63,0.049c-0.172,0.038-0.313,0.214-0.485,0.291c-0.34,0.146-0.671-0.077-0.622-0.415
	c0.035-0.251,0.044-0.527,0.167-0.735c0.455-0.756,0.949-1.493,1.443-2.228c0.102-0.159,0.3-0.265,0.37-0.43
	c0.261-0.622,0.771-1.315,0.317-1.93c-0.414-0.572-1.16-0.305-1.773-0.135c-0.282,0.077-0.498,0.391-0.869,0.238
	c-0.068-0.616-0.053-1.266-0.229-1.857c-0.19-0.622,0.598-1.319-0.194-1.855c0.349-0.764,0.313-1.708,1.4-2.067
	c1.109-0.37,1.544-1.557,1.167-2.611c-0.189-0.527-0.883-0.969-1.509-0.942c-0.435,0.016-0.843,0.298-1.297,0.122
	c-0.075-1.617,0.044-1.763,1.614-2.005c0.261-0.695,0.813-1.257,0.755-2.098c-0.058-0.825-0.384-1.343-1.191-1.405
	c-0.433-0.035-0.887,0.029-1.311,0.126c-0.487,0.112-0.953,0.315-1.416,0.474c-0.177-0.311-0.291-0.613-0.492-0.845
	c-0.3-0.344,0.091-0.914-0.181-1.046c-0.421-0.203-0.971-0.132-1.463-0.203c-0.434-0.064-0.849,0.141-1.31-0.024
	c-1.072-0.379-1.205-0.628-0.538-1.557c0.225-0.315,0.238-0.927,0.873-0.83c-0.384-0.497-0.289-1.087-0.313-1.652
	c-0.051-1.264-0.754-1.829-2.199-1.703c-0.366,0.031-0.712,0.245-1.078,0.339c-0.271,0.075-0.487-0.057-0.636-0.293
	c-0.119-0.194-0.049-0.375,0.084-0.509c0.761-0.766,1.54-1.513,2.294-2.281c0.812-0.823,1.487-1.733,1.791-2.874
	c0.084-0.32,0.089-0.625-0.176-0.878c-0.27-0.256-0.583-0.254-0.878-0.102c-0.622,0.313-1.231,0.651-1.84,0.993
	c-0.278,0.154-0.538,0.34-0.89,0.269c-0.368-0.293-0.368-0.783-0.595-1.156c-0.324-0.534-0.349-1.032-0.086-1.615
	c0.271-0.602,0.313-1.235-0.294-1.725c-0.228-0.181-0.247-0.417-0.152-0.677c0.384-1.057,0.062-2.137,0.086-3.205
	c0.022-1.001-0.519-1.266-1.511-0.902c-0.172,0.064-0.34,0.137-0.521,0.209c-0.291-0.509-0.075-1.01-0.091-1.489
	c-0.035-1.081-0.033-2.157-0.09-3.234c-0.045-0.849-0.362-1.608-0.958-2.226c-0.176-0.181-0.388-0.324-0.67-0.289
	c-0.38,0.044-0.561,0.331-0.609,0.633c-0.203,1.251-0.357,2.511-0.54,3.764c-0.053,0.355,0.06,0.772-0.406,1.079
	c-0.355-0.391-0.697-0.816-1.09-1.189c-0.346-0.331-0.902-0.196-1.131,0.22c-0.287,0.514-0.385,1.072-0.394,1.65
	c-0.013,0.697-0.121,1.414,0.003,2.089c0.121,0.662-0.567,1.052-0.336,1.789c0.192,0.622-0.629,1.143-0.613,1.871
	c-0.235-0.086-0.398-0.093-0.445-0.172c-0.997-1.729-2.354-3.121-3.889-4.387c-0.578-0.475-1.006-0.719-1.652-0.26
	c-0.152,0.108-0.331,0.172-0.501,0.064c0-0.944-0.018-1.893,0.005-2.844c0.039-1.624-0.229-3.156-1.244-4.487
	c-0.34,0.075-0.68,0.146-1.02,0.223c-0.256,1.791-0.517,3.586-0.761,5.303c-0.452,0.251-0.55-0.055-0.695-0.227
	c-0.203-0.241-0.357-0.523-0.578-0.746c-0.419-0.421-1.001-0.318-1.23,0.208c-0.254,0.586-0.382,1.202-0.389,1.842
	c-0.009,0.692,0,1.387-0.024,2.08c-0.03,0.876-0.032,1.75-0.602,2.519c-0.205,0.283-0.221,0.704-0.34,1.119
	c-0.569-0.273-0.692-0.878-1.028-1.302c-0.349-0.443-0.71-0.906-0.922-1.423c-0.189-0.454-0.477-0.659-0.88-0.882
	c-0.603-0.329-1.149-0.77-1.703-1.185c-0.347-0.258-0.347-0.637-0.024-0.973c0.519-0.542,1.053-1.072,1.566-1.624
	c0.172-0.186-0.002-0.551-0.27-0.556c-0.372-0.004-0.752,0.009-1.12,0.062c-0.49,0.068-0.971,0.188-1.456,0.285
	c0,0.004-0.002,0.011-0.005,0.02c-0.013,0.011-0.021,0.022-0.035,0.033c-0.053,0.152-0.16,0.245-0.302,0.305
	c-0.016,0.015-0.033,0.033-0.049,0.048l-0.068,0.062l0.049-0.082c0.024-0.009,0.044-0.018,0.068-0.028
	c0.1-0.102,0.2-0.203,0.302-0.305c0.005-0.015,0.016-0.031,0.018-0.051c0.01,0,0.016-0.002,0.022-0.002
	c0.238-0.761,0.04-1.447-0.361-2.096c-0.247-0.399-0.569-0.576-1.081-0.507c-0.759,0.095-0.781,0.044-0.79-0.519
	c-0.007-0.483-0.123-0.984,0.156-1.434c0.175-0.302,0.548-0.292,0.779-0.479c0.822-0.664,0.939-1.489,0.361-2.332
	c-0.105-0.15-0.251-0.289-0.405-0.39c-0.433-0.283-0.494-0.691-0.468-1.156c0.079-1.323,0.158-2.645,0.198-3.971
	c0.014-0.403,0.172-0.968-0.437-1.096c-0.483-0.102-0.81,0.276-1.099,0.618c-0.163,0.19-0.273,0.423-0.437,0.613
	c-0.247,0.287-0.154,0.852-0.559,0.929c-0.578,0.115-0.275-0.715-0.752-0.856c-0.189-0.06-0.289-0.397-0.448-0.591
	c-0.375-0.461-0.628-1.319-1.36-0.997c-0.552,0.243-0.276,1.024-0.247,1.573c0.051,1.008,0.149,2.017,0.185,3.024
	c0.022,0.746-0.44,1.061-1.089,0.77c-0.345-0.15-0.658-0.373-1.002-0.523c-0.371-0.161-0.77,0.113-0.799,0.541
	c-0.021,0.311,0.005,0.626,0.031,0.938c0.04,0.497,0.247,0.988,0.058,1.494c0.428,0.5,0.512,1.131,0.721,1.758
	c-0.531,0.371-0.774-0.231-1.149-0.285c-0.339-0.046-0.708,0.104-0.74,0.406c-0.04,0.377-0.038,0.756-0.049,1.138
	c-0.014,0.421,0.137,0.73,0.564,0.875c0.238,0.082,0.459,0.221,0.69,0.32c0.466,0.208,0.638,0.585,0.659,1.065
	c0.027,0.503,0.066,1.008,0.102,1.533c-0.428,0.271-0.507-0.432-0.926-0.331c-0.318,0.075-0.594,0.189-0.869,0.342
	c-0.228,0.128-0.438,0.289-0.446,0.569c-0.028,1.225-0.724,2.453,0.014,3.684c0.084,0.141,0.055,0.366,0.044,0.547
	c-0.016,0.236-0.522,0.547-0.728,0.463c-0.054-0.022-0.089-0.093-0.142-0.125c-1.754-1.099-2.087-0.485-2.735,0.9
	c-0.333,0.719-0.657,1.063-1.491,1.147c-1.141,0.11-1.447,0.754-1.129,1.908c0.065,0.243,0.225,0.457,0.282,0.699
	c0.105,0.408-0.201,0.715-0.34,1.061c-0.181,0.459-0.522,0.13-0.801,0.124c-0.505-0.011-1.021-0.073-1.516-0.002
	c-0.939,0.137-1.379,1.033-0.939,1.862c0.146,0.271,0.357,0.525,0.591,0.728c0.282,0.25,0.611,0.417,0.785,0.801
	c0.208,0.45,0.569,0.832,0.631,1.35c-0.277,0.432-0.798,0.353-1.16,0.593c-0.524,0.351-0.726,0.898-0.529,1.482
	c0.04,0.124,0.066,0.269,0.152,0.346c1.043,0.942,1.105,2.363,1.731,3.503c0.287,0.523,0.168,0.947-0.099,1.423
	c-0.197,0.351-0.429,0.43-0.766,0.3c-0.473-0.183-0.934-0.404-1.41-0.571c-0.417-0.148-0.759,0.004-0.843,0.472
	c-0.112,0.626-0.342,0.94-1.012,1.141c-0.834,0.251-1.055,1.394-0.525,2.248c0.472,0.752,1.011,1.46,1.271,2.325
	c0.062,0.208,0.068,0.426-0.117,0.494c-0.527,0.192-0.761,0.609-0.99,1.077c-0.123,0.251-0.503,0.209-0.617-0.044
	c-0.128-0.285-0.199-0.598-0.336-0.878c-0.141-0.282-0.309-0.56-0.51-0.796c-0.522-0.62-1.178-0.836-1.663-0.552
	c-0.598,0.351-0.549,0.958-0.526,1.52c0.008,0.24,0.074,0.556,0.235,0.702c1.044,0.951,0.673,2.014,0.349,3.117
	c-0.293,1.001-0.328,1.983,0.479,2.846c0.296,0.315-0.013,0.783-0.461,0.768c-0.792-0.026-1.531-0.146-1.784-1.081
	c-0.181-0.664-0.702-0.847-1.315-0.875c-0.503-0.02-1.003,0.051-1.462-0.278c-0.399-0.285-0.522-0.525-0.285-0.929
	c0.254-0.428,0.762-0.792,0.59-1.339c-0.148-0.47-0.439-0.915-0.75-1.304c-0.576-0.717-1.181-1.277-2.262-0.73
	c-0.71,0.362-1.486,0.161-2.04-0.516c0.642-0.821,0.633-0.876,1.789-1.05c0.805-0.123,1.423-0.507,1.974-1.045
	c0.175-0.167,0.294-0.41,0.394-0.638c0.181-0.403-0.073-0.926-0.494-1.092c-0.51-0.203-1.004-0.141-1.472,0.09
	c-0.739,0.362-1.47,0.739-2.19,1.136c-0.236,0.13-0.496,0.26-0.695,0.082c-0.286-0.26,0.044-0.406,0.199-0.576
	c0.172-0.181,0.432-0.344,0.489-0.558c0.342-1.282,1.249-2.182,2.045-3.159c0.373-0.459,0.351-0.722-0.028-1.136
	c-0.534-0.58-1.265-0.845-1.896-1.259c-0.311-0.21-0.375-0.492-0.24-0.821c0.366-0.896,1.028-1.59,1.575-2.365
	c0.34-0.474,0.331-0.785-0.035-1.169c-0.726-0.757-1.628-1.198-2.637-1.427c-0.39-0.088-0.688,0.273-0.69,0.69
	c-0.004,0.423,0.42,0.633,0.441,1.012c0.005,0.102-0.09,0.247-0.181,0.302c-0.093,0.058-0.3,0.09-0.349,0.038
	c-0.48-0.516-0.85-1.094-0.874-1.827c-0.008-0.315,0.071-0.659-0.03-0.939c-0.212-0.591,0.097-0.805,0.552-0.997
	c0.158-0.071,0.284-0.216,0.432-0.329c-0.244-0.629-0.573-1.141-1.041-1.602c-0.454-0.448-0.754-1.006-0.489-1.709
	c0.163-0.437,0.181-0.887-0.238-1.213c-0.497-0.388-1.032-0.455-1.575-0.075c-0.154,0.108-0.305,0.225-0.472,0.351
	c-0.697-0.492-0.936-1.324-1.47-1.93c-0.524-0.591-1.185-0.479-1.467,0.278c-0.267,0.719-0.461,1.454-0.315,2.234
	c0.084,0.437,0.147,0.878,0.188,1.319c0.15,1.681,0.13,1.694-1.498,1.383c-0.065-0.013-0.128-0.024-0.189-0.033
	c-0.573-0.075-1.169-0.157-1.535,0.437c-0.342,0.561-0.159,1.127,0.156,1.615c0.307,0.477,0.704,0.894,1.062,1.337
	c0.34,0.413,0.349,0.574-0.194,0.843c-0.582,0.289-0.909,0.635-0.852,1.321c0.058,0.664-0.503,1.24-0.207,2.003
	c0.141,0.368-0.799,0.664-0.521,1.284c0.179,0.401,0.41,0.779,0.617,1.169c0.026,0.055,0.068,0.128,0.053,0.176
	c-0.304,0.979,0.082,1.93,0.34,3.196c-0.724-0.741-1.187-1.235-1.672-1.705c-0.198-0.188-0.454-0.199-0.701-0.064
	c-0.865,0.481-1.033,0.935-0.706,1.851c0.084,0.229,0.154,0.465,0.233,0.697c0.005,0,0.009,0.002,0.018,0.004
	c0,0.004,0.005,0.009,0.005,0.013c0.794-0.018,1.385,0.408,1.974,0.812c-0.379,1.213-1.409,1.366-2.331,1.659
	c-0.154,0.051-0.424,0.033-0.51-0.066c-0.207-0.243,0.002-0.437,0.196-0.591c0.146-0.115,0.303-0.221,0.45-0.331
	c0.561-0.424,0.485-0.94,0.221-1.482c-0.005,0-0.011,0-0.018,0c0-0.007-0.005-0.013-0.005-0.018
	c-0.366-0.06-0.729-0.122-1.074-0.177c-0.287-0.49,0.082-0.878,0.126-1.299c0.051-0.505,0.119-1.006-0.044-1.506
	c-0.166-0.507-0.711-0.832-1.205-0.613c-0.449,0.201-0.852,0.516-1.281,0.788c-0.305-0.315-0.135-0.695-0.095-1.03
	c0.179-1.573,0.393-3.144,0.591-4.712c0.026-0.189,0.04-0.381,0.031-0.571c-0.016-0.311-0.011-0.648-0.354-0.816
	c-0.321-0.159-0.623-0.053-0.874,0.156c-0.243,0.203-0.476,0.424-0.672,0.671c-0.197,0.249-0.323,0.203-0.599,0.073
	c-0.77-0.373-1.126-0.282-1.661,0.26c-0.49,0.496-0.762,1.145-1.102,1.76c-0.505-1.143-1.351-1.864-2.195-2.577
	c-0.282-0.236-0.808,0.022-0.917,0.388c-0.151,0.501-0.116,1.004-0.007,1.505c0.22,0.999,0.223,2.016,0.224,3.033
	c0.001,0.646-0.431,0.942-1.003,0.71c-0.291-0.117-0.547-0.32-0.834-0.445c-0.757-0.338-1.2-0.033-1.24,0.829
	c-0.031,0.638,0.046,1.264,0.253,1.875c0.244,0.721,0.483,1.443,0.708,2.168c0.033,0.104,0.015,0.271-0.05,0.346
	c-0.147,0.168-0.323,0.106-0.484-0.024c-0.098-0.082-0.201-0.159-0.313-0.216c-0.867-0.423-1.171-0.267-1.245,0.646
	c-0.042,0.503-0.069,1.008-0.095,1.515c-0.001,0.046,0.054,0.102,0.132,0.236c0.18,0.028,0.428,0.044,0.661,0.108
	c1.148,0.315,1.307,0.556,1.277,1.741c-0.014,0.527-0.234,0.778-0.761,0.902c-0.793,0.179-1.413,0.561-1.326,1.549
	c0.034,0.397-0.248,0.6-0.612,0.479c-0.902-0.309-1.772-0.542-2.77-0.342c-0.469,0.093-0.948-0.463-1.53-0.514
	c-0.292-0.024-0.143-0.896,0.2-1.147c0.38-0.28,0.828-0.307,1.266-0.357c0.665-0.082,1.193-0.393,1.631-0.889
	c0.234-0.267,0.288-0.556,0.117-0.869c-0.123-0.218-0.25-0.441-0.404-0.64c-0.194-0.249-0.45-0.454-0.621-0.719
	c-0.654-1.008-0.587-1.729,0.217-2.738c0.541-0.677,0.617-0.854,0.12-1.48c-0.726-0.916-1.112-1.915-1.414-3.044
	c-0.21-0.796-1.074-1.317-1.953-1.599c-0.917-0.291-1.116-0.734-0.606-1.504c0.292-0.441,0.583-0.863,0.521-1.379
	c-0.089-0.739,0.777-1.498,0.099-2.142c-0.525-0.501-1.339-0.201-2.024-0.247c-0.579-0.038-1.017-0.565-0.899-1.174
	c0.07-0.366,0.283-0.699,0.413-1.054c0.437-1.174,0.335-1.456-0.747-2.142c-0.558-0.355-0.616-0.589-0.203-1.017
	c0.571-0.593,1.182-1.153,1.745-1.753c0.395-0.426,0.718-0.907,0.48-1.54c-0.16-0.43-0.653-0.567-1.511-0.475
	c-0.366,0.042-0.678,0.36-1.086,0.196c-0.15-0.593,0.155-1.079,0.378-1.59c0.203-0.461,0.437-0.924,0.548-1.412
	c0.209-0.916-0.292-1.432-1.245-1.348c-0.248,0.022-0.492,0.088-0.789,0.144c-0.23-0.847-0.039-1.672-0.095-2.481
	c-0.037-0.505-0.045-1.017-0.125-1.514c-0.062-0.399-0.297-0.743-0.739-0.741c-0.791,0.002-0.903-0.519-0.987-1.121
	c-0.14-1.006-0.279-2.01-0.473-3.002c-0.096-0.492-0.278-0.975-0.491-1.43c-0.094-0.203-0.347-0.43-0.551-0.454
	c-0.35-0.046-0.569,0.262-0.658,0.571c-0.137,0.485-0.287,0.984-0.302,1.482c-0.055,1.705-0.48,3.399-0.128,5.12
	c0.03,0.146-0.068,0.379-0.188,0.479c-0.179,0.152-0.347-0.033-0.485-0.152c-0.476-0.415-0.872-0.924-1.488-1.165
	c-0.621-0.245-1.167,0.119-1.181,0.776c-0.014,0.591,0.223,1.118,0.404,1.652c0.286,0.836,0.615,1.661,0.977,2.623
	c-0.588-0.033-1.112-0.099-1.634-0.086c-0.65,0.02-1.004,0.512-0.936,1.167c0.05,0.468,0.28,0.83,0.556,1.187
	c0.288,0.371,0.794,0.596,0.863,1.28c-0.727-0.258-1.368-0.49-2.012-0.708c-0.359-0.119-0.72-0.211-1.116-0.114
	c-0.647,0.159-0.958,0.717-0.654,1.288c0.176,0.333,0.394,0.653,0.64,0.938c0.75,0.867,1.086,1.813,0.728,2.952
	c-0.075,0.236-0.094,0.509-0.064,0.756c0.112,0.867-0.231,1.474-0.984,1.879c-0.226,0.119-0.519,0.292-0.417,0.556
	c0.281,0.732-0.069,0.862-0.681,1.163c-0.55,0.269-0.88,1.003-1.291,1.546c-0.135,0.181-0.125,0.565-0.492,0.389
	c-0.254-0.124-0.25-0.408-0.226-0.667c0.057-0.668-0.144-1.398,0.585-1.888c0.208-0.139,0.111-0.47-0.027-0.697
	c-0.199-0.32-0.397-0.642-0.618-0.946c-0.379-0.521-0.716-1.028-0.459-1.738c0.212-0.586-0.154-0.964-0.62-1.242
	c-0.504-0.3-0.965-0.221-1.371,0.209c-0.115,0.122-0.251,0.223-0.354,0.315c-0.441-0.662-0.834-1.313-1.292-1.913
	c-0.35-0.457-0.968-0.364-1.272,0.117c-0.361,0.567-0.367,1.193-0.406,1.833c-0.057,0.904,0.294,1.75,0.341,2.634
	c0.028,0.536-0.329,0.847-0.847,0.651c-0.483-0.188-0.96-0.329-1.473-0.333c-0.728-0.004-1.191,0.564-0.986,1.272
	c0.121,0.417,0.348,0.81,0.557,1.196c0.208,0.386,0.674,0.584,0.785,1.065c-0.833,0.327-1.173,0.973-1.039,2.312
	c-0.383-1.293-0.917-1.913-1.512-2.473c-0.174-0.167-0.479-0.147-0.669,0.102c-0.366,0.479-0.457,1.043-0.465,1.619
	c-0.023,1.498-0.145,2.98-0.499,4.555c-0.472-0.583-0.62-1.317-1.26-1.689c-0.493-0.287-1.031-0.146-1.221,0.401
	c-0.193,0.554-0.179,1.127-0.164,1.696c0.018,0.62,0.055,1.24,0.083,1.833c-0.413,0.141-0.534-0.128-0.667-0.32
	c-0.288-0.417-0.521-0.871-0.827-1.275c-0.352-0.461-0.947-0.346-1.228,0.189c-0.441,0.841-0.393,1.721-0.182,2.597
	c0.297,1.237,0.78,2.402,1.546,3.373c-0.157,0.196-0.215,0.346-0.298,0.364c-1.583,0.287-1.667,0.317-1.054,1.703
	c0.471,1.068-0.093,2.125,0.21,3.157c-0.353,0.717-0.234,1.445,0.145,2.263c-0.898,0.055-1.508-0.309-2.157-0.487
	c-0.869-0.238-1.337,0.166-1.291,1.079c0.029,0.578,0.208,1.059,0.586,1.555c0.605,0.79,0.53,0.849,0.935,0.894
	c0.378,0.042,0.756,0.077,1.135,0.121c0.287,0.031,0.415,0.251,0.54,0.474c0.002,0,0.004,0,0.008,0.002l0.042,0.044l-0.049-0.044
	l-0.001-0.002c-0.959-0.333-1.855-0.028-2.741,0.296c-0.568,0.207-0.775,0.646-0.588,1.209c0.078,0.236,0.246,0.441,0.354,0.668
	c0.162,0.338,0.061,0.616-0.235,0.818c-0.564,0.386-1.311,0.649-1.646,1.176c-0.299,0.468-0.098,1.229-0.199,1.849
	c-0.081,0.49-0.297,0.958-0.432,1.445c-0.11,0.395-0.331,0.649-0.729,0.792c-0.35,0.126-0.674,0.327-1.009,0.497
	c-0.001,0.006,0,0.011-0.002,0.015l-0.009-0.009c0.004-0.004,0.008-0.004,0.011-0.006c0.149-0.552-0.312-0.732-0.605-1.042
	c-0.485-0.514-0.538-0.732-0.034-1.271c0.441-0.468,0.446-1.039,0.618-1.56c0.25-0.763-0.014-1.085-0.772-1.105
	c-0.521-0.018-0.979,0.038-1.345,0.512c-0.276,0.362-0.734,0.487-1.202,0.419c-0.108-0.015-0.24-0.106-0.288-0.201
	c-0.05-0.093-0.06-0.293,0-0.344c1.14-0.951,1.561-2.435,2.584-3.465c0.045-0.046,0.101-0.088,0.128-0.144
	c0.308-0.611,0.778-1.328,0.403-1.917c-0.369-0.58-1.15-0.293-1.764-0.141c-0.236,0.062-0.462,0.17-0.7,0.212
	c-0.055,0.009-0.222-0.227-0.204-0.247c0.655-0.874-0.481-1.795,0.075-2.671c0.032-0.053-0.078-0.236-0.163-0.313
	c-0.682-0.603-0.162-0.635,0.322-0.708c0.119-0.015,0.253-0.079,0.334-0.163c0.074-0.077,0.086-0.214,0.125-0.322
	c-0.107-0.038-0.209-0.1-0.317-0.108c-0.461-0.042-0.518-0.285-0.331-0.644c0.152-0.298,0.4-0.507,0.719-0.578
	c1.514-0.342,1.401-1.604,1.529-2.713c0.015-0.137-0.145-0.353-0.283-0.437c-0.744-0.455-1.524-0.532-2.367-0.236
	c-0.388,0.134-0.641-0.146-0.546-0.51c0.209-0.807,0.43-1.524,1.457-1.756c0.911-0.203,1.216-1.006,1.211-1.928
	c-0.006-0.918-0.421-1.418-1.332-1.5c-0.648-0.055-1.251,0.137-1.857,0.337c-0.232,0.077-0.481,0.104-0.723,0.154
	c-0.001,0.004-0.001,0.011-0.002,0.02l-0.078,0.075l0.06-0.093c0.008-0.002,0.013-0.002,0.021-0.002
	c0.024-0.124,0.023-0.24-0.009-0.359l-0.013-0.011c-0.189-0.298-0.69-0.391-0.577-0.896c0.119-0.527-0.178-0.651-0.632-0.657
	c-0.565-0.007-1.13-0.046-1.682-0.071c-0.414-1.233-0.436-2.486-0.35-3.721c0.109-1.568-1.053-2.023-2.163-2.005
	c-0.424,0.007-0.844,0.223-1.263,0.351c-0.271,0.086-0.511,0.02-0.686-0.183c-0.2-0.231-0.112-0.492,0.072-0.675
	c0.359-0.355,0.75-0.682,1.129-1.019c1.002-0.889,1.914-1.855,2.553-3.044c0.208-0.386,0.372-0.81,0.483-1.233
	c0.136-0.514-0.43-1.037-0.932-0.858c-0.477,0.165-0.926,0.408-1.382,0.626c-0.454,0.216-0.899,0.45-1.353,0.67
	c-0.05,0.024-0.125,0.002-0.265,0.002c-0.168-0.377-0.319-0.792-0.533-1.171c-0.268-0.481-0.302-0.92-0.077-1.44
	c0.289-0.668,0.365-1.346-0.307-1.904c-0.109-0.09-0.17-0.369-0.117-0.51c0.4-1.057,0.092-2.137,0.1-3.201
	c0.009-1.107-0.514-1.375-1.611-0.995c-0.166,0.058-0.334,0.104-0.511,0.155c0-0.991,0.018-1.937-0.005-2.883
	c-0.018-0.697-0.055-1.394-0.145-2.084c-0.1-0.774-0.425-1.456-1.011-1.994c-0.437-0.401-1.068-0.265-1.182,0.324
	c-0.237,1.242-0.393,2.5-0.579,3.752c-0.054,0.361-0.103,0.723-0.148,1.054c-0.545,0.144-0.566-0.293-0.768-0.483
	c-0.183-0.172-0.329-0.386-0.519-0.552c-0.443-0.379-1.017-0.256-1.235,0.298c-0.161,0.406-0.287,0.843-0.327,1.275
	c-0.066,0.695-0.06,1.392-0.063,2.091c-0.004,1.077,0.008,2.148-0.688,3.073c-0.215,0.289-0.002,0.732-0.375,1.052
	c-0.35-0.536-0.667-1.072-1.037-1.568c-0.377-0.509-0.799-0.984-1.211-1.469c-0.583-0.684-1.29-1.215-2.096-1.61
	c-0.649-0.32-1.112,0.029-1.07,0.766c0.034,0.589,0.237,1.123,0.509,1.624c0.693,1.282,1.418,2.546,2.136,3.814
	c0.224,0.395,0.344,0.766,0.197,1.253c-0.305,1.023-0.359,1.07-1.442,0.746c-0.543-0.166-1.097-0.307-1.657-0.395
	c-0.383-0.06-0.759,0.062-1.006,0.406c-0.267,0.368-0.104,0.724,0.07,1.065c0.324,0.638,0.856,1.099,1.378,1.56
	c0.378,0.337,0.813,0.606,1.204,0.926c0.488,0.404,1.119,0.744,1.387,1.264c0.215,0.423,0,1.07-0.033,1.615
	c0.005,0.002,0.01,0.004,0.014,0.004l0.087,0.08l-0.103-0.062c0-0.006,0.001-0.013,0.001-0.022
	c-0.307-0.042-0.608-0.099-0.837,0.221c-0.297,0.41-0.637,0.503-1.142,0.256c-1.305-0.64-1.317-0.616-2.452,0.256
	c-0.409-0.64-0.791-1.295-1.229-1.908c-0.442-0.618-1.218-0.505-1.507,0.181c-0.226,0.541-0.252,1.114-0.243,1.681
	c0.014,0.951,0.072,1.895,0.269,2.833c0.146,0.697-0.34,1.043-1.021,0.794c-0.415-0.152-0.816-0.362-1.243-0.459
	c-0.775-0.181-1.375,0.391-1.303,1.183c0.054,0.591,0.326,1.087,0.673,1.546c0.229,0.302,0.498,0.576,0.721,0.88
	c0.192,0.263-0.006,0.646-0.323,0.735c-0.543,0.161-0.997-0.024-1.427-0.327c-0.631-0.439-1.311-0.768-2.063-0.938
	c-0.311-0.068-0.599,0.19-0.634,0.525c-0.041,0.399,0.106,0.739,0.237,1.097c0.031,0.083-0.04,0.269-0.116,0.311
	c-0.083,0.044-0.284,0.02-0.337-0.051c-0.421-0.543-0.925-1.05-0.784-1.847c0.043-0.238,0.035-0.525-0.06-0.743
	c-0.254-0.584,0.085-0.803,0.521-1.004c0.42-0.189,0.565-0.457,0.269-0.882c-0.25-0.359-0.473-0.721-0.813-1.032
	c-0.477-0.433-0.661-0.997-0.492-1.708c0.209-0.88,0.046-1.136-0.499-1.425c-0.592-0.315-1.093-0.216-1.524,0.291
	c-0.08,0.095-0.172,0.183-0.32,0.344c-0.45-0.675-0.863-1.35-1.336-1.985c-0.463-0.62-1.223-0.505-1.48,0.221
	c-0.252,0.717-0.433,1.454-0.302,2.232c0.128,0.748,0.245,1.5,0.35,2.248c0.099,0.719-0.305,1.001-1.042,0.748
	c-0.418-0.141-0.831-0.318-1.261-0.411c-0.727-0.147-1.26,0.285-1.274,1.015c-0.004,0.247,0.069,0.499,0.104,0.748
	c0.026,0.183,0.046,0.366,0.082,0.648c-0.962,0.064-1.894,0.128-2.826,0.194c0.003,0.004,0.009,0.009,0.011,0.018
	c-0.016,0.018-0.032,0.033-0.048,0.053c-0.039,0.102-0.076,0.201-0.116,0.3c-0.014-0.038-0.053-0.097-0.039-0.117
	c0.045-0.064,0.101-0.124,0.155-0.183c0.01-0.024,0.018-0.048,0.027-0.068c0.003,0,0.008,0,0.01-0.002
	c-0.244-0.452-1.123-0.424-0.938-1.227c0.012-0.051-0.285-0.236-0.445-0.247c-0.694-0.051-1.394-0.038-2.087-0.09
	c-0.955-0.071-1.161-0.386-0.662-1.158c0.475-0.734,0.61-1.54,0.649-2.345c0.066-1.304-0.779-2.005-2.06-1.802
	c-0.367,0.06-0.712,0.26-1.08,0.322c-0.139,0.022-0.337-0.134-0.462-0.256c-0.163-0.159-0.092-0.386,0.029-0.518
	c0.392-0.411,0.804-0.808,1.228-1.185c0.856-0.77,1.616-1.619,2.18-2.625c0.447-0.796,0.472-1.531,0.076-1.748
	c-0.595-0.324-1.099,0.002-1.589,0.298c-0.542,0.32-1.074,0.66-1.698,1.042c-0.471-0.452-0.182-1.123-0.485-1.564
	c-0.387-0.567-0.112-1.085,0.063-1.628c0.073-0.232,0.137-0.581,0.02-0.735c-0.434-0.578-0.633-1.09-0.387-1.859
	c0.2-0.629-0.3-1.354-0.048-2.056c0.02-0.055,0.012-0.125,0.011-0.189c-0.039-0.959-0.557-1.249-1.525-0.854
	c-0.114,0.049-0.219,0.122-0.335,0.168c-0.046,0.022-0.108,0-0.166-0.004c-0.204-0.362-0.13-0.757-0.04-1.11
	c0.312-1.211,0.057-2.397-0.099-3.586c-0.083-0.646-0.307-1.233-0.7-1.745c-0.198-0.26-0.462-0.441-0.813-0.371
	c-0.28,0.058-0.419,0.28-0.47,0.536c-0.132,0.684-0.281,1.368-0.354,2.058c-0.086,0.82-0.128,1.644-0.453,2.422
	c-0.554,0.144-0.543-0.386-0.756-0.631c-0.253-0.293-0.493-0.628-0.925-0.563c-0.536,0.08-0.641,0.563-0.756,0.984
	c-0.083,0.302-0.107,0.626-0.137,0.94c-0.023,0.253-0.027,0.507-0.021,0.761c0.03,1.593,0.023,3.177-1.025,4.586
	c-0.387,0.018-0.441-0.446-0.637-0.728c-0.581-0.836-1.169-1.666-1.937-2.341c-0.379-0.333-0.791-0.635-1.212-0.911
	c-0.321-0.214-0.712-0.373-1.049-0.066c-0.32,0.291-0.265,0.715-0.126,1.068c0.278,0.708,0.577,1.412,0.935,2.078
	c0.449,0.841,0.964,1.644,1.457,2.456c0.199,0.326,0.378,0.626,0.291,1.057c-0.218,1.083-0.42,1.215-1.514,0.913
	c-0.489-0.135-0.983-0.26-1.482-0.342c-0.322-0.051-0.638,0.06-0.842,0.337c-0.263,0.357-0.164,0.734,0.054,1.061
	c0.537,0.801,1.281,1.405,2.022,2.005c0.443,0.357,0.895,0.71,1.372,1.021c0.389,0.251,0.469,0.507,0.278,0.942
	c-0.083,0.19,0.082,0.479,0.102,0.726c0.01,0.11-0.068,0.329-0.09,0.326c-1.053-0.097-1.297,1.042-2.082,1.334
	c-0.03,0.011-0.141-0.159-0.194-0.256c-0.279-0.507-0.702-0.432-1.158-0.287c0.334,0.986,0.677,1.965,0.99,2.949
	c0.12,0.384,0.052,0.712-0.3,1.01c-0.531,0.443-1.003,0.958-1.499,1.445c-0.528,0.517-0.716,1.187-0.827,1.884
	c-0.061,0.375-0.089,0.779,0.147,1.103c0.308,0.421,0.68,0.106,1.021,0.018c0.434-0.119,0.73,0.066,0.961,0.417
	c0.151,0.225,0.224,0.501,0.053,0.706c-0.487,0.578-1.073,1.096-1.355,1.809c-0.276,0.695-0.439,1.434-0.641,2.113
	c-0.454,0.137-0.813-0.015-1.178-0.117c-0.496-0.135-1.001-0.163-1.51-0.088c-0.395,0.06-0.733,0.232-0.872,0.633
	c-0.138,0.406,0.02,0.779,0.316,1.028c0.572,0.483,1.188,0.913,1.728,1.321c0.085,0.214,0.045,0.335-0.107,0.375
	c-1.178,0.315-1.558,1.171-1.561,2.283c-0.002,0.631,0,1.257,0,1.833c-0.375,0.196-0.396,0.002-0.409-0.189
	c-0.063-1.013-0.334-1.324-1.172-1.189c-0.607,0.095-1.195,0.317-1.957,0.529c0.318-0.803,0.584-1.478,0.856-2.153
	c0.118-0.296,0.274-0.578,0.367-0.88c0.42-1.363,0.02-1.811-1.43-1.57c-0.432,0.073-0.589-0.095-0.597-0.47
	c-0.022-1.076-0.01-2.157-0.045-3.234c-0.02-0.637-0.271-1.092-1.028-1.076c-0.383,0.009-0.527-0.274-0.588-0.616
	c-0.224-1.246-0.419-2.503-0.695-3.741c-0.141-0.633-0.156-1.621-1.037-1.533c-0.692,0.068-0.652,0.991-0.699,1.606
	c-0.116,1.504-0.641,2.978-0.349,4.516c0.049,0.258-0.117,0.483-0.347,0.631c-0.165,0.106-0.349,0.177-0.505,0.018
	c-0.077-0.079-0.153-0.245-0.123-0.329c0.113-0.293,0.271-0.569,0.415-0.852c0.453-0.884,0.454-0.889-0.336-1.478
	c-0.102-0.073-0.305-0.115-0.317-0.189c-0.11-0.682-0.197-1.366-0.273-2.052c-0.045-0.412,0.168-0.728,0.427-1.019
	c0.419-0.474,0.834-0.929,0.86-1.639c0.039-1.09-0.164-1.341-1.376-1.467c-0.11-0.013-0.214-0.099-0.305-0.143
	c0.027-1.712,0.068-3.417,0.082-5.122c0.005-0.636-0.033-1.271-0.384-1.84c-0.161-0.263-0.582-0.337-0.829-0.146
	c-0.364,0.282-0.599,0.65-0.752,1.076c-0.15,0.419-0.307,0.836-0.434,1.26c-0.118,0.393-0.386,0.638-0.719,0.843
	c-0.398,0.247-0.694,0.018-1.049-0.144c-0.694-0.309-1.07-0.128-1.365,0.501c-0.31,0.662-0.269,1.361-0.285,2.056
	c-0.009,0.373,0.141,0.834-0.18,1.085c-0.922,0.724-1.052,1.851-1.466,2.814c-0.383,0.891-0.59,1.798-1.79,1.882
	c-0.201,0.016-0.201,0.421-0.492,0.499c-0.164,0.04-0.414,0.172-0.429,0.287c-0.031,0.232,0.011,0.521,0.134,0.715
	c0.441,0.699,1.104,1.18,1.785,1.644c-0.139,0.439-0.401,0.117-0.592,0.104c-0.25-0.022-0.495-0.126-0.746-0.139
	c-0.509-0.031-1.021-0.024-1.498,0.19c-0.333,0.148-0.388,0.455-0.381,0.779c0.004,0,0.009,0,0.014,0.004
	c0.001,0.009,0.002,0.022,0.003,0.031c0.069,0.09,0.158,0.179,0.19,0.282c0.029,0.095-0.016,0.212-0.028,0.322
	c-0.04-0.088-0.094-0.174-0.116-0.269c-0.026-0.108-0.034-0.223-0.046-0.335c-0.005-0.004-0.012-0.013-0.018-0.022
	c0-0.004,0-0.009,0-0.013c-0.352-0.126-0.708-0.241-1.056-0.377c-0.838-0.337-0.938-0.648-0.274-1.348
	c0.296-0.313,0.506-0.465,0.244-0.909c-0.186-0.313-0.214-0.717-0.332-1.074c-0.271-0.814-0.689-1.065-1.592-0.951
	c-0.565,0.068-1.127,0.19-1.694,0.232c-0.237,0.015-0.492-0.088-0.724-0.179c-0.257-0.102-0.34-0.757-0.105-0.805
	c0.752-0.172,1.21-1.165,2.205-0.708c0.473,0.218,0.965,0.073,1.257-0.517c0.155-0.307,0.513-0.514,0.779-0.768
	c-0.328-0.512-0.87-0.724-1.183-1.25c-0.499-0.843-1.102-0.938-1.953-0.565c-0.287,0.128-0.534,0.342-0.812,0.49
	c-0.223,0.117-0.5,0.247-0.663-0.055c-0.2-0.371,0.091-0.519,0.35-0.728c0.381-0.309,0.789-0.413,1.238-0.342
	c0.831,0.132,1.295-0.415,1.764-0.924c0.377-0.413,0.384-0.959-0.098-1.326c-0.43-0.324-0.479-0.549-0.375-1.079
	c0.205-1.028-0.613-1.599-1.662-1.308c-0.525,0.146-0.781,0.637-1.245,0.84c-0.082,0.035-0.258-0.029-0.328-0.106
	c-0.137-0.146-0.141-0.45-0.005-0.494c0.655-0.207,1.058-0.926,1.85-0.862c0.556,0.046,0.924-0.379,1.313-0.69
	c0.313-0.25,0.437-0.618,0.337-1.026c-0.102-0.413-0.491-0.686-1.006-0.728c-0.387-0.033-0.753,0.013-1.1,0.209
	c-0.848,0.49-1.786,0.574-2.736,0.594c-0.002,0.002-0.006,0.004-0.008,0.009c-0.004,0-0.007,0.004-0.01,0.004
	c-0.015,0.051-0.029,0.121-0.042,0.121c-0.106-0.002-0.091-0.051,0.042-0.121c0.001-0.004,0.002-0.009,0.003-0.013
	c0.004,0,0.009,0,0.015,0c0.738-0.774,1.492-1.536,2.209-2.33c0.582-0.646,0.563-0.922-0.008-1.646
	c-0.236-0.298-0.487-0.584-0.748-0.86c-0.373-0.399-0.795-0.629-1.347-0.333c-0.407,0.223-0.852,0.273-1.292,0.189
	c-0.376-0.073-0.796-0.265-0.895-0.62c-0.131-0.47,0.369-0.604,0.694-0.739c0.345-0.143,0.737-0.165,1.102-0.26
	c0.696-0.179,1.284-0.538,1.741-1.096c0.246-0.3,0.431-0.633,0.208-1.037c-0.212-0.377-0.578-0.459-0.971-0.463
	c-0.388-0.007-0.783,0.042-1.082,0.289c-0.542,0.45-1.318,0.454-1.813,0.995c-0.112,0.122-0.333,0.168-0.514,0.199
	c-0.107,0.018-0.271-0.035-0.333-0.115c-0.048-0.062-0.024-0.256,0.04-0.324c1.142-1.18,1.648-2.826,2.877-3.951
	c0.275-0.251,0.105-0.587-0.106-0.847c-0.325-0.399-0.751-0.673-1.202-0.914c-0.331-0.174-0.654-0.361-1.069-0.591
	c0.351-1.083,1.101-1.84,1.741-2.663c0.384-0.492,0.371-0.684-0.035-1.114c-0.442-0.472-0.986-0.794-1.554-1.076
	c-0.391-0.194-0.836-0.556-1.234-0.315c-0.532,0.315-0.223,0.902-0.188,1.385c0.009,0.11-0.057,0.227-0.099,0.375
	c-1.254-0.702-0.981-1.849-0.893-2.938c0.005-0.051,0.068-0.115,0.122-0.139c0.874-0.468,0.754-1.149,0.169-1.646
	c-0.728-0.613-0.848-1.303-0.812-2.177c0.049-1.149-0.519-1.595-1.663-1.266c-0.621,0.177-0.96,0.013-1.281-0.445
	c-0.217-0.311-0.411-0.64-0.661-0.922c-0.451-0.512-1.086-0.386-1.346,0.276c-0.279,0.71-0.472,1.436-0.324,2.224
	c0.117,0.622,0.201,1.253,0.238,1.882c0.045,0.726-0.213,0.919-0.894,0.765c-0.429-0.099-0.855-0.231-1.29-0.271
	c-0.558-0.046-0.941,0.364-0.958,0.938c-0.017,0.591,0.109,1.153,0.506,1.595c0.435,0.485,0.339,0.971-0.03,1.356
	c-0.797,0.834-0.926,1.747-0.542,2.791c0.06,0.163,0.113,0.421,0.031,0.529c-0.522,0.673-0.33,1.299,0.051,1.935
	c0.248,0.415,0.11,0.865,0.113,1.304c0.001,0.364,0.147,0.836-0.194,1.059c-0.437,0.291-0.645-0.218-0.9-0.452
	c-0.386-0.355-0.669-0.137-0.995,0.095c-0.662,0.465-0.866,1.065-0.077,1.701c0.585,0.472,1.241,0.854,1.839,1.257
	c0.051,0.477-0.364,0.516-0.554,0.721c-0.204,0.219-0.506,0.355-0.78,0.505c-1.247,0.677-1.26,0.693-1.016,2.23
	c0.003,0,0.008,0.002,0.012,0.002c0.034,0.029,0.068,0.055,0.104,0.084c-0.039-0.024-0.076-0.049-0.115-0.075
	c0-0.004-0.001-0.007-0.001-0.011c-0.903,0.002-1.698-0.457-2.567-0.602c-0.696-0.117-1.376-0.194-2.063,0.046
	c-0.608,0.214-0.77,0.73-0.33,1.158c0.227,0.218,0.492,0.397,0.739,0.591c0.195,0.155,0.389,0.307,0.588,0.461
	c-1.321,1.416-1.32,1.414-0.063,2.874c0.08,0.093,0.13,0.209,0.176,0.322c0.021,0.051,0.024,0.152-0.006,0.179
	c-0.087,0.079-0.204,0.192-0.295,0.179c-0.466-0.055-0.854-0.318-1.088-0.69c-0.521-0.832-1.101-0.664-1.758-0.221
	c-0.082,0.055-0.232,0.006-0.427,0.006c0-0.613,0.015-1.224-0.003-1.837c-0.029-1.012-0.023-2.029-0.14-3.035
	c-0.095-0.821-0.368-1.606-1.035-2.186c-0.331-0.287-0.738-0.212-0.934,0.167c-0.239,0.468-0.289,0.964-0.349,1.471
	c-0.141,1.194-0.297,2.387-0.462,3.581c-0.014,0.097-0.13,0.225-0.227,0.256c-0.088,0.028-0.261-0.022-0.314-0.095
	c-0.181-0.258-0.315-0.549-0.491-0.814c-0.213-0.32-0.462-0.633-0.9-0.593c-0.458,0.044-0.586,0.426-0.7,0.792
	c-0.189,0.609-0.311,1.229-0.302,1.871c0.008,0.51,0.009,1.017-0.003,1.522c-0.024,1.01-0.031,2.014-0.693,2.881
	c-0.17,0.223-0.178,0.569-0.274,0.909c-0.618-0.289-0.753-0.891-1.094-1.321c-0.315-0.395-0.667-0.799-0.839-1.26
	c-0.193-0.519-0.456-0.808-0.979-1.028c-0.571-0.243-1.06-0.69-1.564-1.072c-0.319-0.245-0.352-0.719-0.077-1.015
	c0.472-0.512,0.972-0.995,1.448-1.502c0.128-0.134,0.244-0.331,0.074-0.494c-0.128-0.121-0.323-0.24-0.487-0.242
	c-0.843-0.011-1.572,0.419-2.355,0.646c0.001,0.009,0,0.013,0,0.018c-0.014,0.004-0.023,0.009-0.038,0.011
	c-0.106,0.106-0.213,0.214-0.32,0.32c-0.006,0.022-0.016,0.04-0.021,0.064l-0.022-0.022c0.014-0.013,0.029-0.029,0.043-0.042
	c0.05-0.161,0.144-0.282,0.32-0.32c0.009-0.007,0.017-0.016,0.025-0.024c0.004,0,0.009,0,0.012-0.004
	c-0.024-0.554,0.204-1.099-0.022-1.67c-0.282-0.701-0.609-1.264-1.509-1.089c-0.503,0.097-0.684-0.212-0.716-0.64
	c-0.052-0.717-0.042-1.412,0.791-1.74c0.167-0.066,0.306-0.221,0.438-0.353c0.619-0.615,0.667-1.123,0.319-1.884
	c-0.26-0.563-1.057-0.774-0.974-1.551c0.06-0.569,0.113-1.136,0.124-1.705c0.021-1.077,0.028-2.155,0.003-3.232
	c-0.008-0.417-0.439-0.593-0.839-0.425c-0.766,0.324-1.134,0.977-1.454,1.678c-0.094,0.21-0.078,0.534-0.413,0.492
	c-0.067-0.009-0.042-0.379-0.152-0.474c-0.665-0.583-0.947-1.482-1.686-1.999c-0.347-0.243-0.843-0.075-0.844,0.348
	c-0.003,1.136,0.038,2.274,0.078,3.415c0.013,0.377,0.085,0.752,0.106,1.134c0.017,0.291-0.362,0.622-0.641,0.527
	c-0.474-0.159-0.923-0.391-1.392-0.571c-0.392-0.152-0.769,0.09-0.825,0.512c-0.109,0.833-0.007,1.646,0.255,2.438
	c0.158,0.481,0.347,0.953,0.485,1.44c0.046,0.159,0.025,0.386-0.059,0.525c-0.116,0.199-0.314,0.093-0.482,0.004
	c-0.323-0.163-0.602-0.576-1.01-0.359c-0.492,0.258-0.298,0.776-0.296,1.195c0.003,0.439-0.01,0.924,0.553,1.081
	c1.223,0.337,1.479,1.231,1.381,2.343c-0.016,0.185,0.001,0.375,0.003,0.563c0.004,0,0.009,0.002,0.012,0.002
	c0,0.004-0.001,0.013-0.001,0.018c0.066,0.071,0.137,0.139,0.194,0.221c0.013,0.018-0.042,0.119-0.048,0.117
	c-0.191-0.053-0.162-0.201-0.146-0.338c-0.003-0.004-0.007-0.006-0.01-0.009c0-0.004,0-0.009-0.001-0.011
	c-0.369-0.016-0.75-0.093-1.104-0.024c-0.521,0.099-0.943,0.404-0.93,1.008c0.009,0.461-0.121,0.865-0.329,1.255
	c-0.253,0.479-0.265,0.933-0.006,1.434c0.166,0.324,0.226,0.71,0.281,1.076c0.045,0.296-0.58,0.774-0.8,0.603
	c-0.58-0.455-1.219-0.732-1.886-0.406c-0.646,0.315-0.931,0.991-1.125,1.672c-0.156,0.534-0.587,0.534-1.038,0.604
	c-1.367,0.214-1.404,0.282-1.546,1.844c0.495,0.587,0.654,1.163,0.153,1.871c-0.215,0.3-0.232,0.441-0.652,0.229
	c-0.567-0.28-1.234-0.238-1.857-0.082c-0.923,0.238-1.277,1.11-0.792,1.933c0.127,0.216,0.267,0.476,0.47,0.584
	c0.734,0.388,0.994,1.123,1.376,1.767c0.279,0.467,0.202,0.648-0.302,0.832c-0.237,0.086-0.509,0.092-0.728,0.207
	c-0.432,0.228-0.672,0.841-0.551,1.308c0.031,0.122,0.062,0.251,0.128,0.357c0.372,0.571,0.875,1.092,1.095,1.716
	c0.228,0.646,0.251,1.356,0.69,1.941c0.289,0.388,0.274,0.778,0.018,1.23c-0.383,0.668-0.441,0.739-1.162,0.446
	c-0.411-0.166-0.804-0.377-1.215-0.538c-0.435-0.17-0.739-0.018-0.794,0.47c-0.067,0.6-0.144,0.999-0.901,1.178
	c-0.881,0.212-1.136,1.289-0.639,2.2c0.361,0.662,0.912,1.213,1.138,1.961c0.072,0.236,0.189,0.457,0.286,0.686
	c-0.445,0.388-1.082,0.509-1.168,1.191c-0.013,0.104-0.301,0.256-0.44,0.236c-0.15-0.026-0.37-0.208-0.393-0.349
	c-0.158-0.946-0.639-1.635-1.498-2.063c-0.591-0.293-1.185-0.044-1.333,0.584c-0.134,0.569-0.16,1.136,0.172,1.657
	c0.204,0.317,0.437,0.62,0.645,0.939c0.217,0.331,0.312,0.668,0.077,1.055c-0.364,0.606-0.418,1.313-0.503,1.987
	c-0.087,0.693-0.057,1.392,0.583,1.902c0.205,0.163,0.267,0.467,0.012,0.644c-0.611,0.43-1.479,0.13-1.669-0.549
	c-0.137-0.49-0.227-0.988-0.394-1.465c-0.17-0.483-0.436-0.984-0.943-1.131c-0.933-0.276-1.265-1.174-1.929-1.719
	c-0.25-0.205-0.313-0.563-0.063-0.852c0.391-0.45,0.208-0.805-0.15-1.143c-0.182-0.172-0.388-0.324-0.573-0.496
	c-0.568-0.536-0.677-0.867-0.336-1.476c0.247-0.439,0.469-0.845,0.577-1.365c0.226-1.079,0.261-1.222-0.467-1.734
	c-0.666-0.472-1.362-0.891-2.226-0.852c-0.002,0.011-0.005,0.018-0.008,0.026c-0.01,0.009-0.017,0.014-0.026,0.02
	c0.037,0.355,0.044,0.717,0.131,1.057c0.061,0.243-0.022,0.346-0.2,0.413c-0.214,0.084-0.365-0.06-0.462-0.218
	c-0.33-0.534-0.259-0.695,0.531-1.251c-0.001-0.016-0.002-0.033-0.004-0.048c0.013,0,0.026,0.002,0.039,0.002
	c0.078-0.298,0.161-0.591,0.461-0.752c0.469-0.247,0.735-0.671,0.974-1.116c0.239-0.443,0.108-1.414-0.267-1.728
	c-0.129-0.108-0.352-0.163-0.523-0.15c-0.308,0.029-0.611,0.122-0.913,0.199c-0.334,0.086-0.62,0.545-1.001,0.218
	c-0.335-0.289-0.357-1.178-0.053-1.584c0.369-0.499,0.79-0.961,1.189-1.436c0.406-0.481,0.44-0.741,0.048-1.101
	c-0.366-0.337-0.745-0.71-1.189-0.902c-0.583-0.253-0.586-0.734-0.762-1.207c-0.236-0.631,0.207-0.896,0.501-1.266
	c0.022-0.183-0.016-0.41,0.077-0.549c0.334-0.499,0.273-0.92-0.092-1.379c-0.539-0.675-0.774-0.737-1.592-0.273
	c-0.108,0.062-0.195,0.168-0.305,0.225c-0.914,0.501-1.662,0.119-1.725-0.909c-0.018-0.3,0.106-0.613,0.167-0.92
	c0.094-0.483-0.024-0.878-0.462-1.143c-0.479-0.289-0.957-0.318-1.401,0.064c-0.19,0.163-0.351,0.362-0.529,0.549
	c-0.514-0.671-0.753-1.317-0.01-1.968c0.093-0.08,0.218-0.203,0.215-0.302c-0.014-0.565,0.662-1.134,0.227-1.615
	c-0.521-0.58-1.255-0.388-1.885-0.018c-0.17,0.102-0.314,0.167-0.537,0.062c-0.083-0.529-0.165-1.085-0.256-1.639
	c-0.041-0.25-0.101-0.479,0.121-0.699c0.397-0.386,0.148-0.604-0.198-0.878c-0.229-0.178-0.049-0.445,0.17-0.608l0.041-0.044
	c-0.042-0.688,0.083-1.264,0.878-1.462c0.238-0.06,0.484-0.183,0.665-0.344c0.619-0.564,0.832-1.314,0.617-2.082
	c-0.206-0.737-0.921-0.772-1.567-0.783c-0.315-0.007-0.634,0.046-0.948,0.031c-0.192-0.013-0.353-0.163-0.34-0.373
	c0.043-0.648,0.147-1.306,0.879-1.531c0.987-0.302,1.414-0.964,1.505-1.957c0.071-0.768-0.067-1.057-0.742-1.297
	c-0.438-0.155-0.876-0.164-1.31-0.049c-0.542,0.141-1.071,0.324-1.611,0.494c-0.117-0.221-0.166-0.437-0.3-0.541
	c-0.392-0.307-0.038-0.979-0.483-1.136c-0.516-0.186-1.102-0.214-1.659-0.228c-0.303-0.006-0.606,0.152-0.923,0.014
	c-0.286-0.126-0.58-0.234-0.838-0.338c-0.21-0.401,0.051-0.644,0.226-0.878c0.611-0.816,0.7-1.745,0.639-2.713
	c-0.068-1.063-0.878-1.72-1.917-1.506c-0.3,0.06-0.573,0.253-0.854,0.397c-0.343,0.179-0.613,0.075-0.82-0.212
	c-0.249-0.353,0.003-0.591,0.228-0.812c0.539-0.536,1.095-1.059,1.636-1.595c0.584-0.583,1.181-1.156,1.598-1.877
	c0.253-0.441,0.491-0.887,0.471-1.425c-0.013-0.393-0.364-0.7-0.756-0.668c-0.466,0.038-0.837,0.284-1.222,0.494
	c-0.547,0.302-1.009,0.763-1.692,0.926c-0.357-1.127-0.809-2.179-0.271-3.331c0.069-0.152,0.071-0.43-0.023-0.547
	c-0.836-1.043-0.198-2.303-0.527-3.419c-0.086-0.292-0.001-0.631-0.035-0.947c-0.066-0.615-0.345-0.829-1.034-0.803
	c-0.24,0.013-0.479,0.08-0.703,0.117c-0.282-0.458-0.134-0.911-0.145-1.345c-0.02-0.823,0.002-1.652-0.056-2.473
	c-0.054-0.765-0.278-1.5-0.716-2.14c-0.214-0.311-0.48-0.624-0.92-0.563c-0.457,0.062-0.595,0.455-0.652,0.823
	c-0.208,1.375-0.383,2.751-0.575,4.169c-0.699,0.015-0.755-0.64-1.118-0.922c-0.538-0.421-1.141-0.28-1.324,0.386
	c-0.098,0.364-0.145,0.75-0.167,1.123c-0.038,0.574-0.024,1.145-0.046,1.712c-0.07,1.822-0.15,2.074-1.194,3.814
	c-0.768-1.123-1.48-2.232-2.472-3.104c-0.479-0.424-0.948-0.847-1.558-1.072c-0.376-0.139-0.774,0.128-0.818,0.532
	c-0.066,0.591,0.09,1.136,0.361,1.648c0.535,1.006,1.022,2.047,1.659,2.989c0.631,0.936,0.844,1.802,0.119,2.866
	c-0.553-0.172-1.132-0.384-1.727-0.532c-0.3-0.071-0.631-0.055-0.945-0.038c-0.794,0.042-1.083,0.666-0.576,1.328
	c0.384,0.499,0.827,0.961,1.298,1.383c0.566,0.507,1.174,0.966,1.79,1.412c0.532,0.381,0.695,0.829,0.455,1.445
	c-0.064,0.167-0.015,0.375-0.019,0.564c0.157-0.006,0.217,0.06,0.164,0.19c-0.006,0.015-0.104,0.02-0.126-0.002
	c-0.037-0.035-0.046-0.101-0.068-0.154c-0.278-0.024-0.57-0.243-0.753,0.223c-0.335,0.858-0.365,0.86-0.97,0.774
	c-0.43-0.064-0.847-0.271-1.374-0.066c0.119,0.43,0.243,0.878,0.364,1.323c0.133,0.483,0.261,0.971,0.401,1.456
	c0.158,0.541,0.017,0.924-0.418,1.328c-0.874,0.812-1.773,1.632-2.032,2.89c-0.038,0.185-0.109,0.362-0.139,0.547
	c-0.127,0.808,0.205,1.119,1.053,0.953c0.245-0.046,0.463-0.154,0.725-0.042c0.44,0.189,0.658,0.885,0.307,1.279
	c-0.856,0.962-1.484,2.027-1.714,3.311c-0.067,0.373-0.331,0.525-0.689,0.461c-0.374-0.064-0.738-0.181-1.111-0.245
	c-0.439-0.071-0.875-0.048-1.307,0.106c-0.73,0.26-0.894,0.878-0.379,1.484c0.418,0.488,0.967,0.803,1.49,1.161
	c0.46,0.311,0.461,0.706-0.023,0.8c-0.846,0.17-1.102,0.642-1.158,1.438c-0.056,0.812-0.422,1.588-0.261,2.459
	c-0.422-0.088-0.243-0.362-0.296-0.542c-0.166-0.561-0.437-0.825-0.883-0.779c-0.625,0.062-1.244,0.168-1.866,0.256
	c-0.009,0.152-0.073,0.212-0.184,0.161c-0.013-0.004-0.011-0.097,0.013-0.119c0.038-0.033,0.099-0.042,0.15-0.06
	c0.032-0.642,0.193-1.237,0.507-1.807c0.305-0.556,0.532-1.154,0.569-1.798c0.034-0.564-0.37-0.953-0.945-0.922
	c-0.37,0.02-0.705,0.331-1.205,0.066c0-0.825,0.016-1.707-0.006-2.59c-0.012-0.5-0.057-1.01-0.151-1.506
	c-0.044-0.231-0.248-0.538-0.511-0.479c-0.945,0.205-1.014-0.441-1.121-1.07c-0.188-1.123-0.343-2.254-0.578-3.368
	c-0.102-0.483-0.344-0.944-0.573-1.392c-0.066-0.13-0.315-0.243-0.462-0.227c-0.154,0.02-0.348,0.179-0.418,0.327
	c-0.303,0.637-0.451,1.319-0.469,2.025c-0.034,1.33-0.05,2.663-0.092,3.99c-0.014,0.492,0.126,0.997-0.079,1.472
	c-0.329,0.194-0.472-0.075-0.646-0.234c-0.28-0.256-0.528-0.549-0.823-0.788c-0.394-0.32-0.817-0.631-1.376-0.41
	c-0.393,0.154-0.499,0.673-0.209,1.542c0.336,1.023,0.752,2.018,1.13,3.026c0.18,0.481,0.011,0.662-0.549,0.584
	c-0.312-0.044-0.623-0.154-0.933-0.15c-0.785,0.009-1.202,0.752-0.887,1.491c0.285,0.666,0.92,1.041,1.304,1.617
	c0.054,0.084,0.054,0.267-0.002,0.344c-0.056,0.082-0.22,0.132-0.325,0.115c-0.183-0.031-0.356-0.119-0.532-0.19
	c-0.294-0.112-0.579-0.271-0.886-0.339c-0.366-0.084-0.75-0.128-1.127-0.128c-0.779,0-1.135,0.624-0.739,1.301
	c0.19,0.322,0.419,0.648,0.702,0.891c0.53,0.45,0.43,1.004,0.368,1.568c0.081,0.088,0.235,0.181,0.232,0.267
	c-0.023,0.862-0.259,1.703-0.187,2.581c0.031,0.386-0.276,0.739-0.619,0.875c-0.9,0.36-0.69,1.023-0.556,1.688
	c0.01,0,0.019,0,0.029-0.002c-0.001,0.015,0,0.024,0,0.04c0.039,0.024,0.078,0.051,0.118,0.077
	c-0.086,0.093-0.124,0.062-0.118-0.077c-0.009-0.006-0.017-0.011-0.025-0.018c-0.001-0.007-0.002-0.013-0.003-0.02
	c-0.238,0.02-0.479,0.026-0.713,0.066c-0.335,0.06-0.6,0.253-0.651,0.596c-0.034,0.227,0.055,0.47,0.089,0.706
	c-0.583,0.051-0.766,0.584-1.128,0.904c-0.099,0.088-0.357,0.038-0.524-0.013c-0.188-0.055-0.322-0.223-0.275-0.43
	c0.112-0.499,0.189-0.983-0.009-1.491c-0.041-0.104,0.129-0.32,0.244-0.445c0.195-0.218,0.647-0.254,0.57-0.657
	c-0.059-0.3-0.209-0.6-0.382-0.858c-0.136-0.205-0.419-0.311-0.545-0.516c-0.293-0.483-0.598-0.981-0.305-1.597
	c0.181-0.384,0.118-0.759-0.236-1.015c-0.445-0.324-0.922-0.404-1.398-0.038c-0.193,0.148-0.384,0.298-0.598,0.468
	c-0.454-0.67-0.852-1.313-1.307-1.913c-0.353-0.468-0.954-0.344-1.215,0.196c-0.378,0.777-0.371,1.593-0.259,2.418
	c0.083,0.628,0.214,1.25,0.265,1.879c0.039,0.487-0.417,0.814-0.883,0.677c-0.424-0.122-0.832-0.32-1.263-0.395
	c-0.901-0.161-1.396,0.529-1.092,1.438c0.231,0.686,0.749,1.16,1.179,1.705c0.221,0.28,0.245,0.684-0.131,0.783
	c-0.903,0.24-0.886,0.935-0.943,1.685c-0.164-0.843-0.726-1.39-1.198-1.983c-0.393-0.494-0.9-0.331-1.105,0.304
	c-0.217,0.671-0.259,1.366-0.296,2.063c-0.066,1.183-0.156,2.363-0.233,3.512c-0.461,0.164-0.452-0.201-0.571-0.366
	c-0.184-0.249-0.285-0.571-0.493-0.794c-0.3-0.318-0.654-0.66-1.149-0.514c-0.505,0.148-0.62,0.616-0.622,1.065
	c-0.004,0.823,0.047,1.644,0.078,2.464c0.011,0.291,0.242,0.598-0.102,0.904c-0.432-0.167-0.54-0.618-0.774-0.959
	c-0.252-0.362-0.479-0.744-0.762-1.081c-0.316-0.373-0.847-0.256-1.088,0.196c-0.212,0.399-0.355,0.821-0.335,1.273
	c0.035,0.818,0.031,1.648,0.431,2.404c0.327,0.616,0.623,1.244,0.965,1.851c0.479,0.849,0.431,1.025-0.455,1.012
	c-0.613-0.006-1.066-0.051-1.228,0.763c-0.076,0.386-0.651,0.13-0.97,0.02c-0.274-0.095-0.311-0.386-0.18-0.635
	c0.419-0.79,0.74-1.582,0.741-2.517c0.002-1.339-1.06-1.785-2.042-1.487c-0.297,0.088-0.557,0.324-0.895,0.223
	c-0.116-0.036-0.245-0.097-0.321-0.186c-0.124-0.146-0.182-0.351-0.05-0.514c0.197-0.247,0.427-0.465,0.647-0.69
	c0.664-0.679,1.353-1.336,1.989-2.04c0.467-0.521,0.845-1.11,0.958-1.831c0.081-0.512-0.332-0.904-0.792-0.697
	c-0.518,0.232-1.02,0.51-1.514,0.79c-0.379,0.216-0.738,0.472-1.094,0.701c-0.464-0.214-0.183-0.573-0.265-0.829
	c-0.097-0.3-0.145-0.618-0.266-0.907c-0.133-0.32-0.114-0.6,0.018-0.909c0.267-0.622,0.285-1.207-0.173-1.782
	c-0.125-0.154-0.053-0.477-0.057-0.724c-0.016-0.82-0.006-1.643-0.041-2.464c-0.037-0.852-0.238-0.964-1.241-0.785
	c-0.167,0.029-0.337,0.022-0.583,0.038c0.008-1.944,0.183-3.856-0.452-5.691c-0.149-0.117-0.287-0.251-0.449-0.349
	c-0.5-0.298-0.597-0.28-0.909,0.208c-0.1,0.154-0.149,0.346-0.22,0.521c0.106,1.224-0.26,2.391-0.412,3.583
	c-0.034,0.265-0.366,0.337-0.568,0.13c-0.375-0.377-0.574-1.156-1.289-0.84c-0.578,0.256-0.538,0.964-0.615,1.509
	c-0.083,0.565-0.09,1.145-0.067,1.712c0.051,1.235-0.218,2.365-0.982,3.357c-0.344-0.097-0.46-0.413-0.63-0.673
	c-0.768-1.178-1.642-2.261-2.845-3.031c-0.379-0.243-0.505-0.541-0.25-0.949c0.304-0.487,0.569-0.988,0.597-1.586
	c0.024-0.499-0.362-0.852-0.844-0.724c-0.751,0.196-1.372,0.644-2.019,1.041c-0.47,0.292-0.828,0.781-1.435,0.834
	c-0.001,0.011-0.002,0.018-0.003,0.026c-0.017,0.004-0.025,0.009-0.039,0.011c-0.024,0.053-0.054,0.115-0.059,0.115
	c-0.108-0.042-0.083-0.084,0.059-0.115c0.004-0.011,0.011-0.024,0.015-0.033c0.01-0.002,0.017-0.002,0.027-0.004
	c0.032-0.236,0.056-0.474,0.103-0.706c0.153-0.776-0.511-1.425-0.406-2.14c0.105-0.719,0.539-1.39,0.329-2.166
	c-0.289-0.106-0.739-0.196-0.596-0.576c0.478-1.249,0.051-2.506,0.097-3.754c0.025-0.691-0.6-1.143-1.34-0.708
	c-0.209,0.126-0.438,0.219-0.72,0.353c-0.247-1.032,0.215-1.952,0.125-2.888c-0.09-0.944-0.184-1.888-0.278-2.83
	c-0.434-0.463-0.58-1.136-1.138-1.509c-0.278-0.185-0.643-0.117-0.798,0.183c-0.271,0.523-0.315,1.09-0.386,1.657
	c-0.131,1.07-0.291,2.138-0.456,3.201c-0.016,0.102-0.13,0.223-0.227,0.26c-0.093,0.035-0.268,0.011-0.327-0.055
	c-0.251-0.285-0.448-0.62-0.708-0.891c-0.515-0.542-1.072-0.432-1.322,0.236c-0.227,0.6-0.344,1.22-0.343,1.864
	c0,0.507-0.006,1.013-0.009,1.522c-0.006,1.138-0.013,2.27-0.749,3.251c-0.139,0.183-0.125,0.483-0.181,0.73
	c-0.531,0.046-0.59-0.428-0.775-0.717c-0.797-1.237-1.735-2.351-2.88-3.275c-0.758-0.611-1.424-0.764-1.692-0.406
	c-0.409,0.547-0.126,1.094,0.084,1.617c0.521,1.301,1.136,2.576,1.982,3.677c0.82,1.07,0.837,2.038,0.182,3.121
	c-0.636,0.066-1.087-0.381-1.634-0.476c-0.67-0.122-1.487-0.472-1.94,0.209c-0.484,0.728,0.215,1.275,0.67,1.789
	c0.809,0.913,1.856,1.535,2.796,2.287c0.403,0.325,0.868,0.561,0.438,1.207c-0.093,0.143,0.122,0.467,0.152,0.71
	c0.06,0.459-0.184,0.527-0.566,0.413c-0.11-0.033-0.336-0.016-0.346,0.02c-0.34,1.275-1.284,0.926-2.142,0.81
	c-0.185-0.026-0.371-0.053-0.699-0.102c0.37,1.085,0.72,2.093,1.057,3.112c0.174,0.521,0.141,0.949-0.407,1.304
	c-0.635,0.413-1.137,0.995-1.614,1.593c-0.578,0.724-0.811,1.562-0.865,2.453c-0.041,0.673,0.276,0.9,0.925,0.734
	c0.059-0.013,0.112-0.062,0.173-0.075c0.751-0.192,0.931-0.126,1.271,0.406c0.294,0.457,0.194,0.801-0.209,1.154
	c-0.332,0.287-0.578,0.673-0.887,0.988c-0.793,0.818-0.511,2.06-1.171,2.925c-0.996-0.135-1.971-0.5-3.002-0.26
	c-0.762,0.176-0.997,0.814-0.527,1.427c0.516,0.677,1.263,1.05,1.937,1.52c0.334,0.234,0.299,0.544-0.074,0.719
	c-0.229,0.104-0.465,0.214-0.71,0.263c-0.449,0.09-0.619,0.393-0.692,0.792c-0.023,0.125-0.066,0.253-0.064,0.377
	c0.022,1.185-0.591,1.871-1.813,2.226c0.064-1.01-0.667-1.908-0.137-2.923c0.052-0.102,0.063-0.273,0.013-0.371
	c-0.57-1.125-0.316-2.338-0.406-3.514c-0.071-0.917-0.145-0.973-1.21-0.783c-0.116,0.022-0.238,0.002-0.464,0.002
	c0.032-0.633,0.064-1.247,0.097-1.864c0.054-0.964-0.107-1.897-0.44-2.801c-0.086-0.231-0.236-0.455-0.406-0.633
	c-0.119-0.124-0.331-0.247-0.485-0.227c-0.15,0.018-0.36,0.19-0.405,0.335c-0.141,0.485-0.237,0.986-0.316,1.487
	c-0.081,0.499-0.117,1.006-0.182,1.511c-0.032,0.243,0.003,0.539-0.258,0.668c-0.429,0.214-0.494-0.247-0.707-0.428
	c-0.096-0.086-0.171-0.19-0.268-0.269c-0.345-0.274-0.74-0.166-0.911,0.269c-0.646,1.647-1.325,3.287-1.33,5.104
	c0,0.035-0.074,0.07-0.207,0.198c-0.384-0.468-0.756-0.953-1.166-1.405c-0.551-0.615-1.095-1.246-1.861-1.608
	c-0.231-0.112-0.508-0.166-0.689,0.064c-0.104,0.13-0.176,0.369-0.132,0.519c0.159,0.547,0.339,1.092,0.576,1.606
	c0.24,0.516,0.549,1.001,0.845,1.491c0.31,0.514,0.577,0.986-0.122,1.445c-0.16,0.104-0.167,0.452-0.229,0.697
	c-0.067,0.26-0.164,0.475-0.492,0.443c-0.334-0.031-0.61-0.156-0.745-0.49c-0.021-0.051,0.003-0.121-0.008-0.181
	c-0.196-1.035-0.35-1.165-1.28-1.017c-0.244,0.038-0.494,0.117-0.703,0.243c-0.221,0.128-0.407,0.298-0.769,0.157
	c-0.01-0.825-0.366-1.67-0.029-2.55c0.041-0.108,0.063-0.296,0.003-0.357c-0.751-0.768,0.067-1.375,0.215-2.039
	c0.074-0.339,0.419-0.426,0.723-0.545c0.287-0.112,0.581-0.271,0.793-0.487c0.546-0.558,0.583-1.291,0.349-1.959
	c-0.217-0.613-0.848-0.684-1.447-0.675c-0.436,0.006-0.877,0.192-1.401-0.073c0.115-0.927,0.246-1.789,1.417-2.093
	c0.667-0.177,0.983-0.75,1.079-1.434c0.146-1.052-0.442-1.708-1.521-1.628c-0.373,0.029-0.739,0.163-1.104,0.267
	c-0.3,0.083-0.593,0.192-0.958,0.311c-0.059-0.556-0.908-0.702-0.636-1.432c0.083-0.221-0.097-0.344-0.292-0.353
	c-0.564-0.031-1.135-0.082-1.696-0.038c-0.473,0.038-0.869-0.122-1.283-0.278c-0.351-0.135-0.505-0.353-0.333-0.724
	c0.239-0.514,0.619-0.964,0.698-1.553c0.06-0.437,0.2-0.875,0.175-1.308c-0.077-1.358-0.932-1.89-2.203-1.579
	c-0.303,0.07-0.587,0.247-0.891,0.289c-0.147,0.022-0.384-0.122-0.468-0.26c-0.082-0.13-0.097-0.421-0.008-0.523
	c0.417-0.479,0.876-0.918,1.325-1.366c0.675-0.673,1.372-1.321,1.89-2.135c0.277-0.43,0.509-0.871,0.577-1.394
	c0.079-0.611-0.373-1.026-0.925-0.772c-0.631,0.289-1.222,0.668-1.83,1.008c-0.369,0.208-0.701,0.543-1.183,0.364
	c0,0.004,0,0.009,0,0.011c-0.007,0.009-0.013,0.016-0.02,0.022c0.022,0.09,0.054,0.183,0.047,0.271
	c-0.015,0.152-0.119,0.196-0.237,0.11c-0.029-0.022-0.038-0.119-0.014-0.157c0.057-0.079,0.133-0.15,0.203-0.225
	c-0.004-0.013-0.009-0.029-0.012-0.044c0.012,0.004,0.021,0.007,0.032,0.011c-0.002-0.375,0.098-0.79-0.036-1.11
	c-0.28-0.675-0.446-1.29-0.046-1.979c0.112-0.196,0.171-0.611,0.056-0.724c-1.08-1.07-0.105-2.384-0.455-3.534
	c-0.087-0.291,0.009-0.631-0.029-0.944c-0.083-0.697-0.527-0.948-1.209-0.69c-0.229,0.088-0.431,0.241-0.645,0.362
	c-0.423-0.421-0.223-0.871-0.141-1.262c0.27-1.279,0.086-2.521-0.177-3.763c-0.119-0.565-0.359-1.081-0.717-1.535
	c-0.166-0.21-0.38-0.384-0.636-0.349c-0.263,0.033-0.427,0.258-0.469,0.527c-0.154,1-0.306,1.999-0.448,3.002
	c-0.087,0.616-0.028,1.273-0.472,1.798c-0.499-0.163-0.526-0.688-0.808-1.01c-0.208-0.241-0.412-0.507-0.772-0.463
	c-0.363,0.044-0.542,0.331-0.603,0.644c-0.134,0.68-0.25,1.368-0.318,2.058c-0.049,0.501,0.007,1.013-0.019,1.518
	c-0.041,0.816-0.037,1.634-0.625,2.325c-0.187,0.218-0.189,0.593-0.279,0.896c-0.465-0.053-0.537-0.47-0.735-0.756
	c-0.576-0.834-1.14-1.681-1.897-2.365c-0.42-0.382-0.889-0.71-1.352-1.037c-0.263-0.186-0.586-0.329-0.879-0.117
	c-0.366,0.263-0.323,0.664-0.187,1.032c0.196,0.536,0.379,1.079,0.64,1.582c0.406,0.787,0.824,1.575,1.322,2.305
	c0.663,0.966,0.913,1.926,0.262,3.002c-0.608,0.167-1.058-0.309-1.6-0.419c-0.616-0.124-1.259-0.32-1.811,0.15
	c-0.357,0.302-0.112,1.054,0.689,1.789c0.791,0.726,1.662,1.365,2.515,2.019c0.477,0.364,0.856,0.717,0.504,1.39
	c-0.062,0.119,0.114,0.348,0.15,0.531c0.074,0.384-0.174,0.43-0.448,0.353c-0.3-0.083-0.512-0.026-0.533,0.298
	c-0.047,0.69-1.031,0.426-1.114,1.123c-0.018,0.147-0.281,0.002-0.363-0.19c-0.151-0.353-0.446-0.375-0.768-0.32
	c0.06,0.889,0.253,1.734,0.621,2.552c0.22,0.49,0.168,0.933-0.347,1.321c-0.495,0.375-0.866,0.909-1.314,1.35
	c-0.525,0.516-0.727,1.18-0.893,1.855c-0.09,0.371-0.127,0.783,0.114,1.101c0.302,0.406,0.681,0.124,1.018,0.009
	c0.443-0.148,0.729,0.064,0.958,0.397c0.242,0.353,0.224,0.684-0.06,1.03c-0.438,0.534-0.88,1.067-1.257,1.643
	c-0.406,0.622-0.115,1.637-0.782,2.021c-0.587,0.339-1.331-0.232-2.029-0.221c-0.188,0-0.379,0.029-0.563,0.066
	c-0.869,0.186-1.141,0.914-0.527,1.531c0.395,0.401,0.89,0.699,1.339,1.048c0.194,0.152,0.378,0.315,0.536,0.448
	c-0.037,0.275-0.151,0.432-0.343,0.47c-0.978,0.188-1.317,0.874-1.389,1.763c-0.061,0.752-0.095,1.504-0.149,2.371
	c-0.662-0.093-1.257-0.212-1.857-0.245c-0.709-0.042-1.009,0.211-1.147,0.931c-0.119,0.622-0.19,1.251-0.274,1.877
	c-0.1,0.752,0.085,1.378,0.821,1.736c0.794,0.386,0.077,0.704,0.016,1.101c-0.14,0.902-0.783,0.995-1.516,1.308
	c0.04-0.573,0.061-1.008,0.099-1.442c0.052-0.58,0.081-1.094-0.469-1.542c-0.305-0.249-0.496-0.759-0.128-1.198
	c0.172-0.205,0.293-0.428,0.208-0.688c-0.225-0.682-0.107-1.378-0.126-2.073c-0.025-0.946-0.027-0.946-1.082-1.112
	c-0.182-0.031-0.369-0.049-0.542-0.108c-0.26-0.088-0.441-0.608-0.243-0.785c0.339-0.298,0.621-0.573,0.683-1.07
	c0.081-0.664,0.093-1.244-0.558-1.667c-0.186-0.124-0.262-0.413-0.388-0.626c-0.815,0.137-1.364,0.845-2.19,0.995
	c-0.613,0.11-0.773,0.051-0.839-0.584c-0.026-0.247-0.061-0.497-0.052-0.743c0.003-0.106,0.114-0.305,0.161-0.3
	c1.268,0.112,1.871-1.16,2.958-1.412c0.321-0.607,0.071-1.238,0.063-1.851c-0.004-0.419-0.334-0.622-0.797-0.593
	c-0.714,0.046-1.34,0.357-1.981,0.626c-0.095,0.042-0.251,0-0.351-0.053c-0.21-0.115-0.184-0.318-0.095-0.488
	c0.147-0.278,0.322-0.542,0.495-0.81c0.576-0.887,0.582-0.891-0.432-1.429c-0.228-0.122-0.455-0.201-0.479-0.507
	c-0.046-0.569-0.103-1.134-0.16-1.701c-0.05-0.503,0.274-0.823,0.567-1.154c0.382-0.43,0.71-0.869,0.757-1.487
	c0.066-0.896-0.083-1.235-1.033-1.458c-0.588-0.135-0.679-0.439-0.669-0.927c0.034-1.394,0.076-2.788,0.068-4.18
	c-0.002-0.563-0.089-1.136-0.205-1.689c-0.06-0.292-0.208-0.616-0.601-0.631c-0.277-0.011-0.501,0.152-0.62,0.371
	c-0.302,0.549-0.674,1.101-0.815,1.698c-0.217,0.924-0.717,1.445-1.62,1.622c0,40.124,0,80.247,0,120.38
	c273.931,0,547.861,0,821.792,0c0-45.852,0-91.688,0-137.525C832.407,246.681,832.18,246.904,832.027,247.171z"/>
</svg>
