<?xml version="1.0" encoding="utf-8"?>
<!-- Generator: Adobe Illustrator 16.0.0, SVG Export Plug-In . SVG Version: 6.00 Build 0)  -->
<!DOCTYPE svg PUBLIC "-//W3C//DTD SVG 1.1//EN" "http://www.w3.org/Graphics/SVG/1.1/DTD/svg11.dtd">
<svg version="1.1" id="Layer_1" xmlns="http://www.w3.org/2000/svg" xmlns:xlink="http://www.w3.org/1999/xlink" x="0px" y="0px"
	 width="841.89px" height="595.28px" viewBox="0 0 841.89 595.28" enable-background="new 0 0 841.89 595.28" xml:space="preserve">
<g>
	<path fill-rule="evenodd" clip-rule="evenodd" fill="#4E4D50" d="M829.634,216.751l-6.804-1.75l6.804,6.993v48.637l-1.268-0.298
		l1.268,1.55v29.172v60.233v22.283H12.686v-22.283V312.98v-41.097l1.269-1.55l-1.269,0.298v-48.637l6.803-6.993l-6.803,1.75v-1.144
		l7.265-37.957l8.085,42.255l-7.593,1.087l8.865,5.564l5.796,30.288l5.042-26.345l6.745-6.938l-5.699,1.47l6.073-31.735
		l6.554,34.245l-6.156,0.881l7.187,4.51l6.654,34.773l0.414,2.157l-9.77,1.605l11.952,9.804l3.846,20.099l10.595-12.936
		l-9.966,2.359l0.586-3.06l7.119-37.206l6.746-6.934l-5.699,1.467l6.072-31.735l6.554,34.247l-6.154,0.878l7.186,4.51l6.652,34.773
		l0.415,2.157l-9.768,1.603l11.949,9.802l2.369,12.381l1.154-6.021l9.819-11.988l-7.883,1.861l0.463-2.418l5.632-29.426l5.336-5.484
		l-4.509,1.159l4.803-25.101l5.185,27.084l-4.868,0.698l5.682,3.566l5.263,27.504l0.327,1.707l-7.727,1.27l9.454,7.754l1.314,6.877
		l0.77-4.026l8.479-10.348l-6.805,1.607l0.399-2.088l4.861-25.397l4.605-4.733l-3.891,1l4.145-21.666l4.476,23.379l-4.202,0.6
		l4.905,3.077l4.543,23.74l0.283,1.477l-6.67,1.094l8.158,6.69l4.14,21.636l4.111,0.415l3.308-17.293l8.478-10.346l-6.804,1.609
		l0.399-2.09l4.861-25.397l4.604-4.736l-3.89,1.002l4.143-21.666l4.474,23.377l-4.199,0.603l4.904,3.079l4.542,23.738l0.282,1.472
		l-6.668,1.096l8.159,6.695l1.9,9.929l0.524-2.744l8.478-10.351l-6.806,1.611l0.4-2.092l4.861-25.397l4.605-4.733l-3.891,1.002
		l4.146-21.666l4.474,23.377l-4.203,0.603l4.908,3.079l4.541,23.736l0.284,1.479l-6.669,1.092l8.159,6.693l1.765,9.228l1.538-8.039
		l7.195-8.784l-5.774,1.365l0.339-1.771l4.126-21.555l3.908-4.021l-3.301,0.85l3.519-18.389l3.796,19.843l-3.565,0.507l4.162,2.616
		l3.857,20.148l0.238,1.252l-5.661,0.931l6.926,5.68l1.54,8.045l0.226-1.181l4.86-25.396l4.606-4.738l-3.893,1.004l4.147-21.664
		l4.474,23.375l-4.202,0.603l4.904,3.079l4.543,23.738l0.284,1.473l-6.671,1.098l8.159,6.69l1.702,8.883l4.543-0.45l3.482-18.185
		l7.193-8.784l-5.775,1.369l0.339-1.773l4.126-21.558l3.909-4.021l-3.304,0.851l3.521-18.392l3.796,19.846l-3.566,0.513l4.164,2.609
		l3.856,20.151l0.238,1.25l-5.659,0.929l6.924,5.684l1.783,9.319l7.195-8.784l-5.775,1.363l0.34-1.772l4.124-21.557l3.91-4.021
		l-3.302,0.85l3.52-18.389l3.796,19.844l-3.565,0.511l4.163,2.611l3.855,20.15l0.239,1.253l-5.66,0.928l6.926,5.682l1.27,6.635
		l0.523-2.727l5.547-6.775l-4.452,1.057l0.26-1.37l3.181-16.626l3.012-3.101l-2.544,0.659l2.713-14.182l2.929,15.302l-2.75,0.394
		l3.21,2.013l2.974,15.541l0.186,0.965l-4.366,0.716l5.34,4.384l2.468,12.892l11.113-1.328l2.03-10.604l5.549-6.775l-4.454,1.055
		l0.263-1.366l3.18-16.627l3.015-3.099l-2.549,0.654l2.715-14.182l2.929,15.306l-2.751,0.392l3.212,2.016l2.973,15.54l0.185,0.964
		l-4.367,0.715l5.342,4.382l2.047,10.702l2.944-15.382l5.549-6.773l-4.454,1.053l0.262-1.368l3.18-16.625l3.016-3.099l-2.548,0.657
		l2.713-14.182l2.929,15.301l-2.751,0.394l3.212,2.016l2.975,15.538l0.185,0.966l-4.366,0.716l5.339,4.383l2.441,12.747
		l2.434-12.729l5.548-6.771l-4.453,1.055l0.261-1.368l3.184-16.625l3.013-3.102l-2.545,0.659l2.714-14.186l2.928,15.304l-2.75,0.394
		l3.211,2.016l2.973,15.54l0.184,0.966l-4.364,0.715l5.34,4.38l2.211,11.555l2.579-13.473l5.548-6.773l-4.454,1.055l0.262-1.365
		l3.181-16.631l3.016-3.098l-2.546,0.657l2.712-14.184l2.928,15.304l-2.75,0.394l3.211,2.014l2.974,15.545l0.184,0.961l-4.366,0.717
		l4.485,3.68l4.485-3.68l-4.366-0.717l0.184-0.961l2.973-15.545l3.213-2.014l-2.75-0.394l2.929-15.304l2.714,14.184l-2.549-0.657
		l3.017,3.098l3.181,16.631l0.261,1.365l-4.453-1.055l5.549,6.773l2.579,13.473l2.209-11.555l5.341-4.38l-4.362-0.715l0.183-0.966
		l2.973-15.54l3.212-2.016l-2.749-0.394l2.927-15.304l2.714,14.186l-2.544-0.659l3.014,3.102l3.182,16.625l0.261,1.368l-4.455-1.055
		l5.549,6.771l2.436,12.729l2.439-12.747l5.34-4.383l-4.366-0.716l0.186-0.966l2.975-15.538l3.211-2.016l-2.75-0.394l2.929-15.301
		l2.714,14.182l-2.549-0.657l3.016,3.099l3.182,16.625l0.261,1.368l-4.453-1.053l5.549,6.773l2.944,15.382l2.049-10.702l5.34-4.382
		l-4.366-0.715l0.185-0.964l2.973-15.54l3.214-2.016l-2.753-0.392l2.929-15.306l2.714,14.182l-2.546-0.654l3.014,3.099l3.179,16.627
		l0.266,1.366l-4.456-1.055l5.552,6.775l2.609,13.646l14.831,1.067l2.343-1.987l-6.926,0.688l2.75-14.373l5.341-4.384l-4.364-0.716
		l0.185-0.965l2.975-15.541l3.21-2.013l-2.749-0.394l2.927-15.302l2.714,14.182l-2.544-0.659l3.014,3.101l3.18,16.626l0.261,1.37
		l-4.453-1.057l5.549,6.775l0.521,2.727l1.271-6.635l6.925-5.682l-5.66-0.928l0.239-1.253l3.855-20.15l4.164-2.611l-3.566-0.511
		l3.797-19.844l3.519,18.389l-3.301-0.85l3.909,4.021l4.123,21.557l0.341,1.772l-5.774-1.363l7.194,8.784l1.783-9.319l6.923-5.684
		l-5.657-0.929l0.239-1.25l3.857-20.151l4.162-2.609l-3.566-0.513l3.797-19.846l3.52,18.392l-3.303-0.851l3.907,4.021l4.128,21.558
		l0.341,1.773l-5.775-1.369l7.193,8.784l3.827,20.007l-9.507-4.753l9.133,11.415l3.039-0.03l3.231-16.887l8.16-6.69l-6.668-1.098
		l0.282-1.473l4.542-23.738l4.903-3.079l-4.2-0.603l4.475-23.375l4.146,21.664l-3.89-1.004l4.603,4.738l4.86,25.396l0.226,1.181
		l1.54-8.045l6.928-5.68l-5.662-0.931l0.239-1.252l3.857-20.148l4.161-2.616l-3.565-0.507l3.796-19.843l3.521,18.389l-3.303-0.85
		l3.909,4.021l4.125,21.555l0.339,1.771l-5.772-1.365l7.192,8.784l1.538,8.039l1.768-9.228l8.158-6.693l-6.671-1.092l0.282-1.479
		l4.545-23.736l4.905-3.079l-4.203-0.603l4.475-23.377l4.145,21.666l-3.89-1.002l4.605,4.733l4.862,25.397l0.399,2.092l-6.806-1.611
		l8.476,10.351l0.526,2.744l1.9-9.929l8.156-6.695l-6.667-1.096l0.281-1.472l4.542-23.738l4.905-3.079l-4.198-0.603l4.473-23.377
		l4.145,21.666l-3.891-1.002l4.605,4.736l4.862,25.397l0.397,2.09l-6.804-1.609l8.476,10.346l4.049,21.159l11.607-3.072l2.279-1.936
		l-10.577,1.051l4.201-21.96l8.158-6.69l-6.669-1.094l0.283-1.477l4.544-23.74l4.905-3.077l-4.203-0.6l4.476-23.379l4.145,21.666
		l-3.891-1l4.605,4.733l4.86,25.397l0.4,2.088l-6.807-1.607l8.48,10.348l0.77,4.026l1.315-6.877l9.452-7.754l-7.726-1.27
		l0.328-1.707l5.263-27.504l5.684-3.566l-4.871-0.698l5.187-27.084l4.803,25.101l-4.507-1.159l5.334,5.484l5.634,29.426l0.463,2.418
		l-7.885-1.861l9.82,11.988l1.152,6.021l2.37-12.381l11.95-9.802l-9.768-1.603l0.413-2.157l6.654-34.773l7.184-4.51l-6.153-0.878
		l6.554-34.247l6.071,31.735l-5.697-1.467l6.745,6.934l7.119,37.206l0.587,3.06l-9.968-2.359l10.594,12.936l3.849-20.099
		l11.95-9.804l-9.767-1.605l0.413-2.157l6.653-34.773l7.185-4.51l-6.154-0.881l6.555-34.245l6.07,31.735l-5.697-1.47l6.745,6.938
		l5.043,26.345l5.795-30.288l8.864-5.564l-7.59-1.087l8.084-42.255l7.265,37.957V216.751z"/>
	<path fill-rule="evenodd" clip-rule="evenodd" d="M829.634,354.742v8.1v11.021v13.862v29.452H12.686v-29.452v-13.862v-11.021v-8.1
		V344.05l1.865,0.944l3.026-15.819l12.417-15.157l-9.966,2.359l0.584-3.058l7.121-37.207l6.746-6.936l-5.7,1.468l6.073-31.736
		l6.554,34.247l-6.154,0.88l7.185,4.508l6.653,34.775l0.415,2.154l-9.769,1.607l11.95,9.802l1.638,8.553L63.919,322.5l-9.966,2.356
		l0.585-3.06l7.119-37.204l6.746-6.934l-5.701,1.465l6.073-31.735l6.554,34.245l-6.153,0.881l7.184,4.507l6.656,34.775l0.413,2.162
		l-9.767,1.6l11.948,9.803l0.582,3.035l8.889-10.85l-7.883,1.86l0.462-2.417l5.632-29.427l5.337-5.486l-4.51,1.159l4.803-25.101
		l5.184,27.088l-4.868,0.694l5.685,3.568l5.262,27.505l0.326,1.706l-7.726,1.271l9.452,7.754l4.871,25.44l-12.254-1.216
		l11.538,9.796l4.49-23.466l8.475-10.349l-6.803,1.609l0.399-2.088l4.861-25.398l4.606-4.736l-3.893,1.007l4.146-21.67l4.475,23.383
		l-4.202,0.601l4.906,3.077l4.542,23.737l0.282,1.475l-6.667,1.098l8.158,6.688l4.202,21.96l-10.575-1.051l10.576,8.982
		l2.703-14.113l8.476-10.349l-6.805,1.609l0.4-2.088l4.861-25.398l4.604-4.736l-3.891,1l4.146-21.663l4.474,23.379l-4.201,0.601
		l4.904,3.078l4.543,23.74l0.283,1.471l-6.668,1.096l8.093,6.641l1.331-6.963l8.478-10.35l-6.804,1.608l0.4-2.087l4.86-25.397
		l4.605-4.735l-3.891,1.002l4.146-21.666l4.474,23.376l-4.203,0.601l4.905,3.079l4.543,23.74l0.283,1.472l-6.669,1.096l8.158,6.693
		l3.359,17.552l2.571-13.436l8.475-10.348l-6.805,1.61l0.402-2.089l4.86-25.401l4.605-4.734l-3.891,1.003l4.146-21.666l4.472,23.379
		l-4.201,0.601l4.905,3.079l4.542,23.74l0.283,1.474l-6.67,1.094l8.159,6.693l2.131,11.128l0.208-1.087l7.194-8.784l-5.775,1.363
		l0.34-1.771l4.126-21.557l3.91-4.021l-3.304,0.853l3.52-18.394l3.797,19.846l-3.566,0.507l4.165,2.613l3.855,20.152l0.239,1.251
		l-5.661,0.928l6.924,5.682l2.368,12.368l2.402-12.553l7.195-8.784l-5.774,1.367l0.337-1.774l4.127-21.557l3.91-4.022l-3.303,0.852
		l3.518-18.389l3.799,19.844l-3.566,0.511l4.164,2.614l3.855,20.147l0.239,1.253l-5.661,0.929l6.926,5.682l3.176,16.595l0.794,1.735
		l2.72-14.214l7.195-8.785l-5.775,1.365l0.34-1.771l4.124-21.562l3.911-4.017l-3.303,0.851l3.519-18.392l3.796,19.844l-3.565,0.509
		l4.163,2.614l3.855,20.152l0.239,1.248l-5.66,0.931l6.925,5.682l1.613,8.431l1.67-8.727l5.55-6.777l-4.454,1.055l0.262-1.368
		l3.18-16.623l3.016-3.103l-2.547,0.656l2.714-14.182l2.928,15.304l-2.75,0.394l3.211,2.016l2.973,15.538l0.186,0.964l-4.365,0.717
		l5.341,4.382l2.75,14.375l-6.922-0.689l7.516,6.387l7.189-8.98l-7.333,3.664l2.952-15.43l5.549-6.771l-4.455,1.053l0.264-1.366
		l3.18-16.627l3.015-3.097l-2.546,0.654l2.712-14.184l2.929,15.306l-2.75,0.392l3.211,2.014l2.974,15.542l0.184,0.966l-4.365,0.716
		l4.61,3.781l2.995-15.654l3.015-3.098l-2.547,0.654l2.713-14.182l2.928,15.306l-2.75,0.396l3.212,2.012l2.972,15.54l0.186,0.964
		l-4.365,0.715l5.34,4.382l2.427,12.683l6.756-8.442l-7.332,3.663l2.955-15.427l5.547-6.775l-4.455,1.055l0.262-1.37l3.181-16.623
		l3.014-3.099l-2.545,0.656l2.712-14.186l2.93,15.306l-2.75,0.394l3.209,2.016l2.975,15.536l0.183,0.968l-4.364,0.715l5.341,4.382
		l1.582,8.263l4.777-5.834l-4.452,1.055l0.26-1.368l3.181-16.625l3.015-3.101l-2.547,0.656l2.714-14.182l2.929,15.304l-2.751,0.392
		l3.212,2.018l2.975,15.538l0.185,0.966l-4.366,0.715l5.339,4.382l1.736,9.065l2.407-12.584l5.55-6.772l-4.453,1.052l0.261-1.365
		l3.18-16.628l3.016-3.099l-2.546,0.657l2.711-14.187l2.929,15.309l-2.75,0.391l3.212,2.019l2.975,15.538l0.184,0.963l-4.365,0.718
		l5.339,4.382l2.143,11.189v-12.244l3.315-2.721l-3.315-0.546v-5.657l2.109-11.021l3.21-2.016l-2.751-0.391l2.929-15.304
		l2.714,14.182l-2.547-0.657l3.015,3.101l0.747,3.907l0.747-3.907l3.016-3.101l-2.548,0.657l2.714-14.182l2.931,15.304l-2.753,0.391
		l3.212,2.016l2.106,11.021v5.657l-3.313,0.546l3.313,2.721v12.244l2.145-11.189l5.34-4.382l-4.366-0.718l0.186-0.963l2.974-15.538
		l3.212-2.019l-2.75-0.391l2.929-15.309l2.714,14.187l-2.549-0.657l3.016,3.099l3.182,16.628l0.261,1.365l-4.453-1.052l5.549,6.772
		l2.407,12.584l1.737-9.065l5.338-4.382l-4.363-0.715l0.183-0.966l2.975-15.538l3.211-2.018l-2.75-0.392l2.927-15.304l2.716,14.182
		l-2.547-0.656l3.014,3.101l3.182,16.625l0.261,1.368l-4.453-1.055l4.777,5.834l1.583-8.263l5.34-4.382l-4.366-0.715l0.186-0.968
		l2.975-15.536l3.209-2.016l-2.751-0.394l2.932-15.306l2.714,14.186l-2.549-0.656l3.016,3.099l3.182,16.623l0.261,1.37l-4.453-1.055
		l5.547,6.775l2.955,15.427l-7.332-3.663l6.756,8.442l2.427-12.683l5.34-4.382l-4.363-0.715l0.185-0.964l2.972-15.54l3.212-2.012
		l-2.75-0.396l2.929-15.306l2.714,14.182l-2.547-0.654l3.014,3.098l2.997,15.654l4.609-3.781l-4.366-0.716l0.183-0.966l2.975-15.542
		l3.209-2.014l-2.748-0.392l2.929-15.306l2.712,14.184l-2.544-0.654l3.014,3.097l3.179,16.627l0.266,1.366l-4.456-1.053l5.55,6.771
		l2.95,15.43l-7.332-3.664l7.188,8.98l7.517-6.387l-6.923,0.689l2.751-14.375l5.34-4.382l-4.366-0.717l0.188-0.964l2.975-15.538
		l3.209-2.016l-2.751-0.394l2.93-15.304l2.713,14.182l-2.546-0.656l3.016,3.103l3.18,16.623l0.261,1.368l-4.453-1.055l5.549,6.777
		l1.67,8.727l1.613-8.431l6.928-5.682l-5.662-0.931l0.239-1.248l3.857-20.152l4.162-2.614l-3.564-0.509l3.795-19.844l3.52,18.392
		l-3.303-0.851l3.91,4.017l4.125,21.562l0.341,1.771l-5.775-1.365l7.193,8.785l3.074,16.063l5.145,0.865l3.884-3.299l-8.979,0.892
		l3.566-18.637l6.926-5.682l-5.662-0.929l0.241-1.253l3.855-20.147l4.164-2.614l-3.566-0.511l3.799-19.844l3.519,18.389
		l-3.301-0.852l3.907,4.022l4.124,21.557l0.34,1.774l-5.775-1.367l7.197,8.784l2.4,12.553l2.366-12.368l6.928-5.682l-5.662-0.928
		l0.239-1.251l3.854-20.152l4.167-2.613l-3.568-0.507l3.801-19.846l3.518,18.394l-3.305-0.853l3.909,4.021l4.127,21.557l0.34,1.771
		l-5.775-1.363l7.192,8.784l0.209,1.087l2.131-11.128l8.158-6.693l-6.668-1.094l0.282-1.474l4.542-23.74l4.906-3.079l-4.201-0.601
		l4.473-23.379l4.146,21.666l-3.893-1.003l4.605,4.734l4.862,25.401l0.4,2.089l-6.806-1.61l8.476,10.348l2.569,13.434l3.362-17.55
		l8.158-6.693l-6.671-1.096l0.282-1.472l4.545-23.74l4.905-3.079l-4.203-0.601l4.473-23.376l4.148,21.666l-3.892-1.002l4.605,4.735
		l4.859,25.397l0.402,2.087l-6.806-1.608l8.478,10.35l1.331,6.963l8.094-6.641l-6.67-1.096l0.283-1.471l4.54-23.74l4.91-3.078
		l-4.201-0.601l4.473-23.379l4.146,21.663l-3.892-1l4.605,4.736l4.859,25.398l0.4,2.088l-6.804-1.609l8.476,10.349l2.7,14.113
		l10.577-8.982l-10.574,1.051l4.2-21.96l8.161-6.688l-6.669-1.098l0.282-1.475l4.54-23.737l4.908-3.077l-4.206-0.601l4.476-23.383
		l4.148,21.67l-3.895-1.007l4.608,4.736l4.861,25.398l0.398,2.088l-6.804-1.609l8.476,10.349l4.492,23.466l11.535-9.796
		l-12.253,1.216l4.869-25.44l9.452-7.754l-7.727-1.271l0.329-1.706l5.262-27.505l5.684-3.568l-4.868-0.694l5.184-27.088
		l4.804,25.101l-4.51-1.159l5.336,5.486l5.632,29.427l0.463,2.417l-7.882-1.86l8.889,10.85l0.578-3.035l11.951-9.803l-9.768-1.6
		l0.413-2.162l6.658-34.775l7.18-4.507l-6.151-0.881l6.556-34.245l6.071,31.735l-5.702-1.465l6.748,6.934l7.121,37.204l0.582,3.06
		L778.4,322.5l10.596,12.936l1.636-8.553l11.95-9.802l-9.768-1.607l0.415-2.154l6.651-34.775l7.185-4.508l-6.151-0.88l6.552-34.247
		l6.075,31.736l-5.701-1.468l6.745,6.936l7.123,37.207l0.583,3.058l-9.968-2.359l12.42,15.157L829.634,354.742z"/>
</g>
</svg>
